<svg xmlns="http://www.w3.org/2000/svg" viewBox="0 0 111.64 111.7"><defs><style>.cls-1{fill:#b3b3b3;}.cls-2{fill:#c4c4c6;}.cls-3{fill:#999;}.cls-4{fill:#dbdbdb;opacity:0.65;}</style></defs><title>stone</title><g id="Layer_2" data-name="Layer 2"><g id="Layer_1-2" data-name="Layer 1"><polygon class="cls-1" points="111.64 111.7 0.01 111.64 0 0 111.25 0 111.64 111.7"/><path class="cls-2" d="M66.84,65.75c-1.39,3,4.94,19.72,4.73,21.52-.43,3.59-1.6,13.48.88,15.59s30.54,3.63,32.55,2-.08-14.59.45-19.08c.75-6.29,1-16.28-1.46-18.39s-16.28-1-18.07-1.24S68.06,63.17,66.84,65.75Z"/><path class="cls-3" d="M66.93,65.8A5.11,5.11,0,0,0,66.81,68c.09.75.22,1.51.38,2.25.34,1.49.73,3,1.21,4.42.91,2.91,1.94,5.79,2.92,8.7.25.73.49,1.46.71,2.22a11.21,11.21,0,0,1,.28,1.2,2.71,2.71,0,0,1,0,.75l0,.57c-.13,1.52-.25,3-.34,4.54s-.14,3-.1,4.5a14.51,14.51,0,0,0,.61,4.21,3,3,0,0,0,.42.74l.11.15a.36.36,0,0,1,.12.08c.1.06.27.13.4.2a17.11,17.11,0,0,0,2.09.61c1.47.33,3,.58,4.47.81,3,.46,6,.79,9.1,1s6.1.31,9.15.27c1.52,0,3-.09,4.54-.27.37,0,.75-.1,1.1-.18a2,2,0,0,0,.8-.3,3.72,3.72,0,0,0,.49-1.86,71,71,0,0,0-.41-9.05c-.12-1.53-.25-3.06-.32-4.61,0-.78-.06-1.56,0-2.36s.14-1.58.2-2.33a68.21,68.21,0,0,0,.22-9,29.64,29.64,0,0,0-.5-4.38,8.65,8.65,0,0,0-.61-1.92,1.67,1.67,0,0,0-1.08-1,17,17,0,0,0-4.19-.71c-1.49-.12-3-.15-4.52-.18l-4.57,0c-.76,0-1.53,0-2.3,0-.4,0-.78,0-1.23-.07l-1.16-.22c-3-.59-6-1.14-9-1.53a41,41,0,0,0-4.56-.34,15.63,15.63,0,0,0-2.27.12,5.77,5.77,0,0,0-1.09.26A1.41,1.41,0,0,0,66.93,65.8Zm-.18-.09a1.62,1.62,0,0,1,1-.72,5.61,5.61,0,0,1,1.14-.29,19.62,19.62,0,0,1,2.3-.18c1.54,0,3.07,0,4.61.09,3.07.15,6.13.46,9.17.78.38,0,.78.09,1.12.11l1.06,0,2.28-.13c1.53-.1,3.07-.17,4.61-.2s3.09,0,4.65.06a18.58,18.58,0,0,1,4.84.77,2.8,2.8,0,0,1,.67.31,2.82,2.82,0,0,1,.66.47,5.8,5.8,0,0,1,.52.61l.36.62a11,11,0,0,1,.79,2.44,27.55,27.55,0,0,1,.5,4.73,72,72,0,0,1-.44,9.3c-.08.77-.2,1.56-.24,2.24s0,1.47,0,2.22c0,1.51.08,3,.14,4.56s.13,3.06.14,4.61a35.08,35.08,0,0,1-.22,4.67,4.33,4.33,0,0,1-.9,2.43,2.48,2.48,0,0,1-1.31.5c-.4.07-.79.1-1.18.13-1.56.1-3.09.1-4.63.09-3.07,0-6.13-.15-9.19-.29s-6.12-.29-9.19-.55c-1.53-.13-3.07-.29-4.61-.54A16.47,16.47,0,0,1,73,104a5.53,5.53,0,0,1-.64-.27l-.37-.23a3.44,3.44,0,0,1-.27-.27,4.18,4.18,0,0,1-.78-1.2,14.18,14.18,0,0,1-.85-4.8,38.18,38.18,0,0,1,.12-4.67c.11-1.54.3-3.08.52-4.6l.08-.57a.89.89,0,0,0,0-.39,9,9,0,0,0-.17-1c-.14-.73-.32-1.47-.5-2.21-.73-3-1.54-5.93-2.23-8.92-.33-1.49-.7-3-1-4.5-.13-.75-.27-1.51-.34-2.28A5.1,5.1,0,0,1,66.75,65.71Z"/><path class="cls-4" d="M70.31,67.78c-1.19,2.54,4.25,17,4.07,18.49-.37,3.09-1.38,11.58.75,13.4s26.25,3.12,28,1.76S103,88.9,103.49,85c.65-5.41.88-14-1.25-15.81s-14-.88-15.53-1.07S71.36,65.56,70.31,67.78Z"/><path class="cls-2" d="M67.64,104.23c-3.07,1.11-11.78-.49-13.69.2s-7.61,2.74-9.09-.17S55.25,78.16,57,71.08,57,55.6,60.62,56,62,67.12,63.4,70.93s3.68,15,4.15,18.72C67.81,91.65,69.55,103.55,67.64,104.23Z"/><path class="cls-3" d="M67.68,104.33a13.69,13.69,0,0,1-3.92.44c-1.31,0-2.62,0-3.93,0s-2.61-.06-3.9,0a6.56,6.56,0,0,0-1.76.22c-.59.24-1.22.5-1.85.72a15,15,0,0,1-4,.92,6.07,6.07,0,0,1-2.24-.24,3.45,3.45,0,0,1-2-1.6,2.29,2.29,0,0,1-.24-.77,3.55,3.55,0,0,1,0-.64,7.37,7.37,0,0,1,.13-1.1,19.76,19.76,0,0,1,.52-2c.38-1.29.87-2.52,1.36-3.74,2-4.87,4.41-9.51,6.52-14.29,1-2.39,2.07-4.79,3-7.24a31.62,31.62,0,0,0,1.16-3.7,25.43,25.43,0,0,0,.57-3.8c.23-2.58.12-5.16.35-7.84a13.31,13.31,0,0,1,.34-2.07,4.9,4.9,0,0,1,.43-1.1,2.65,2.65,0,0,1,1-1,2.49,2.49,0,0,1,1.45-.3,2.61,2.61,0,0,1,1.39.56,4.19,4.19,0,0,1,1.26,2.14,18.69,18.69,0,0,1,.53,4.11c.05,1.33.05,2.64.08,3.93a29.54,29.54,0,0,0,.26,3.74,5.68,5.68,0,0,0,.19.81l.3.92c.2.65.4,1.29.56,1.93a110.68,110.68,0,0,1,2.88,15.5c.22,2.63.43,5.24.53,7.86,0,1.31.09,2.62,0,3.94a18.82,18.82,0,0,1-.14,2,6.77,6.77,0,0,1-.22,1A1.3,1.3,0,0,1,67.68,104.33Zm-.07-.19a1.14,1.14,0,0,0,.49-.71,5.8,5.8,0,0,0,.19-.94,13.93,13.93,0,0,0,.08-1.94,33.78,33.78,0,0,0-.3-3.88c-.33-2.59-.78-5.16-1.28-7.71s-1.16-5.06-1.74-7.6-1.18-5.06-1.89-7.54c-.17-.62-.34-1.23-.53-1.83l-.31-.94a7.85,7.85,0,0,1-.25-1.1,24.67,24.67,0,0,1-.24-4.07c0-1.32,0-2.62,0-3.9a17.1,17.1,0,0,0-.35-3.66,2.52,2.52,0,0,0-.61-1.23.76.76,0,0,0-.4-.17A.73.73,0,0,0,60,57c-.22.07-.5.51-.66,1.06A9.39,9.39,0,0,0,59,59.8c-.31,2.52-.44,5.17-.84,7.79a27.49,27.49,0,0,1-.83,3.89C57,72.76,56.47,74,56,75.2l-3,7.25c-1,2.42-2,4.85-2.88,7.29s-1.84,4.89-2.69,7.34c-.44,1.21-.83,2.44-1.21,3.66a17.71,17.71,0,0,0-.45,1.81c0,.29-.1.58-.12.84a1.92,1.92,0,0,0,0,.34.35.35,0,0,0,0,.16A2.75,2.75,0,0,0,48.28,105a15.87,15.87,0,0,0,3.67-.53c.63-.15,1.23-.34,1.87-.53a7.41,7.41,0,0,1,2.12-.1c1.33.08,2.63.24,3.93.38s2.59.25,3.89.3A12.69,12.69,0,0,0,67.61,104.14Z"/><path class="cls-4" d="M65.57,100.69c-2.28.82-8.77-.37-10.19.14s-5.67,2-6.77-.12,8-22.11,9.29-27.39,1-10.56,1.48-11.41c1.4-2.31,1,8.26,2.07,11.1a157.3,157.3,0,0,1,4.06,16.82C65.7,91.32,67,100.18,65.57,100.69Z"/><path class="cls-2" d="M66.55,38.27s25.37,1.19,31,7.33,11.66,16.87,8,17.34-18.07-1.23-20-.55c-2.41.87-13.18-.35-16.39-.12C64.69,62.59,62.93,42.17,66.55,38.27Z"/><path class="cls-3" d="M66.51,38.18A94.32,94.32,0,0,1,81,39a70.4,70.4,0,0,1,7.16,1.33,29.75,29.75,0,0,1,6.94,2.5,10.4,10.4,0,0,1,3,2.35c.79.94,1.53,1.9,2.24,2.89a66.74,66.74,0,0,1,3.87,6.15c.6,1.05,1.14,2.13,1.64,3.24A13,13,0,0,1,107,61a3.08,3.08,0,0,1,0,1,1.6,1.6,0,0,1-.55,1,1.93,1.93,0,0,1-1,.38c-.31,0-.63.08-.93.08-1.22.08-2.43.06-3.64.05-2.41,0-4.82-.08-7.21-.19L90,63.18c-1.18,0-2.39-.06-3.49,0l-.38,0-.26,0a6.63,6.63,0,0,1-1.06.24,16.22,16.22,0,0,1-1.91.16c-1.24,0-2.45,0-3.66,0-2.42,0-4.82-.23-7.2-.33-.59,0-1.18-.06-1.76-.06h-1l-.39,0a2.18,2.18,0,0,1-.72-.18,4,4,0,0,1-1.75-1.62,9.52,9.52,0,0,1-.86-1.8,27.44,27.44,0,0,1-1.42-7.29,39.68,39.68,0,0,1,.09-7.31,21.11,21.11,0,0,1,.66-3.6A7,7,0,0,1,66.51,38.18Zm.08.18a7.91,7.91,0,0,0-1.12,3.26,26,26,0,0,0-.28,3.53,44,44,0,0,0,.46,7.07A29.25,29.25,0,0,0,67.31,59a9,9,0,0,0,.74,1.42,2.16,2.16,0,0,0,.83.8c.05,0,.1.05.14,0l.07,0,.24,0c.33,0,.65,0,1,0,.63,0,1.24,0,1.84,0,2.43.1,4.82.25,7.2.38,1.19.07,2.37.11,3.54.1a13.05,13.05,0,0,0,1.68-.08,3.86,3.86,0,0,0,.69-.13l.63-.13.51,0a64.53,64.53,0,0,1,7.32.4l7.16.68c1.19.09,2.39.18,3.57.18.57,0,1.23,0,1.52-.19s.4-.79.37-1.34a11.18,11.18,0,0,0-1-3.34,30.55,30.55,0,0,0-1.64-3.16,43.28,43.28,0,0,0-4.19-5.79c-.77-.9-1.56-1.78-2.39-2.62a9.56,9.56,0,0,0-2.78-1.82c-4.19-1.91-8.92-2.87-13.58-3.78S71.27,39,66.59,38.36Z"/><path class="cls-4" d="M70.93,40.34s20.09.94,24.56,5.8,9.23,13.37,6.3,13.74-14.31-1-15.82-.44c-1.9.69-10.43-.28-13-.1C69.45,59.6,68.06,43.43,70.93,40.34Z"/><path class="cls-2" d="M42.09,32.81c-2,1.58,3,20.4,7.43,21.84s12.21-3.11,9.79-13.42C51.76,35.78,44.1,31.23,42.09,32.81Z"/><path class="cls-3" d="M42.16,32.89a2,2,0,0,0-.38,1.2,6.89,6.89,0,0,0,.07,1.36,16.47,16.47,0,0,0,.56,2.67c.51,1.75,1.15,3.46,1.74,5.17s1.17,3.41,1.79,5.1a19.53,19.53,0,0,0,2.31,4.8c1,1.54,3,1.6,4.66,1.15a8.39,8.39,0,0,0,1.23-.47,9,9,0,0,0,1.1-.71l.51-.4c.16-.14.31-.31.46-.46a6.44,6.44,0,0,0,.82-1,10,10,0,0,0,1.71-4.74,15,15,0,0,0-.45-5.1l.41.61-8-5.58a47.7,47.7,0,0,0-4.07-2.69,11.41,11.41,0,0,0-2.21-1A2.75,2.75,0,0,0,42.16,32.89ZM42,32.73a3.25,3.25,0,0,1,2.48-.23,20.16,20.16,0,0,1,2.42.67,40.54,40.54,0,0,1,4.63,1.9,40.73,40.73,0,0,1,4.3,2.49c1.4.88,2.74,1.84,4.07,2.82l.34.25.06.36a16.78,16.78,0,0,1,.2,5.83A10,10,0,0,1,58,52.1,9.78,9.78,0,0,1,53.07,55a7.64,7.64,0,0,1-2.86.14L49.5,55a3.73,3.73,0,0,1-.71-.31,5.24,5.24,0,0,1-1.14-.94,23.49,23.49,0,0,1-5.13-9.94,32.37,32.37,0,0,1-.88-5.52c-.08-.93-.12-1.86-.15-2.79,0-.46,0-.93,0-1.39A2.16,2.16,0,0,1,42,32.73Z"/><path class="cls-4" d="M44.81,35.45C43.37,36.59,47,50.11,50.15,51.13s8.77-2.23,7-9.63C51.76,37.58,46.26,34.31,44.81,35.45Z"/><path class="cls-2" d="M54.06,64.47c1.78,5-6.58,24.73-8.38,24.52S42,81.27,41.36,79.36s-4.69-14.22-3.94-20.51,3.33-5.07,3.33-5.07C44,56.9,52,58.76,54.06,64.47Z"/><path class="cls-3" d="M54.15,64.44a5.94,5.94,0,0,1,.27,2,17.6,17.6,0,0,1-.11,2.05c-.14,1.36-.36,2.72-.61,4.07a44.2,44.2,0,0,1-2.25,7.92,35.58,35.58,0,0,1-3.83,7.33,8.7,8.7,0,0,1-.67.86,4.16,4.16,0,0,1-.42.42,1.82,1.82,0,0,1-.29.2.85.85,0,0,1-.19.1,1.7,1.7,0,0,1-.31.06,1.24,1.24,0,0,1-.76-.29,2.07,2.07,0,0,1-.44-.45,5.48,5.48,0,0,1-.57-.94A31,31,0,0,1,42.48,84c-.43-1.3-.82-2.61-1.26-3.88s-1-2.55-1.42-3.83a71.18,71.18,0,0,1-2.38-7.86,38.89,38.89,0,0,1-1.14-8.28A16.08,16.08,0,0,1,37,55.79a5.88,5.88,0,0,1,1.2-2.15,2.67,2.67,0,0,1,3-.78l.14.06.13.13a22.35,22.35,0,0,0,3.32,2.41c1.21.76,2.44,1.57,3.65,2.41a22.52,22.52,0,0,1,3.37,2.87A10.35,10.35,0,0,1,54.15,64.44Zm-.19.07a8.51,8.51,0,0,0-2.47-3.45,17.62,17.62,0,0,0-3.62-2.27c-1.28-.65-2.62-1.19-3.93-1.84a16.73,16.73,0,0,1-3.89-2.43l.27.18c.09,0,0,0-.07,0a.35.35,0,0,0-.17,0,1,1,0,0,0-.38.3A4.53,4.53,0,0,0,39,56.46a15.64,15.64,0,0,0-.61,3.7A37.87,37.87,0,0,0,39.14,68c.49,2.64,1,5.29,1.66,7.92.34,1.31.68,2.6,1.09,3.91s.74,2.62,1.17,3.9a18.81,18.81,0,0,0,1.61,3.66,5.55,5.55,0,0,0,.57.74c.18.2.48.35.48.3a.06.06,0,0,0-.07,0l0,0a.82.82,0,0,0,.11-.1,2.34,2.34,0,0,0,.26-.34,5.84,5.84,0,0,0,.5-.81,39.85,39.85,0,0,0,1.69-3.61l1.55-3.71c1-2.49,2.1-5,3-7.5a27.75,27.75,0,0,0,1.13-3.88A8.46,8.46,0,0,0,54,64.51Z"/><path class="cls-4" d="M52.51,64.76c1.36,3.77-5,18.8-6.37,18.63s-2.77-5.87-3.29-7.31-3.56-10.82-3-15.6,2.53-3.85,2.53-3.85C44.88,59,51,60.42,52.51,64.76Z"/><path class="cls-2" d="M33.24,71.53c1.84,7.5,12.07,28.76,7,32.72s-20.08.35-23,1.82S7,108.49,6.4,105.69s1.73-29.86.46-34.56-2-13.91-.19-13.69,11.68,1.38,14.48.81,8.62-3.54,11.21-2.32S33.24,71.53,33.24,71.53Z"/><path class="cls-3" d="M33.34,71.52c1,3.13,2.4,6.21,3.62,9.32s2.48,6.23,3.52,9.44a35.93,35.93,0,0,1,2.06,10,8.52,8.52,0,0,1-.42,2.77,7.24,7.24,0,0,1-.32.7,7.12,7.12,0,0,1-.46.66,5.14,5.14,0,0,1-.6.55l-.61.38A12.56,12.56,0,0,1,35,106.83a61.12,61.12,0,0,1-10.15-.36c-1.66-.15-3.32-.32-5-.36a9.66,9.66,0,0,0-1.21,0l-.59.07-.52.15a15.82,15.82,0,0,1-2.43.83,19.14,19.14,0,0,1-5.06.59,7.06,7.06,0,0,1-2.57-.49,2.52,2.52,0,0,1-1.12-.87,2.49,2.49,0,0,1-.3-.69L6,105.07c-.09-3.4,0-6.72.08-10.08.09-6.68.37-13.39.21-20,0-.83-.09-1.63-.16-2.43,0-.4-.13-.73-.19-1.1l-.31-1.25a48.56,48.56,0,0,1-.85-5.06A31.71,31.71,0,0,1,4.56,60a11.31,11.31,0,0,1,.16-1.37,3.58,3.58,0,0,1,.69-1.68,1.69,1.69,0,0,1,.73-.48,2,2,0,0,1,.76,0l.62.07,1.24.14c3.3.39,6.63.73,9.89.84A14.21,14.21,0,0,0,21,57.35a24,24,0,0,0,2.31-.65c1.57-.51,3.18-1.07,4.87-1.46a11.55,11.55,0,0,1,2.67-.32,4.81,4.81,0,0,1,1.45.25l.36.14a2.36,2.36,0,0,1,.42.28,2.89,2.89,0,0,1,.51.7,8.36,8.36,0,0,1,.63,2.65c.08.86.1,1.71.1,2.56,0,1.7-.13,3.37-.29,5S33.61,69.9,33.34,71.52Zm-.2,0a92.88,92.88,0,0,0,.13-10c-.05-.83-.12-1.65-.24-2.45a7.33,7.33,0,0,0-.63-2.18,1.64,1.64,0,0,0-.25-.3l-.1-.05-.23-.07a3.31,3.31,0,0,0-1-.1,11.28,11.28,0,0,0-2.29.38c-1.55.42-3.09,1-4.68,1.59a22.25,22.25,0,0,1-2.5.8,15,15,0,0,1-2.69.21,99.39,99.39,0,0,1-10.11-.64l-1.25-.13-.63-.08c-.21,0,0,0,.14,0s.2-.1.22-.14a2.76,2.76,0,0,0-.19.65c-.06.35-.1.73-.13,1.11a34.29,34.29,0,0,0,.16,4.84,43.59,43.59,0,0,0,.71,4.85L7.83,71c.07.46.18.94.21,1.38.06.87.11,1.73.12,2.58C8.21,78.33,8,81.67,7.85,85s-.45,6.69-.69,10l-.33,5c-.1,1.66-.2,3.34-.14,5l0,.58a2.25,2.25,0,0,0,.19.45,1.82,1.82,0,0,0,.83.65,6.53,6.53,0,0,0,2.32.47,16.66,16.66,0,0,0,4.86-.6,12.12,12.12,0,0,0,2.29-.86l.68-.23.65-.09c.44-.08.86-.06,1.29-.1,1.7-.06,3.38,0,5,.07a65.18,65.18,0,0,0,9.9-.18,12.09,12.09,0,0,0,4.41-1.31l.45-.28a3.19,3.19,0,0,0,.32-.3c.1-.11.17-.25.26-.37s.12-.3.19-.44a7.1,7.1,0,0,0,.34-2.17,23.26,23.26,0,0,0-.57-4.78c-.33-1.6-.75-3.2-1.2-4.8-.93-3.18-2-6.36-3-9.53-.54-1.58-1-3.18-1.54-4.78A43.91,43.91,0,0,1,33.14,71.53Z"/><path class="cls-4" d="M31.47,70.79c1.42,5.8,9.33,22.23,5.44,25.29s-15.52.27-17.76,1.41-8,1.87-8.42-.3,1.34-23.07.36-26.71S9.55,59.74,10.94,59.9s9,1.08,11.19.63,6.66-2.73,8.66-1.79S31.47,70.79,31.47,70.79Z"/><path class="cls-2" d="M39.27,48.87c-2.56,2-15.48,0-20.19,1.25S7,52.32,7.3,49.63,9,28,7.7,23.26s-.52-11,1.17-9.89,6.66,5.35,9.24,6.57,16.54,6.52,19.6,11.44S40.28,48.08,39.27,48.87Z"/><path class="cls-3" d="M39.34,49a8.38,8.38,0,0,1-3.75.93c-1.28.12-2.56.14-3.85.19-2.56.09-5.13.09-7.66.23a36.87,36.87,0,0,0-3.72.38c-.59.11-1.12.26-1.78.45s-1.27.31-1.91.45a29.51,29.51,0,0,1-3.88.58A13.54,13.54,0,0,1,8.7,52a3.85,3.85,0,0,1-1.11-.43,2.13,2.13,0,0,1-1-1.14,1.77,1.77,0,0,1-.08-.78c0-.23,0-.33.06-.5l.12-.94.43-3.8c.27-2.54.5-5.09.62-7.64s.18-5.1.1-7.65l-.1-1.91c-.06-.63-.1-1.26-.19-1.88l-.14-.93-.2-.89c-.17-.62-.34-1.27-.46-1.91a21.47,21.47,0,0,1-.4-3.93A10.2,10.2,0,0,1,7,13.57,2.56,2.56,0,0,1,7.38,13a1.44,1.44,0,0,1,1.88-.35l.46.3c.55.38,1.06.76,1.58,1.14l3.07,2.28c1,.74,2.06,1.47,3.11,2.09a10.75,10.75,0,0,0,1.59.8l1.76.73c2.37,1,4.73,2,7.05,3.18a47.38,47.38,0,0,1,6.73,4,16.93,16.93,0,0,1,3,2.71,9.51,9.51,0,0,1,1.8,3.7,30.14,30.14,0,0,1,.88,7.75c0,1.29,0,2.57-.14,3.86-.06.64-.11,1.28-.21,1.91,0,.32-.1.64-.18,1A2,2,0,0,1,39.34,49Zm-.13-.16A4.16,4.16,0,0,0,39.69,47a17.17,17.17,0,0,0,.15-1.9,30.26,30.26,0,0,0-.12-3.81A27.74,27.74,0,0,0,38.15,34a8.75,8.75,0,0,0-1.81-3A15.41,15.41,0,0,0,35,29.79a18.2,18.2,0,0,0-1.49-1.07,53.62,53.62,0,0,0-6.57-3.65C24.67,24,22.34,22.93,20,21.9l-1.76-.79a12.15,12.15,0,0,1-1.81-1c-1.13-.72-2.17-1.49-3.19-2.28s-2-1.58-3-2.39c-.5-.39-1-.8-1.48-1.16l-.34-.24s.06,0,.14,0,0,0-.11.22a10.14,10.14,0,0,0-.69,3.42,21.07,21.07,0,0,0,.12,3.72c.08.62.19,1.21.33,1.84l.16,1,.08,1c.09,1.3.1,2.58.11,3.87,0,2.56-.05,5.12-.12,7.69l-.16,7.68c0,1.29-.08,2.57-.14,3.85l-.06,1a4,4,0,0,0,0,.46.32.32,0,0,0,0,.16c0,.13.46.36,1,.46a14.09,14.09,0,0,0,3.56,0c1.23-.12,2.47-.32,3.7-.53s2.37-.57,3.81-.75a24.65,24.65,0,0,1,3.93-.06c2.58.11,5.13.35,7.68.5a37.5,37.5,0,0,0,3.82.06A8,8,0,0,0,39.21,48.79Z"/><path class="cls-4" d="M36.38,46.08c-2,1.59-12.2,0-15.91,1s-9.53,1.73-9.28-.39,1.31-17.07.32-20.77-.41-8.66.92-7.79,5.24,4.22,7.28,5.17,13,5.14,15.43,9S37.17,45.46,36.38,46.08Z"/><path class="cls-2" d="M32.59,20.75C27.78,22.48,8.4,9.67,8.4,9.67,8.72,7,23,9.59,25.79,9s9.41-2.53,10.1-.63S34.5,20.06,32.59,20.75Z"/><path class="cls-3" d="M32.63,20.84a7.15,7.15,0,0,1-3.41-.09,34.17,34.17,0,0,1-3.31-.85,35.5,35.5,0,0,1-6.33-2.55,50.37,50.37,0,0,1-5.78-3.56c-1.86-1.29-3.67-2.63-5.57-3.86l-.17-.11,0-.18a1.55,1.55,0,0,1,1.09-1.1,6.55,6.55,0,0,1,1.33-.31A26.12,26.12,0,0,1,13.16,8c1.75-.07,3.49-.06,5.23,0l5.16.17A8.16,8.16,0,0,0,25.88,8l2.51-.64a24.13,24.13,0,0,1,5.35-.8,6.25,6.25,0,0,1,1.58.21,2.67,2.67,0,0,1,.93.5,1.91,1.91,0,0,1,.42.51c0,.1.1.21.14.31l.06.26a8.23,8.23,0,0,1-.14,2.9,32.41,32.41,0,0,1-1.5,5.09c-.31.82-.64,1.63-1,2.43-.2.39-.4.78-.63,1.16A2.29,2.29,0,0,1,32.63,20.84Zm-.07-.19a2.06,2.06,0,0,0,.82-.88,6.83,6.83,0,0,0,.52-1.17,16.21,16.21,0,0,0,.67-2.48A33.67,33.67,0,0,0,35.1,11c0-.42,0-.83,0-1.23a4.62,4.62,0,0,0-.11-1,.14.14,0,0,1,0-.06s0,0,0,0,0,0,0,0a1,1,0,0,0-.21-.08,4.22,4.22,0,0,0-1-.07,30.59,30.59,0,0,0-4.89.78l-2.55.53a10.55,10.55,0,0,1-2.84.08c-1.76-.11-3.47-.34-5.19-.56S14.86,9,13.15,8.86a15.37,15.37,0,0,0-2.54,0,4.65,4.65,0,0,0-1.2.24c-.37.13-.68.34-.7.59l-.14-.29a61.29,61.29,0,0,0,5.88,3.28c2,1,4,2,6,3.07S24.28,18,26.26,19a19.26,19.26,0,0,0,3.06,1.33A5.65,5.65,0,0,0,32.56,20.65Z"/><path class="cls-4" d="M31.61,19c-3.43,1.24-17.27-7.91-17.27-7.91.23-1.93,10.41-.06,12.42-.48s6.72-1.8,7.21-.44S33,18.52,31.61,19Z"/><path class="cls-2" d="M56.87,8.14c2.72,1.8,2.08,28.49-1.41,27.17s-9.24-6.57-11.83-7.78S36.15,24.66,35.18,22c-.68-1.91,4.24-5,4.88-10.36S55.18,7,56.87,8.14Z"/><path class="cls-3" d="M56.92,8.06a2.51,2.51,0,0,1,.73,1.14c.15.41.25.84.36,1.26.22.85.35,1.72.51,2.58.28,1.72.51,3.46.65,5.21a42.84,42.84,0,0,1-.28,10.49,26,26,0,0,1-1.34,5.18,5.36,5.36,0,0,1-.72,1.26,1.68,1.68,0,0,1-.71.54,1.14,1.14,0,0,1-.95-.09,18,18,0,0,1-2.31-1.32c-2.92-1.91-5.66-4.12-8.61-5.81-1.42-.76-3.17-1.22-4.77-2a17.74,17.74,0,0,1-2.41-1.24,8,8,0,0,1-2.19-1.94,4,4,0,0,1-.42-.69l-.18-.38a5.6,5.6,0,0,1-.12-.59,3.41,3.41,0,0,1,.48-1.76,22.92,22.92,0,0,1,1.51-2.27,17.63,17.63,0,0,0,2.39-4.24c.15-.37.23-.75.34-1.12l.11-.57.15-.74a4.36,4.36,0,0,1,2-2.57,8.67,8.67,0,0,1,2.67-1.08A15.44,15.44,0,0,1,46.48,7a34.54,34.54,0,0,1,5.29.12c.87.09,1.74.17,2.6.31A8.59,8.59,0,0,1,56.92,8.06Zm-.11.17a7.47,7.47,0,0,0-2.48-.54,20.16,20.16,0,0,0-2.58-.07,27.79,27.79,0,0,0-5.09.64A12.84,12.84,0,0,0,42.21,10a2.63,2.63,0,0,0-1.08,1.48L41,12l-.12.71a13.38,13.38,0,0,1-.37,1.38,17,17,0,0,1-2.72,4.77,21.75,21.75,0,0,0-1.46,2c-.37.74-.38.64,0,1.38a10.94,10.94,0,0,0,3.77,2.82c.75.4,1.52.77,2.29,1.16a17.16,17.16,0,0,1,2.35,1.31c1.48,1,2.77,2.16,4.15,3.21a42,42,0,0,0,4.23,3,13.31,13.31,0,0,0,2.28,1.11c.42.29.79-.58,1-1.33a26.32,26.32,0,0,0,.73-5c.28-3.4.46-6.83.69-10.27.08-1.72.17-3.45.09-5.18a20.18,20.18,0,0,0-.27-2.57,8.65,8.65,0,0,0-.31-1.24A2.22,2.22,0,0,0,56.81,8.23Z"/><path class="cls-4" d="M55.49,9.39c1.95,1.37,1.31,22.05-1.19,21.05s-6.6-5-8.45-6-5.36-2.17-6-4.25c-.48-1.47,3.08-3.87,3.58-8S54.28,8.54,55.49,9.39Z"/><path class="cls-2" d="M62.37,30.91c3.79,2.41,10.47,3.87,14.07,4.3s13.06,5,15.17,2.68,10.62-12.74,11.13-17,2.33-12-2.26-11.64-21,.14-23.66-.18S66.14,6.87,64.14,8.38s1,7.12-.23,9.6S60.68,29.84,62.37,30.91Z"/><path class="cls-3" d="M62.42,30.83a24.37,24.37,0,0,0,7.2,2.74c1.26.29,2.53.52,3.8.71.64.09,1.27.17,1.91.24s1.27.08,2,.2a33.31,33.31,0,0,1,3.85,1l3.7,1.09a29.79,29.79,0,0,0,3.65.83,6.89,6.89,0,0,0,1.68,0,1.77,1.77,0,0,0,.61-.18,1.33,1.33,0,0,0,.19-.14L91.3,37c1.73-1.89,3.42-3.86,5-5.86a53.92,53.92,0,0,0,4.47-6.29,14.73,14.73,0,0,0,1.51-3.47c.15-.58.19-1.27.29-1.9l.25-1.92a26.07,26.07,0,0,0,.23-3.83,9.26,9.26,0,0,0-.2-1.84,3,3,0,0,0-.69-1.5,1.61,1.61,0,0,0-1.32-.53h-.4l-.5,0L99,10c-1.3.1-2.6.15-3.9.19q-3.9.13-7.79.14c-2.6,0-5.2,0-7.81-.07-.65,0-1.3,0-2-.08a18.59,18.59,0,0,1-2-.24l-3.83-.61c-1.26-.2-2.52-.37-3.75-.45a13.66,13.66,0,0,0-1.81,0,3.54,3.54,0,0,0-1.38.3c-.2.09-.36.43-.39,1a8.9,8.9,0,0,0,.07,1.76,38.8,38.8,0,0,1,.42,3.93A5.18,5.18,0,0,1,64.5,18a3.72,3.72,0,0,1-.21.47l-.2.42c-.13.28-.24.58-.35.87a35.71,35.71,0,0,0-1.12,3.69,25.76,25.76,0,0,0-.69,3.79,12.46,12.46,0,0,0-.07,1.93A2.43,2.43,0,0,0,62.42,30.83Zm-.1.17a1.48,1.48,0,0,1-.54-.88,5.41,5.41,0,0,1-.16-1,16,16,0,0,1,0-2c.06-1.3.26-2.59.44-3.89a37,37,0,0,1,.79-3.85c.09-.32.18-.63.28-1l.17-.49a2.81,2.81,0,0,0,.15-.43,3.9,3.9,0,0,0,.06-1.68c-.14-1.2-.52-2.44-.77-3.75A11.55,11.55,0,0,1,62.52,10c0-.2,0-.39,0-.6s.09-.42.15-.64a6,6,0,0,1,.35-.66,3.57,3.57,0,0,1,.55-.55,4.7,4.7,0,0,1,2.32-.74A14.58,14.58,0,0,1,68,6.8a39.54,39.54,0,0,1,4,.38c1.3.18,2.59.41,3.85.62.64.1,1.23.18,1.83.22l1.91.12c2.57.12,5.16.2,7.75.27l7.75.16L99,8.6h1.44a5.4,5.4,0,0,1,.56,0,3.23,3.23,0,0,1,1.15.28,2.56,2.56,0,0,1,.93.76,4,4,0,0,1,.82,2,9.85,9.85,0,0,1,.1,2,36.14,36.14,0,0,1-.42,3.92l-.3,1.92c-.11.65-.14,1.26-.31,1.94a16.7,16.7,0,0,1-1.55,3.65,96,96,0,0,1-8.81,12.93l-.32.38a3.1,3.1,0,0,1-.56.47,3.46,3.46,0,0,1-1.21.45,7.37,7.37,0,0,1-2.2,0,23.57,23.57,0,0,1-3.92-.91C81.84,37.7,79.44,36.64,77,36c-.56-.16-1.23-.24-1.87-.38s-1.28-.27-1.92-.43c-1.27-.31-2.53-.66-3.77-1.07A33.11,33.11,0,0,1,62.32,31Z"/><path class="cls-4" d="M66.71,27.9c3.21,1.88,8.85,3.07,11.88,3.43s11,4,12.79,2.19,8.83-9.7,9.22-13,1.86-9.19-2-9S81,11.44,78.68,11.17s-9-1.74-10.68-.59.89,5.48-.11,7.38S65.28,27.06,66.71,27.9Z"/><path class="cls-2" d="M97,39.11c-.33,2.84,7.6,12.74,8,9.15s1.55-20.77-.24-21S97.35,36.41,97,39.11Z"/><path class="cls-3" d="M97.13,39.12a5.11,5.11,0,0,0,1.07,2.79,19.18,19.18,0,0,0,2,2.37c.69.74,1.4,1.46,2.1,2.16.35.35.69.69,1,1a5.6,5.6,0,0,0,1,.73c.15.06.14,0,0,.14a1.47,1.47,0,1,1,.07-.17c.11-.49.21-1,.3-1.51.19-1,.36-2,.46-3.07a40.1,40.1,0,0,0,.08-6.2l-.4-6.14a15.53,15.53,0,0,0-.44-2.84c0-.15-.2-.39-.07-.22a.83.83,0,0,0,.28.16c.19,0,.15,0,.23,0s0,0,0,0a4.2,4.2,0,0,0-.9.77c-1.31,1.38-2.49,3.07-3.79,4.66a29.36,29.36,0,0,0-1.78,2.52A8.81,8.81,0,0,0,97.13,39.12Zm-.19,0a16.42,16.42,0,0,1,.9-3c.36-1,.72-2,1.14-2.95a19.35,19.35,0,0,1,3.37-5.46,5.52,5.52,0,0,1,1.48-1.21,2.09,2.09,0,0,1,.73-.23,1.23,1.23,0,0,1,.61.05,1.84,1.84,0,0,1,.38.17,1.11,1.11,0,0,1,.22.19,2.38,2.38,0,0,1,.59,1.17,16.37,16.37,0,0,1,.32,3.31,42.37,42.37,0,0,1-.39,6.28c-.23,2.07-.46,4.13-.52,6.2,0,1,0,2.08,0,3.13v1.58a1.59,1.59,0,0,1-.52,1.22,1.55,1.55,0,0,1-.42.23,1.6,1.6,0,0,1-1.07,0,4.74,4.74,0,0,1-1.6-.94A10,10,0,0,1,101,47.65,15,15,0,0,1,99.12,45a26.88,26.88,0,0,1-1.37-2.87,13.16,13.16,0,0,1-.55-1.48A4.18,4.18,0,0,1,96.94,39.1Z"/><path class="cls-4" d="M98.59,39.3c-.22,1.86,5,8.36,5.26,6s1-13.62-.15-13.76S98.8,37.53,98.59,39.3Z"/></g></g></svg>