<svg xmlns="http://www.w3.org/2000/svg" viewBox="0 0 113.64 113.64"><defs><style>.cls-1{fill:#b3b3b3;}.cls-2,.cls-4,.cls-5{fill:none;stroke-miterlimit:10;}.cls-2{stroke:#c4c4c6;}.cls-2,.cls-5{stroke-width:2px;}.cls-3{fill:#999;}.cls-4,.cls-5{stroke:#999;}</style></defs><title>wood</title><g id="Layer_2" data-name="Layer 2"><g id="Layer_1-2" data-name="Layer 1"><rect class="cls-1" x="1" y="1" width="111.64" height="111.64"/><path class="cls-2" d="M19.26,73.28a64,64,0,0,1,8.42-.55l61.76-1.26c7.77-.16,15.73-.28,23.2,1.66V69.55h-1L22,70.52a116.74,116.74,0,0,1-21,.93v3.47l8.93,0c.91-.08,1.83-.19,2.74-.33C14.88,74.2,17.05,73.62,19.26,73.28Z"/><path class="cls-2" d="M1,30.72v2.59l28.21-.05c2.1-.48,4.19-1,6.25-1.64a25.19,25.19,0,0,1,5-1.19,22,22,0,0,1,4.44.21L67.49,33.2l34.39-.06a86.07,86.07,0,0,1,8.64-2.06c.69-.13,1.4-.24,2.12-.32V25.88c-9.22-.86-18.58,3.25-27.95,2.78-3.3-.17-6.62-.9-9.87-.33-2,.36-3.92,1.21-5.92,1.67-4.36,1-8.93.05-13.19-1.33l-2.38-.81L3.65,30.18A22.64,22.64,0,0,1,1,30.72Z"/><path class="cls-2" d="M5.49,6A148.86,148.86,0,0,0,26.14,3.74c3.82-.69,7.69-1.53,11.53-1,4.51.62,8.74,3.09,13.2,3.45h2a12,12,0,0,1-2,0L5.49,6c-1.49.06-3,.1-4.49.12v6.61l5-.23C13.1,11,20.2,7.8,27.54,7.18c5.85-.48,11.71.7,17.32,2.44.73.23,1.91.61,3.19.94L54,10.28c-.68,1.32-3.49.91-5.94.28L6,12.49A35.07,35.07,0,0,1,1,13.18v2.5l20.15.87c2.12-.37,4.24-.76,6.38-1,8.73-1,17.52.73,26.14,2.41L21.15,16.55c-1.75.31-3.5.61-5.27.79A61.35,61.35,0,0,1,1,16.75v6.53l34.8-.47c10.46-1.25,20.88-2.12,31.09-.41L102,21.93c3.53-.21,7.07-.28,10.6-.23V16.43a58.32,58.32,0,0,1-14.34-.34L54,16.28c3.69-2.13,9.79-2.87,14.05-2.79l13.3.26a55.85,55.85,0,0,1,7.65.5c1.88.3,3.72.79,5.59,1.19,1.23.26,2.47.47,3.72.65L112.64,16V13L53,8.28c10.51.17,20.59.44,31.1.61,8.79.13,17.62.27,26.25,1.9.77.14,1.54.31,2.3.47V4.83c-8.15,1-16.61,0-24.87-.54-2.83-.2-5.59-.35-8.33-.45L53,4.28a249.63,249.63,0,0,1,26.45-.44l33.2-.56V1H1V6Z"/><path class="cls-2" d="M1,68.12v2.62l21-.22c7-.86,14-2.09,21-3.21Z"/><path class="cls-2" d="M93.46,35.75a17.64,17.64,0,0,1-4.53-.12L67.49,33.2l-38.28.06A99.36,99.36,0,0,1,2.7,35.75c-.57,0-1.13-.06-1.7-.1v7.78H4.78C25.71,41.67,47.46,41,68,43.28l-63.21.14L1,43.75v4.92l38.33-.22C48.91,47,59.26,45.09,68,48.28l-28.66.17c-1.67.25-3.32.5-4.93.7-11.07,1.37-22.26.77-33.4-.09v6l7.8-.32c2-.37,4-.78,6.06-1.11a132.08,132.08,0,0,1,15.25-1.49A323.44,323.44,0,0,1,68,52.28c7.85-3.85,18.14-5.13,26.45-2.44,1.14.37,2.27.8,3.4,1.21l14.8-.62V46.08a26,26,0,0,1-4.23-.6H69c11.08-.1,22.22-3.53,33.11-1.44,2.07.39,4.18,1,6.27,1.43h4.23V41.13c-14.72-.5-28.45-.86-43.65-.85l43.65-.41V33.12l-10.76,0c-1.63.48-3.26,1-4.87,1.56A19.27,19.27,0,0,1,93.46,35.75Z"/><path class="cls-2" d="M33,83.42c7.24-.5,16.8,1.16,24,.86l55.65-.36V78.49c-9.06.34-17.81.6-26.55.85L57,80.28c10-.39,19.55-.66,29.1-.94l26.55-.86V74.4L9.93,74.88A76,76,0,0,1,1,75v4.55l22.67-.69a47.58,47.58,0,0,1,9.4-.73l23.42-.26-32.82,1c-.61.13-1.21.27-1.81.45-2.63.8-5.1,2.13-7.8,2.59a24.67,24.67,0,0,1-7.42-.26L1,80.85V87l12.34-.6c3.21-.37,6.41-.83,9.59-1.42A89.92,89.92,0,0,1,33,83.42Z"/><path class="cls-2" d="M78.71,24.71a35.13,35.13,0,0,1-7.49-1.43c-1.44-.35-2.88-.64-4.33-.88l-31.09.41C27.52,23.81,19.22,25,11,25.43A30.69,30.69,0,0,1,1,24.65V30.3l2.65-.12c1-.26,2-.55,3-.81a85.24,85.24,0,0,1,16.1-2.11l16.3-1.1a38.56,38.56,0,0,1,8.18,0,36,36,0,0,1,6.08,1.66l59.31-2.77v-3.3l-10.6.14A144.68,144.68,0,0,0,84.44,24,29.13,29.13,0,0,1,78.71,24.71Z"/><path class="cls-2" d="M102.14,104a47.06,47.06,0,0,1,10.5.93v-4.8l-19.91.79-7.17,1c-8.13,1.19-16.27,2.39-24.47,3a24.9,24.9,0,0,1-8.91-.45,34.59,34.59,0,0,1-4.48-1.84l-13.38.54c-3.39,1.57-6.76,3.55-10.4,4.14-5,.81-10-1.13-15-2.17a44.88,44.88,0,0,0-5-.76l-2.9.11v4.74l84.44-2.16c3.14-.76,6.32-1.41,9.49-2A50.22,50.22,0,0,1,102.14,104Z"/><path class="cls-2" d="M8.8,54.72a61.31,61.31,0,0,1-7.8,1V61.2l36.35-.07c.88-.21,1.76-.44,2.63-.69,2.34-.66,4.65-1.46,7-1.93a53.52,53.52,0,0,1,7.5-.74L69.12,57a106.16,106.16,0,0,1,16,0c7.46.76,14.85,3.09,22.24,4h5.23V52.21a32.13,32.13,0,0,1-11,0,31.19,31.19,0,0,1-3.82-1.16L68,52.28Z"/><path class="cls-2" d="M109.45,108.66a28.47,28.47,0,0,1,3.19.45v-2.64l-27.2.7A85.52,85.52,0,0,0,76.06,110a29.23,29.23,0,0,1-4.81,1.53,22.49,22.49,0,0,1-4.57.22A190.83,190.83,0,0,1,40,109.22a8.9,8.9,0,0,0-4.32,0c-1,.32-1.76,1-2.68,1.37a11.45,11.45,0,0,1-5.08.59Q14.45,110.7,1,109.9v2.74H87.87C94.91,110.26,102.1,108.06,109.45,108.66Z"/><path class="cls-2" d="M43.67,93.28A4.26,4.26,0,0,1,46,94.2a32.55,32.55,0,0,0,2.87,1.63l53.61-1a65.1,65.1,0,0,1,10.13-1.69V90.78L88.1,90.49c-7.24.42-14.48,1.05-21.72,1.36-3.36.14-7,.16-9.77-1.73l31.49.37a159.53,159.53,0,0,1,24.54.09v-6c-4.83,1.09-9.49,3.09-14.4,3.79-5.22.75-10.52,0-15.74-.75-8.44-1.21-17.06-2.09-25.51-3.3L13.34,86.41q-6.15.7-12.34.88v3.5c15.92-1.19,31.1-2.44,47.2-2.09L57,88.28c-1.51,1.26-6.82.46-8.79.42h0L1,90.9v5.81L38.16,96a14.94,14.94,0,0,0,3.29-1.66A4.64,4.64,0,0,1,43.67,93.28Z"/><path class="cls-2" d="M43.51,101.34a17,17,0,0,1,4.19,1.39l45-1.79,4.17-.61A87.88,87.88,0,0,1,112.64,99V94.67l-10.13.18-2,.47c-9.09,2.2-18.24,4.53-27.58,5-8.25.41-16.76-.75-24.08-4.47L38.16,96a32.37,32.37,0,0,1-6.63,1.51A125.28,125.28,0,0,1,1,98.21v6.06c1,0,1.94.11,2.9.21l30.42-1.21C37.31,101.89,40.31,100.82,43.51,101.34Z"/><path class="cls-2" d="M17.31,63C11.86,62.66,6.44,61.71,1,61.34V68c4.81-.64,9.58-2.14,14.41-2.9a108,108,0,0,1,16-.82c6.41-.05,12.82-.22,19.23-.39,4.72-.12,9.54-.27,13.95-2,.67-.26,1.33-.56,2-.86l-29.21.05A68.92,68.92,0,0,1,17.31,63Z"/><path class="cls-3" d="M1.44,93.6c4.4,1.55,9,1.12,13.55.45s9.18-1.68,14-1.37S38.16,93.9,42.8,94.2s9.26.38,13.89.29l13.89-.37,13.89-.42c9.26-.19,18.54-.28,27.83,0v.2c-9.25.94-18.51,1.53-27.78,1.89C79.89,96,75.25,96,70.6,96s-9.29-.14-13.93-.42S47.4,95,42.76,94.85l-7-.27c-2.33-.09-4.64-.24-6.92-.23a55.62,55.62,0,0,0-6.8.4c-2.28.26-4.57.61-6.9.83a37,37,0,0,1-7.06.14,17.8,17.8,0,0,1-6.76-1.94Z"/><path class="cls-3" d="M1.52,56.83a7.62,7.62,0,0,1,3.3-1.21c1.17-.19,2.31-.29,3.46-.38,2.3-.21,4.6-.39,6.9-.51,4.6-.28,9.21-.47,13.82-.45s9.22.26,13.82.31q3.47,0,6.91,0c2.3,0,4.61-.14,6.91-.19,4.61-.16,9.22-.24,13.83-.2s9.22.07,13.82.26c9.21.41,18.41,1.11,27.57,2.32l0,.2c-9.23.05-18.42-.15-27.62-.39L70.43,56c-4.6-.15-9.2-.36-13.8-.58s-9.2-.34-13.8-.22c-2.3,0-4.6.16-6.9.3l-6.9.4c-4.6.21-9.2.28-13.8.33-2.3,0-4.6,0-6.9,0S3.7,56,1.62,57Z"/><path class="cls-3" d="M1.58,38.48c9.22-.74,18.46-1.36,27.7-1.77S47.78,36,57,36s18.52.27,27.77.53,18.48.74,27.73,1.3q-13.89.33-27.76.26L70.91,38c-4.62,0-9.24-.11-13.86-.06C38.58,38,20.09,38.55,1.58,38.48Z"/><path class="cls-3" d="M1.94,19.45c4.36,1.64,9,1.15,13.54.75s9.29-.54,13.89-.57c2.29,0,4.61-.05,7,0s4.63.22,6.94.24a51.05,51.05,0,0,0,6.89-.35c2.29-.27,4.55-.74,6.87-1A91.62,91.62,0,0,1,71,17.91c4.63,0,9.25.07,13.87.2,9.25.3,18.49.77,27.72,1.62v.2c-9.26.41-18.51.45-27.76.31-4.62-.08-9.24-.27-13.86-.45s-9.21-.44-13.78-.17c-2.29.15-4.6.4-6.91.62s-4.64.29-7,.32-4.63.09-6.93.22-4.58.38-6.91.52c-4.64.25-9.23.22-13.84.45a48.33,48.33,0,0,1-7-.1,17.1,17.1,0,0,1-6.72-2Z"/><path class="cls-4" d="M67.76,36.68c1.39,5.91.92,12.08.44,18.13"/><path class="cls-4" d="M53.53,19.32l0-6.54a21.31,21.31,0,0,0-.19-3.57c-.27-1.67-.95-3.37-.51-5,.29-1.08,1-2.17.63-3.2"/><path class="cls-4" d="M56.39,95.45c.09-6.27.4-14.82.7-21.08"/><path class="cls-3" d="M47.69,6.33c0,.15.06.4,0,.48s-.38.09-.5.13l.27,1a1.22,1.22,0,0,0,.89-1c0-.57-.57-.78-1.06-.73-.64.06-.64,1.06,0,1l.22,0a.27.27,0,0,1-.16-.27s-.09.06-.16.09c-.57.24-.36,1.17.27,1a2.15,2.15,0,0,0,1-.41c.32-.32.25-.75.24-1.16,0-.64-1-.64-1,0Z"/><path class="cls-3" d="M48.64,14.7H47.46v1a1.36,1.36,0,0,0,.21,0h.09c.13,0,.09-.06-.14-.21l.15-.35c-.05.07-.11.08-.2,0-.63-.09-.62.91,0,1s1.21-.34,1-1-.68-.54-1.13-.5c-.63.05-.65,1,0,1h1.18a.5.5,0,0,0,0-1Z"/><path class="cls-3" d="M56.49,6.61a1.49,1.49,0,0,1,.24.14V6.24l.06,0,.38,0c.07.17.15.19.24.08.5-.41-.22-1.11-.71-.71a1,1,0,0,0-.24,1.29.64.64,0,0,0,1.13-.06.49.49,0,0,0,0-.51A2.14,2.14,0,0,0,57,5.75c-.54-.36-1,.5-.51.86Z"/><path class="cls-3" d="M57,14.28c0,.32.16-.35.22-.13a.5.5,0,0,0-1,.26c.25.94,1.74.91,1.75-.13a.5.5,0,0,0-1,0Z"/><path class="cls-3" d="M64.39,42.06c-.15,0-.24-.06-.15.14s.09.11.25,0c.57-.29.07-1.15-.51-.86-.43.21-.84.56-.69,1.1a1,1,0,0,0,1.1.59c.63-.07.64-1.07,0-1Z"/><path class="cls-3" d="M70.86,42.08a3.49,3.49,0,0,1,.49.45.51.51,0,0,0,.84-.22c.31-.8-.55-1.24-1.23-1.17s-.64,1.07,0,1a1.13,1.13,0,0,0,.26,0h.06c.1,0,.08,0-.06-.11l.84-.22a7.92,7.92,0,0,0-.69-.61c-.51-.39-1,.48-.51.87Z"/><path class="cls-3" d="M71,49.39c.05.09.11.17.17.26l.1.19q.09.21.12-.18l.61-.08.08.17c0-.64-1-.65-1,0a.75.75,0,0,0,.42.69.5.5,0,0,0,.6-.08c.51-.41,0-1.07-.24-1.48a.5.5,0,0,0-.86.51Z"/><path class="cls-3" d="M51.66,80.32c0,.8.71,1.71,1.5,1.05s-.08-1.61-.85-1.55-.64,1.05,0,1h.13c0-.22.07-.29.19-.21s.08,0,0,0a.64.64,0,0,1,0-.07.81.81,0,0,0,0-.22c0-.64-1-.64-1,0Z"/><path class="cls-3" d="M59.47,81.37c0,.22.28.45.29.65l.25-.43c-.15.07-.5-.07-.65-.1l.37.48c-.12.16-.12.2,0,.11A.57.57,0,0,0,59.9,82c.52-.37,0-1.24-.5-.86-.34.25-.69.36-.67.86a.51.51,0,0,0,.36.48,2.1,2.1,0,0,0,1.42,0,.5.5,0,0,0,.25-.44c0-.36-.27-.58-.32-.92-.1-.63-1.06-.36-1,.27Z"/><path class="cls-3" d="M60,89.77l-.1,0a.51.51,0,0,0-.23.84,2.12,2.12,0,0,1,.33.41,1.3,1.3,0,0,0,.22.42.64.64,0,0,0,1-.08.92.92,0,0,0-.77-1.48.5.5,0,0,0,0,1c0-.11,0-.14-.05-.09l.49-.13c.08,0,.13.27.06,0a.74.74,0,0,0-.11-.24,4.51,4.51,0,0,0-.45-.53l-.22.83.1,0a.5.5,0,0,0-.26-1Z"/><path class="cls-3" d="M64.34,48.93c-.36.34-.75.68-.53,1.22a.94.94,0,0,0,1.16.53.51.51,0,0,0,.35-.35,2.26,2.26,0,0,0,0-.58c-.08-.63-1.08-.64-1,0a.86.86,0,0,1,0,.32l.35-.35c0,.19.07.22.17.08l.18-.16c.48-.43-.23-1.14-.71-.71Z"/><path class="cls-3" d="M52.77,89.91a.82.82,0,0,0-.61.27.51.51,0,0,0,.49.84.71.71,0,0,0,.6-.63c.09-.63-.87-.9-1-.27l.09-.06.49.83-.1,0c.64,0,.64-1,0-1Z"/><path class="cls-3" d="M112.29,75.7l-27.81-.26-27.81-.36c-9.27-.1-18.53,0-27.78,0s-18.5.16-27.78.4v-.2A238.71,238.71,0,0,1,28.87,73c9.28-.23,18.57.12,27.83.44l27.8,1,27.79,1.06Z"/><path class="cls-2" d="M111.64,65l-24.84.48c7.92,1.35,15.81,3,23.8,3.1h1Z"/><path class="cls-2" d="M111.64,64.33V60.4a48.42,48.42,0,0,1-5.23-.39L86.3,60A231.08,231.08,0,0,0,111.64,64.33Z"/><rect class="cls-5" x="1" y="1" width="111.64" height="111.64"/></g></g></svg>