<svg xmlns="http://www.w3.org/2000/svg" xmlns:xlink="http://www.w3.org/1999/xlink" viewBox="0 0 109.67 109.67"><defs><style>.cls-1,.cls-8{fill:none;}.cls-2{fill:#414042;}.cls-3{fill:#494849;}.cls-4{fill:#535254;}.cls-5{fill:#909091;}.cls-6{fill:#7b7b7c;}.cls-7{fill:url(#New_Pattern_Swatch_18);}.cls-8{stroke:#404041;stroke-miterlimit:10;stroke-width:2px;}.cls-9{fill:url(#New_Pattern_Swatch_16);}</style><pattern id="New_Pattern_Swatch_18" data-name="New Pattern Swatch 18" width="34.49" height="31.78" patternTransform="translate(-12.71 13.61) scale(0.54 0.5)" patternUnits="userSpaceOnUse" viewBox="0 0 34.49 31.78"><rect class="cls-1" width="34.49" height="31.78"/><rect class="cls-5" x="0.25" y="31.67" width="34.5" height="31.78"/><path class="cls-6" d="M16.27,33.79c0-.22,0-.43-.05-.65s0-.23,0-.34c0-.3,0,.16-.1.27l-2.46.32c.33.31-.09-.18.16.18a3.37,3.37,0,0,0,.42.5,3.76,3.76,0,0,0,1,.62,1.59,1.59,0,0,0,2.14-.58,1.64,1.64,0,0,0-.56-2.19c-.1-.05-.2-.11-.3-.15s-.22-.1-.07,0-.19-.25-.19-.26a3.26,3.26,0,0,0-.34-.4,1.57,1.57,0,0,0-2.46.33,4.06,4.06,0,0,0-.27,2.34,1.57,1.57,0,1,0,3.13,0Z"/><rect class="cls-5" x="-34.25" y="31.67" width="34.5" height="31.78"/><path class="cls-6" d="M36.88,12.48a1.5,1.5,0,0,0,0-.22c0-.39-.11-.19-.32.59l-2.62-.71,0,.11a1.57,1.57,0,1,0,3-.85l0-.11a1.56,1.56,0,0,0-2.61-.71,2.33,2.33,0,0,0-.58,1.9,1.57,1.57,0,1,0,3.13,0Z"/><path class="cls-6" d="M37.06,27.45l.37.4,0-.09c.12.09.08.24,0,0s-.07-.32-.1-.48a1.58,1.58,0,0,0-1.92-1.12,1.65,1.65,0,0,0-1.1,2,2.77,2.77,0,0,0,1.2,2.11,1.59,1.59,0,0,0,2.14-.58,1.63,1.63,0,0,0-.56-2.19Z"/><rect class="cls-5" x="0.25" y="-0.11" width="34.5" height="31.78"/><path class="cls-6" d="M14.55,16.9a15,15,0,0,0-2.31,2.89,3.05,3.05,0,0,0-.44,2.33,2.18,2.18,0,0,0,2.42,1.45A1.63,1.63,0,0,0,15.79,22a1.6,1.6,0,0,0-1.57-1.6,1.71,1.71,0,0,1-.39,0,.62.62,0,0,1,.33.08,1,1,0,0,1,.53.49,2.4,2.4,0,0,1,.13.68c0,.2,0,.09,0,0-.07.38-.07.12,0,0l.18-.32.18-.27s.27-.37.16-.23.1-.13.13-.16l.25-.31.45-.51.55-.6c1.44-1.46-.78-3.73-2.21-2.27Z"/><path class="cls-6" d="M20.57,23.93V20a1.57,1.57,0,0,0-3.13,0v3.93a1.57,1.57,0,0,0,3.13,0Z"/><path class="cls-6" d="M35.57,21.24V18.12c0-1.64-3.13-1.64-3.13,0v3.12c0,1.65,3.13,1.65,3.13,0Z"/><path class="cls-6" d="M17.5,13.2a3.67,3.67,0,0,0,.88,3.52,1.57,1.57,0,0,0,2.21,0,1.65,1.65,0,0,0,0-2.27c-.11-.12-.13-.13-.07,0s.05.07,0-.07l.05.13c0-.16,0-.18,0-.07s0-.22,0-.21c0-.34-.06.21,0-.14a1.65,1.65,0,0,0-1.1-2A1.56,1.56,0,0,0,17.5,13.2Z"/><path class="cls-6" d="M23.73,18l-.31-.08.93,2.36.09-.15c-.06.06-.06.06,0,0s.26-.25.13-.16a1.67,1.67,0,0,0,.57-2.19A1.56,1.56,0,0,0,23,17.14a4.9,4.9,0,0,0-1.35,1.48A1.63,1.63,0,0,0,22.58,21l.32.09a1.59,1.59,0,0,0,1.93-1.12,1.65,1.65,0,0,0-1.1-2Z"/><path class="cls-6" d="M26.67,10.06h-.48a1.6,1.6,0,0,0-1.57,1.6,1.62,1.62,0,0,0,1.57,1.61h.48a1.61,1.61,0,0,0,0-3.21Z"/><path class="cls-6" d="M33.67,23.06h-.48a1.6,1.6,0,0,0-1.57,1.6,1.62,1.62,0,0,0,1.57,1.61h.48a1.61,1.61,0,0,0,0-3.21Z"/><path class="cls-6" d="M22.84,6.62a4.92,4.92,0,0,0-2.23.71,1.67,1.67,0,0,0-.56,2.2,1.56,1.56,0,0,0,2.14.57l.3-.17c-.09,0-.08,0,0,0s.53-.11.33-.09a1.61,1.61,0,0,0,0-3.21Z"/><path class="cls-6" d="M13,11.3c-.16,0-.33-.23-.44-.24s.05.1.05.08.14.53.19.74.07.46.13.69.07.23.11.35c.22.76-.17-.15.3-.53L14,12a5,5,0,0,1-1,.22,4.85,4.85,0,0,0-.55.09c-.25.06-.25.06,0,0l.79.22c.45.3.14.42.2,0a4.21,4.21,0,0,0,0-.71,1.57,1.57,0,0,0-3.13,0c0,1.43.31,3.64,2.14,3.69a8.7,8.7,0,0,0,2-.31,2.18,2.18,0,0,0,1.75-1.54,3.58,3.58,0,0,0-.18-1.86c-.12-.42-.16-.86-.29-1.28A2.91,2.91,0,0,0,13,8.09a1.61,1.61,0,0,0,0,3.21Z"/><path class="cls-6" d="M8.48,16.86h.25A1,1,0,0,1,8,16.51c-.1-.1-.24-.55-.22-.27a2.87,2.87,0,0,0,.08.38c0,.18,0,.18,0,0,0,.37.09.2.28-.52a1.68,1.68,0,0,0,0,2.27,1.55,1.55,0,0,0,2.21,0,3.14,3.14,0,0,0,.4-3.09,2.15,2.15,0,0,0-2.3-1.62,1.61,1.61,0,0,0,0,3.21Z"/><path class="cls-6" d="M4.87,10.28A2.9,2.9,0,0,0,3,11.83,1.66,1.66,0,0,0,3.54,14a1.56,1.56,0,0,0,2.14-.58,2,2,0,0,1,.11-.2c.06-.09,0-.08,0,0s-.39.16-.06.08a1.63,1.63,0,0,0,1.1-2,1.6,1.6,0,0,0-1.93-1.12Z"/><path class="cls-6" d="M9.28,7.28H7.84a1.6,1.6,0,0,0,0,3.2H9.28a1.6,1.6,0,0,0,0-3.2Z"/><path class="cls-6" d="M14.71,4.15c-1.39,1.19-.53,3.25.48,4.39a1.55,1.55,0,0,0,2.21,0,1.66,1.66,0,0,0,0-2.27c.18.21-.07-.12-.1-.17s-.21-.46-.09-.18c0,0-.15-.4-.15-.4l0,.55c-.3.44-.34.56-.12.35a1.65,1.65,0,0,0,0-2.27,1.56,1.56,0,0,0-2.21,0Z"/><path class="cls-6" d="M20.12,5.52a3.34,3.34,0,0,0,.4-.25c.07,0,.46-.28.38-.24s-.09,0,.09,0l.57,0a1.61,1.61,0,0,0,0-3.21A4.6,4.6,0,0,0,20,2a7.36,7.36,0,0,0-1.41.76A1.64,1.64,0,0,0,18,5a1.57,1.57,0,0,0,2.14.57Z"/><path class="cls-6" d="M24.62,5.61V6.75a1.57,1.57,0,1,0,3.13,0V5.61a1.57,1.57,0,1,0-3.13,0Z"/><path class="cls-6" d="M25.33,3.4l.47-.1c.33-.07-.15,0,.23,0A1.61,1.61,0,0,0,26,.08,7.84,7.84,0,0,0,24.5.3a1.62,1.62,0,0,0-1.1,2A1.6,1.6,0,0,0,25.33,3.4Z"/><path class="cls-6" d="M26.84,14.29A2.26,2.26,0,0,0,26,16.07a3.37,3.37,0,0,0,.58,1.63,1.57,1.57,0,0,0,2.14.58,1.65,1.65,0,0,0,.56-2.2,2.91,2.91,0,0,0-.27-.49.9.9,0,0,1,0,1q-.16.23.06,0a1.65,1.65,0,0,0,0-2.27,1.56,1.56,0,0,0-2.21,0Z"/><path class="cls-6" d="M23.72,22.72c.47,1.39,1.14,3.31,3,3.14a1.63,1.63,0,0,0,1.56-1.61,1.6,1.6,0,0,0-1.56-1.6c-.25,0,.14.05.21.08s.39.27.19.11c.13.1.13.22,0,0L27,22.58c.17.32,0-.07-.07-.21s-.1-.34-.16-.51a1.6,1.6,0,0,0-1.93-1.12,1.64,1.64,0,0,0-1.09,2Z"/><path class="cls-6" d="M21.72,27H22c.06,0,.39.07.17,0s.06,0,.08,0c.21.12-.36-.2.09.06a1.57,1.57,0,0,0,2.14-.58A1.64,1.64,0,0,0,24,24.34a4.37,4.37,0,0,0-2.23-.55,1.61,1.61,0,0,0,0,3.21Z"/><path class="cls-6" d="M21.88,14.57h.48a1.61,1.61,0,0,0,0-3.21h-.48a1.61,1.61,0,0,0,0,3.21Z"/><path class="cls-6" d="M28.77,8.06a1.82,1.82,0,0,1-.07.67c0,.15-.08.3-.13.45s-.12.38,0,.08a2.65,2.65,0,0,0,0,2.39,1.56,1.56,0,0,0,2.14.58,1.65,1.65,0,0,0,.56-2.2c0,.78.06,1,.16.6-.11.24-.07.15.11-.27a6,6,0,0,0,.19-.6,6.51,6.51,0,0,0,.23-1.7,1.57,1.57,0,1,0-3.13,0Z"/><path class="cls-6" d="M27.87,3.48A2.75,2.75,0,0,0,29.14,5,1.62,1.62,0,0,0,31,4.73a1.66,1.66,0,0,0,.24-1.94l-.14-.25a1.82,1.82,0,0,1,.13.51c0,.12,0,.09.08-.09l.18-.3A1.67,1.67,0,0,0,31,.46,1.58,1.58,0,0,0,28.82,1a4.07,4.07,0,0,0-.67,1.75,2.73,2.73,0,0,0,.43,1.62l2.14-2.2c-.16-.08-.17-.07,0,0s.12.15.06,0-.16-.34-.2-.43a1.55,1.55,0,0,0-2.14-.58,1.67,1.67,0,0,0-.56,2.2Z"/><path class="cls-6" d="M32.25,16.19a1.61,1.61,0,0,0,0-3.21c-2,0-2,3.21,0,3.21Z"/><path class="cls-6" d="M28.86,21.44a1.33,1.33,0,0,0,.4,0c-.76-.66-1-.8-.8-.41.06.14.07.16,0,0s.05.19.06.23c.13.46-.14.14.05-.39l.4-.71a.91.91,0,0,1,.93-.21l.69.41c.18.15.5.84.06,0a3.54,3.54,0,0,0-.39-.54,1.55,1.55,0,0,0-2.21,0,1.67,1.67,0,0,0,0,2.27.67.67,0,0,1-.21-.36l.15.38a2,2,0,0,0,.33.47,1.83,1.83,0,0,0,1.34.54,2,2,0,0,0,2-2,4.49,4.49,0,0,0-.58-1.89,2.23,2.23,0,0,0-2.25-1.06,1.61,1.61,0,0,0,0,3.21Z"/><path class="cls-6" d="M14.39,25.32a2.53,2.53,0,0,0-1.23,2,2.31,2.31,0,0,0,1.38,2A1.88,1.88,0,0,0,16.7,29,3.2,3.2,0,0,0,17.38,27a1.58,1.58,0,0,0-1.56-1.6A1.63,1.63,0,0,0,14.25,27c0-.21,0-.23,0,0s0,.16,0,0c.23-.59.8-.74,1.73-.45.44.74.43,1.24,0,1.52a1.67,1.67,0,0,0,.56-2.19,1.56,1.56,0,0,0-2.14-.58Z"/><path class="cls-6" d="M11,23c-.19.21-.37.43-.56.63a2.68,2.68,0,0,1-.3.28c.14-.11.14-.12,0,0a.81.81,0,0,1,.37-.12l1.35.79c-.21-.29-.08,0-.06.2s0,.12,0-.05a2.87,2.87,0,0,0,.05-.31,1.65,1.65,0,0,0-1.09-2A1.59,1.59,0,0,0,8.88,23.5a4.65,4.65,0,0,0-.07,1.82,1.92,1.92,0,0,0,2,1.58,4.22,4.22,0,0,0,2.39-1.68,1.66,1.66,0,0,0,0-2.27A1.56,1.56,0,0,0,11,23Z"/><path class="cls-6" d="M6.73,18.7s-.4.32-.15.15c0,0-.34.18-.2.12s-.19,0-.19,0l1.37.57a1.27,1.27,0,0,1-.12-.23,1.58,1.58,0,0,0-2.15-.57A1.65,1.65,0,0,0,4.73,21,2,2,0,0,0,7,22.11,4.23,4.23,0,0,0,9,21,1.66,1.66,0,0,0,9,18.7a1.58,1.58,0,0,0-2.22,0Z"/><path class="cls-6" d="M3.05,15.29a2.1,2.1,0,0,0-1.27,4,1.57,1.57,0,0,0,2.15-.58,1.67,1.67,0,0,0-.56-2.19l-.17-.12c-.19-.13-.09,0,.29.29l.21.81c-1.2.71-1.51,1.05-.91,1l.26,0a1.59,1.59,0,0,0,1.57-1.61,1.62,1.62,0,0,0-1.57-1.6Z"/><path class="cls-6" d="M12.06,3.31c-.15-.29,0,.3,0,0,.09.61-.4,1.43-1,1.44a1.61,1.61,0,0,0,0-3.21A2,2,0,0,0,9,2.94a2.67,2.67,0,0,0,.34,2,1.56,1.56,0,0,0,2.14.57,1.64,1.64,0,0,0,.56-2.19Z"/><path class="cls-6" d="M20.35,27.61a6.94,6.94,0,0,0-1.82.65,2,2,0,0,0-.3,3.38,4.41,4.41,0,0,0,2.48.47,2,2,0,0,0,1.75-.72,2.22,2.22,0,0,0,0-2.39,1.56,1.56,0,0,0-2.14-.57,1.64,1.64,0,0,0-.56,2.19,1.59,1.59,0,0,0-.07-.2L20.44,29a1.17,1.17,0,0,1,.4-.13h-.25c-.13,0-.26,0-.39,0h-.44c-.31,0,.17,0,.27.14l.4,1.56c.06-.36-.45.61-.24.39l-.08.08c.12-.13.16-.09,0,0l.27-.1c.27-.09.55-.15.83-.22a1.64,1.64,0,0,0,1.09-2,1.59,1.59,0,0,0-1.92-1.12Z"/><path class="cls-6" d="M24.36,28l-.16.33a1.66,1.66,0,0,0,.56,2.19A1.55,1.55,0,0,0,26.9,30l.16-.33a1.66,1.66,0,0,0-.56-2.19,1.55,1.55,0,0,0-2.14.57Z"/><path class="cls-6" d="M28.13,25.72a2.55,2.55,0,0,0,1.06,2.6,2.13,2.13,0,0,0,2.94-.62,1.62,1.62,0,0,0,0-1.62c-.31-.42-.69-.76-1-1.16a1.54,1.54,0,0,0-2.21,0,1.67,1.67,0,0,0,0,2.27c.1.13.21.24.32.36s.35.35.19.15V26.08l-.05.08.56-.58.53-.12c.21,0,.26.05.14,0s-.08,0,0,0a.9.9,0,0,1,.58.65c.08.09,0,.21,0,0a3,3,0,0,0,0-.42,1.6,1.6,0,0,0-1.56-1.6,1.63,1.63,0,0,0-1.57,1.6Z"/><path class="cls-6" d="M16.27,2c0-.22,0-.43-.05-.65s0-.23,0-.34c0-.3,0,.16-.1.27l-2.46.32c.33.31-.09-.18.16.18a3.37,3.37,0,0,0,.42.5,3.76,3.76,0,0,0,1,.62,1.59,1.59,0,0,0,2.14-.58,1.65,1.65,0,0,0-.56-2.2L16.47,0c-.1,0-.22-.1-.07,0s-.19-.25-.19-.26a3.26,3.26,0,0,0-.34-.4,1.57,1.57,0,0,0-2.46.33A4.06,4.06,0,0,0,13.14,2a1.57,1.57,0,1,0,3.13,0Z"/><path class="cls-6" d="M5.32,2.67c0-.2,0,0,0,0,.1-.11,0-.08,0,0l-.32.52A3,3,0,0,0,4.43,5.1a1.81,1.81,0,0,0,3.24.83,1.68,1.68,0,0,0,0-2.27,1.55,1.55,0,0,0-2.21,0c-.29.3-.08.24.63-.19l.79.22-.06,0,.56.58a.92.92,0,0,1,.11.91l.15-.27c.1-.17.22-.34.32-.52a4,4,0,0,0,.49-1.68A1.6,1.6,0,0,0,6.88,1.06,1.63,1.63,0,0,0,5.32,2.67Z"/><path class="cls-6" d="M3.21,6.78l1.22,1c0,.3,0,.38,0,.25a.76.76,0,0,1,0-.15,2.33,2.33,0,0,0-.27-1A1.82,1.82,0,0,0,2.42,6,1.63,1.63,0,0,0,.85,7.57c0,.78.7,1.72,1.57,1.61.7-.1-1-.56-1.08-1.13-.06-.27,0-.11,0,0a3,3,0,0,0,.17.85A1.78,1.78,0,0,0,3.21,10a1.61,1.61,0,0,0,0-3.21Z"/><path class="cls-6" d="M2.89,2.26,2.57,2.1a1.58,1.58,0,0,0-2.14.57A1.64,1.64,0,0,0,1,4.87L1.31,5a1.58,1.58,0,0,0,2.14-.57,1.65,1.65,0,0,0-.56-2.2Z"/><path class="cls-6" d="M2.39,12.48c0-.08,0-.15,0-.22,0-.39-.11-.19-.32.59l-2.62-.71,0,.11A1.61,1.61,0,0,0,1.4,13.37a1.62,1.62,0,0,0,1.09-2l0-.11a1.57,1.57,0,0,0-2.62-.71,2.33,2.33,0,0,0-.58,1.9,1.62,1.62,0,0,0,1.57,1.6,1.6,1.6,0,0,0,1.57-1.6Z"/><path class="cls-6" d="M2.64,21.23a2.72,2.72,0,0,0-1.92,2.9A2,2,0,0,0,2,25.76a3.94,3.94,0,0,0,1,.22c.06,0,.16,0,.22,0-.2.05-.47-.17-.58-.31A1.58,1.58,0,0,0,5,26a2.47,2.47,0,0,0,.51-2.59,7.49,7.49,0,0,0-.8-1.94,1.59,1.59,0,0,0-2.14-.58A1.65,1.65,0,0,0,2,23.1l.14.22c-.08-.13,0-.11,0,0s.14.41.21.62a3.52,3.52,0,0,1,.15.42c0,.09,0,.27,0,.09s-.08-.46.24-.74l2.46.33a2.75,2.75,0,0,0-1.47-1.18A6.63,6.63,0,0,0,3,22.78c.21,0,.23,0,.05,0a1.74,1.74,0,0,1,.33.18l.4.71c-.11-.29,0,.44,0,.45,0-.27-.08.13,0,0s-.17.16,0,0-.62.25-.29.2a1.62,1.62,0,0,0,1.09-2,1.6,1.6,0,0,0-1.92-1.12Z"/><path class="cls-6" d="M5.8,27.52c1.22-.7,1.53-1.07.92-1.11A1.58,1.58,0,0,0,5.16,28a1.63,1.63,0,0,0,1.56,1.61,2.06,2.06,0,0,0,2.21-2.1,1.59,1.59,0,0,0-1.57-1.6,1.61,1.61,0,0,0-1.56,1.6Z"/><path class="cls-6" d="M10.3,28.1a1.86,1.86,0,0,0-.77,3.14c.74.7,1.85.51,2.78.51a1.61,1.61,0,0,0,0-3.21H11.06l.69.41.1.15.22.81,0,.24-.4.71.07-.06-.69.41.12,0a1.64,1.64,0,0,0,1.09-2A1.59,1.59,0,0,0,10.3,28.1Z"/><path class="cls-6" d="M5,29.35A2.29,2.29,0,0,0,3.22,30a1.65,1.65,0,0,0,0,2.27,1.59,1.59,0,0,0,2.22,0c-.66.18-.82.29-.47.3A1.58,1.58,0,0,0,6.53,31,1.64,1.64,0,0,0,5,29.35Z"/><path class="cls-6" d="M2.57,27.45l.37.4,0-.09c.12.09.08.24,0,0s-.07-.32-.1-.48A1.58,1.58,0,0,0,.88,26.14a1.65,1.65,0,0,0-1.09,2A2.77,2.77,0,0,0,1,30.22a1.59,1.59,0,0,0,2.14-.58,1.64,1.64,0,0,0-.56-2.19Z"/><path class="cls-6" d="M31.5,32.56h1.11A1.6,1.6,0,0,0,34.18,31a1.62,1.62,0,0,0-1.57-1.61H31.5a1.61,1.61,0,0,0,0,3.21Z"/><path class="cls-6" d="M32,5.45A12.58,12.58,0,0,0,32,8.39a1.58,1.58,0,0,0,2.87.38L35,8.55a1.66,1.66,0,0,0-.56-2.2,1.58,1.58,0,0,0-2.15.58l-.13.22,2.86.39c0-.19,0-.21,0,0,0-.11,0-.23,0-.34a4.51,4.51,0,0,1,0-.52c0-.4.05-.79.05-1.18a1.57,1.57,0,1,0-3.13,0Z"/><rect class="cls-5" x="-34.25" y="-0.11" width="34.5" height="31.78"/><path class="cls-6" d="M1.08,21.24V18.12c0-1.64-3.13-1.64-3.13,0v3.12c0,1.65,3.13,1.65,3.13,0Z"/><path class="cls-6" d="M-.83,23.06h-.48a1.6,1.6,0,0,0-1.56,1.6,1.62,1.62,0,0,0,1.56,1.61h.48A1.61,1.61,0,0,0,.74,24.66a1.61,1.61,0,0,0-1.57-1.6Z"/><path class="cls-6" d="M-2.53,5.45a12.58,12.58,0,0,0,.08,2.94,1.57,1.57,0,0,0,2.86.38l.14-.22A1.66,1.66,0,0,0,0,6.35a1.57,1.57,0,0,0-2.14.58l-.13.22,2.86.39c0-.19,0-.21,0,0,0-.11,0-.23,0-.34s0-.35,0-.52c0-.4,0-.79.06-1.18A1.61,1.61,0,0,0-1,3.84,1.62,1.62,0,0,0-2.53,5.45Z"/><path class="cls-6" d="M20.35-4.17a6.94,6.94,0,0,0-1.82.65,2,2,0,0,0-.3,3.38,4.41,4.41,0,0,0,2.48.47,2,2,0,0,0,1.75-.72,2.22,2.22,0,0,0,0-2.39,1.56,1.56,0,0,0-2.14-.57,1.64,1.64,0,0,0-.56,2.19,1.18,1.18,0,0,0-.07-.2l.78-1.39a1.17,1.17,0,0,1,.4-.13h-.25l-.39,0h-.44c-.31,0,.17,0,.27.14l.4,1.56c.06-.36-.45.61-.24.39l-.08.08c.12-.13.16-.09,0,0l.27-.1c.27-.09.55-.15.83-.22a1.64,1.64,0,0,0,1.09-2,1.59,1.59,0,0,0-1.92-1.12Z"/><path class="cls-6" d="M5-2.43a2.29,2.29,0,0,0-1.75.64,1.65,1.65,0,0,0,0,2.27,1.59,1.59,0,0,0,2.22,0c-.66.18-.82.29-.47.3A1.58,1.58,0,0,0,6.53-.82,1.64,1.64,0,0,0,5-2.43Z"/><path class="cls-6" d="M31.5.78h1.11a1.61,1.61,0,0,0,1.57-1.6,1.62,1.62,0,0,0-1.57-1.61H31.5A1.61,1.61,0,0,0,29.93-.82,1.61,1.61,0,0,0,31.5.78Z"/></pattern><pattern id="New_Pattern_Swatch_16" data-name="New Pattern Swatch 16" width="34.49" height="31.78" patternTransform="translate(-0.38 43.97) rotate(-90) scale(0.5)" patternUnits="userSpaceOnUse" viewBox="0 0 34.49 31.78"><rect class="cls-1" width="34.49" height="31.78"/><rect class="cls-2" x="0.25" y="31.67" width="34.5" height="31.78"/><path class="cls-3" d="M16.27,33.79c0-.22,0-.43-.05-.65s0-.23,0-.34c0-.3,0,.16-.1.27l-2.46.32c.33.31-.09-.18.16.18a3.37,3.37,0,0,0,.42.5,3.76,3.76,0,0,0,1,.62,1.59,1.59,0,0,0,2.14-.58,1.64,1.64,0,0,0-.56-2.19c-.1-.05-.2-.11-.3-.15s-.22-.1-.07,0-.19-.25-.19-.26a3.26,3.26,0,0,0-.34-.4,1.57,1.57,0,0,0-2.46.33,4.06,4.06,0,0,0-.27,2.34,1.57,1.57,0,1,0,3.13,0Z"/><rect class="cls-2" x="-34.25" y="31.67" width="34.5" height="31.78"/><path class="cls-3" d="M36.88,12.48a1.5,1.5,0,0,0,0-.22c0-.39-.11-.19-.32.59l-2.62-.71,0,.11a1.57,1.57,0,1,0,3-.85l0-.11a1.56,1.56,0,0,0-2.61-.71,2.33,2.33,0,0,0-.58,1.9,1.57,1.57,0,1,0,3.13,0Z"/><path class="cls-3" d="M37.06,27.45l.37.4,0-.09c.12.09.08.24,0,0s-.07-.32-.1-.48a1.58,1.58,0,0,0-1.92-1.12,1.65,1.65,0,0,0-1.1,2,2.77,2.77,0,0,0,1.2,2.11,1.59,1.59,0,0,0,2.14-.58,1.63,1.63,0,0,0-.56-2.19Z"/><rect class="cls-2" x="0.25" y="-0.11" width="34.5" height="31.78"/><path class="cls-3" d="M14.55,16.9a15,15,0,0,0-2.31,2.89,3.05,3.05,0,0,0-.44,2.33,2.18,2.18,0,0,0,2.42,1.45A1.63,1.63,0,0,0,15.79,22a1.6,1.6,0,0,0-1.57-1.6,1.71,1.71,0,0,1-.39,0,.62.62,0,0,1,.33.08,1,1,0,0,1,.53.49,2.4,2.4,0,0,1,.13.68c0,.2,0,.09,0,0-.07.38-.07.12,0,0l.18-.32.18-.27s.27-.37.16-.23.1-.13.13-.16l.25-.31.45-.51.55-.6c1.44-1.46-.78-3.73-2.21-2.27Z"/><path class="cls-3" d="M20.57,23.93V20a1.57,1.57,0,0,0-3.13,0v3.93a1.57,1.57,0,0,0,3.13,0Z"/><path class="cls-3" d="M35.57,21.24V18.12c0-1.64-3.13-1.64-3.13,0v3.12c0,1.65,3.13,1.65,3.13,0Z"/><path class="cls-4" d="M17.5,13.2a3.67,3.67,0,0,0,.88,3.52,1.57,1.57,0,0,0,2.21,0,1.65,1.65,0,0,0,0-2.27c-.11-.12-.13-.13-.07,0s.05.07,0-.07l.05.13c0-.16,0-.18,0-.07s0-.22,0-.21c0-.34-.06.21,0-.14a1.65,1.65,0,0,0-1.1-2A1.56,1.56,0,0,0,17.5,13.2Z"/><path class="cls-4" d="M23.73,18l-.31-.08.93,2.36.09-.15c-.06.06-.06.06,0,0s.26-.25.13-.16a1.67,1.67,0,0,0,.57-2.19A1.56,1.56,0,0,0,23,17.14a4.9,4.9,0,0,0-1.35,1.48A1.63,1.63,0,0,0,22.58,21l.32.09a1.59,1.59,0,0,0,1.93-1.12,1.65,1.65,0,0,0-1.1-2Z"/><path class="cls-4" d="M26.67,10.06h-.48a1.6,1.6,0,0,0-1.57,1.6,1.62,1.62,0,0,0,1.57,1.61h.48a1.61,1.61,0,0,0,0-3.21Z"/><path class="cls-4" d="M33.67,23.06h-.48a1.6,1.6,0,0,0-1.57,1.6,1.62,1.62,0,0,0,1.57,1.61h.48a1.61,1.61,0,0,0,0-3.21Z"/><path class="cls-3" d="M22.84,6.62a4.92,4.92,0,0,0-2.23.71,1.67,1.67,0,0,0-.56,2.2,1.56,1.56,0,0,0,2.14.57l.3-.17c-.09,0-.08,0,0,0s.53-.11.33-.09a1.61,1.61,0,0,0,0-3.21Z"/><path class="cls-3" d="M13,11.3c-.16,0-.33-.23-.44-.24s.05.1.05.08.14.53.19.74.07.46.13.69.07.23.11.35c.22.76-.17-.15.3-.53L14,12a5,5,0,0,1-1,.22,4.85,4.85,0,0,0-.55.09c-.25.06-.25.06,0,0l.79.22c.45.3.14.42.2,0a4.21,4.21,0,0,0,0-.71,1.57,1.57,0,0,0-3.13,0c0,1.43.31,3.64,2.14,3.69a8.7,8.7,0,0,0,2-.31,2.18,2.18,0,0,0,1.75-1.54,3.58,3.58,0,0,0-.18-1.86c-.12-.42-.16-.86-.29-1.28A2.91,2.91,0,0,0,13,8.09a1.61,1.61,0,0,0,0,3.21Z"/><path class="cls-3" d="M8.48,16.86h.25A1,1,0,0,1,8,16.51c-.1-.1-.24-.55-.22-.27a2.87,2.87,0,0,0,.08.38c0,.18,0,.18,0,0,0,.37.09.2.28-.52a1.68,1.68,0,0,0,0,2.27,1.55,1.55,0,0,0,2.21,0,3.14,3.14,0,0,0,.4-3.09,2.15,2.15,0,0,0-2.3-1.62,1.61,1.61,0,0,0,0,3.21Z"/><path class="cls-3" d="M4.87,10.28A2.9,2.9,0,0,0,3,11.83,1.66,1.66,0,0,0,3.54,14a1.56,1.56,0,0,0,2.14-.58,2,2,0,0,1,.11-.2c.06-.09,0-.08,0,0s-.39.16-.06.08a1.63,1.63,0,0,0,1.1-2,1.6,1.6,0,0,0-1.93-1.12Z"/><path class="cls-4" d="M9.28,7.28H7.84a1.6,1.6,0,0,0,0,3.2H9.28a1.6,1.6,0,0,0,0-3.2Z"/><path class="cls-3" d="M14.71,4.15c-1.39,1.19-.53,3.25.48,4.39a1.55,1.55,0,0,0,2.21,0,1.66,1.66,0,0,0,0-2.27c.18.21-.07-.12-.1-.17s-.21-.46-.09-.18c0,0-.15-.4-.15-.4l0,.55c-.3.44-.34.56-.12.35a1.65,1.65,0,0,0,0-2.27,1.56,1.56,0,0,0-2.21,0Z"/><path class="cls-4" d="M20.12,5.52a3.34,3.34,0,0,0,.4-.25c.07,0,.46-.28.38-.24s-.09,0,.09,0l.57,0a1.61,1.61,0,0,0,0-3.21A4.6,4.6,0,0,0,20,2a7.36,7.36,0,0,0-1.41.76A1.64,1.64,0,0,0,18,5a1.57,1.57,0,0,0,2.14.57Z"/><path class="cls-3" d="M24.62,5.61V6.75a1.57,1.57,0,1,0,3.13,0V5.61a1.57,1.57,0,1,0-3.13,0Z"/><path class="cls-3" d="M25.33,3.4l.47-.1c.33-.07-.15,0,.23,0A1.61,1.61,0,0,0,26,.08,7.84,7.84,0,0,0,24.5.3a1.62,1.62,0,0,0-1.1,2A1.6,1.6,0,0,0,25.33,3.4Z"/><path class="cls-3" d="M26.84,14.29A2.26,2.26,0,0,0,26,16.07a3.37,3.37,0,0,0,.58,1.63,1.57,1.57,0,0,0,2.14.58,1.65,1.65,0,0,0,.56-2.2,2.91,2.91,0,0,0-.27-.49.9.9,0,0,1,0,1q-.16.23.06,0a1.65,1.65,0,0,0,0-2.27,1.56,1.56,0,0,0-2.21,0Z"/><path class="cls-3" d="M23.72,22.72c.47,1.39,1.14,3.31,3,3.14a1.63,1.63,0,0,0,1.56-1.61,1.6,1.6,0,0,0-1.56-1.6c-.25,0,.14.05.21.08s.39.27.19.11c.13.1.13.22,0,0L27,22.58c.17.32,0-.07-.07-.21s-.1-.34-.16-.51a1.6,1.6,0,0,0-1.93-1.12,1.64,1.64,0,0,0-1.09,2Z"/><path class="cls-4" d="M21.72,27H22c.06,0,.39.07.17,0s.06,0,.08,0c.21.12-.36-.2.09.06a1.57,1.57,0,0,0,2.14-.58A1.64,1.64,0,0,0,24,24.34a4.37,4.37,0,0,0-2.23-.55,1.61,1.61,0,0,0,0,3.21Z"/><path class="cls-3" d="M21.88,14.57h.48a1.61,1.61,0,0,0,0-3.21h-.48a1.61,1.61,0,0,0,0,3.21Z"/><path class="cls-3" d="M28.77,8.06a1.82,1.82,0,0,1-.07.67c0,.15-.08.3-.13.45s-.12.38,0,.08a2.65,2.65,0,0,0,0,2.39,1.56,1.56,0,0,0,2.14.58,1.65,1.65,0,0,0,.56-2.2c0,.78.06,1,.16.6-.11.24-.07.15.11-.27a6,6,0,0,0,.19-.6,6.51,6.51,0,0,0,.23-1.7,1.57,1.57,0,1,0-3.13,0Z"/><path class="cls-4" d="M27.87,3.48A2.75,2.75,0,0,0,29.14,5,1.62,1.62,0,0,0,31,4.73a1.66,1.66,0,0,0,.24-1.94l-.14-.25a1.82,1.82,0,0,1,.13.51c0,.12,0,.09.08-.09l.18-.3A1.67,1.67,0,0,0,31,.46,1.58,1.58,0,0,0,28.82,1a4.07,4.07,0,0,0-.67,1.75,2.73,2.73,0,0,0,.43,1.62l2.14-2.2c-.16-.08-.17-.07,0,0s.12.15.06,0-.16-.34-.2-.43a1.55,1.55,0,0,0-2.14-.58,1.67,1.67,0,0,0-.56,2.2Z"/><path class="cls-4" d="M32.25,16.19a1.61,1.61,0,0,0,0-3.21c-2,0-2,3.21,0,3.21Z"/><path class="cls-3" d="M28.86,21.44a1.33,1.33,0,0,0,.4,0c-.76-.66-1-.8-.8-.41.06.14.07.16,0,0s.05.19.06.23c.13.46-.14.14.05-.39l.4-.71a.91.91,0,0,1,.93-.21l.69.41c.18.15.5.84.06,0a3.54,3.54,0,0,0-.39-.54,1.55,1.55,0,0,0-2.21,0,1.67,1.67,0,0,0,0,2.27.67.67,0,0,1-.21-.36l.15.38a2,2,0,0,0,.33.47,1.83,1.83,0,0,0,1.34.54,2,2,0,0,0,2-2,4.49,4.49,0,0,0-.58-1.89,2.23,2.23,0,0,0-2.25-1.06,1.61,1.61,0,0,0,0,3.21Z"/><path class="cls-3" d="M14.39,25.32a2.53,2.53,0,0,0-1.23,2,2.31,2.31,0,0,0,1.38,2A1.88,1.88,0,0,0,16.7,29,3.2,3.2,0,0,0,17.38,27a1.58,1.58,0,0,0-1.56-1.6A1.63,1.63,0,0,0,14.25,27c0-.21,0-.23,0,0s0,.16,0,0c.23-.59.8-.74,1.73-.45.44.74.43,1.24,0,1.52a1.67,1.67,0,0,0,.56-2.19,1.56,1.56,0,0,0-2.14-.58Z"/><path class="cls-4" d="M11,23c-.19.21-.37.43-.56.63a2.68,2.68,0,0,1-.3.28c.14-.11.14-.12,0,0a.81.81,0,0,1,.37-.12l1.35.79c-.21-.29-.08,0-.06.2s0,.12,0-.05a2.87,2.87,0,0,0,.05-.31,1.65,1.65,0,0,0-1.09-2A1.59,1.59,0,0,0,8.88,23.5a4.65,4.65,0,0,0-.07,1.82,1.92,1.92,0,0,0,2,1.58,4.22,4.22,0,0,0,2.39-1.68,1.66,1.66,0,0,0,0-2.27A1.56,1.56,0,0,0,11,23Z"/><path class="cls-3" d="M6.73,18.7s-.4.32-.15.15c0,0-.34.18-.2.12s-.19,0-.19,0l1.37.57a1.27,1.27,0,0,1-.12-.23,1.58,1.58,0,0,0-2.15-.57A1.65,1.65,0,0,0,4.73,21,2,2,0,0,0,7,22.11,4.23,4.23,0,0,0,9,21,1.66,1.66,0,0,0,9,18.7a1.58,1.58,0,0,0-2.22,0Z"/><path class="cls-4" d="M3.05,15.29a2.1,2.1,0,0,0-1.27,4,1.57,1.57,0,0,0,2.15-.58,1.67,1.67,0,0,0-.56-2.19l-.17-.12c-.19-.13-.09,0,.29.29l.21.81c-1.2.71-1.51,1.05-.91,1l.26,0a1.59,1.59,0,0,0,1.57-1.61,1.62,1.62,0,0,0-1.57-1.6Z"/><path class="cls-3" d="M12.06,3.31c-.15-.29,0,.3,0,0,.09.61-.4,1.43-1,1.44a1.61,1.61,0,0,0,0-3.21A2,2,0,0,0,9,2.94a2.67,2.67,0,0,0,.34,2,1.56,1.56,0,0,0,2.14.57,1.64,1.64,0,0,0,.56-2.19Z"/><path class="cls-3" d="M20.35,27.61a6.94,6.94,0,0,0-1.82.65,2,2,0,0,0-.3,3.38,4.41,4.41,0,0,0,2.48.47,2,2,0,0,0,1.75-.72,2.22,2.22,0,0,0,0-2.39,1.56,1.56,0,0,0-2.14-.57,1.64,1.64,0,0,0-.56,2.19,1.59,1.59,0,0,0-.07-.2L20.44,29a1.17,1.17,0,0,1,.4-.13h-.25c-.13,0-.26,0-.39,0h-.44c-.31,0,.17,0,.27.14l.4,1.56c.06-.36-.45.61-.24.39l-.08.08c.12-.13.16-.09,0,0l.27-.1c.27-.09.55-.15.83-.22a1.64,1.64,0,0,0,1.09-2,1.59,1.59,0,0,0-1.92-1.12Z"/><path class="cls-4" d="M24.36,28l-.16.33a1.66,1.66,0,0,0,.56,2.19A1.55,1.55,0,0,0,26.9,30l.16-.33a1.66,1.66,0,0,0-.56-2.19,1.55,1.55,0,0,0-2.14.57Z"/><path class="cls-3" d="M28.13,25.72a2.55,2.55,0,0,0,1.06,2.6,2.13,2.13,0,0,0,2.94-.62,1.62,1.62,0,0,0,0-1.62c-.31-.42-.69-.76-1-1.16a1.54,1.54,0,0,0-2.21,0,1.67,1.67,0,0,0,0,2.27c.1.13.21.24.32.36s.35.35.19.15V26.08l-.05.08.56-.58.53-.12c.21,0,.26.05.14,0s-.08,0,0,0a.9.9,0,0,1,.58.65c.08.09,0,.21,0,0a3,3,0,0,0,0-.42,1.6,1.6,0,0,0-1.56-1.6,1.63,1.63,0,0,0-1.57,1.6Z"/><path class="cls-3" d="M16.27,2c0-.22,0-.43-.05-.65s0-.23,0-.34c0-.3,0,.16-.1.27l-2.46.32c.33.31-.09-.18.16.18a3.37,3.37,0,0,0,.42.5,3.76,3.76,0,0,0,1,.62,1.59,1.59,0,0,0,2.14-.58,1.65,1.65,0,0,0-.56-2.2L16.47,0c-.1,0-.22-.1-.07,0s-.19-.25-.19-.26a3.26,3.26,0,0,0-.34-.4,1.57,1.57,0,0,0-2.46.33A4.06,4.06,0,0,0,13.14,2a1.57,1.57,0,1,0,3.13,0Z"/><path class="cls-4" d="M5.32,2.67c0-.2,0,0,0,0,.1-.11,0-.08,0,0l-.32.52A3,3,0,0,0,4.43,5.1a1.81,1.81,0,0,0,3.24.83,1.68,1.68,0,0,0,0-2.27,1.55,1.55,0,0,0-2.21,0c-.29.3-.08.24.63-.19l.79.22-.06,0,.56.58a.92.92,0,0,1,.11.91l.15-.27c.1-.17.22-.34.32-.52a4,4,0,0,0,.49-1.68A1.6,1.6,0,0,0,6.88,1.06,1.63,1.63,0,0,0,5.32,2.67Z"/><path class="cls-3" d="M3.21,6.78l1.22,1c0,.3,0,.38,0,.25a.76.76,0,0,1,0-.15,2.33,2.33,0,0,0-.27-1A1.82,1.82,0,0,0,2.42,6,1.63,1.63,0,0,0,.85,7.57c0,.78.7,1.72,1.57,1.61.7-.1-1-.56-1.08-1.13-.06-.27,0-.11,0,0a3,3,0,0,0,.17.85A1.78,1.78,0,0,0,3.21,10a1.61,1.61,0,0,0,0-3.21Z"/><path class="cls-3" d="M2.89,2.26,2.57,2.1a1.58,1.58,0,0,0-2.14.57A1.64,1.64,0,0,0,1,4.87L1.31,5a1.58,1.58,0,0,0,2.14-.57,1.65,1.65,0,0,0-.56-2.2Z"/><path class="cls-3" d="M2.39,12.48c0-.08,0-.15,0-.22,0-.39-.11-.19-.32.59l-2.62-.71,0,.11A1.61,1.61,0,0,0,1.4,13.37a1.62,1.62,0,0,0,1.09-2l0-.11a1.57,1.57,0,0,0-2.62-.71,2.33,2.33,0,0,0-.58,1.9,1.62,1.62,0,0,0,1.57,1.6,1.6,1.6,0,0,0,1.57-1.6Z"/><path class="cls-3" d="M2.64,21.23a2.72,2.72,0,0,0-1.92,2.9A2,2,0,0,0,2,25.76a3.94,3.94,0,0,0,1,.22c.06,0,.16,0,.22,0-.2.05-.47-.17-.58-.31A1.58,1.58,0,0,0,5,26a2.47,2.47,0,0,0,.51-2.59,7.49,7.49,0,0,0-.8-1.94,1.59,1.59,0,0,0-2.14-.58A1.65,1.65,0,0,0,2,23.1l.14.22c-.08-.13,0-.11,0,0s.14.41.21.62a3.52,3.52,0,0,1,.15.42c0,.09,0,.27,0,.09s-.08-.46.24-.74l2.46.33a2.75,2.75,0,0,0-1.47-1.18A6.63,6.63,0,0,0,3,22.78c.21,0,.23,0,.05,0a1.74,1.74,0,0,1,.33.18l.4.71c-.11-.29,0,.44,0,.45,0-.27-.08.13,0,0s-.17.16,0,0-.62.25-.29.2a1.62,1.62,0,0,0,1.09-2,1.6,1.6,0,0,0-1.92-1.12Z"/><path class="cls-3" d="M5.8,27.52c1.22-.7,1.53-1.07.92-1.11A1.58,1.58,0,0,0,5.16,28a1.63,1.63,0,0,0,1.56,1.61,2.06,2.06,0,0,0,2.21-2.1,1.59,1.59,0,0,0-1.57-1.6,1.61,1.61,0,0,0-1.56,1.6Z"/><path class="cls-3" d="M10.3,28.1a1.86,1.86,0,0,0-.77,3.14c.74.7,1.85.51,2.78.51a1.61,1.61,0,0,0,0-3.21H11.06l.69.41.1.15.22.81,0,.24-.4.71.07-.06-.69.41.12,0a1.64,1.64,0,0,0,1.09-2A1.59,1.59,0,0,0,10.3,28.1Z"/><path class="cls-3" d="M5,29.35A2.29,2.29,0,0,0,3.22,30a1.65,1.65,0,0,0,0,2.27,1.59,1.59,0,0,0,2.22,0c-.66.18-.82.29-.47.3A1.58,1.58,0,0,0,6.53,31,1.64,1.64,0,0,0,5,29.35Z"/><path class="cls-3" d="M2.57,27.45l.37.4,0-.09c.12.09.08.24,0,0s-.07-.32-.1-.48A1.58,1.58,0,0,0,.88,26.14a1.65,1.65,0,0,0-1.09,2A2.77,2.77,0,0,0,1,30.22a1.59,1.59,0,0,0,2.14-.58,1.64,1.64,0,0,0-.56-2.19Z"/><path class="cls-3" d="M31.5,32.56h1.11A1.6,1.6,0,0,0,34.18,31a1.62,1.62,0,0,0-1.57-1.61H31.5a1.61,1.61,0,0,0,0,3.21Z"/><path class="cls-3" d="M32,5.45A12.58,12.58,0,0,0,32,8.39a1.58,1.58,0,0,0,2.87.38L35,8.55a1.66,1.66,0,0,0-.56-2.2,1.58,1.58,0,0,0-2.15.58l-.13.22,2.86.39c0-.19,0-.21,0,0,0-.11,0-.23,0-.34a4.51,4.51,0,0,1,0-.52c0-.4.05-.79.05-1.18a1.57,1.57,0,1,0-3.13,0Z"/><rect class="cls-2" x="-34.25" y="-0.11" width="34.5" height="31.78"/><path class="cls-3" d="M1.08,21.24V18.12c0-1.64-3.13-1.64-3.13,0v3.12c0,1.65,3.13,1.65,3.13,0Z"/><path class="cls-4" d="M-.83,23.06h-.48a1.6,1.6,0,0,0-1.56,1.6,1.62,1.62,0,0,0,1.56,1.61h.48A1.61,1.61,0,0,0,.74,24.66a1.61,1.61,0,0,0-1.57-1.6Z"/><path class="cls-3" d="M-2.53,5.45a12.58,12.58,0,0,0,.08,2.94,1.57,1.57,0,0,0,2.86.38l.14-.22A1.66,1.66,0,0,0,0,6.35a1.57,1.57,0,0,0-2.14.58l-.13.22,2.86.39c0-.19,0-.21,0,0,0-.11,0-.23,0-.34s0-.35,0-.52c0-.4,0-.79.06-1.18A1.61,1.61,0,0,0-1,3.84,1.62,1.62,0,0,0-2.53,5.45Z"/><path class="cls-3" d="M20.35-4.17a6.94,6.94,0,0,0-1.82.65,2,2,0,0,0-.3,3.38,4.41,4.41,0,0,0,2.48.47,2,2,0,0,0,1.75-.72,2.22,2.22,0,0,0,0-2.39,1.56,1.56,0,0,0-2.14-.57,1.64,1.64,0,0,0-.56,2.19,1.18,1.18,0,0,0-.07-.2l.78-1.39a1.17,1.17,0,0,1,.4-.13h-.25l-.39,0h-.44c-.31,0,.17,0,.27.14l.4,1.56c.06-.36-.45.61-.24.39l-.08.08c.12-.13.16-.09,0,0l.27-.1c.27-.09.55-.15.83-.22a1.64,1.64,0,0,0,1.09-2,1.59,1.59,0,0,0-1.92-1.12Z"/><path class="cls-3" d="M5-2.43a2.29,2.29,0,0,0-1.75.64,1.65,1.65,0,0,0,0,2.27,1.59,1.59,0,0,0,2.22,0c-.66.18-.82.29-.47.3A1.58,1.58,0,0,0,6.53-.82,1.64,1.64,0,0,0,5-2.43Z"/><path class="cls-3" d="M31.5.78h1.11a1.61,1.61,0,0,0,1.57-1.6,1.62,1.62,0,0,0-1.57-1.61H31.5A1.61,1.61,0,0,0,29.93-.82,1.61,1.61,0,0,0,31.5.78Z"/></pattern></defs><title>door</title><g id="Layer_2" data-name="Layer 2"><g id="Layer_1-2" data-name="Layer 1"><rect class="cls-1" width="109.67" height="109.67"/><rect class="cls-7" x="32.37" width="44.71" height="9.38"/><line class="cls-8" x1="30.19" y1="7.96" x2="71.67" y2="30.46"/><rect class="cls-9" width="32.6" height="9.14"/><rect class="cls-9" x="77.08" width="32.6" height="9.14"/></g></g></svg>