<svg xmlns="http://www.w3.org/2000/svg" xmlns:xlink="http://www.w3.org/1999/xlink" viewBox="0 0 111.64 111.64"><defs><style>.cls-1{fill:none;}.cls-2{fill:#909091;}.cls-3{fill:#7b7b7c;}.cls-4{fill:url(#New_Pattern_Swatch_18);}.cls-5{fill:#c4c4c6;}.cls-6{fill:#535254;}.cls-7{fill:#dbdbdb;opacity:0.65;}</style><pattern id="New_Pattern_Swatch_18" data-name="New Pattern Swatch 18" width="34.49" height="31.78" patternTransform="translate(-12.71 6.14) scale(0.54)" patternUnits="userSpaceOnUse" viewBox="0 0 34.49 31.78"><rect class="cls-1" width="34.49" height="31.78"/><rect class="cls-2" x="0.25" y="31.67" width="34.5" height="31.78"/><path class="cls-3" d="M16.27,33.79c0-.22,0-.43-.05-.65s0-.23,0-.34c0-.3,0,.16-.1.27l-2.46.32c.33.31-.09-.18.16.18a3.37,3.37,0,0,0,.42.5,3.76,3.76,0,0,0,1,.62,1.59,1.59,0,0,0,2.14-.58,1.64,1.64,0,0,0-.56-2.19c-.1-.05-.2-.11-.3-.15s-.22-.1-.07,0-.19-.25-.19-.26a3.26,3.26,0,0,0-.34-.4,1.57,1.57,0,0,0-2.46.33,4.06,4.06,0,0,0-.27,2.34,1.57,1.57,0,1,0,3.13,0Z"/><rect class="cls-2" x="-34.25" y="31.67" width="34.5" height="31.78"/><path class="cls-3" d="M36.88,12.48a1.5,1.5,0,0,0,0-.22c0-.39-.11-.19-.32.59l-2.62-.71,0,.11a1.57,1.57,0,1,0,3-.85l0-.11a1.56,1.56,0,0,0-2.61-.71,2.33,2.33,0,0,0-.58,1.9,1.57,1.57,0,1,0,3.13,0Z"/><path class="cls-3" d="M37.06,27.45l.37.4,0-.09c.12.09.08.24,0,0s-.07-.32-.1-.48a1.58,1.58,0,0,0-1.92-1.12,1.65,1.65,0,0,0-1.1,2,2.77,2.77,0,0,0,1.2,2.11,1.59,1.59,0,0,0,2.14-.58,1.63,1.63,0,0,0-.56-2.19Z"/><rect class="cls-2" x="0.25" y="-0.11" width="34.5" height="31.78"/><path class="cls-3" d="M14.55,16.9a15,15,0,0,0-2.31,2.89,3.05,3.05,0,0,0-.44,2.33,2.18,2.18,0,0,0,2.42,1.45A1.63,1.63,0,0,0,15.79,22a1.6,1.6,0,0,0-1.57-1.6,1.71,1.71,0,0,1-.39,0,.62.62,0,0,1,.33.08,1,1,0,0,1,.53.49,2.4,2.4,0,0,1,.13.68c0,.2,0,.09,0,0-.07.38-.07.12,0,0l.18-.32.18-.27s.27-.37.16-.23.1-.13.13-.16l.25-.31.45-.51.55-.6c1.44-1.46-.78-3.73-2.21-2.27Z"/><path class="cls-3" d="M20.57,23.93V20a1.57,1.57,0,0,0-3.13,0v3.93a1.57,1.57,0,0,0,3.13,0Z"/><path class="cls-3" d="M35.57,21.24V18.12c0-1.64-3.13-1.64-3.13,0v3.12c0,1.65,3.13,1.65,3.13,0Z"/><path class="cls-3" d="M17.5,13.2a3.67,3.67,0,0,0,.88,3.52,1.57,1.57,0,0,0,2.21,0,1.65,1.65,0,0,0,0-2.27c-.11-.12-.13-.13-.07,0s.05.07,0-.07l.05.13c0-.16,0-.18,0-.07s0-.22,0-.21c0-.34-.06.21,0-.14a1.65,1.65,0,0,0-1.1-2A1.56,1.56,0,0,0,17.5,13.2Z"/><path class="cls-3" d="M23.73,18l-.31-.08.93,2.36.09-.15c-.06.06-.06.06,0,0s.26-.25.13-.16a1.67,1.67,0,0,0,.57-2.19A1.56,1.56,0,0,0,23,17.14a4.9,4.9,0,0,0-1.35,1.48A1.63,1.63,0,0,0,22.58,21l.32.09a1.59,1.59,0,0,0,1.93-1.12,1.65,1.65,0,0,0-1.1-2Z"/><path class="cls-3" d="M26.67,10.06h-.48a1.6,1.6,0,0,0-1.57,1.6,1.62,1.62,0,0,0,1.57,1.61h.48a1.61,1.61,0,0,0,0-3.21Z"/><path class="cls-3" d="M33.67,23.06h-.48a1.6,1.6,0,0,0-1.57,1.6,1.62,1.62,0,0,0,1.57,1.61h.48a1.61,1.61,0,0,0,0-3.21Z"/><path class="cls-3" d="M22.84,6.62a4.92,4.92,0,0,0-2.23.71,1.67,1.67,0,0,0-.56,2.2,1.56,1.56,0,0,0,2.14.57l.3-.17c-.09,0-.08,0,0,0s.53-.11.33-.09a1.61,1.61,0,0,0,0-3.21Z"/><path class="cls-3" d="M13,11.3c-.16,0-.33-.23-.44-.24s.05.1.05.08.14.53.19.74.07.46.13.69.07.23.11.35c.22.76-.17-.15.3-.53L14,12a5,5,0,0,1-1,.22,4.85,4.85,0,0,0-.55.09c-.25.06-.25.06,0,0l.79.22c.45.3.14.42.2,0a4.21,4.21,0,0,0,0-.71,1.57,1.57,0,0,0-3.13,0c0,1.43.31,3.64,2.14,3.69a8.7,8.7,0,0,0,2-.31,2.18,2.18,0,0,0,1.75-1.54,3.58,3.58,0,0,0-.18-1.86c-.12-.42-.16-.86-.29-1.28A2.91,2.91,0,0,0,13,8.09a1.61,1.61,0,0,0,0,3.21Z"/><path class="cls-3" d="M8.48,16.86h.25A1,1,0,0,1,8,16.51c-.1-.1-.24-.55-.22-.27a2.87,2.87,0,0,0,.08.38c0,.18,0,.18,0,0,0,.37.09.2.28-.52a1.68,1.68,0,0,0,0,2.27,1.55,1.55,0,0,0,2.21,0,3.14,3.14,0,0,0,.4-3.09,2.15,2.15,0,0,0-2.3-1.62,1.61,1.61,0,0,0,0,3.21Z"/><path class="cls-3" d="M4.87,10.28A2.9,2.9,0,0,0,3,11.83,1.66,1.66,0,0,0,3.54,14a1.56,1.56,0,0,0,2.14-.58,2,2,0,0,1,.11-.2c.06-.09,0-.08,0,0s-.39.16-.06.08a1.63,1.63,0,0,0,1.1-2,1.6,1.6,0,0,0-1.93-1.12Z"/><path class="cls-3" d="M9.28,7.28H7.84a1.6,1.6,0,0,0,0,3.2H9.28a1.6,1.6,0,0,0,0-3.2Z"/><path class="cls-3" d="M14.71,4.15c-1.39,1.19-.53,3.25.48,4.39a1.55,1.55,0,0,0,2.21,0,1.66,1.66,0,0,0,0-2.27c.18.21-.07-.12-.1-.17s-.21-.46-.09-.18c0,0-.15-.4-.15-.4l0,.55c-.3.44-.34.56-.12.35a1.65,1.65,0,0,0,0-2.27,1.56,1.56,0,0,0-2.21,0Z"/><path class="cls-3" d="M20.12,5.52a3.34,3.34,0,0,0,.4-.25c.07,0,.46-.28.38-.24s-.09,0,.09,0l.57,0a1.61,1.61,0,0,0,0-3.21A4.6,4.6,0,0,0,20,2a7.36,7.36,0,0,0-1.41.76A1.64,1.64,0,0,0,18,5a1.57,1.57,0,0,0,2.14.57Z"/><path class="cls-3" d="M24.62,5.61V6.75a1.57,1.57,0,1,0,3.13,0V5.61a1.57,1.57,0,1,0-3.13,0Z"/><path class="cls-3" d="M25.33,3.4l.47-.1c.33-.07-.15,0,.23,0A1.61,1.61,0,0,0,26,.08,7.84,7.84,0,0,0,24.5.3a1.62,1.62,0,0,0-1.1,2A1.6,1.6,0,0,0,25.33,3.4Z"/><path class="cls-3" d="M26.84,14.29A2.26,2.26,0,0,0,26,16.07a3.37,3.37,0,0,0,.58,1.63,1.57,1.57,0,0,0,2.14.58,1.65,1.65,0,0,0,.56-2.2,2.91,2.91,0,0,0-.27-.49.9.9,0,0,1,0,1q-.16.23.06,0a1.65,1.65,0,0,0,0-2.27,1.56,1.56,0,0,0-2.21,0Z"/><path class="cls-3" d="M23.72,22.72c.47,1.39,1.14,3.31,3,3.14a1.63,1.63,0,0,0,1.56-1.61,1.6,1.6,0,0,0-1.56-1.6c-.25,0,.14.05.21.08s.39.27.19.11c.13.1.13.22,0,0L27,22.58c.17.32,0-.07-.07-.21s-.1-.34-.16-.51a1.6,1.6,0,0,0-1.93-1.12,1.64,1.64,0,0,0-1.09,2Z"/><path class="cls-3" d="M21.72,27H22c.06,0,.39.07.17,0s.06,0,.08,0c.21.12-.36-.2.09.06a1.57,1.57,0,0,0,2.14-.58A1.64,1.64,0,0,0,24,24.34a4.37,4.37,0,0,0-2.23-.55,1.61,1.61,0,0,0,0,3.21Z"/><path class="cls-3" d="M21.88,14.57h.48a1.61,1.61,0,0,0,0-3.21h-.48a1.61,1.61,0,0,0,0,3.21Z"/><path class="cls-3" d="M28.77,8.06a1.82,1.82,0,0,1-.07.67c0,.15-.08.3-.13.45s-.12.38,0,.08a2.65,2.65,0,0,0,0,2.39,1.56,1.56,0,0,0,2.14.58,1.65,1.65,0,0,0,.56-2.2c0,.78.06,1,.16.6-.11.24-.07.15.11-.27a6,6,0,0,0,.19-.6,6.51,6.51,0,0,0,.23-1.7,1.57,1.57,0,1,0-3.13,0Z"/><path class="cls-3" d="M27.87,3.48A2.75,2.75,0,0,0,29.14,5,1.62,1.62,0,0,0,31,4.73a1.66,1.66,0,0,0,.24-1.94l-.14-.25a1.82,1.82,0,0,1,.13.51c0,.12,0,.09.08-.09l.18-.3A1.67,1.67,0,0,0,31,.46,1.58,1.58,0,0,0,28.82,1a4.07,4.07,0,0,0-.67,1.75,2.73,2.73,0,0,0,.43,1.62l2.14-2.2c-.16-.08-.17-.07,0,0s.12.15.06,0-.16-.34-.2-.43a1.55,1.55,0,0,0-2.14-.58,1.67,1.67,0,0,0-.56,2.2Z"/><path class="cls-3" d="M32.25,16.19a1.61,1.61,0,0,0,0-3.21c-2,0-2,3.21,0,3.21Z"/><path class="cls-3" d="M28.86,21.44a1.33,1.33,0,0,0,.4,0c-.76-.66-1-.8-.8-.41.06.14.07.16,0,0s.05.19.06.23c.13.46-.14.14.05-.39l.4-.71a.91.91,0,0,1,.93-.21l.69.41c.18.15.5.84.06,0a3.54,3.54,0,0,0-.39-.54,1.55,1.55,0,0,0-2.21,0,1.67,1.67,0,0,0,0,2.27.67.67,0,0,1-.21-.36l.15.38a2,2,0,0,0,.33.47,1.83,1.83,0,0,0,1.34.54,2,2,0,0,0,2-2,4.49,4.49,0,0,0-.58-1.89,2.23,2.23,0,0,0-2.25-1.06,1.61,1.61,0,0,0,0,3.21Z"/><path class="cls-3" d="M14.39,25.32a2.53,2.53,0,0,0-1.23,2,2.31,2.31,0,0,0,1.38,2A1.88,1.88,0,0,0,16.7,29,3.2,3.2,0,0,0,17.38,27a1.58,1.58,0,0,0-1.56-1.6A1.63,1.63,0,0,0,14.25,27c0-.21,0-.23,0,0s0,.16,0,0c.23-.59.8-.74,1.73-.45.44.74.43,1.24,0,1.52a1.67,1.67,0,0,0,.56-2.19,1.56,1.56,0,0,0-2.14-.58Z"/><path class="cls-3" d="M11,23c-.19.21-.37.43-.56.63a2.68,2.68,0,0,1-.3.28c.14-.11.14-.12,0,0a.81.81,0,0,1,.37-.12l1.35.79c-.21-.29-.08,0-.06.2s0,.12,0-.05a2.87,2.87,0,0,0,.05-.31,1.65,1.65,0,0,0-1.09-2A1.59,1.59,0,0,0,8.88,23.5a4.65,4.65,0,0,0-.07,1.82,1.92,1.92,0,0,0,2,1.58,4.22,4.22,0,0,0,2.39-1.68,1.66,1.66,0,0,0,0-2.27A1.56,1.56,0,0,0,11,23Z"/><path class="cls-3" d="M6.73,18.7s-.4.32-.15.15c0,0-.34.18-.2.12s-.19,0-.19,0l1.37.57a1.27,1.27,0,0,1-.12-.23,1.58,1.58,0,0,0-2.15-.57A1.65,1.65,0,0,0,4.73,21,2,2,0,0,0,7,22.11,4.23,4.23,0,0,0,9,21,1.66,1.66,0,0,0,9,18.7a1.58,1.58,0,0,0-2.22,0Z"/><path class="cls-3" d="M3.05,15.29a2.1,2.1,0,0,0-1.27,4,1.57,1.57,0,0,0,2.15-.58,1.67,1.67,0,0,0-.56-2.19l-.17-.12c-.19-.13-.09,0,.29.29l.21.81c-1.2.71-1.51,1.05-.91,1l.26,0a1.59,1.59,0,0,0,1.57-1.61,1.62,1.62,0,0,0-1.57-1.6Z"/><path class="cls-3" d="M12.06,3.31c-.15-.29,0,.3,0,0,.09.61-.4,1.43-1,1.44a1.61,1.61,0,0,0,0-3.21A2,2,0,0,0,9,2.94a2.67,2.67,0,0,0,.34,2,1.56,1.56,0,0,0,2.14.57,1.64,1.64,0,0,0,.56-2.19Z"/><path class="cls-3" d="M20.35,27.61a6.94,6.94,0,0,0-1.82.65,2,2,0,0,0-.3,3.38,4.41,4.41,0,0,0,2.48.47,2,2,0,0,0,1.75-.72,2.22,2.22,0,0,0,0-2.39,1.56,1.56,0,0,0-2.14-.57,1.64,1.64,0,0,0-.56,2.19,1.59,1.59,0,0,0-.07-.2L20.44,29a1.17,1.17,0,0,1,.4-.13h-.25c-.13,0-.26,0-.39,0h-.44c-.31,0,.17,0,.27.14l.4,1.56c.06-.36-.45.61-.24.39l-.08.08c.12-.13.16-.09,0,0l.27-.1c.27-.09.55-.15.83-.22a1.64,1.64,0,0,0,1.09-2,1.59,1.59,0,0,0-1.92-1.12Z"/><path class="cls-3" d="M24.36,28l-.16.33a1.66,1.66,0,0,0,.56,2.19A1.55,1.55,0,0,0,26.9,30l.16-.33a1.66,1.66,0,0,0-.56-2.19,1.55,1.55,0,0,0-2.14.57Z"/><path class="cls-3" d="M28.13,25.72a2.55,2.55,0,0,0,1.06,2.6,2.13,2.13,0,0,0,2.94-.62,1.62,1.62,0,0,0,0-1.62c-.31-.42-.69-.76-1-1.16a1.54,1.54,0,0,0-2.21,0,1.67,1.67,0,0,0,0,2.27c.1.13.21.24.32.36s.35.35.19.15V26.08l-.05.08.56-.58.53-.12c.21,0,.26.05.14,0s-.08,0,0,0a.9.9,0,0,1,.58.65c.08.09,0,.21,0,0a3,3,0,0,0,0-.42,1.6,1.6,0,0,0-1.56-1.6,1.63,1.63,0,0,0-1.57,1.6Z"/><path class="cls-3" d="M16.27,2c0-.22,0-.43-.05-.65s0-.23,0-.34c0-.3,0,.16-.1.27l-2.46.32c.33.31-.09-.18.16.18a3.37,3.37,0,0,0,.42.5,3.76,3.76,0,0,0,1,.62,1.59,1.59,0,0,0,2.14-.58,1.65,1.65,0,0,0-.56-2.2L16.47,0c-.1,0-.22-.1-.07,0s-.19-.25-.19-.26a3.26,3.26,0,0,0-.34-.4,1.57,1.57,0,0,0-2.46.33A4.06,4.06,0,0,0,13.14,2a1.57,1.57,0,1,0,3.13,0Z"/><path class="cls-3" d="M5.32,2.67c0-.2,0,0,0,0,.1-.11,0-.08,0,0l-.32.52A3,3,0,0,0,4.43,5.1a1.81,1.81,0,0,0,3.24.83,1.68,1.68,0,0,0,0-2.27,1.55,1.55,0,0,0-2.21,0c-.29.3-.08.24.63-.19l.79.22-.06,0,.56.58a.92.92,0,0,1,.11.91l.15-.27c.1-.17.22-.34.32-.52a4,4,0,0,0,.49-1.68A1.6,1.6,0,0,0,6.88,1.06,1.63,1.63,0,0,0,5.32,2.67Z"/><path class="cls-3" d="M3.21,6.78l1.22,1c0,.3,0,.38,0,.25a.76.76,0,0,1,0-.15,2.33,2.33,0,0,0-.27-1A1.82,1.82,0,0,0,2.42,6,1.63,1.63,0,0,0,.85,7.57c0,.78.7,1.72,1.57,1.61.7-.1-1-.56-1.08-1.13-.06-.27,0-.11,0,0a3,3,0,0,0,.17.85A1.78,1.78,0,0,0,3.21,10a1.61,1.61,0,0,0,0-3.21Z"/><path class="cls-3" d="M2.89,2.26,2.57,2.1a1.58,1.58,0,0,0-2.14.57A1.64,1.64,0,0,0,1,4.87L1.31,5a1.58,1.58,0,0,0,2.14-.57,1.65,1.65,0,0,0-.56-2.2Z"/><path class="cls-3" d="M2.39,12.48c0-.08,0-.15,0-.22,0-.39-.11-.19-.32.59l-2.62-.71,0,.11A1.61,1.61,0,0,0,1.4,13.37a1.62,1.62,0,0,0,1.09-2l0-.11a1.57,1.57,0,0,0-2.62-.71,2.33,2.33,0,0,0-.58,1.9,1.62,1.62,0,0,0,1.57,1.6,1.6,1.6,0,0,0,1.57-1.6Z"/><path class="cls-3" d="M2.64,21.23a2.72,2.72,0,0,0-1.92,2.9A2,2,0,0,0,2,25.76a3.94,3.94,0,0,0,1,.22c.06,0,.16,0,.22,0-.2.05-.47-.17-.58-.31A1.58,1.58,0,0,0,5,26a2.47,2.47,0,0,0,.51-2.59,7.49,7.49,0,0,0-.8-1.94,1.59,1.59,0,0,0-2.14-.58A1.65,1.65,0,0,0,2,23.1l.14.22c-.08-.13,0-.11,0,0s.14.41.21.62a3.52,3.52,0,0,1,.15.42c0,.09,0,.27,0,.09s-.08-.46.24-.74l2.46.33a2.75,2.75,0,0,0-1.47-1.18A6.63,6.63,0,0,0,3,22.78c.21,0,.23,0,.05,0a1.74,1.74,0,0,1,.33.18l.4.71c-.11-.29,0,.44,0,.45,0-.27-.08.13,0,0s-.17.16,0,0-.62.25-.29.2a1.62,1.62,0,0,0,1.09-2,1.6,1.6,0,0,0-1.92-1.12Z"/><path class="cls-3" d="M5.8,27.52c1.22-.7,1.53-1.07.92-1.11A1.58,1.58,0,0,0,5.16,28a1.63,1.63,0,0,0,1.56,1.61,2.06,2.06,0,0,0,2.21-2.1,1.59,1.59,0,0,0-1.57-1.6,1.61,1.61,0,0,0-1.56,1.6Z"/><path class="cls-3" d="M10.3,28.1a1.86,1.86,0,0,0-.77,3.14c.74.7,1.85.51,2.78.51a1.61,1.61,0,0,0,0-3.21H11.06l.69.41.1.15.22.81,0,.24-.4.71.07-.06-.69.41.12,0a1.64,1.64,0,0,0,1.09-2A1.59,1.59,0,0,0,10.3,28.1Z"/><path class="cls-3" d="M5,29.35A2.29,2.29,0,0,0,3.22,30a1.65,1.65,0,0,0,0,2.27,1.59,1.59,0,0,0,2.22,0c-.66.18-.82.29-.47.3A1.58,1.58,0,0,0,6.53,31,1.64,1.64,0,0,0,5,29.35Z"/><path class="cls-3" d="M2.57,27.45l.37.4,0-.09c.12.09.08.24,0,0s-.07-.32-.1-.48A1.58,1.58,0,0,0,.88,26.14a1.65,1.65,0,0,0-1.09,2A2.77,2.77,0,0,0,1,30.22a1.59,1.59,0,0,0,2.14-.58,1.64,1.64,0,0,0-.56-2.19Z"/><path class="cls-3" d="M31.5,32.56h1.11A1.6,1.6,0,0,0,34.18,31a1.62,1.62,0,0,0-1.57-1.61H31.5a1.61,1.61,0,0,0,0,3.21Z"/><path class="cls-3" d="M32,5.45A12.58,12.58,0,0,0,32,8.39a1.58,1.58,0,0,0,2.87.38L35,8.55a1.66,1.66,0,0,0-.56-2.2,1.58,1.58,0,0,0-2.15.58l-.13.22,2.86.39c0-.19,0-.21,0,0,0-.11,0-.23,0-.34a4.51,4.51,0,0,1,0-.52c0-.4.05-.79.05-1.18a1.57,1.57,0,1,0-3.13,0Z"/><rect class="cls-2" x="-34.25" y="-0.11" width="34.5" height="31.78"/><path class="cls-3" d="M1.08,21.24V18.12c0-1.64-3.13-1.64-3.13,0v3.12c0,1.65,3.13,1.65,3.13,0Z"/><path class="cls-3" d="M-.83,23.06h-.48a1.6,1.6,0,0,0-1.56,1.6,1.62,1.62,0,0,0,1.56,1.61h.48A1.61,1.61,0,0,0,.74,24.66a1.61,1.61,0,0,0-1.57-1.6Z"/><path class="cls-3" d="M-2.53,5.45a12.58,12.58,0,0,0,.08,2.94,1.57,1.57,0,0,0,2.86.38l.14-.22A1.66,1.66,0,0,0,0,6.35a1.57,1.57,0,0,0-2.14.58l-.13.22,2.86.39c0-.19,0-.21,0,0,0-.11,0-.23,0-.34s0-.35,0-.52c0-.4,0-.79.06-1.18A1.61,1.61,0,0,0-1,3.84,1.62,1.62,0,0,0-2.53,5.45Z"/><path class="cls-3" d="M20.35-4.17a6.94,6.94,0,0,0-1.82.65,2,2,0,0,0-.3,3.38,4.41,4.41,0,0,0,2.48.47,2,2,0,0,0,1.75-.72,2.22,2.22,0,0,0,0-2.39,1.56,1.56,0,0,0-2.14-.57,1.64,1.64,0,0,0-.56,2.19,1.18,1.18,0,0,0-.07-.2l.78-1.39a1.17,1.17,0,0,1,.4-.13h-.25l-.39,0h-.44c-.31,0,.17,0,.27.14l.4,1.56c.06-.36-.45.61-.24.39l-.08.08c.12-.13.16-.09,0,0l.27-.1c.27-.09.55-.15.83-.22a1.64,1.64,0,0,0,1.09-2,1.59,1.59,0,0,0-1.92-1.12Z"/><path class="cls-3" d="M5-2.43a2.29,2.29,0,0,0-1.75.64,1.65,1.65,0,0,0,0,2.27,1.59,1.59,0,0,0,2.22,0c-.66.18-.82.29-.47.3A1.58,1.58,0,0,0,6.53-.82,1.64,1.64,0,0,0,5-2.43Z"/><path class="cls-3" d="M31.5.78h1.11a1.61,1.61,0,0,0,1.57-1.6,1.62,1.62,0,0,0-1.57-1.61H31.5A1.61,1.61,0,0,0,29.93-.82,1.61,1.61,0,0,0,31.5.78Z"/></pattern></defs><title>floor</title><g id="Layer_2" data-name="Layer 2"><g id="Layer_1-2" data-name="Layer 1"><rect class="cls-4" width="111.64" height="111.64"/><path class="cls-5" d="M66.64,65.79C65.08,69.11,72.19,87.93,72,90c-.48,4-1.79,15.13,1,17.5s34.29,4.08,36.55,2.3-.1-16.38.5-21.42c.84-7.06,1.15-18.27-1.64-20.65s-18.27-1.15-20.29-1.39S68,62.89,66.64,65.79Z"/><path class="cls-6" d="M66.73,65.84a5.76,5.76,0,0,0-.13,2.49A24.26,24.26,0,0,0,67,70.86c.38,1.67.82,3.32,1.34,5,1,3.28,2.16,6.51,3.24,9.78.27.82.54,1.64.78,2.49a10.14,10.14,0,0,1,.31,1.34,2.9,2.9,0,0,1,0,.83l-.06.63c-.15,1.71-.29,3.41-.39,5.1s-.16,3.39-.11,5.06a16.22,16.22,0,0,0,.69,4.77,3.89,3.89,0,0,0,.5.86s.09.12.14.17l.15.1a4.92,4.92,0,0,0,.46.23,18.06,18.06,0,0,0,2.36.67c1.65.37,3.34.65,5,.9,3.38.5,6.8.87,10.22,1.1s6.85.32,10.27.29a48.17,48.17,0,0,0,5.11-.28,11.69,11.69,0,0,0,1.23-.2,2.07,2.07,0,0,0,.93-.35,4.27,4.27,0,0,0,.58-2.12A77.78,77.78,0,0,0,109.38,97c-.14-1.71-.27-3.43-.35-5.17,0-.87-.06-1.74,0-2.64s.16-1.76.23-2.61a78.41,78.41,0,0,0,.26-10.16,33,33,0,0,0-.56-4.93,9.61,9.61,0,0,0-.7-2.18A1.93,1.93,0,0,0,107,68.15a19.15,19.15,0,0,0-4.74-.81c-1.68-.12-3.38-.15-5.08-.19l-5.14,0c-.85,0-1.72,0-2.58,0-.45,0-.87,0-1.38-.08s-.86-.15-1.29-.23c-3.37-.65-6.75-1.25-10.15-1.67a43.91,43.91,0,0,0-5.12-.37,16.7,16.7,0,0,0-2.55.14,7.31,7.31,0,0,0-1.23.28A1.67,1.67,0,0,0,66.73,65.84Zm-.18-.09a1.81,1.81,0,0,1,1.07-.8,7,7,0,0,1,1.27-.32,20.23,20.23,0,0,1,2.58-.2c1.73-.06,3.45,0,5.17.11,3.44.18,6.88.55,10.29.93.43,0,.87.1,1.26.12s.78,0,1.2,0L92,65.43c1.72-.1,3.44-.18,5.17-.21s3.47,0,5.22.08a20.49,20.49,0,0,1,5.38.86,2.64,2.64,0,0,1,.74.33,3.39,3.39,0,0,1,.72.52,7.09,7.09,0,0,1,.57.66l.39.68a11.53,11.53,0,0,1,.87,2.71,30,30,0,0,1,.56,5.29,78.62,78.62,0,0,1-.47,10.42c-.09.87-.22,1.74-.27,2.52s0,1.66,0,2.51c0,1.69.1,3.4.17,5.12s.15,3.43.16,5.16a38.48,38.48,0,0,1-.22,5.24,10.91,10.91,0,0,1-.26,1.34,3.14,3.14,0,0,1-.73,1.36,1.81,1.81,0,0,1-.75.39,3.73,3.73,0,0,1-.69.15,11.85,11.85,0,0,1-1.32.15c-1.74.12-3.46.13-5.18.13-3.45,0-6.88-.19-10.32-.34s-6.87-.34-10.31-.64c-1.72-.16-3.44-.35-5.17-.63a19,19,0,0,1-2.62-.61,5.75,5.75,0,0,1-.71-.3l-.39-.25a2.83,2.83,0,0,1-.3-.3,4.59,4.59,0,0,1-.85-1.31,15.93,15.93,0,0,1-.94-5.35,43.51,43.51,0,0,1,.13-5.24c.13-1.73.33-3.45.57-5.16l.1-.64a1.44,1.44,0,0,0,0-.46A11.94,11.94,0,0,0,71,88.43c-.17-.82-.37-1.65-.58-2.48-.84-3.32-1.76-6.64-2.54-10-.39-1.68-.8-3.35-1.11-5-.14-.85-.3-1.7-.38-2.56A5.76,5.76,0,0,1,66.55,65.75Z"/><path class="cls-7" d="M70.54,68.07c-1.34,2.85,4.77,19,4.57,20.76-.42,3.47-1.55,13,.85,15s29.47,3.51,31.41,2-.09-14.08.42-18.41c.73-6.07,1-15.71-1.4-17.75S90.68,68.71,89,68.5,71.72,65.57,70.54,68.07Z"/><path class="cls-5" d="M68.67,109c-3.45,1.24-13.23-.55-15.37.22s-8.55,3.08-10.2-.19,11.66-29.3,13.63-37.24,0-17.39,4.05-16.91,1.59,12.46,3.13,16.74,4.13,16.85,4.66,21C68.86,94.87,70.81,108.22,68.67,109Z"/><path class="cls-6" d="M68.7,109.09a15.14,15.14,0,0,1-4.39.48c-1.47,0-2.94,0-4.41-.07s-2.93-.08-4.38,0a7.1,7.1,0,0,0-2,.25c-.67.26-1.37.55-2.08.79a16.35,16.35,0,0,1-4.47,1,6.48,6.48,0,0,1-2.47-.27,3.76,3.76,0,0,1-2.15-1.75,2.5,2.5,0,0,1-.25-.82,4.32,4.32,0,0,1,0-.7,7.65,7.65,0,0,1,.16-1.22,21.84,21.84,0,0,1,.57-2.22c.43-1.43,1-2.82,1.51-4.19,2.25-5.46,4.91-10.69,7.27-16.06,1.18-2.68,2.32-5.38,3.33-8.13A36.92,36.92,0,0,0,56.22,72a29.17,29.17,0,0,0,.66-4.27c.27-2.9.15-5.8.42-8.8a14.07,14.07,0,0,1,.38-2.31,6,6,0,0,1,.48-1.21,2.93,2.93,0,0,1,1.08-1.11A2.64,2.64,0,0,1,60.81,54a2.81,2.81,0,0,1,1.5.6,4.57,4.57,0,0,1,1.37,2.35,20.6,20.6,0,0,1,.58,4.58c.06,1.49.06,3,.09,4.42a33.4,33.4,0,0,0,.29,4.21,7.52,7.52,0,0,0,.21.93l.35,1c.22.72.44,1.44.62,2.15A130.27,130.27,0,0,1,69.1,91.64c.26,2.94.52,5.86.64,8.81,0,1.47.11,2.94.06,4.41a20.33,20.33,0,0,1-.15,2.21,7,7,0,0,1-.25,1.1A1.45,1.45,0,0,1,68.7,109.09Zm-.07-.19a1.29,1.29,0,0,0,.56-.8,6.23,6.23,0,0,0,.22-1.06,17.58,17.58,0,0,0,.1-2.18,42.61,42.61,0,0,0-.33-4.37c-.35-2.9-.85-5.79-1.39-8.66s-1.27-5.69-1.92-8.54-1.32-5.69-2.1-8.47c-.2-.7-.39-1.39-.61-2.07l-.34-1a8.37,8.37,0,0,1-.28-1.21,27.34,27.34,0,0,1-.27-4.55c0-1.48,0-2.94,0-4.38a18.94,18.94,0,0,0-.41-4.14A3,3,0,0,0,61.15,56a.93.93,0,0,0-.51-.21,1,1,0,0,0-.56.06,2.1,2.1,0,0,0-.79,1.26,11.17,11.17,0,0,0-.41,2c-.34,2.84-.48,5.81-.91,8.74a31.14,31.14,0,0,1-.92,4.37c-.43,1.44-1,2.81-1.51,4.18-1.09,2.73-2.24,5.43-3.36,8.14S50,90,48.93,92.7s-2.1,5.47-3.06,8.22c-.49,1.37-.94,2.75-1.36,4.12a19.7,19.7,0,0,0-.52,2,6.88,6.88,0,0,0-.13,1,1.77,1.77,0,0,0,0,.4.72.72,0,0,0,0,.22c.44.89,1.68,1.27,3,1.26a17.9,17.9,0,0,0,4.15-.62c.7-.18,1.37-.39,2.09-.61a8,8,0,0,1,2.36-.11c1.49.08,2.95.25,4.41.4s2.91.26,4.37.32A14.17,14.17,0,0,0,68.63,108.9Z"/><path class="cls-7" d="M66.35,105c-2.57.93-9.86-.41-11.45.17s-6.36,2.29-7.6-.15,9-24.82,10.43-30.74,1.08-11.86,1.66-12.82c1.58-2.58,1.18,9.28,2.33,12.47a174.7,174.7,0,0,1,4.55,18.88C66.48,94.49,67.94,104.44,66.35,105Z"/><path class="cls-5" d="M65.19,34.94S93.67,36.28,100,43.17,113.1,62.11,109,62.64,88.66,61.25,86.52,62c-2.7,1-14.79-.4-18.39-.14C63.11,62.24,61.13,39.32,65.19,34.94Z"/><path class="cls-6" d="M65.16,34.85a108.36,108.36,0,0,1,16.23,1,79.24,79.24,0,0,1,8,1.49,33.64,33.64,0,0,1,7.77,2.8,11.67,11.67,0,0,1,3.41,2.61c.89,1,1.72,2.12,2.52,3.22a75.13,75.13,0,0,1,4.36,6.88c.68,1.18,1.28,2.4,1.85,3.64a14.53,14.53,0,0,1,1.22,4,3.48,3.48,0,0,1,0,1.11,1.73,1.73,0,0,1-.61,1.07,2,2,0,0,1-1.13.41c-.34,0-.7.09-1,.1-1.37.08-2.72.05-4.08,0-2.7,0-5.4-.12-8.09-.25l-4-.14c-1.33,0-2.69-.08-3.93,0l-.44,0-.31.07a6.9,6.9,0,0,1-1.17.26,17.6,17.6,0,0,1-2.13.17c-1.39,0-2.75,0-4.11,0-2.71-.07-5.41-.27-8.07-.38-.67,0-1.34-.06-2-.06h-1.2l-.41,0a2.3,2.3,0,0,1-.78-.2,4.45,4.45,0,0,1-1.91-1.76,10.7,10.7,0,0,1-1-2,30.68,30.68,0,0,1-1.61-8.15,45.72,45.72,0,0,1,.06-8.19,24.27,24.27,0,0,1,.72-4A8,8,0,0,1,65.16,34.85Zm.07.18a9,9,0,0,0-1.29,3.66,31,31,0,0,0-.34,4,50.3,50.3,0,0,0,.49,8,32.7,32.7,0,0,0,1.85,7.61,9,9,0,0,0,.84,1.61,2.51,2.51,0,0,0,1,1,.28.28,0,0,0,.19,0l.09,0h.27c.37,0,.72,0,1.07,0,.7,0,1.38,0,2.06,0,2.72.11,5.4.29,8.08.43,1.33.07,2.66.12,4,.11a16.7,16.7,0,0,0,1.91-.1,7.18,7.18,0,0,0,.8-.15l.68-.14c.22,0,.38,0,.57,0a73.18,73.18,0,0,1,8.2.42l8,.73c1.34.1,2.68.2,4,.2a3.8,3.8,0,0,0,1.73-.23,1.78,1.78,0,0,0,.43-1.55,12.63,12.63,0,0,0-1.1-3.76,34.16,34.16,0,0,0-1.85-3.55,48.68,48.68,0,0,0-4.68-6.52c-.86-1-1.75-2-2.67-3a10.85,10.85,0,0,0-3.14-2.07c-4.72-2.17-10-3.24-15.28-4.24S70.5,35.71,65.23,35Z"/><path class="cls-7" d="M70.11,37.26s22.55,1.06,27.57,6.52,10.37,15,7.08,15.42S88.69,58.1,87,58.71c-2.14.77-11.72-.32-14.57-.11C68.45,58.88,66.89,40.73,70.11,37.26Z"/><path class="cls-5" d="M41.11,31.05C38.85,32.83,44.52,54,49.45,55.57s13.71-3.49,11-15.06C52,34.39,43.37,29.28,41.11,31.05Z"/><path class="cls-6" d="M41.17,31.13a2.22,2.22,0,0,0-.43,1.37A8.64,8.64,0,0,0,40.81,34a19.46,19.46,0,0,0,.61,3c.53,2,1.24,3.9,1.9,5.83s1.31,3.84,2,5.73A21.27,21.27,0,0,0,48,54c1.11,1.73,3.4,1.8,5.28,1.3a10.18,10.18,0,0,0,1.39-.53A10.93,10.93,0,0,0,55.9,54l.58-.45c.18-.16.35-.35.52-.52a7.08,7.08,0,0,0,.94-1.11,11.26,11.26,0,0,0,2-5.35,17.09,17.09,0,0,0-.48-5.77l.41.61-4.5-3.14-4.5-3.11a53,53,0,0,0-4.6-3,14.09,14.09,0,0,0-2.49-1.08A3.14,3.14,0,0,0,41.17,31.13ZM41.05,31a3.57,3.57,0,0,1,2.77-.25,21.28,21.28,0,0,1,2.7.77,44.05,44.05,0,0,1,5.16,2.18,49.08,49.08,0,0,1,4.81,2.81c1.57,1,3.08,2.07,4.56,3.17l.34.25.07.36a19.15,19.15,0,0,1,.24,6.5,11.2,11.2,0,0,1-2.79,5.89,10.73,10.73,0,0,1-5.49,3.24,8.55,8.55,0,0,1-3.19.17l-.8-.18a3.18,3.18,0,0,1-.78-.34,5.92,5.92,0,0,1-1.27-1,21.87,21.87,0,0,1-3.51-5.28,32,32,0,0,1-2.19-5.88,40.26,40.26,0,0,1-1-6.18c-.1-1-.16-2.08-.19-3.12,0-.52,0-1,0-1.56A2.37,2.37,0,0,1,41.05,31Z"/><path class="cls-7" d="M44.16,34c-1.62,1.27,2.45,16.45,6,17.61s9.85-2.51,7.9-10.82C52,36.41,45.78,32.74,44.16,34Z"/><path class="cls-5" d="M54.54,64.36c2,5.57-7.39,27.76-9.41,27.52s-4.08-8.67-4.85-10.81S35,65.1,35.86,58s3.74-5.69,3.74-5.69C43.28,55.86,52.23,58,54.54,64.36Z"/><path class="cls-6" d="M54.63,64.32a6.66,6.66,0,0,1,.31,2.3,22.18,22.18,0,0,1-.14,2.3c-.17,1.53-.42,3-.72,4.56a52.52,52.52,0,0,1-2.57,8.86,41.47,41.47,0,0,1-4.26,8.23,11.17,11.17,0,0,1-.74,1,4,4,0,0,1-.46.46,1.42,1.42,0,0,1-.83.4,1.33,1.33,0,0,1-.83-.31,2.52,2.52,0,0,1-.49-.49,5.79,5.79,0,0,1-.64-1,31.33,31.33,0,0,1-1.68-4.32l-1.41-4.36c-.51-1.41-1.08-2.86-1.57-4.3s-1-2.91-1.44-4.37-.84-3-1.19-4.46a43,43,0,0,1-1.26-9.27,17.74,17.74,0,0,1,.76-4.81,6.59,6.59,0,0,1,1.31-2.37A2.87,2.87,0,0,1,40,51.44l.14.05.13.13a23.85,23.85,0,0,0,3.76,2.71c1.37.85,2.76,1.73,4.12,2.67A25.8,25.8,0,0,1,52,60.19,11.52,11.52,0,0,1,54.63,64.32Zm-.19.07a9.6,9.6,0,0,0-2.77-3.88,20.17,20.17,0,0,0-4-2.6c-1.43-.74-2.93-1.36-4.4-2.09a18.66,18.66,0,0,1-4.33-2.73l.27.18c.07,0-.09,0-.14,0a.63.63,0,0,0-.22,0,1.26,1.26,0,0,0-.49.37,5.4,5.4,0,0,0-.82,1.63,17.73,17.73,0,0,0-.69,4.19,42.6,42.6,0,0,0,.88,8.86c.53,3,1.18,5.94,1.91,8.89.38,1.47.77,2.92,1.24,4.39s.83,2.94,1.32,4.37A21.42,21.42,0,0,0,44,90.14a5.72,5.72,0,0,0,.64.85,1.48,1.48,0,0,0,.35.28c.09.08.26.09.21.09s.06-.06.14-.17a4.23,4.23,0,0,0,.31-.38,10.26,10.26,0,0,0,.57-.92,41.8,41.8,0,0,0,1.92-4c.59-1.38,1.18-2.77,1.75-4.17,1.11-2.8,2.33-5.58,3.32-8.44a31.53,31.53,0,0,0,1.24-4.37A9.52,9.52,0,0,0,54.44,64.39Z"/><path class="cls-7" d="M52.8,64.67c1.53,4.24-5.62,21.11-7.15,20.93S42.55,79,42,77.38s-4-12.14-3.36-17.5,2.84-4.33,2.84-4.33C44.24,58.21,51.05,59.8,52.8,64.67Z"/><path class="cls-5" d="M33.41,70c2.07,8.43,13.55,32.29,7.91,36.73s-22.55.39-25.81,2-11.58,2.72-12.23-.43,1.94-33.52.52-38.8S1.57,54,3.58,54.21s13.11,1.56,16.26.91,9.68-4,12.58-2.6S33.41,70,33.41,70Z"/><path class="cls-6" d="M33.51,70c1.13,3.53,2.66,7,4,10.49s2.76,7,3.92,10.6a40,40,0,0,1,2.29,11.25,9.56,9.56,0,0,1-.46,3.08c-.12.25-.21.52-.35.77a8.58,8.58,0,0,1-.51.72,7.36,7.36,0,0,1-.65.61c-.22.14-.44.32-.67.44a13.94,13.94,0,0,1-5.74,1.58A69.41,69.41,0,0,1,24,109.19c-1.87-.16-3.74-.35-5.59-.39a7.7,7.7,0,0,0-2.63.3,15,15,0,0,1-2.71.94,21.2,21.2,0,0,1-5.67.66,8,8,0,0,1-2.87-.53,2.89,2.89,0,0,1-1.24-1,2.23,2.23,0,0,1-.33-.76l-.08-.75c-.1-3.81,0-7.54.12-11.31.13-7.5.46-15,.28-22.46,0-.93-.09-1.84-.18-2.74,0-.45-.14-.83-.21-1.25l-.34-1.4a52.22,52.22,0,0,1-.95-5.66,34.88,34.88,0,0,1-.23-5.8,14,14,0,0,1,.17-1.53,3.91,3.91,0,0,1,.75-1.81A1.66,1.66,0,0,1,3,53.22a1.53,1.53,0,0,1,.52-.08l.29,0,.69.08,1.4.16c3.7.44,7.44.81,11.11.93a15.78,15.78,0,0,0,2.62-.11,23.84,23.84,0,0,0,2.6-.73c1.77-.58,3.57-1.21,5.46-1.65a12,12,0,0,1,3-.36,5.05,5.05,0,0,1,1.6.26l.4.16a2.59,2.59,0,0,1,.46.3c.11.12.23.25.32.37l.23.39a8.8,8.8,0,0,1,.7,2.94,27.81,27.81,0,0,1,.13,2.87,56,56,0,0,1-.31,5.66C34,66.3,33.81,68.2,33.51,70Zm-.2,0a100.43,100.43,0,0,0,.2-11.23,27.53,27.53,0,0,0-.27-2.75,8,8,0,0,0-.7-2.48l-.15-.21-.14-.15-.14-.08-.26-.07a3.72,3.72,0,0,0-1.18-.13,12.08,12.08,0,0,0-2.59.43c-1.75.46-3.49,1.13-5.26,1.78A26.28,26.28,0,0,1,20,56a17.59,17.59,0,0,1-3,.24c-3.85,0-7.59-.37-11.35-.73l-1.4-.16-.71-.08c-.22,0,0,0,.11,0a.45.45,0,0,0,.19-.12,2.67,2.67,0,0,0-.25.79,12.33,12.33,0,0,0-.14,1.27,38.48,38.48,0,0,0,.18,5.45,47.59,47.59,0,0,0,.81,5.46l.3,1.34c.08.51.2,1,.23,1.53.08,1,.14,1.94.14,2.88.06,3.81-.13,7.56-.32,11.32s-.49,7.51-.75,11.25l-.36,5.62c-.1,1.87-.22,3.76-.14,5.59l.05.66a1.26,1.26,0,0,0,.22.52,2.12,2.12,0,0,0,.94.74,7.38,7.38,0,0,0,2.63.53,19.24,19.24,0,0,0,5.48-.68,13.39,13.39,0,0,0,2.58-1,8.38,8.38,0,0,1,2.91-.46c1.91-.06,3.79,0,5.67.1a71.12,71.12,0,0,0,11.13-.17,13.29,13.29,0,0,0,5-1.46c.18-.1.33-.23.5-.34s.24-.24.38-.35.19-.29.29-.43.15-.34.23-.51a8.14,8.14,0,0,0,.38-2.47A26.34,26.34,0,0,0,41.33,97c-.37-1.81-.84-3.61-1.36-5.4-1-3.57-2.21-7.14-3.42-10.69-.62-1.78-1.19-3.57-1.75-5.36A50.28,50.28,0,0,1,33.31,70Z"/><path class="cls-7" d="M31.43,69.2c1.59,6.52,10.47,25,6.11,28.39s-17.43.3-19.95,1.58-8.94,2.1-9.44-.33,1.49-25.9.4-30S6.82,56.8,8.38,57s10.13,1.21,12.56.7,7.48-3.06,9.72-2S31.43,69.2,31.43,69.2Z"/><path class="cls-5" d="M37.94,49.09c-2.87,2.26-17.38,0-22.66,1.4S1.69,53,2,49.94s1.87-24.33.45-29.61S1.92,8,3.81,9.24s7.47,6,10.38,7.36,18.56,7.32,22,12.85S39.07,48.2,37.94,49.09Z"/><path class="cls-6" d="M38,49.17a5.07,5.07,0,0,1-2,.77c-.71.14-1.43.2-2.15.27-1.44.13-2.88.14-4.32.19-2.88.09-5.76.07-8.6.21A40.45,40.45,0,0,0,16.7,51a17.32,17.32,0,0,0-2,.5c-.71.18-1.42.35-2.14.5a33.31,33.31,0,0,1-4.35.65,15.25,15.25,0,0,1-4.55-.18A4.5,4.5,0,0,1,2.43,52,2.33,2.33,0,0,1,1.38,50.8,2.24,2.24,0,0,1,1.29,50c0-.25.05-.37.07-.56l.13-1.06L2,44.07c.29-2.85.54-5.71.68-8.57s.2-5.74.1-8.6l-.09-2.14c-.08-.71-.11-1.42-.22-2.12l-.14-1.05-.23-1c-.19-.69-.38-1.42-.51-2.14a24,24,0,0,1-.43-4.4A11.41,11.41,0,0,1,1.82,9.5a2.77,2.77,0,0,1,.39-.63,1.61,1.61,0,0,1,.87-.56,1.54,1.54,0,0,1,1.11.19c.23.13.34.22.51.33.61.42,1.19.85,1.77,1.28l3.45,2.56c1.15.84,2.31,1.66,3.49,2.37a12.65,12.65,0,0,0,1.8.91l2,.82c2.66,1.1,5.3,2.28,7.9,3.56a55,55,0,0,1,7.55,4.46,19,19,0,0,1,3.35,3,10.74,10.74,0,0,1,2,4.11,33.82,33.82,0,0,1,1,8.68c0,1.44,0,2.89-.14,4.32-.06.72-.11,1.44-.22,2.16-.06.35-.12.71-.21,1.06A2.24,2.24,0,0,1,38,49.17ZM37.88,49a2.22,2.22,0,0,0,.37-.93c.08-.34.13-.7.18-1,.09-.71.15-1.42.17-2.13a36.16,36.16,0,0,0-.12-4.29,31.45,31.45,0,0,0-1.72-8.28,10,10,0,0,0-2-3.41,15.13,15.13,0,0,0-1.53-1.34,20.42,20.42,0,0,0-1.67-1.22,61.5,61.5,0,0,0-7.38-4.12C21.6,21,19,19.85,16.37,18.69l-2-.88a14.53,14.53,0,0,1-2-1.08c-1.26-.8-2.43-1.67-3.58-2.55S6.51,12.41,5.4,11.51c-.56-.45-1.12-.9-1.67-1.31l-.38-.28c-.05,0,0,0,.08,0s-.09.05-.19.3A6.27,6.27,0,0,0,2.71,12a17.3,17.3,0,0,0-.24,2.06,22.46,22.46,0,0,0,.15,4.18c.09.7.22,1.37.38,2.08l.18,1.11.1,1.09c.1,1.45.12,2.9.13,4.34,0,2.88-.06,5.75-.13,8.63l-.22,8.63C3,45.58,3,47,2.89,48.47l-.07,1.08c0,.17,0,.41,0,.51a.68.68,0,0,0,0,.23c.06.2.58.46,1.18.57a15.47,15.47,0,0,0,4,0c1.39-.13,2.78-.36,4.17-.6s2.68-.66,4.26-.85a28.37,28.37,0,0,1,4.41-.09c2.89.11,5.75.37,8.62.52,1.43.09,2.86.1,4.29,0a16.71,16.71,0,0,0,2.13-.22A4.9,4.9,0,0,0,37.88,49Z"/><path class="cls-7" d="M34.69,46c-2.27,1.78-13.69,0-17.85,1.1S6.13,49,6.41,46.63s1.47-19.16.36-23.32-.46-9.73,1-8.74,5.88,4.72,8.17,5.8S30.6,26.14,33.31,30.49,35.58,45.26,34.69,46Z"/><path class="cls-5" d="M30.44,17.51C25,19.46,3.28,5.08,3.28,5.08c.36-3,16.38-.1,19.52-.75s10.57-2.83,11.34-.7S32.58,16.74,30.44,17.51Z"/><path class="cls-6" d="M30.48,17.61a8.09,8.09,0,0,1-3.82-.11c-1.25-.26-2.48-.61-3.7-1a43.31,43.31,0,0,1-7.08-2.9,61.76,61.76,0,0,1-6.5-4C7.29,8.2,5.24,6.71,3.11,5.34L3,5.23l0-.18a1.67,1.67,0,0,1,1.2-1.2A6.84,6.84,0,0,1,5.67,3.5a29.59,29.59,0,0,1,2.95-.25c2-.07,3.92,0,5.87,0l5.8.22a10.14,10.14,0,0,0,2.65-.18l2.81-.72a27.28,27.28,0,0,1,6-.89,6.11,6.11,0,0,1,1.73.23,2.67,2.67,0,0,1,1,.53,2.12,2.12,0,0,1,.44.54,3.11,3.11,0,0,1,.15.33l.07.28A9.37,9.37,0,0,1,35,6.81a36.63,36.63,0,0,1-1.63,5.71c-.34.92-.7,1.84-1.11,2.73-.22.44-.44.88-.7,1.3A2.6,2.6,0,0,1,30.48,17.61Zm-.07-.19a2.44,2.44,0,0,0,.93-1,7.38,7.38,0,0,0,.59-1.31,18.74,18.74,0,0,0,.77-2.78,38.3,38.3,0,0,0,.66-5.7c0-.47,0-.94,0-1.39A5.63,5.63,0,0,0,33.25,4l0-.07s0,0,0,0h0a.8.8,0,0,0-.29-.11,4,4,0,0,0-1.15-.09,34,34,0,0,0-5.52.88l-2.86.59a11.26,11.26,0,0,1-3.15.1c-2-.12-3.9-.36-5.83-.6s-3.84-.5-5.76-.61a17.17,17.17,0,0,0-2.87,0,5.88,5.88,0,0,0-1.35.27c-.42.15-.78.39-.81.7l-.14-.29A73.26,73.26,0,0,0,10,8.54c2.24,1.15,4.48,2.28,6.68,3.49s4.35,2.48,6.59,3.61a21.86,21.86,0,0,0,3.45,1.48A6.45,6.45,0,0,0,30.41,17.42Z"/><path class="cls-7" d="M29.34,15.56C25.48,17,10,6.68,10,6.68c.25-2.16,11.69-.07,13.94-.53s7.54-2,8.09-.5S30.87,15,29.34,15.56Z"/><path class="cls-5" d="M57.69,3.36c3.06,2,2.34,32-1.57,30.5s-10.38-7.37-13.28-8.74-8.4-3.22-9.49-6.24c-.77-2.14,4.75-5.57,5.47-11.62S55.8,2.12,57.69,3.36Z"/><path class="cls-6" d="M57.75,3.28a2.7,2.7,0,0,1,.8,1.27A12.64,12.64,0,0,1,59,6c.24,1,.39,1.92.55,2.89.3,1.94.55,3.89.7,5.85a51,51,0,0,1-.35,11.77,28,28,0,0,1-1.47,5.8,5.48,5.48,0,0,1-.79,1.4,1.76,1.76,0,0,1-.77.59,1.27,1.27,0,0,1-1-.09,20.41,20.41,0,0,1-2.59-1.47c-3.29-2.14-6.35-4.63-9.66-6.55C42,25.28,40,24.77,38.22,23.92a12.65,12.65,0,0,1-5.12-3.54,4.39,4.39,0,0,1-.46-.76l-.19-.42a4.4,4.4,0,0,1-.13-.63,3.73,3.73,0,0,1,.52-1.9,26,26,0,0,1,1.69-2.54,19.31,19.31,0,0,0,2.71-4.79,11.71,11.71,0,0,0,.38-1.28l.13-.65.16-.81a4.84,4.84,0,0,1,2.18-2.82A9.59,9.59,0,0,1,43,2.57a18.3,18.3,0,0,1,3-.46A37.83,37.83,0,0,1,52,2.2c1,.09,2,.18,2.92.34A9.44,9.44,0,0,1,57.75,3.28Zm-.11.17a8.86,8.86,0,0,0-2.79-.62A25.47,25.47,0,0,0,52,2.74a32,32,0,0,0-5.72.68,14.48,14.48,0,0,0-5.06,2A3.07,3.07,0,0,0,39.9,7.1l0,.24-.06.38-.12.78A15.89,15.89,0,0,1,39.25,10a18.81,18.81,0,0,1-3,5.32c-.58.78-1.21,1.55-1.63,2.26a2.17,2.17,0,0,0-.33.85.14.14,0,0,1,0,.09l.11.24a2.68,2.68,0,0,0,.28.49,12,12,0,0,0,4.27,3.2c.85.44,1.72.86,2.59,1.29a20.77,20.77,0,0,1,2.64,1.44c1.65,1.13,3.11,2.41,4.67,3.59a48.36,48.36,0,0,0,4.75,3.34,14.82,14.82,0,0,0,2.56,1.26c.54.35,1-.68,1.22-1.51a29.66,29.66,0,0,0,.87-5.62c.32-3.83.52-7.69.74-11.55.08-1.94.16-3.88,0-5.82A23.05,23.05,0,0,0,58.69,6a9.25,9.25,0,0,0-.35-1.4A2.5,2.5,0,0,0,57.64,3.45Z"/><path class="cls-7" d="M56.15,4.76c2.18,1.54,1.46,24.76-1.34,23.64s-7.41-5.64-9.49-6.68-6-2.44-6.77-4.77c-.54-1.65,3.45-4.35,4-9S54.79,3.81,56.15,4.76Z"/><path class="cls-5" d="M63.87,28.85c4.25,2.7,11.76,4.35,15.79,4.83s14.67,5.67,17,3,11.93-14.29,12.5-19.13,2.62-13.44-2.53-13.07-23.55.15-26.57-.21-12-2.4-14.24-.71,1.1,8-.25,10.77S62,27.65,63.87,28.85Z"/><path class="cls-6" d="M63.92,28.77A27.83,27.83,0,0,0,72,31.87c1.41.33,2.84.6,4.27.81.71.11,1.43.21,2.14.28s1.43.11,2.21.24a39.19,39.19,0,0,1,4.3,1.09l4.16,1.23a33.22,33.22,0,0,0,4.11.94,7.84,7.84,0,0,0,1.92,0,2.11,2.11,0,0,0,.72-.22.89.89,0,0,0,.24-.18l.36-.39q2.91-3.21,5.63-6.61a61.1,61.1,0,0,0,5-7.08,16.86,16.86,0,0,0,1.7-3.91c.17-.65.21-1.42.32-2.13l.29-2.16a31.25,31.25,0,0,0,.28-4.3,6.23,6.23,0,0,0-1-3.81,2,2,0,0,0-1.53-.63l-.47,0-.55,0-1.1.09c-1.47.1-2.92.16-4.38.2-2.92.09-5.83.14-8.75.13s-5.83,0-8.76-.09c-.73,0-1.46,0-2.21-.08s-1.54-.15-2.26-.27l-4.29-.69C72.93,4.23,71.51,4,70.12,4a15.58,15.58,0,0,0-2.05,0,3.84,3.84,0,0,0-1.6.37c-.27.13-.45.55-.49,1.19a10.52,10.52,0,0,0,.09,2c.17,1.4.45,2.86.49,4.4a5.78,5.78,0,0,1-.36,2.39,3.24,3.24,0,0,1-.24.52l-.21.47c-.15.32-.27.66-.4,1a41.31,41.31,0,0,0-1.23,4.15,30.79,30.79,0,0,0-.76,4.27,13,13,0,0,0-.07,2.16A2.7,2.7,0,0,0,63.92,28.77Zm-.1.17a1.7,1.7,0,0,1-.6-1,5.88,5.88,0,0,1-.17-1.09,16.15,16.15,0,0,1,0-2.2c.08-1.47.3-2.91.51-4.36A40.46,40.46,0,0,1,64.48,16c.1-.35.2-.71.32-1.07l.19-.54a3.22,3.22,0,0,0,.17-.49A4.63,4.63,0,0,0,65.25,12c-.16-1.36-.58-2.75-.85-4.22a12.36,12.36,0,0,1-.25-2.35c0-.22,0-.43,0-.65s.11-.47.18-.7a4.79,4.79,0,0,1,.37-.71,3.41,3.41,0,0,1,.6-.6A5.23,5.23,0,0,1,67.89,2a15.08,15.08,0,0,1,2.32,0c1.51.06,3,.23,4.45.43S77.56,2.8,79,3a19.12,19.12,0,0,0,2.07.25l2.14.13c2.89.14,5.8.22,8.7.29l8.71.16,4.35,0H106l.54,0h.62A3.25,3.25,0,0,1,109.49,5a4.86,4.86,0,0,1,.9,2.25,12.49,12.49,0,0,1,.12,2.27,42.38,42.38,0,0,1-.47,4.39l-.33,2.16c-.12.72-.16,1.41-.36,2.18a18.68,18.68,0,0,1-1.73,4.08,108.1,108.1,0,0,1-9.93,14.47l-.36.42a2.47,2.47,0,0,1-.61.51,3.45,3.45,0,0,1-1.32.49,8.24,8.24,0,0,1-2.43,0,25.77,25.77,0,0,1-4.39-1c-2.82-.84-5.52-2-8.22-2.78-.64-.17-1.39-.25-2.11-.41s-1.44-.3-2.15-.47c-1.43-.34-2.84-.73-4.24-1.18A36.59,36.59,0,0,1,63.82,28.94Z"/><path class="cls-7" d="M68.75,25.47c3.6,2.12,9.93,3.45,13.33,3.85s12.39,4.49,14.36,2.46,9.91-10.89,10.35-14.62,2.09-10.31-2.25-10.07S84.73,7,82.18,6.69,72.07,4.74,70.19,6s1,6.15-.12,8.28S67.13,24.53,68.75,25.47Z"/><path class="cls-5" d="M100.61,38.12c-.38,3.19,8.53,14.31,9,10.28s1.75-23.32-.27-23.56S101,35.1,100.61,38.12Z"/><path class="cls-6" d="M100.71,38.14a5.93,5.93,0,0,0,1.18,3.14A21.56,21.56,0,0,0,104.05,44c.76.85,1.56,1.66,2.33,2.46.4.39.79.78,1.19,1.13a5.54,5.54,0,0,0,1.16.83c.17.08.2,0,.08.14s.06-.05.11-.26c.12-.55.22-1.12.32-1.7.2-1.14.38-2.29.49-3.44a49,49,0,0,0,.12-7c-.13-2.32-.25-4.64-.41-6.91A17.16,17.16,0,0,0,109,26c0-.17-.22-.45-.12-.29,0,0,.12.11.27.14s.14,0,.2,0,0,0,0,0a5,5,0,0,0-1,.89,28.7,28.7,0,0,0-2.14,2.56L104,32.11A34.44,34.44,0,0,0,102,35,9.91,9.91,0,0,0,100.71,38.14Zm-.2,0A8.28,8.28,0,0,1,101,36.4c.17-.56.39-1.11.58-1.66.42-1.1.84-2.21,1.32-3.29a22.67,22.67,0,0,1,3.82-6.08A6.07,6.07,0,0,1,108.3,24a2.4,2.4,0,0,1,.77-.25,1.33,1.33,0,0,1,.63.06,1.44,1.44,0,0,1,.4.18.93.93,0,0,1,.23.19,2.7,2.7,0,0,1,.63,1.26,18.64,18.64,0,0,1,.36,3.69,49.87,49.87,0,0,1-.38,7c-.24,2.33-.48,4.64-.56,7,0,1.16,0,2.33,0,3.5l0,1.77a1.82,1.82,0,0,1-.56,1.31,2.17,2.17,0,0,1-.45.25,2.24,2.24,0,0,1-.44.07,2,2,0,0,1-.69-.11,5.31,5.31,0,0,1-1.77-1,10.68,10.68,0,0,1-1.32-1.28A17.09,17.09,0,0,1,103,44.72a32.66,32.66,0,0,1-1.57-3.2c-.22-.54-.46-1.08-.63-1.65A4.35,4.35,0,0,1,100.51,38.11Z"/><path class="cls-7" d="M102.36,38.34c-.25,2.09,5.59,9.39,5.91,6.74s1.14-15.3-.18-15.45S102.59,36.35,102.36,38.34Z"/></g></g></svg>