<svg xmlns="http://www.w3.org/2000/svg" xmlns:xlink="http://www.w3.org/1999/xlink" viewBox="0 0 112.73 112.24"><defs><style>.cls-1,.cls-5{fill:none;}.cls-2{fill:#dbdbdb;}.cls-3{fill:#909091;}.cls-4{fill:#fff;}.cls-5{stroke:#414042;stroke-miterlimit:10;}.cls-6{fill:url(#New_Pattern_Swatch_13);}.cls-7{fill:url(#New_Pattern_Swatch_8);}.cls-8{fill:url(#New_Pattern_Swatch_8-3);}</style><pattern id="New_Pattern_Swatch_13" data-name="New Pattern Swatch 13" width="90" height="63" patternTransform="translate(44.63 1.01)" patternUnits="userSpaceOnUse" viewBox="0 0 90 63"><rect class="cls-1" width="90" height="63"/><path class="cls-2" d="M87.42,63.35c.56-1.59,2.51-3.28,4.11-4.92a25,25,0,0,1,5.34-4c4.93-2.88,11.06-3.41,15.53.76a10.54,10.54,0,0,1,3.51,7.88c-.06,4.1-3,6.54-6.16,8.62-3.84,2.54-8.21,4.16-12.41,6h0c-4.22,1.84-8.9,1-11.58-3.22-2-3.17-.85-5.37-.15-7.38C86.1,65.69,87.11,64.22,87.42,63.35Z"/><path class="cls-3" d="M86,65.76a26.5,26.5,0,0,0-1.15,2.55,8.36,8.36,0,0,0-.7,2.8,6.65,6.65,0,0,0,.58,3,9.23,9.23,0,0,0,3.95,4.46,9.44,9.44,0,0,0,6,1,11.22,11.22,0,0,0,2.92-.82l2.54-1.11c1.69-.75,3.4-1.5,5.08-2.34a36.45,36.45,0,0,0,4.88-2.87,19,19,0,0,0,4.23-3.84,9,9,0,0,0,1.42-2.54,8.82,8.82,0,0,0,.49-2.86,11.26,11.26,0,0,0-1.44-5.47A13.45,13.45,0,0,0,111,53.45a11.58,11.58,0,0,0-5.46-2.05c-4-.43-7.87,1.29-10.77,3.61a23.9,23.9,0,0,0-4.08,3.89c-.61.69-1.27,1.35-1.86,2.07a7.88,7.88,0,0,0-1.53,2.35C87,64.15,86.46,64.93,86,65.76Zm5-6.5a21.12,21.12,0,0,1,4.41-3.2,26.61,26.61,0,0,1,4.85-2.22,19.18,19.18,0,0,1,2.54-.62,14.84,14.84,0,0,1,2.58-.16,10.56,10.56,0,0,1,5,1.33A12.51,12.51,0,0,1,112.56,56a10.67,10.67,0,0,1,1.69,2.09,9.07,9.07,0,0,1,1.32,5.12,7.3,7.3,0,0,1-2.07,4.72,21,21,0,0,1-4.26,3.22,48.72,48.72,0,0,1-4.82,2.49c-1.66.75-3.36,1.43-5.08,2.12-.85.33-1.73.71-2.56,1.06a9.78,9.78,0,0,1-2.4.68,7.85,7.85,0,0,1-4.78-.65,9,9,0,0,1-3.67-3.35,5.45,5.45,0,0,1-.84-2.37,6.71,6.71,0,0,1,.31-2.6,17.34,17.34,0,0,1,.9-2.6c.37-.84.88-1.62,1.21-2.51C88.22,61.7,89.72,60.49,91.07,59.26Z"/><path class="cls-2" d="M42,56.77c-4.67.21-7.48,5.52-7.56,10.29h0c-.07,4.24.3,8,3.32,11.34S46,84,50.42,82.61c5.59-1.7,8-7.55,7.92-13a13.75,13.75,0,0,0-1.8-7,10.69,10.69,0,0,0-2.11-2.49c-.64-.54-1.34-1-2-1.54s1.85,1.52.6.42A11.64,11.64,0,0,0,42,56.77Z"/><path class="cls-3" d="M51.57,58.69a12,12,0,0,1,.91.82l.21.23.09.1h0l0-.05c-.54-.47,1.27-2,1-1.2.16.08.06,0,.07,0l-.46-.41L53.08,58,53,57.89l-.06,0s0,0,0,0c1.06-1.14-1.34,1.67-1.11,1.36h0l.48.42,1,.83.5.41.41.4a9.27,9.27,0,0,1,.77.89,9.4,9.4,0,0,1,1.19,2,13.82,13.82,0,0,1,1.1,4.67,16.69,16.69,0,0,1-.33,4.89,13.57,13.57,0,0,1-1.84,4.5,11.44,11.44,0,0,1-1.53,1.88,9.41,9.41,0,0,1-2,1.44,8.73,8.73,0,0,1-4.8,1.07,12.31,12.31,0,0,1-10.89-9,23.33,23.33,0,0,1-.64-4.92c0-.85-.05-1.72,0-2.52a18.62,18.62,0,0,1,.3-2.45,10.75,10.75,0,0,1,2-4.54,6.73,6.73,0,0,1,1.93-1.63A6.28,6.28,0,0,1,42,56.87,10.52,10.52,0,0,1,51.57,58.69Zm-14.37.15a12.14,12.14,0,0,0-2.88,4.54A13.46,13.46,0,0,0,33.65,66a22.73,22.73,0,0,0-.14,2.7,16.64,16.64,0,0,0,.81,5.37,12.38,12.38,0,0,0,2.94,4.62,17.17,17.17,0,0,0,4.4,3,15.48,15.48,0,0,0,5.08,1.52,10.61,10.61,0,0,0,9.67-4.13,13.76,13.76,0,0,0,2.36-5,16.79,16.79,0,0,0-.65-10.89,11.85,11.85,0,0,0-1.53-2.41,12.06,12.06,0,0,0-1-1c-.18-.17-.36-.32-.55-.47L54.53,59l-1.07-.77-.54-.38-.05,0c.21-.32-2.19,2.48-1.12,1.35l0,0,.07.06.14.09.27.2.57.39L53,60c-.28.8,1.54-.71,1-1.2L54,58.75l-.05,0-.15-.12-.27-.21a11.15,11.15,0,0,0-1.17-.76,11.49,11.49,0,0,0-5.17-1.54,14.68,14.68,0,0,0-5.21.6A7.4,7.4,0,0,0,37.2,58.84Z"/><path class="cls-2" d="M-2.58,63.35c.56-1.59,2.51-3.28,4.11-4.92a25,25,0,0,1,5.34-4c4.93-2.88,11.06-3.41,15.53.76a10.54,10.54,0,0,1,3.51,7.88c-.06,4.1-3,6.54-6.16,8.62-3.84,2.54-8.21,4.16-12.41,6h0c-4.22,1.84-8.9,1-11.58-3.22-2-3.17-.85-5.37-.15-7.38C-3.9,65.69-2.89,64.22-2.58,63.35Z"/><path class="cls-3" d="M-4,65.76a26.5,26.5,0,0,0-1.15,2.55,8.36,8.36,0,0,0-.7,2.8,6.65,6.65,0,0,0,.58,3,9.23,9.23,0,0,0,4,4.46,9.44,9.44,0,0,0,6,1,11.22,11.22,0,0,0,2.92-.82l2.54-1.11c1.69-.75,3.4-1.5,5.08-2.34a36.45,36.45,0,0,0,4.88-2.87,19,19,0,0,0,4.23-3.84,9,9,0,0,0,1.42-2.54,8.82,8.82,0,0,0,.49-2.86,11.26,11.26,0,0,0-1.44-5.47A13.45,13.45,0,0,0,21,53.45a11.58,11.58,0,0,0-5.46-2.05C11.58,51,7.69,52.69,4.79,55A23.9,23.9,0,0,0,.71,58.9C.1,59.59-.56,60.25-1.15,61a7.88,7.88,0,0,0-1.53,2.35C-3,64.15-3.54,64.93-4,65.76Zm5-6.5a21.12,21.12,0,0,1,4.41-3.2,26.61,26.61,0,0,1,4.85-2.22,19.18,19.18,0,0,1,2.54-.62,14.84,14.84,0,0,1,2.58-.16,10.56,10.56,0,0,1,5,1.33A12.51,12.51,0,0,1,22.56,56a10.67,10.67,0,0,1,1.69,2.09,9.07,9.07,0,0,1,1.32,5.12,7.3,7.3,0,0,1-2.07,4.72,21,21,0,0,1-4.26,3.22,48.72,48.72,0,0,1-4.82,2.49c-1.66.75-3.36,1.43-5.08,2.12-.85.33-1.73.71-2.56,1.06a9.78,9.78,0,0,1-2.4.68A7.85,7.85,0,0,1-.4,76.81a9,9,0,0,1-3.67-3.35,5.45,5.45,0,0,1-.84-2.37,6.71,6.71,0,0,1,.31-2.6,17.34,17.34,0,0,1,.9-2.6c.37-.84.88-1.62,1.21-2.51C-1.78,61.7-.28,60.49,1.07,59.26Z"/><path class="cls-2" d="M21.29,77.45a11.5,11.5,0,0,0,5.79,4.42,6.41,6.41,0,0,0,3.39.16,6.41,6.41,0,0,0,3.16-1,8.49,8.49,0,0,0,3-11.63,33.55,33.55,0,0,0-2.5-3.55,4.07,4.07,0,0,0-.4-.43l-.19-.16a15.17,15.17,0,0,0-1.87-1.43,10,10,0,0,0-5.13-1.39,8.79,8.79,0,0,0-6,2.49,6.44,6.44,0,0,0-1.76,2.73,6.48,6.48,0,0,0-.73,3.28A10.66,10.66,0,0,0,21.29,77.45Z"/><path class="cls-3" d="M19.77,75.25a9.45,9.45,0,0,1-.89-2.48,6.37,6.37,0,0,1-.08-2.49,6.67,6.67,0,0,1,.85-2.2h0l.05-.13a6.13,6.13,0,0,1,1.09-1.78,9.57,9.57,0,0,1,.79-.75,7.79,7.79,0,0,1,.87-.64,8.38,8.38,0,0,1,4.09-1.34,9.13,9.13,0,0,1,4.35.92,7.34,7.34,0,0,1,1,.52c.32.21.64.46,1,.7l.48.34.39.36c.28.29.55.58.81.89.52.61,1,1.27,1.5,1.94a6.29,6.29,0,0,1,1.14,2.07,7.85,7.85,0,0,1,0,4.7,7.48,7.48,0,0,1-2.73,3.59,10.71,10.71,0,0,1-1.9,1.17,6,6,0,0,1-2,.53h-.15a6.66,6.66,0,0,1-2.36.21,8.61,8.61,0,0,1-2.46-.65,9.77,9.77,0,0,1-2.27-1.38,9.23,9.23,0,0,1-1.82-2A8.26,8.26,0,0,1,19.77,75.25ZM23,79.63a16.07,16.07,0,0,0,2.11,1.81,8.65,8.65,0,0,0,2.58,1.28,6.42,6.42,0,0,0,3,.15l-.15,0a6.5,6.5,0,0,0,2.73-.64,8.83,8.83,0,0,0,2.19-1.58A8.35,8.35,0,0,0,38,76.07,11.67,11.67,0,0,0,37.76,71a9.45,9.45,0,0,0-1.08-2.32c-.4-.72-.81-1.44-1.28-2.15-.22-.36-.46-.71-.72-1.06l-.45-.55-.46-.44c-.3-.29-.61-.58-1-.86a6.52,6.52,0,0,0-1.14-.77,10.47,10.47,0,0,0-5.16-1.4A9.38,9.38,0,0,0,21.28,63a8.24,8.24,0,0,0-1.09.86,11.44,11.44,0,0,0-1,1,6.89,6.89,0,0,0-1.3,2.52l.06-.14a6.55,6.55,0,0,0-.61,3A7.84,7.84,0,0,0,18.07,73a15.9,15.9,0,0,0,1.37,2.42,12.22,12.22,0,0,0,1.78,2.07A14.92,14.92,0,0,0,23,79.63Z"/><path class="cls-2" d="M64.11,58.33c-4.8.22-11,4.77-11.25,9.53h0c-.15,2.84.83,5.23,1.75,7.83a25.43,25.43,0,0,0,3.69,7.06c2.83,3.75,6.77,5.83,11.56,4.66,3.65-.9,6.69-3.8,8.59-6.91a32.19,32.19,0,0,0,2-4.26c.46-1.07.2-.27-.12.31.21-.4.4-.83.59-1.24,1.36-3,2.32-5.7,1.87-9A10.62,10.62,0,0,0,75,57.62C72.32,56.81,66.86,58.25,64.11,58.33Z"/><path class="cls-3" d="M72.56,57.81a8.46,8.46,0,0,1,2,.27,10.39,10.39,0,0,1,1.82.8,11.25,11.25,0,0,1,3,2.47,9.88,9.88,0,0,1,1.9,3.31,10.54,10.54,0,0,1,.48,3.8,21.29,21.29,0,0,1-2.35,7.62l1.71.94c.1-.18.17-.34.25-.51l.1-.27.06-.16,0-.08a1.26,1.26,0,0,0,0-.25c-.16-.33.33.07-.46-.85-2.18.09-1,.44-1.33.31l0,.05,0,.07c-.19.39-.28.65-.42,1l-.72,1.81a15.17,15.17,0,0,1-1.76,3.27,15,15,0,0,1-5.5,5,9.46,9.46,0,0,1-7.34.51A11.56,11.56,0,0,1,58.36,82a27.46,27.46,0,0,1-3.09-7c-.82-2.49-1.69-4.85-1.58-7.26a9.45,9.45,0,0,1,3.5-6.21,11.66,11.66,0,0,1,6.92-3.11C67,58.27,69.77,57.69,72.56,57.81ZM56.73,61a13.67,13.67,0,0,0-3,2.77,7.9,7.9,0,0,0-1.7,3.89,11.65,11.65,0,0,0,.33,4.17,31.21,31.21,0,0,0,1.28,3.79,26.07,26.07,0,0,0,3.87,7,14.82,14.82,0,0,0,6.29,4.86,11.42,11.42,0,0,0,7.94-.17,15.41,15.41,0,0,0,6.41-4.93,16.1,16.1,0,0,0,2.14-3.5L81.11,77c.12-.28.27-.62.37-.82,0,0,0,0,0,0v0c-.33-.14.86.21-1.31.29-.77-.94-.3-.51-.45-.84,0-.18,0-.26,0-.22v0l0,.07-.08.19-.19.36,1.71.94A40.33,40.33,0,0,0,83,73a14.65,14.65,0,0,0,.94-4.44,10.86,10.86,0,0,0-7-11A10.33,10.33,0,0,0,74.78,57a9.91,9.91,0,0,0-2.24,0c-2.89.28-5.62,1.1-8.44,1.28A15.1,15.1,0,0,0,56.73,61Z"/><path class="cls-2" d="M105.73,62.56c4.63-1.29,9.64-7.13,8.8-11.83h0c-.5-2.8-2-4.9-3.48-7.22a25.1,25.1,0,0,0-5.19-6c-3.61-3-7.91-4.15-12.32-1.92-3.34,1.7-5.65,5.21-6.8,8.67a32.65,32.65,0,0,0-.95,4.6c-.21,1.14-.13.31,0-.33-.13.44-.21.89-.3,1.34-.65,3.19-1,6.08.21,9.18a10.65,10.65,0,0,0,9.5,6.73C98.07,65.9,103.07,63.26,105.73,62.56Z"/><path class="cls-3" d="M97.61,65a9.15,9.15,0,0,1-2,.18,10.4,10.4,0,0,1-2-.37,11.31,11.31,0,0,1-3.52-1.72,9.86,9.86,0,0,1-2.6-2.79,10.48,10.48,0,0,1-1.32-3.59,21,21,0,0,1,.56-8l-1.88-.53c-.05.2-.09.38-.13.56l0,.28,0,.17v.08s0,.06,0,.26c.23.29-.34,0,.64.72,2.1-.58.86-.65,1.22-.6l0,0,0-.08c.09-.42.13-.7.18-1l.29-1.92a15.77,15.77,0,0,1,1-3.59,14.88,14.88,0,0,1,4.23-6.1,9.49,9.49,0,0,1,7-2.15A11.53,11.53,0,0,1,106,38.22a27.22,27.22,0,0,1,4.58,6.1c1.37,2.24,2.75,4.34,3.18,6.71a9.42,9.42,0,0,1-2,6.84,11.63,11.63,0,0,1-6,4.59C103,63.27,100.36,64.47,97.61,65Zm14.71-6.66A13.53,13.53,0,0,0,114.58,55a7.82,7.82,0,0,0,.78-4.17,11.79,11.79,0,0,0-1.26-4A31,31,0,0,0,112,43.4a26,26,0,0,0-5.35-5.94,14.73,14.73,0,0,0-7.23-3.32,11.45,11.45,0,0,0-7.7,2,15.39,15.39,0,0,0-5.12,6.26,16.16,16.16,0,0,0-1.29,3.89l-.36,1.94c-.06.3-.13.67-.18.89,0,0,0,0,0,0v0c.36.07-.89,0,1.21-.57,1,.74.4.42.63.71,0,.18,0,.27,0,.22v0l0-.2a3.89,3.89,0,0,1,.1-.4l-1.88-.53A38.14,38.14,0,0,0,84,52.54a15.06,15.06,0,0,0,.08,4.54,10.89,10.89,0,0,0,9.26,9.09,11.31,11.31,0,0,0,2.26.12,10.36,10.36,0,0,0,2.2-.48c2.75-.92,5.22-2.34,7.93-3.15A15.14,15.14,0,0,0,112.32,58.33Z"/><path class="cls-2" d="M87.42.35c.56-1.59,2.51-3.28,4.11-4.92a25,25,0,0,1,5.34-4c4.93-2.88,11.06-3.41,15.53.76A10.54,10.54,0,0,1,115.91.1c-.06,4.1-3,6.54-6.16,8.62-3.84,2.54-8.21,4.16-12.41,6h0c-4.22,1.84-8.9,1-11.58-3.22-2-3.17-.85-5.37-.15-7.38C86.1,2.69,87.11,1.22,87.42.35Z"/><path class="cls-3" d="M86,2.76a26.5,26.5,0,0,0-1.15,2.55,8.36,8.36,0,0,0-.7,2.8,6.65,6.65,0,0,0,.58,3,9.23,9.23,0,0,0,3.95,4.46,9.44,9.44,0,0,0,6,1.05,11.22,11.22,0,0,0,2.92-.82l2.54-1.11c1.69-.75,3.4-1.5,5.08-2.34a36.45,36.45,0,0,0,4.88-2.87,19,19,0,0,0,4.23-3.84,9,9,0,0,0,1.42-2.54,8.82,8.82,0,0,0,.49-2.86,11.26,11.26,0,0,0-1.44-5.47A13.45,13.45,0,0,0,111-9.55a11.58,11.58,0,0,0-5.46-2c-4-.43-7.87,1.29-10.77,3.61A23.9,23.9,0,0,0,90.71-4.1c-.61.69-1.27,1.35-1.86,2.07A7.88,7.88,0,0,0,87.32.32C87,1.15,86.46,1.93,86,2.76Zm5-6.5a21.12,21.12,0,0,1,4.41-3.2,26.61,26.61,0,0,1,4.85-2.22,19.18,19.18,0,0,1,2.54-.62,14.84,14.84,0,0,1,2.58-.16,10.56,10.56,0,0,1,5,1.33A12.51,12.51,0,0,1,112.56-7a10.67,10.67,0,0,1,1.69,2.09A9.07,9.07,0,0,1,115.57.17a7.3,7.3,0,0,1-2.07,4.72,21,21,0,0,1-4.26,3.22,48.72,48.72,0,0,1-4.82,2.49c-1.66.75-3.36,1.43-5.08,2.12-.85.33-1.73.71-2.56,1.06a9.78,9.78,0,0,1-2.4.68,7.85,7.85,0,0,1-4.78-.65,9,9,0,0,1-3.67-3.35,5.45,5.45,0,0,1-.84-2.37,6.71,6.71,0,0,1,.31-2.6,17.34,17.34,0,0,1,.9-2.6c.37-.84.88-1.62,1.21-2.51C88.22-1.3,89.72-2.51,91.07-3.74Z"/><path class="cls-2" d="M15.73,62.56c4.63-1.29,9.64-7.13,8.8-11.83h0c-.5-2.8-2-4.9-3.48-7.22a25.1,25.1,0,0,0-5.19-6c-3.61-3-7.91-4.15-12.32-1.92-3.34,1.7-5.65,5.21-6.8,8.67a32.65,32.65,0,0,0-1,4.6c-.21,1.14-.13.31,0-.33-.13.44-.21.89-.3,1.34-.65,3.19-1,6.08.21,9.18a10.65,10.65,0,0,0,9.5,6.73C8.07,65.9,13.07,63.26,15.73,62.56Z"/><path class="cls-3" d="M7.61,65a9.15,9.15,0,0,1-2,.18,10.4,10.4,0,0,1-2-.37A11.31,11.31,0,0,1,.14,63.08a9.86,9.86,0,0,1-2.6-2.79A10.48,10.48,0,0,1-3.78,56.7a21,21,0,0,1,.56-8l-1.88-.53c-.05.2-.09.38-.13.56l0,.28,0,.17v.08s0,.06,0,.26c.23.29-.34,0,.64.72,2.1-.58.86-.65,1.22-.6l0,0,0-.08c.09-.42.13-.7.18-1l.29-1.92a15.77,15.77,0,0,1,1-3.59A14.88,14.88,0,0,1,2.3,36.9a9.49,9.49,0,0,1,7-2.15A11.53,11.53,0,0,1,16,38.22a27.22,27.22,0,0,1,4.58,6.1c1.37,2.24,2.75,4.34,3.18,6.71a9.42,9.42,0,0,1-2,6.84,11.63,11.63,0,0,1-6,4.59C13,63.27,10.36,64.47,7.61,65Zm14.71-6.66A13.53,13.53,0,0,0,24.58,55a7.82,7.82,0,0,0,.78-4.17,11.79,11.79,0,0,0-1.26-4A31,31,0,0,0,22,43.4a26,26,0,0,0-5.35-5.94,14.73,14.73,0,0,0-7.23-3.32,11.45,11.45,0,0,0-7.7,2,15.39,15.39,0,0,0-5.12,6.26A16.16,16.16,0,0,0-4.7,46.25l-.36,1.94c-.06.3-.13.67-.18.89,0,0,0,0,0,0v0c.36.07-.89,0,1.21-.57,1,.74.4.42.63.71,0,.18,0,.27,0,.22v0l0-.2a3.89,3.89,0,0,1,.1-.4l-1.88-.53A38.14,38.14,0,0,0-6,52.54a15.06,15.06,0,0,0,.08,4.54,11.09,11.09,0,0,0,5,7.54,11,11,0,0,0,4.27,1.55,11.31,11.31,0,0,0,2.26.12,10.36,10.36,0,0,0,2.2-.48c2.75-.92,5.22-2.34,7.93-3.15A15.14,15.14,0,0,0,22.32,58.33Z"/><path class="cls-2" d="M13.2,10.62C8.78,10.82,1.73,15.74,2,20.49H2c.25,5.26,1,10.82,5.43,14.26C12.87,39,20.89,39.57,25,33.07a15.37,15.37,0,0,0,2.09-5.71c.11-.64.18-1.29.27-1.93s.72-3.18,0-.29a19,19,0,0,0,.51-3.75,11.92,11.92,0,0,0-3.14-8.56C22.42,10.33,16.47,10.94,13.2,10.62Z"/><path class="cls-3" d="M19.45,11.24c2,.34,4.11.94,5.09,2.51a12.19,12.19,0,0,1,2.18,5.32A11.62,11.62,0,0,1,26.79,22a20.72,20.72,0,0,1-.44,2.93l2.07.49.22-1,.06-.25,0-.13v0s0,0,0-.18c1-.63-3.44-1-2.09-.32v.11l-.11.5a18.77,18.77,0,0,0-.32,2,16.42,16.42,0,0,1-.73,3.69,12.48,12.48,0,0,1-1.59,3.31,11.11,11.11,0,0,1-1.12,1.44,12,12,0,0,1-1.39,1.18,9.89,9.89,0,0,1-7.13,1.66,13.52,13.52,0,0,1-6.92-3.18,12.1,12.1,0,0,1-3.62-6.51,44.94,44.94,0,0,1-.89-7.57,6.49,6.49,0,0,1,1-3.27A13.23,13.23,0,0,1,6.3,14a12.09,12.09,0,0,1,6.9-3.28C15.28,10.92,17.4,10.89,19.45,11.24Zm-10.11.23A19.14,19.14,0,0,0,5.8,13.36a13.88,13.88,0,0,0-3,2.75,7,7,0,0,0-1.66,4,26.92,26.92,0,0,0,.25,4.06,21,21,0,0,0,.91,4,13.62,13.62,0,0,0,4.62,6.66,17.88,17.88,0,0,0,7.26,3.32,11.38,11.38,0,0,0,8-1.19,10.15,10.15,0,0,0,3.13-2.81,12.57,12.57,0,0,0,2-3.69,18.77,18.77,0,0,0,1-4,14.94,14.94,0,0,1,.36-1.86l.12-.46v-.05h0c1.35.68-3,.28-2.08-.34,0-.16,0-.18,0-.15h0l0,.1-.06.24-.22.95,2.07.49a20.19,20.19,0,0,0,.5-3.27,13.75,13.75,0,0,0-.2-3.38,11.64,11.64,0,0,0-3-6,5.66,5.66,0,0,0-1.39-1.11,6.23,6.23,0,0,0-1.6-.64,14.33,14.33,0,0,0-3.22-.4c-2.12-.07-4.21.06-6.3-.09A12.21,12.21,0,0,0,9.34,11.47Z"/><path class="cls-2" d="M86.23,45.56c1.11,1.27,1.62,3.79,2.26,6a25.36,25.36,0,0,1,.83,6.6C89.4,63.87,86.84,69.47,81,71.3a10.51,10.51,0,0,1-8.59-.82c-3.53-2.07-4.2-5.85-4.47-9.6-.32-4.6.43-9.19.9-13.75h0c.47-4.59,3.52-8.23,8.5-8.5,3.76-.2,5.1,1.9,6.5,3.5C84.84,43.26,85.63,44.86,86.23,45.56Z"/><path class="cls-3" d="M84.82,43.17c-.48-.81-1.11-1.51-1.66-2.26a8.28,8.28,0,0,0-2.09-2,6.6,6.6,0,0,0-2.85-1,9.34,9.34,0,0,0-5.83,1.24,9.54,9.54,0,0,0-3.86,4.69,11.67,11.67,0,0,0-.72,3l-.29,2.76c-.17,1.84-.36,3.69-.45,5.57a34.55,34.55,0,0,0,.09,5.66,18.81,18.81,0,0,0,1.26,5.57,9.12,9.12,0,0,0,1.51,2.5,8.91,8.91,0,0,0,2.25,1.82,11.07,11.07,0,0,0,5.47,1.44A13.22,13.22,0,0,0,83.23,71a11.47,11.47,0,0,0,4.47-3.74C90,64,90.46,59.75,89.86,56.08a23.58,23.58,0,0,0-1.37-5.47c-.31-.87-.55-1.76-.89-2.63a7.78,7.78,0,0,0-1.29-2.49C85.76,44.78,85.33,44,84.82,43.17ZM88,50.75a21.67,21.67,0,0,1,.61,5.42,27.29,27.29,0,0,1-.45,5.32,19.34,19.34,0,0,1-.72,2.5,13.19,13.19,0,0,1-1.13,2.33A10.54,10.54,0,0,1,82.71,70a12.35,12.35,0,0,1-2.43,1.09,10.2,10.2,0,0,1-2.64.44,9,9,0,0,1-5.11-1.37A7.3,7.3,0,0,1,69.44,66a20.65,20.65,0,0,1-.7-5.3,46.85,46.85,0,0,1,.2-5.42c.16-1.81.41-3.63.66-5.46.13-.91.22-1.86.33-2.75a10.52,10.52,0,0,1,.59-2.43,7.93,7.93,0,0,1,2.92-3.84,9,9,0,0,1,4.72-1.54,5.54,5.54,0,0,1,2.48.43,6.68,6.68,0,0,1,2.12,1.56,18.32,18.32,0,0,1,1.81,2c.55.75,1,1.56,1.59,2.29C87.28,47.07,87.59,49,88,50.75Z"/><path class="cls-2" d="M40.05,33.56A25.09,25.09,0,0,0,44.27,25c3.1-10.52-13.3-15-16.39-4.52h0c-.87,2.95-3.53,3.3-5.86,5.59S18,31.56,16.28,34.5c-3.07,5.32-7,11.81-2.49,17.6s13.74,5.16,18.52.28c3.16-3.23,3-6.23,4-10.23-.4,1.65.75-1.69.94-2.11C38.17,38,39.08,35.57,40.05,33.56Z"/><path class="cls-3" d="M37.83,38.21c-.34.8-.77,1.51-1.12,2.34l-.51,1.18c-.08.19-.17.39-.26.56s-.08.12,0,0,0,0,.11-.08a.42.42,0,0,1,.41,0,.32.32,0,0,1,.14.18.19.19,0,0,1,0,.1v0l.08-.28-.84-.21A53,53,0,0,1,34,48.28a10.94,10.94,0,0,1-3.86,4.58A12.67,12.67,0,0,1,24.55,55a12,12,0,0,1-6-.6A9.23,9.23,0,0,1,14,50.75a9.09,9.09,0,0,1-.71-1.3A8.89,8.89,0,0,1,12.85,48a8.6,8.6,0,0,1-.18-3,20.2,20.2,0,0,1,1.81-6c.9-2,2-3.89,3-5.84A32.76,32.76,0,0,1,21,27.65a13.52,13.52,0,0,1,2.32-2.22c.87-.63,1.83-1.14,2.78-1.79a5.66,5.66,0,0,0,2.22-2.75,9.61,9.61,0,0,1,1.45-2.73A7.31,7.31,0,0,1,34.9,15.5a9.21,9.21,0,0,1,5.72,1.33A7.06,7.06,0,0,1,44,21.53c.43,2-.28,4.16-1,6.23A19.84,19.84,0,0,1,40,33.51C39.19,35.07,38.56,36.65,37.83,38.21ZM42,30.88a28.3,28.3,0,0,0,1.52-2.95,27.13,27.13,0,0,0,1.22-3.11,8.81,8.81,0,0,0,.42-3.44A7.93,7.93,0,0,0,44.05,18a8.82,8.82,0,0,0-2.5-2.59,10.17,10.17,0,0,0-6.85-1.67,9.12,9.12,0,0,0-3.42,1.15,8.44,8.44,0,0,0-2.61,2.47,10.51,10.51,0,0,0-1.38,3.19A4.79,4.79,0,0,1,25.6,23c-.82.66-1.79,1.22-2.67,1.93a14.82,14.82,0,0,0-2.38,2.37,44,44,0,0,0-3.73,5.5c-1.14,1.88-2.33,3.73-3.41,5.68a19.37,19.37,0,0,0-2.36,6.4,10,10,0,0,0,1.36,6.91,11.29,11.29,0,0,0,5.42,4.58,13.57,13.57,0,0,0,7,.79,14.37,14.37,0,0,0,6.51-2.64,10,10,0,0,0,1.35-1.17A9.86,9.86,0,0,0,33.87,52a11,11,0,0,0,1.65-3.14,57.4,57.4,0,0,0,1.19-6.59l-.84-.21,0,.34,0,.11v.13a.53.53,0,0,0,0,.12.41.41,0,0,0,.15.19.42.42,0,0,0,.42,0c.17-.1.11-.08.13-.1a.82.82,0,0,0,.14-.25c.09-.22.15-.42.22-.63l.39-1.23c.23-.79.61-1.6.9-2.4.61-1.6,1.24-3.21,2-4.75A19,19,0,0,0,42,30.88Z"/><path class="cls-2" d="M63.2,32.62c-4.42.2-11.47,5.12-11.25,9.87h0c.25,5.26,1,10.82,5.43,14.26C62.87,61,70.89,61.57,75,55.07a15.37,15.37,0,0,0,2.09-5.71c.11-.64.18-1.29.27-1.93s.72-3.18,0-.29a19,19,0,0,0,.51-3.75,11.92,11.92,0,0,0-3.14-8.56C72.42,32.33,66.47,32.94,63.2,32.62Z"/><path class="cls-3" d="M69.45,33.24c2,.34,4.11.94,5.09,2.51a12.19,12.19,0,0,1,2.18,5.32A11.62,11.62,0,0,1,76.79,44a20.72,20.72,0,0,1-.44,2.93l2.07.49.22-1,.06-.25,0-.13v0s0,0,0-.18c1-.63-3.44-1-2.09-.32v.11l-.11.5a18.77,18.77,0,0,0-.32,2,16.42,16.42,0,0,1-.73,3.69,12.48,12.48,0,0,1-1.59,3.31,11.11,11.11,0,0,1-1.12,1.44,12,12,0,0,1-1.39,1.18,9.89,9.89,0,0,1-7.13,1.66,13.52,13.52,0,0,1-6.92-3.18,12.1,12.1,0,0,1-3.62-6.51,44.94,44.94,0,0,1-.89-7.57,6.49,6.49,0,0,1,1.05-3.27A13.23,13.23,0,0,1,56.3,36a12.09,12.09,0,0,1,6.9-3.28C65.28,32.92,67.4,32.89,69.45,33.24Zm-10.11.23a19.14,19.14,0,0,0-3.54,1.89,13.88,13.88,0,0,0-3,2.75,7,7,0,0,0-1.66,4,26.92,26.92,0,0,0,.25,4.06,21,21,0,0,0,.91,4,13.62,13.62,0,0,0,4.62,6.66,17.88,17.88,0,0,0,7.26,3.32,11.38,11.38,0,0,0,8-1.19,10.15,10.15,0,0,0,3.13-2.81,12.57,12.57,0,0,0,2-3.69,18.77,18.77,0,0,0,1-4,14.94,14.94,0,0,1,.36-1.86l.12-.46v0h0c1.35.68-3,.28-2.08-.34,0-.16,0-.18,0-.15h0l0,.1-.06.24-.22,1,2.07.49a20.19,20.19,0,0,0,.5-3.27,13.75,13.75,0,0,0-.2-3.38,11.64,11.64,0,0,0-3-6,5.66,5.66,0,0,0-1.39-1.11,6.23,6.23,0,0,0-1.6-.64,14.33,14.33,0,0,0-3.22-.4c-2.12-.07-4.21.06-6.3-.09A12.21,12.21,0,0,0,59.34,33.47Z"/><path class="cls-2" d="M42-6.23C37.28-6,34.47-.71,34.39,4.06h0c-.07,4.24.3,8,3.32,11.34S46,21,50.42,19.61c5.59-1.7,8-7.55,7.92-13a13.75,13.75,0,0,0-1.8-7,10.69,10.69,0,0,0-2.11-2.49c-.64-.54-1.34-1-2-1.54s1.85,1.52.6.42A11.64,11.64,0,0,0,42-6.23Z"/><path class="cls-3" d="M51.57-4.31a12,12,0,0,1,.91.82l.21.23.09.1s0,0,0,0l0,0c-.54-.47,1.27-2,1-1.2.16.08.06,0,.07,0l-.46-.41L53.08-5,53-5.11l-.06,0s0,0,0,0C54-6.3,51.58-3.49,51.81-3.8h0l.48.42,1,.83.5.41.41.4A9.27,9.27,0,0,1,55-.84a9.4,9.4,0,0,1,1.19,2,13.82,13.82,0,0,1,1.1,4.67,16.69,16.69,0,0,1-.33,4.89,13.57,13.57,0,0,1-1.84,4.5,11.44,11.44,0,0,1-1.53,1.88,9.41,9.41,0,0,1-2,1.44,8.73,8.73,0,0,1-4.8,1.07,12.31,12.31,0,0,1-10.89-9,23.33,23.33,0,0,1-.64-4.92c0-.85-.05-1.72,0-2.52a18.62,18.62,0,0,1,.3-2.45,10.75,10.75,0,0,1,2-4.54,6.73,6.73,0,0,1,1.93-1.63A6.28,6.28,0,0,1,42-6.13,10.52,10.52,0,0,1,51.57-4.31ZM37.2-4.16A12.14,12.14,0,0,0,34.32.38,13.46,13.46,0,0,0,33.65,3a22.73,22.73,0,0,0-.14,2.7,16.64,16.64,0,0,0,.81,5.37,12.38,12.38,0,0,0,2.94,4.62,17.17,17.17,0,0,0,4.4,3.05,15.48,15.48,0,0,0,5.08,1.52,10.3,10.3,0,0,0,5.33-.76,10.39,10.39,0,0,0,4.34-3.37,13.76,13.76,0,0,0,2.36-5A16.79,16.79,0,0,0,58.12.3a11.85,11.85,0,0,0-1.53-2.41,12.06,12.06,0,0,0-1-1.05c-.18-.17-.36-.32-.55-.47L54.53-4l-1.07-.77-.54-.38-.05,0c.21-.32-2.19,2.48-1.12,1.35l0,0,.07.06.14.09.27.2.57.39s0,0,.2.12c-.28.8,1.54-.71,1-1.2L54-4.25l-.05,0-.15-.12-.27-.21a11.15,11.15,0,0,0-1.17-.76,11.49,11.49,0,0,0-5.17-1.54,14.68,14.68,0,0,0-5.21.6A7.4,7.4,0,0,0,37.2-4.16Z"/><path class="cls-2" d="M-2.58.35C-2-1.24-.07-2.93,1.53-4.57a25,25,0,0,1,5.34-4c4.93-2.88,11.06-3.41,15.53.76A10.54,10.54,0,0,1,25.91.1c-.06,4.1-3,6.54-6.16,8.62-3.84,2.54-8.21,4.16-12.41,6h0c-4.22,1.84-8.9,1-11.58-3.22-2-3.17-.85-5.37-.15-7.38C-3.9,2.69-2.89,1.22-2.58.35Z"/><path class="cls-3" d="M-4,2.76A26.5,26.5,0,0,0-5.12,5.31a8.36,8.36,0,0,0-.7,2.8,6.65,6.65,0,0,0,.58,3,9.23,9.23,0,0,0,4,4.46,9.44,9.44,0,0,0,6,1.05,11.22,11.22,0,0,0,2.92-.82l2.54-1.11c1.69-.75,3.4-1.5,5.08-2.34a36.45,36.45,0,0,0,4.88-2.87,19,19,0,0,0,4.23-3.84,9,9,0,0,0,1.42-2.54A8.82,8.82,0,0,0,26.25.19a11.26,11.26,0,0,0-1.44-5.47A13.45,13.45,0,0,0,21-9.55a11.58,11.58,0,0,0-5.46-2C11.58-12,7.69-10.31,4.79-8A23.9,23.9,0,0,0,.71-4.1C.1-3.41-.56-2.75-1.15-2A7.88,7.88,0,0,0-2.68.32C-3,1.15-3.54,1.93-4,2.76Zm5-6.5a21.12,21.12,0,0,1,4.41-3.2,26.61,26.61,0,0,1,4.85-2.22,19.18,19.18,0,0,1,2.54-.62,14.84,14.84,0,0,1,2.58-.16,10.56,10.56,0,0,1,5,1.33A12.51,12.51,0,0,1,22.56-7a10.67,10.67,0,0,1,1.69,2.09A9.07,9.07,0,0,1,25.57.17,7.3,7.3,0,0,1,23.5,4.89a21,21,0,0,1-4.26,3.22,48.72,48.72,0,0,1-4.82,2.49c-1.66.75-3.36,1.43-5.08,2.12-.85.33-1.73.71-2.56,1.06a9.78,9.78,0,0,1-2.4.68A7.85,7.85,0,0,1-.4,13.81a9,9,0,0,1-3.67-3.35,5.45,5.45,0,0,1-.84-2.37,6.71,6.71,0,0,1,.31-2.6,17.34,17.34,0,0,1,.9-2.6c.37-.84.88-1.62,1.21-2.51C-1.78-1.3-.28-2.51,1.07-3.74Z"/><path class="cls-2" d="M21,70.05a12.3,12.3,0,0,0,7,3.85c7,1.15,12.92-4.85,14.8-11.11.89-3-.79-5.95-2.73-8a12.12,12.12,0,0,0-6-3.17,12.19,12.19,0,0,0-1.89-.3l-2.65-.17h.16c.79.05.84.05.14,0C29,51.09,28.13,51,27.26,51a11,11,0,0,0-2.12.26,13.71,13.71,0,0,0-3.47,1.14c-2.15,1-3.89,2.12-5,4.35a8.34,8.34,0,0,0-.42,6.4A31.81,31.81,0,0,0,21,70.05Z"/><path class="cls-3" d="M18.17,65.89a24.62,24.62,0,0,1-1.12-2.24,5.15,5.15,0,0,1-.53-2.24A9,9,0,0,1,17.65,57a7.6,7.6,0,0,1,3.21-3A21.2,21.2,0,0,1,23,53a14,14,0,0,1,2.23-.67,8.18,8.18,0,0,1,2.28-.3l2.48.1h.24c.05-.83-.18,1.84.1-1.86,0,0,.05,0,0,0l-.29,0-.64,0h-.27c-.06.81.09-1.81-.12,1.81h0l.32,0,.62,0c.83,0,1.7,0,2.49.11a13.62,13.62,0,0,1,4.65,1.14,9.43,9.43,0,0,1,3.75,3,8,8,0,0,1,1.8,4.45,5.56,5.56,0,0,1-.45,2.33,15.06,15.06,0,0,1-1.08,2.21,17.44,17.44,0,0,1-3,3.82,14,14,0,0,1-8.25,4.26l-.59,0h-.6a8.19,8.19,0,0,1-1.21-.07,11.1,11.1,0,0,1-2.38-.61A9.83,9.83,0,0,1,21.06,70,18.44,18.44,0,0,1,18.17,65.89ZM25,73.23a14.94,14.94,0,0,0,2.4,1,9.41,9.41,0,0,0,1.3.29l.65.11.67,0a10.48,10.48,0,0,0,5.24-1.1,13.43,13.43,0,0,0,4.2-3.27,18.11,18.11,0,0,0,2.76-4.46A17,17,0,0,0,43,63.37a6.68,6.68,0,0,0,.31-2.63,9.86,9.86,0,0,0-1.89-4.82,15.67,15.67,0,0,0-1.67-2,11,11,0,0,0-2.13-1.57,14,14,0,0,0-5-1.77c-.89-.16-1.7-.18-2.56-.28l-.63-.06-.32,0h0c-.22,3.63,0,1-.09,1.81h.12l.16,0,.62,0,.34,0h.07c.3-3.71,0-1,.08-1.86h-.31L27.58,50a10.5,10.5,0,0,0-2.74.23,13,13,0,0,0-2.62.74,19.7,19.7,0,0,0-2.41,1.15,8.81,8.81,0,0,0-4.6,9.4,6.44,6.44,0,0,0,1,2.53c.47.73,1,1.42,1.47,2.1s1,1.37,1.53,2a13.92,13.92,0,0,0,1.68,1.91A13.24,13.24,0,0,0,25,73.23Z"/><path class="cls-2" d="M57.75,53.42c-2.29-.55-7.91.72-10.19,2a12.87,12.87,0,0,0-5.64,5.87c-.92,2.33-1.17,4.88,0,6.81a8.55,8.55,0,0,0,5.68,3.77A23.34,23.34,0,0,0,63.51,70c5.07-2.69,8.16-8.88,5.62-12.68-2.42-3.61-7.67-4.09-11.38-3.88Z"/><path class="cls-3" d="M57.78,53.53h.28l.3,0,.6,0c.4,0,.79.07,1.19.12a22.06,22.06,0,0,1,2.32.42,11.4,11.4,0,0,1,4.15,1.79,6.36,6.36,0,0,1,1.5,1.52,4.37,4.37,0,0,1,.8,1.82,6.27,6.27,0,0,1,0,2,8.68,8.68,0,0,1-.63,2A12.17,12.17,0,0,1,65.85,67a12.93,12.93,0,0,1-3.61,2.61,25.1,25.1,0,0,1-9,2.33,21.41,21.41,0,0,1-4.73-.22A10.22,10.22,0,0,1,44.21,70a5.86,5.86,0,0,1-2.37-3.7A8.3,8.3,0,0,1,42.53,62,10.87,10.87,0,0,1,45,58.36a13.57,13.57,0,0,1,3.63-2.64,28.79,28.79,0,0,1,4.42-1.53c.76-.19,1.53-.39,2.31-.52a11.66,11.66,0,0,1,1.17-.14l.59,0a5.05,5.05,0,0,0,.52,0C57.86,53.6,57.72,53.49,57.78,53.53Zm-.61-.37a4.09,4.09,0,0,0-.61-.1c-.41,0-.82-.06-1.24-.06a16.93,16.93,0,0,0-2.46.15A21.11,21.11,0,0,0,48,54.29a13.22,13.22,0,0,0-4.26,2.81A10,10,0,0,0,41,61.43a9.34,9.34,0,0,0-.21,5.14A6.07,6.07,0,0,0,42,68.85a8.12,8.12,0,0,0,1.86,1.7,13.16,13.16,0,0,0,4.58,1.8,27.42,27.42,0,0,0,4.87.65A21.31,21.31,0,0,0,63,71.28a13.67,13.67,0,0,0,7.25-7.1,8.48,8.48,0,0,0,.53-5.35,6.41,6.41,0,0,0-1.28-2.47,8,8,0,0,0-2-1.73,11.82,11.82,0,0,0-4.85-1.48,15.69,15.69,0,0,0-2.47-.07L59,53.17l-.6.07-.3,0-.15,0h-.14s-.11-.07.09.08A2.62,2.62,0,0,0,57.17,53.16Z"/><path class="cls-2" d="M51.23,37.56c1.11,1.27,1.62,3.79,2.26,6a25.36,25.36,0,0,1,.83,6.6C54.4,55.87,51.84,61.47,46,63.3a10.51,10.51,0,0,1-8.59-.82c-3.53-2.07-4.2-5.85-4.47-9.6-.32-4.6.43-9.19.9-13.75h0c.47-4.59,3.52-8.23,8.5-8.5,3.76-.2,5.1,1.9,6.5,3.5C49.84,35.26,50.63,36.86,51.23,37.56Z"/><path class="cls-3" d="M49.82,35.17c-.48-.81-1.11-1.51-1.66-2.26a8.28,8.28,0,0,0-2.09-2,6.6,6.6,0,0,0-2.85-1,9.34,9.34,0,0,0-5.83,1.24,9.54,9.54,0,0,0-3.86,4.69,11.67,11.67,0,0,0-.72,3l-.29,2.76c-.17,1.84-.36,3.69-.45,5.57a34.55,34.55,0,0,0,.09,5.66,18.81,18.81,0,0,0,1.26,5.57,9.12,9.12,0,0,0,1.51,2.5,8.91,8.91,0,0,0,2.25,1.82,11.07,11.07,0,0,0,5.47,1.44A13.22,13.22,0,0,0,48.23,63a11.47,11.47,0,0,0,4.47-3.74C55,56,55.46,51.75,54.86,48.08a23.58,23.58,0,0,0-1.37-5.47c-.31-.87-.55-1.76-.89-2.63a7.78,7.78,0,0,0-1.29-2.49C50.76,36.78,50.33,36,49.82,35.17ZM53,42.75a21.67,21.67,0,0,1,.61,5.42,27.29,27.29,0,0,1-.45,5.32,19.34,19.34,0,0,1-.72,2.5,13.19,13.19,0,0,1-1.13,2.33A10.54,10.54,0,0,1,47.71,62a12.35,12.35,0,0,1-2.43,1.09,10.2,10.2,0,0,1-2.64.44,9,9,0,0,1-5.11-1.37A7.3,7.3,0,0,1,34.44,58a20.65,20.65,0,0,1-.7-5.3,46.85,46.85,0,0,1,.2-5.42c.16-1.81.41-3.63.66-5.46.13-.91.22-1.86.33-2.75a10.52,10.52,0,0,1,.59-2.43,7.93,7.93,0,0,1,2.92-3.84,9,9,0,0,1,4.72-1.54,5.54,5.54,0,0,1,2.48.43,6.68,6.68,0,0,1,2.12,1.56,18.32,18.32,0,0,1,1.81,2c.55.75,1,1.56,1.59,2.29C52.28,39.07,52.59,41,53,42.75Z"/><path class="cls-2" d="M92.23,16.56c1.11,1.27,1.62,3.79,2.26,6a25.36,25.36,0,0,1,.83,6.6C95.4,34.87,92.84,40.47,87,42.3a10.51,10.51,0,0,1-8.59-.82c-3.53-2.07-4.2-5.85-4.47-9.6-.32-4.6.43-9.19.9-13.75h0c.47-4.59,3.52-8.23,8.5-8.5,3.76-.2,5.1,1.9,6.5,3.5C90.84,14.26,91.63,15.86,92.23,16.56Z"/><path class="cls-3" d="M90.82,14.17c-.48-.81-1.11-1.51-1.66-2.26a8.28,8.28,0,0,0-2.09-2A6.6,6.6,0,0,0,84.22,9a9.34,9.34,0,0,0-5.83,1.24,9.54,9.54,0,0,0-3.86,4.69,11.67,11.67,0,0,0-.72,3l-.29,2.76c-.17,1.84-.36,3.69-.45,5.57a34.55,34.55,0,0,0,.09,5.66,18.81,18.81,0,0,0,1.26,5.57,9.12,9.12,0,0,0,1.51,2.5,8.91,8.91,0,0,0,2.25,1.82,11.07,11.07,0,0,0,5.47,1.44A13.22,13.22,0,0,0,89.23,42a11.47,11.47,0,0,0,4.47-3.74C96,35,96.46,30.75,95.86,27.08a23.58,23.58,0,0,0-1.37-5.47c-.31-.87-.55-1.76-.89-2.63a7.78,7.78,0,0,0-1.29-2.49C91.76,15.78,91.33,15,90.82,14.17ZM94,21.75a21.67,21.67,0,0,1,.61,5.42,27.29,27.29,0,0,1-.45,5.32,19.34,19.34,0,0,1-.72,2.5,13.19,13.19,0,0,1-1.13,2.33A10.54,10.54,0,0,1,88.71,41a12.35,12.35,0,0,1-2.43,1.09,10.2,10.2,0,0,1-2.64.44,9,9,0,0,1-5.11-1.37A7.3,7.3,0,0,1,75.44,37a20.65,20.65,0,0,1-.7-5.3,46.85,46.85,0,0,1,.2-5.42c.16-1.81.41-3.63.66-5.46.13-.91.22-1.86.33-2.75a10.52,10.52,0,0,1,.59-2.43,7.93,7.93,0,0,1,2.92-3.84,9,9,0,0,1,4.72-1.54,5.54,5.54,0,0,1,2.48.43,6.68,6.68,0,0,1,2.12,1.56,18.32,18.32,0,0,1,1.81,2.05c.55.75,1,1.56,1.59,2.29C93.28,18.07,93.59,20,94,21.75Z"/><path class="cls-2" d="M68.15,36.27"/><path class="cls-2" d="M42.25,27.9A12.32,12.32,0,0,0,44,35.7c3.77,6,12.17,6.49,18.11,3.78,2.82-1.29,4-4.53,4.21-7.34a12.26,12.26,0,0,0-1.54-6.56,12.93,12.93,0,0,0-1-1.61l-1.62-2.1c-.42-.54-.39-.5.1.12s.51.66.09.1S61.24,20.71,60.7,20a10.41,10.41,0,0,0-1.6-1.42A13.83,13.83,0,0,0,56,16.75c-2.18-.94-4.16-1.51-6.55-.85a8.27,8.27,0,0,0-5.08,3.9A31.72,31.72,0,0,0,42.25,27.9Z"/><path class="cls-3" d="M43.51,23c.28-.79.59-1.58.94-2.33a5.42,5.42,0,0,1,1.34-1.87,9.09,9.09,0,0,1,4-2,7.54,7.54,0,0,1,4.38.43,20.27,20.27,0,0,1,2.19.93,14.31,14.31,0,0,1,2,1.24,8.53,8.53,0,0,1,1.72,1.51l1.56,1.93.09.12.05.06h0c.65-.51-1.5,1.09,1.46-1.15l0,0-.18-.23-.4-.49-.1-.12,0-.07,0,0c-.64.5,1.42-1.12-1.44,1.12h0l.2.25.39.48c.52.65,1.1,1.3,1.56,1.94A13.55,13.55,0,0,1,65.48,29a9.4,9.4,0,0,1,.22,4.8,8,8,0,0,1-2.16,4.29,5.46,5.46,0,0,1-2,1.2,15.24,15.24,0,0,1-2.38.65,17.88,17.88,0,0,1-4.83.29,14,14,0,0,1-8.64-3.39l-.44-.41L44.82,36a8.62,8.62,0,0,1-.74-1A11.34,11.34,0,0,1,43,32.81a9.76,9.76,0,0,1-.62-4.9A18.28,18.28,0,0,1,43.51,23Zm-1,9.93a15,15,0,0,0,.84,2.47A8.26,8.26,0,0,0,44,36.59l.35.56.41.53A10.63,10.63,0,0,0,49,40.89a13.55,13.55,0,0,0,5.24,1A18,18,0,0,0,59.41,41a17.33,17.33,0,0,0,2.41-1A6.91,6.91,0,0,0,64,38.54a9.8,9.8,0,0,0,2.36-4.6,14.76,14.76,0,0,0,.41-2.58,11.68,11.68,0,0,0-.22-2.64,14.21,14.21,0,0,0-2-4.9c-.46-.77-1-1.4-1.48-2.1l-.37-.52L62.55,21l0,0c-2.87,2.23-.78.63-1.42,1.13l0,0,0,.06.1.13.37.5.2.27,0,.05c3-2.22.8-.65,1.45-1.17l0-.05,0-.07-.09-.13-1.54-2.07a10.42,10.42,0,0,0-2-1.9,13.83,13.83,0,0,0-2.27-1.48,20.43,20.43,0,0,0-2.46-1,9.21,9.21,0,0,0-5.55-.28,9.1,9.1,0,0,0-4.55,3,6.35,6.35,0,0,0-1.22,2.45c-.23.83-.43,1.66-.61,2.49s-.37,1.65-.52,2.49a15.24,15.24,0,0,0-.32,2.52A13,13,0,0,0,42.48,33Z"/><path class="cls-2" d="M73.79,28.05"/><path class="cls-2" d="M69.08,38.16"/><path class="cls-2" d="M68.8,37.51"/><path class="cls-2" d="M21.29,14.45a11.5,11.5,0,0,0,5.79,4.42,6.41,6.41,0,0,0,3.39.16,6.41,6.41,0,0,0,3.16-1,8.49,8.49,0,0,0,3-11.63,33.55,33.55,0,0,0-2.5-3.55,4.07,4.07,0,0,0-.4-.43l-.19-.16A15.17,15.17,0,0,0,31.72.82,10,10,0,0,0,26.59-.57a8.79,8.79,0,0,0-6,2.49,6.44,6.44,0,0,0-1.76,2.73,6.48,6.48,0,0,0-.73,3.28A10.66,10.66,0,0,0,21.29,14.45Z"/><path class="cls-3" d="M19.77,12.25a9.45,9.45,0,0,1-.89-2.48,6.37,6.37,0,0,1-.08-2.49,6.67,6.67,0,0,1,.85-2.2h0l.05-.13A6.13,6.13,0,0,1,20.8,3.16a9.57,9.57,0,0,1,.79-.75,7.79,7.79,0,0,1,.87-.64A8.38,8.38,0,0,1,26.55.43a9.13,9.13,0,0,1,4.35.92,7.34,7.34,0,0,1,1,.52c.32.21.64.46,1,.7l.48.34.39.36c.28.29.55.58.81.89.52.61,1,1.27,1.5,1.94a6.29,6.29,0,0,1,1.14,2.07,7.85,7.85,0,0,1,0,4.7,7.48,7.48,0,0,1-2.73,3.59,10.71,10.71,0,0,1-1.9,1.17,6,6,0,0,1-2,.53h-.15a6.66,6.66,0,0,1-2.36.21,8.61,8.61,0,0,1-2.46-.65,9.77,9.77,0,0,1-2.27-1.38,9.23,9.23,0,0,1-1.82-2A8.26,8.26,0,0,1,19.77,12.25ZM23,16.63a16.07,16.07,0,0,0,2.11,1.81,8.65,8.65,0,0,0,2.58,1.28,6.42,6.42,0,0,0,3,.15l-.15,0a6.5,6.5,0,0,0,2.73-.64,8.83,8.83,0,0,0,2.19-1.58A8.35,8.35,0,0,0,38,13.07,11.67,11.67,0,0,0,37.76,8a9.45,9.45,0,0,0-1.08-2.32c-.4-.72-.81-1.44-1.28-2.15-.22-.36-.46-.71-.72-1.06l-.45-.55-.46-.44c-.3-.29-.61-.58-1-.86a6.52,6.52,0,0,0-1.14-.77,10.47,10.47,0,0,0-5.16-1.4A9.38,9.38,0,0,0,21.28,0a8.24,8.24,0,0,0-1.09.86,11.44,11.44,0,0,0-1,1,6.89,6.89,0,0,0-1.3,2.52L18,4.22a6.55,6.55,0,0,0-.61,3A7.84,7.84,0,0,0,18.07,10a15.9,15.9,0,0,0,1.37,2.42,12.22,12.22,0,0,0,1.78,2.07A14.92,14.92,0,0,0,23,16.63Z"/><path class="cls-2" d="M64.11-4.67c-4.8.22-11,4.77-11.25,9.53h0c-.15,2.84.83,5.23,1.75,7.83a25.43,25.43,0,0,0,3.69,7.06c2.83,3.75,6.77,5.83,11.56,4.66,3.65-.9,6.69-3.8,8.59-6.91a32.19,32.19,0,0,0,2-4.26c.46-1.07.2-.27-.12.31.21-.4.4-.83.59-1.24,1.36-3,2.32-5.7,1.87-9A10.62,10.62,0,0,0,75-5.38C72.32-6.19,66.86-4.75,64.11-4.67Z"/><path class="cls-3" d="M72.56-5.19a8.46,8.46,0,0,1,2,.27,10.39,10.39,0,0,1,1.82.8,11.25,11.25,0,0,1,3,2.47,9.88,9.88,0,0,1,1.9,3.31,10.54,10.54,0,0,1,.48,3.8,21.29,21.29,0,0,1-2.35,7.62l1.71.94c.1-.18.17-.34.25-.51l.1-.27.06-.16,0-.08a1.26,1.26,0,0,0,0-.25c-.16-.33.33.07-.46-.85-2.18.09-1,.44-1.33.31l0,0,0,.07c-.19.39-.28.65-.42,1l-.72,1.81a15.17,15.17,0,0,1-1.76,3.27,15,15,0,0,1-5.5,5,9.46,9.46,0,0,1-7.34.51A11.56,11.56,0,0,1,58.36,19a27.46,27.46,0,0,1-3.09-7c-.82-2.49-1.69-4.85-1.58-7.26a9.45,9.45,0,0,1,3.5-6.21,11.66,11.66,0,0,1,6.92-3.11C67-4.73,69.77-5.31,72.56-5.19ZM56.73-2a13.67,13.67,0,0,0-3,2.77,7.9,7.9,0,0,0-1.7,3.89,11.65,11.65,0,0,0,.33,4.17,31.21,31.21,0,0,0,1.28,3.79,26.07,26.07,0,0,0,3.87,7,14.82,14.82,0,0,0,6.29,4.86,11.42,11.42,0,0,0,7.94-.17,15.41,15.41,0,0,0,6.41-4.93,16.1,16.1,0,0,0,2.14-3.5L81.11,14c.12-.28.27-.62.37-.82,0,0,0,0,0,0v0c-.33-.14.86.21-1.31.29-.77-.94-.3-.51-.45-.84,0-.18,0-.26,0-.22v0l0,.07-.08.19-.19.36,1.71.94A40.33,40.33,0,0,0,83,10a14.65,14.65,0,0,0,.94-4.44A10.86,10.86,0,0,0,77-5.39,10.33,10.33,0,0,0,74.78-6a9.91,9.91,0,0,0-2.24,0c-2.89.28-5.62,1.1-8.44,1.28A15.1,15.1,0,0,0,56.73-2Z"/><path class="cls-2" d="M78.73,23.18c-1.35-1.58-5.65-3.12-7.67-3.12a8.5,8.5,0,0,0-8.5,8.5,9.53,9.53,0,0,0,2.49,6c2.81,3.27,7.13,5.89,11.52,5.93s8.83-4,8.5-8.5c-.32-4.33-3.73-7.24-6.34-8.82Z"/><path class="cls-3" d="M78.7,23.28h0l0,0,0,0,.11.08.2.16.39.34c.26.22.52.44.77.68a19.21,19.21,0,0,1,1.39,1.47,11.25,11.25,0,0,1,2,3.35,7.79,7.79,0,0,1,.44,3.64,6.62,6.62,0,0,1-1.42,3.24,8.16,8.16,0,0,1-6.3,3.23,15.19,15.19,0,0,1-7.44-2.24,16.62,16.62,0,0,1-3.19-2.49,9.58,9.58,0,0,1-2.22-3.34,7.6,7.6,0,0,1-.35-3.88,7.89,7.89,0,0,1,1.65-3.4,7.77,7.77,0,0,1,2.78-2.4,8.8,8.8,0,0,1,3.6-.95,14.54,14.54,0,0,1,3.83.71,17.16,17.16,0,0,1,1.9.69c.31.14.62.28.91.44s.29.17.43.26a2.85,2.85,0,0,0,.39.22C78.73,23.38,78.67,23.22,78.7,23.28Zm-.22-.59a4.64,4.64,0,0,0-.38-.39,8.81,8.81,0,0,0-.84-.67,13.19,13.19,0,0,0-1.86-1.07,13.78,13.78,0,0,0-2-.8,8.86,8.86,0,0,0-2.19-.47,9.08,9.08,0,0,0-4.42.91,7.74,7.74,0,0,0-3.36,3,8.81,8.81,0,0,0-1.39,4.23,8.36,8.36,0,0,0,.21,2.19,9.75,9.75,0,0,0,.64,2.05,13,13,0,0,0,2.33,3.56,21.23,21.23,0,0,0,3.06,2.93,14.09,14.09,0,0,0,8,3.23,9.54,9.54,0,0,0,8-3.83A8.16,8.16,0,0,0,86,33.26a8.77,8.77,0,0,0-.93-4.46,11.41,11.41,0,0,0-2.71-3.43,11.74,11.74,0,0,0-1.72-1.27c-.29-.19-.6-.37-.91-.54l-.47-.24L79,23.21l-.11-.06-.06,0h0s0-.11,0,.1A2.2,2.2,0,0,0,78.48,22.69Z"/><path class="cls-3" d="M-5.18,43.17c-.48-.81-1.11-1.51-1.66-2.26a8.28,8.28,0,0,0-2.09-2,6.6,6.6,0,0,0-2.85-1,9.34,9.34,0,0,0-5.83,1.24,9.54,9.54,0,0,0-3.86,4.69,11.67,11.67,0,0,0-.72,3l-.29,2.76c-.17,1.84-.36,3.69-.45,5.57a34.55,34.55,0,0,0,.09,5.66,18.81,18.81,0,0,0,1.26,5.57,9.12,9.12,0,0,0,1.51,2.5,8.91,8.91,0,0,0,2.25,1.82,11.07,11.07,0,0,0,5.47,1.44A13.22,13.22,0,0,0-6.77,71,11.47,11.47,0,0,0-2.3,67.23C0,64,.46,59.75-.14,56.08a23.58,23.58,0,0,0-1.37-5.47c-.31-.87-.55-1.76-.89-2.63a7.78,7.78,0,0,0-1.29-2.49C-4.24,44.78-4.67,44-5.18,43.17ZM-2,50.75a21.67,21.67,0,0,1,.61,5.42,27.29,27.29,0,0,1-.45,5.32A19.34,19.34,0,0,1-2.56,64a13.19,13.19,0,0,1-1.13,2.33A10.54,10.54,0,0,1-7.29,70a12.35,12.35,0,0,1-2.43,1.09,10.2,10.2,0,0,1-2.64.44,9,9,0,0,1-5.11-1.37A7.3,7.3,0,0,1-20.56,66a20.65,20.65,0,0,1-.7-5.3,46.85,46.85,0,0,1,.2-5.42c.16-1.81.41-3.63.66-5.46.13-.91.22-1.86.33-2.75a10.52,10.52,0,0,1,.59-2.43,7.93,7.93,0,0,1,2.92-3.84,9,9,0,0,1,4.72-1.54,5.54,5.54,0,0,1,2.48.43,6.68,6.68,0,0,1,2.12,1.56,18.32,18.32,0,0,1,1.81,2c.55.75,1,1.56,1.59,2.29C-2.72,47.07-2.41,49-2,50.75Z"/><path class="cls-2" d="M2.23,16.56c1.11,1.27,1.62,3.79,2.26,6a25.36,25.36,0,0,1,.83,6.6C5.4,34.87,2.84,40.47-3,42.3a10.51,10.51,0,0,1-8.59-.82c-3.53-2.07-4.2-5.85-4.47-9.6-.32-4.6.43-9.19.9-13.75h0c.47-4.59,3.52-8.23,8.5-8.5,3.76-.2,5.1,1.9,6.5,3.5C.84,14.26,1.63,15.86,2.23,16.56Z"/><path class="cls-3" d="M.82,14.17c-.48-.81-1.11-1.51-1.66-2.26a8.28,8.28,0,0,0-2.09-2A6.6,6.6,0,0,0-5.78,9a9.34,9.34,0,0,0-5.83,1.24,9.54,9.54,0,0,0-3.86,4.69,11.67,11.67,0,0,0-.72,3l-.29,2.76c-.17,1.84-.36,3.69-.45,5.57a34.55,34.55,0,0,0,.09,5.66,18.81,18.81,0,0,0,1.26,5.57,9.12,9.12,0,0,0,1.51,2.5,8.91,8.91,0,0,0,2.25,1.82,11.07,11.07,0,0,0,5.47,1.44A13.22,13.22,0,0,0-.77,42,11.47,11.47,0,0,0,3.7,38.23C6,35,6.46,30.75,5.86,27.08a23.58,23.58,0,0,0-1.37-5.47c-.31-.87-.55-1.76-.89-2.63a7.78,7.78,0,0,0-1.29-2.49C1.76,15.78,1.33,15,.82,14.17ZM4,21.75a21.67,21.67,0,0,1,.61,5.42,27.29,27.29,0,0,1-.45,5.32A19.34,19.34,0,0,1,3.44,35a13.19,13.19,0,0,1-1.13,2.33A10.54,10.54,0,0,1-1.29,41a12.35,12.35,0,0,1-2.43,1.09,10.2,10.2,0,0,1-2.64.44,9,9,0,0,1-5.11-1.37A7.3,7.3,0,0,1-14.56,37a20.65,20.65,0,0,1-.7-5.3,46.85,46.85,0,0,1,.2-5.42c.16-1.81.41-3.63.66-5.46.13-.91.22-1.86.33-2.75a10.52,10.52,0,0,1,.59-2.43,7.93,7.93,0,0,1,2.92-3.84,9,9,0,0,1,4.72-1.54,5.54,5.54,0,0,1,2.48.43,6.68,6.68,0,0,1,2.12,1.56A18.32,18.32,0,0,1,.57,14.33c.55.75,1,1.56,1.59,2.29C3.28,18.07,3.59,20,4,21.75Z"/><path class="cls-2" d="M105.73-.44c4.63-1.29,9.64-7.13,8.8-11.83h0c-.5-2.8-2-4.9-3.48-7.22a25.1,25.1,0,0,0-5.19-6.05c-3.61-3-7.91-4.15-12.32-1.92-3.34,1.7-5.65,5.21-6.8,8.67a32.65,32.65,0,0,0-.95,4.6c-.21,1.14-.13.31,0-.33-.13.44-.21.89-.3,1.34-.65,3.19-1,6.08.21,9.18a10.65,10.65,0,0,0,9.5,6.73C98.07,2.9,103.07.26,105.73-.44Z"/><path class="cls-3" d="M97.61,2a9.15,9.15,0,0,1-2,.18,10.4,10.4,0,0,1-2-.37A11.31,11.31,0,0,1,90.14.08a9.86,9.86,0,0,1-2.6-2.79A10.48,10.48,0,0,1,86.22-6.3a21,21,0,0,1,.56-8l-1.88-.53c-.05.2-.09.38-.13.56l0,.28,0,.17v.08s0,.06,0,.26c.23.29-.34,0,.64.72,2.1-.58.86-.65,1.22-.6l0,0,0-.08c.09-.42.13-.7.18-1l.29-1.92a15.77,15.77,0,0,1,1-3.59,14.88,14.88,0,0,1,4.23-6.1,9.49,9.49,0,0,1,7-2.15A11.53,11.53,0,0,1,106-24.78a27.22,27.22,0,0,1,4.58,6.1c1.37,2.24,2.75,4.34,3.18,6.71a9.42,9.42,0,0,1-2,6.84,11.63,11.63,0,0,1-6,4.59C103,.27,100.36,1.47,97.61,2Zm14.71-6.66A13.53,13.53,0,0,0,114.58-8a7.82,7.82,0,0,0,.78-4.17,11.79,11.79,0,0,0-1.26-4A31,31,0,0,0,112-19.6a26,26,0,0,0-5.35-5.94,14.73,14.73,0,0,0-7.23-3.32,11.45,11.45,0,0,0-7.7,2,15.39,15.39,0,0,0-5.12,6.26,16.16,16.16,0,0,0-1.29,3.89l-.36,1.94c-.06.3-.13.67-.18.89,0,0,0,0,0,0v0c.36.07-.89,0,1.21-.57,1,.74.4.42.63.71,0,.18,0,.27,0,.22v-.05l0-.2a3.89,3.89,0,0,1,.1-.4l-1.88-.53A38.14,38.14,0,0,0,84-10.46a15.06,15.06,0,0,0,.08,4.54,11.09,11.09,0,0,0,5,7.54,11,11,0,0,0,4.27,1.55,11.31,11.31,0,0,0,2.26.12,10.36,10.36,0,0,0,2.2-.48c2.75-.92,5.22-2.34,7.93-3.15A15.14,15.14,0,0,0,112.32-4.67Z"/><path class="cls-2" d="M15.73-.44c4.63-1.29,9.64-7.13,8.8-11.83h0c-.5-2.8-2-4.9-3.48-7.22a25.1,25.1,0,0,0-5.19-6.05c-3.61-3-7.91-4.15-12.32-1.92-3.34,1.7-5.65,5.21-6.8,8.67a32.65,32.65,0,0,0-1,4.6c-.21,1.14-.13.31,0-.33-.13.44-.21.89-.3,1.34C-5.11-10-5.43-7.1-4.25-4a10.65,10.65,0,0,0,9.5,6.73C8.07,2.9,13.07.26,15.73-.44Z"/><path class="cls-3" d="M7.61,2a9.15,9.15,0,0,1-2,.18,10.4,10.4,0,0,1-2-.37A11.31,11.31,0,0,1,.14.08a9.86,9.86,0,0,1-2.6-2.79A10.48,10.48,0,0,1-3.78-6.3a21,21,0,0,1,.56-8l-1.88-.53c-.05.2-.09.38-.13.56l0,.28,0,.17v.08s0,.06,0,.26c.23.29-.34,0,.64.72,2.1-.58.86-.65,1.22-.6l0,0,0-.08c.09-.42.13-.7.18-1l.29-1.92a15.77,15.77,0,0,1,1-3.59A14.88,14.88,0,0,1,2.3-26.1a9.49,9.49,0,0,1,7-2.15A11.53,11.53,0,0,1,16-24.78a27.22,27.22,0,0,1,4.58,6.1c1.37,2.24,2.75,4.34,3.18,6.71a9.42,9.42,0,0,1-2,6.84,11.63,11.63,0,0,1-6,4.59C13,.27,10.36,1.47,7.61,2ZM22.32-4.67A13.53,13.53,0,0,0,24.58-8a7.82,7.82,0,0,0,.78-4.17,11.79,11.79,0,0,0-1.26-4A31,31,0,0,0,22-19.6a26,26,0,0,0-5.35-5.94,14.73,14.73,0,0,0-7.23-3.32,11.45,11.45,0,0,0-7.7,2,15.39,15.39,0,0,0-5.12,6.26A16.16,16.16,0,0,0-4.7-16.75l-.36,1.94c-.06.3-.13.67-.18.89,0,0,0,0,0,0v0c.36.07-.89,0,1.21-.57,1,.74.4.42.63.71,0,.18,0,.27,0,.22v-.05l0-.2a3.89,3.89,0,0,1,.1-.4l-1.88-.53A38.14,38.14,0,0,0-6-10.46a15.06,15.06,0,0,0,.08,4.54,11.09,11.09,0,0,0,5,7.54A11,11,0,0,0,3.37,3.17a11.31,11.31,0,0,0,2.26.12,10.36,10.36,0,0,0,2.2-.48c2.75-.92,5.22-2.34,7.93-3.15A15.14,15.14,0,0,0,22.32-4.67Z"/><path class="cls-2" d="M86.23-17.44c1.11,1.27,1.62,3.79,2.26,6a25.36,25.36,0,0,1,.83,6.6C89.4.87,86.84,6.47,81,8.3a10.51,10.51,0,0,1-8.59-.82c-3.53-2.07-4.2-5.85-4.47-9.6-.32-4.6.43-9.19.9-13.75h0c.47-4.59,3.52-8.23,8.5-8.5,3.76-.2,5.1,1.9,6.5,3.5C84.84-19.74,85.63-18.14,86.23-17.44Z"/><path class="cls-3" d="M84.82-19.83c-.48-.81-1.11-1.51-1.66-2.26a8.28,8.28,0,0,0-2.09-2,6.6,6.6,0,0,0-2.85-1,9.34,9.34,0,0,0-5.83,1.24,9.54,9.54,0,0,0-3.86,4.69,11.67,11.67,0,0,0-.72,3l-.29,2.76c-.17,1.84-.36,3.69-.45,5.57a34.55,34.55,0,0,0,.09,5.66,18.81,18.81,0,0,0,1.26,5.57,9.12,9.12,0,0,0,1.51,2.5,8.91,8.91,0,0,0,2.25,1.82,11.07,11.07,0,0,0,5.47,1.44A13.22,13.22,0,0,0,83.23,8,11.47,11.47,0,0,0,87.7,4.23C90,1,90.46-3.25,89.86-6.92a23.58,23.58,0,0,0-1.37-5.47c-.31-.87-.55-1.76-.89-2.63a7.78,7.78,0,0,0-1.29-2.49C85.76-18.22,85.33-19,84.82-19.83ZM88-12.25a21.67,21.67,0,0,1,.61,5.42,27.29,27.29,0,0,1-.45,5.32A19.34,19.34,0,0,1,87.44,1a13.19,13.19,0,0,1-1.13,2.33A10.54,10.54,0,0,1,82.71,7a12.35,12.35,0,0,1-2.43,1.09,10.2,10.2,0,0,1-2.64.44,9,9,0,0,1-5.11-1.37A7.3,7.3,0,0,1,69.44,3a20.65,20.65,0,0,1-.7-5.3,46.85,46.85,0,0,1,.2-5.42c.16-1.81.41-3.63.66-5.46.13-.91.22-1.86.33-2.75a10.52,10.52,0,0,1,.59-2.43,7.93,7.93,0,0,1,2.92-3.84,9,9,0,0,1,4.72-1.54,5.54,5.54,0,0,1,2.48.43,6.68,6.68,0,0,1,2.12,1.56,18.32,18.32,0,0,1,1.81,2c.55.75,1,1.56,1.59,2.29C87.28-15.93,87.59-14,88-12.25Z"/><path class="cls-2" d="M21,7.05a12.3,12.3,0,0,0,7,3.85c7,1.15,12.92-4.85,14.8-11.11.89-3-.79-5.95-2.73-8a12.12,12.12,0,0,0-6-3.17,12.19,12.19,0,0,0-1.89-.3l-2.65-.17h.16c.79.05.84.05.14,0C29-11.91,28.13-12,27.26-12a11,11,0,0,0-2.12.26,13.71,13.71,0,0,0-3.47,1.14c-2.15,1-3.89,2.12-5,4.35a8.34,8.34,0,0,0-.42,6.4A31.81,31.81,0,0,0,21,7.05Z"/><path class="cls-3" d="M18.17,2.89A24.62,24.62,0,0,1,17.05.65a5.15,5.15,0,0,1-.53-2.24A9,9,0,0,1,17.65-6a7.6,7.6,0,0,1,3.21-3A21.2,21.2,0,0,1,23-10a14,14,0,0,1,2.23-.67,8.18,8.18,0,0,1,2.28-.3l2.48.1h.24c.05-.83-.18,1.84.1-1.86h0l-.29,0-.64,0h-.27c-.06.81.09-1.81-.12,1.81h0l.32,0,.62,0c.83,0,1.7,0,2.49.11a13.62,13.62,0,0,1,4.65,1.14,9.43,9.43,0,0,1,3.75,3,8,8,0,0,1,1.8,4.45A5.56,5.56,0,0,1,42.25.11a15.06,15.06,0,0,1-1.08,2.21,17.44,17.44,0,0,1-3,3.82,14,14,0,0,1-8.25,4.26l-.59,0h-.6a8.19,8.19,0,0,1-1.21-.07,11.1,11.1,0,0,1-2.38-.61A9.83,9.83,0,0,1,21.06,7,18.44,18.44,0,0,1,18.17,2.89ZM25,10.23a14.94,14.94,0,0,0,2.4,1,9.41,9.41,0,0,0,1.3.29l.65.11.67,0a10.48,10.48,0,0,0,5.24-1.1,13.43,13.43,0,0,0,4.2-3.27,18.11,18.11,0,0,0,2.76-4.46A17,17,0,0,0,43,.37a6.68,6.68,0,0,0,.31-2.63,9.86,9.86,0,0,0-1.89-4.82,15.67,15.67,0,0,0-1.67-2,11,11,0,0,0-2.13-1.57,14,14,0,0,0-5-1.77c-.89-.16-1.7-.18-2.56-.28l-.63-.06-.32,0h0c-.22,3.63,0,1-.09,1.81h.12l.16,0,.62,0,.34,0h.07c.3-3.71,0-1,.08-1.86h-.31L27.58-13a10.5,10.5,0,0,0-2.74.23,13,13,0,0,0-2.62.74,19.7,19.7,0,0,0-2.41,1.15,9.11,9.11,0,0,0-3.87,4,9,9,0,0,0-.73,5.41,6.44,6.44,0,0,0,1,2.53c.47.73,1,1.42,1.47,2.1s1,1.37,1.53,2a13.92,13.92,0,0,0,1.68,1.91A13.24,13.24,0,0,0,25,10.23Z"/><path class="cls-2" d="M57.75-9.58c-2.29-.55-7.91.72-10.19,2a12.87,12.87,0,0,0-5.64,5.87c-.92,2.33-1.17,4.88,0,6.81a8.55,8.55,0,0,0,5.68,3.77A23.34,23.34,0,0,0,63.51,7c5.07-2.69,8.16-8.88,5.62-12.68C66.71-9.3,61.46-9.78,57.75-9.57Z"/><path class="cls-3" d="M57.78-9.47h.28l.3,0,.6,0c.4,0,.79.07,1.19.12a22.06,22.06,0,0,1,2.32.42,11.4,11.4,0,0,1,4.15,1.79,6.36,6.36,0,0,1,1.5,1.52,4.37,4.37,0,0,1,.8,1.82,6.27,6.27,0,0,1,0,2,8.68,8.68,0,0,1-.63,2A12.17,12.17,0,0,1,65.85,4a12.93,12.93,0,0,1-3.61,2.61,25.1,25.1,0,0,1-9,2.33,21.41,21.41,0,0,1-4.73-.22A10.22,10.22,0,0,1,44.21,7a5.86,5.86,0,0,1-2.37-3.7A8.3,8.3,0,0,1,42.53-1,10.87,10.87,0,0,1,45-4.64a13.57,13.57,0,0,1,3.63-2.64,28.79,28.79,0,0,1,4.42-1.53c.76-.19,1.53-.39,2.31-.52a11.66,11.66,0,0,1,1.17-.14l.59,0a5.05,5.05,0,0,0,.52-.05C57.86-9.4,57.72-9.51,57.78-9.47Zm-.61-.37a4.09,4.09,0,0,0-.61-.1c-.41,0-.82-.06-1.24-.06a16.93,16.93,0,0,0-2.46.15A21.11,21.11,0,0,0,48-8.71,13.22,13.22,0,0,0,43.78-5.9,10,10,0,0,0,41-1.57a9.34,9.34,0,0,0-.21,5.14A6.07,6.07,0,0,0,42,5.85a8.12,8.12,0,0,0,1.86,1.7,13.16,13.16,0,0,0,4.58,1.8,27.42,27.42,0,0,0,4.87.65A21.31,21.31,0,0,0,63,8.28a13.67,13.67,0,0,0,7.25-7.1,8.48,8.48,0,0,0,.53-5.35,6.41,6.41,0,0,0-1.28-2.47,8,8,0,0,0-2-1.73,11.82,11.82,0,0,0-4.85-1.48,15.69,15.69,0,0,0-2.47-.07L59-9.83l-.6.07-.3,0-.15,0h-.14s-.11-.07.09.08A2.62,2.62,0,0,0,57.17-9.84Z"/><path class="cls-2" d="M51.23-25.44c1.11,1.27,1.62,3.79,2.26,6a25.36,25.36,0,0,1,.83,6.6C54.4-7.13,51.84-1.53,46,.3a10.51,10.51,0,0,1-8.59-.82c-3.53-2.07-4.2-5.85-4.47-9.6-.32-4.6.43-9.19.9-13.75h0c.47-4.59,3.52-8.23,8.5-8.5,3.76-.2,5.1,1.9,6.5,3.5C49.84-27.74,50.63-26.14,51.23-25.44Z"/><path class="cls-3" d="M49.82-27.83c-.48-.81-1.11-1.51-1.66-2.26a8.28,8.28,0,0,0-2.09-2,6.6,6.6,0,0,0-2.85-1,9.34,9.34,0,0,0-5.83,1.24,9.54,9.54,0,0,0-3.86,4.69,11.67,11.67,0,0,0-.72,3l-.29,2.76c-.17,1.84-.36,3.69-.45,5.57a34.55,34.55,0,0,0,.09,5.66,18.81,18.81,0,0,0,1.26,5.57,9.12,9.12,0,0,0,1.51,2.5A8.91,8.91,0,0,0,37.18-.27a11.07,11.07,0,0,0,5.47,1.44A13.22,13.22,0,0,0,48.23,0,11.47,11.47,0,0,0,52.7-3.77C55-7,55.46-11.25,54.86-14.92a23.58,23.58,0,0,0-1.37-5.47c-.31-.87-.55-1.76-.89-2.63a7.78,7.78,0,0,0-1.29-2.49C50.76-26.22,50.33-27,49.82-27.83ZM53-20.25a21.67,21.67,0,0,1,.61,5.42,27.29,27.29,0,0,1-.45,5.32A19.34,19.34,0,0,1,52.44-7a13.19,13.19,0,0,1-1.13,2.33A10.54,10.54,0,0,1,47.71-1,12.35,12.35,0,0,1,45.28.08a10.2,10.2,0,0,1-2.64.44A9,9,0,0,1,37.53-.85,7.3,7.3,0,0,1,34.44-5a20.65,20.65,0,0,1-.7-5.3,46.85,46.85,0,0,1,.2-5.42c.16-1.81.41-3.63.66-5.46.13-.91.22-1.86.33-2.75a10.52,10.52,0,0,1,.59-2.43,7.93,7.93,0,0,1,2.92-3.84,9,9,0,0,1,4.72-1.54,5.54,5.54,0,0,1,2.48.43,6.68,6.68,0,0,1,2.12,1.56,18.32,18.32,0,0,1,1.81,2c.55.75,1,1.56,1.59,2.29C52.28-23.93,52.59-22,53-20.25Z"/><path class="cls-3" d="M-5.18-19.83c-.48-.81-1.11-1.51-1.66-2.26a8.28,8.28,0,0,0-2.09-2,6.6,6.6,0,0,0-2.85-1,9.34,9.34,0,0,0-5.83,1.24,9.54,9.54,0,0,0-3.86,4.69,11.67,11.67,0,0,0-.72,3l-.29,2.76c-.17,1.84-.36,3.69-.45,5.57a34.55,34.55,0,0,0,.09,5.66,18.81,18.81,0,0,0,1.26,5.57,9.12,9.12,0,0,0,1.51,2.5,8.91,8.91,0,0,0,2.25,1.82,11.07,11.07,0,0,0,5.47,1.44A13.22,13.22,0,0,0-6.77,8,11.47,11.47,0,0,0-2.3,4.23C0,1,.46-3.25-.14-6.92a23.58,23.58,0,0,0-1.37-5.47c-.31-.87-.55-1.76-.89-2.63a7.78,7.78,0,0,0-1.29-2.49C-4.24-18.22-4.67-19-5.18-19.83ZM-2-12.25a21.67,21.67,0,0,1,.61,5.42,27.29,27.29,0,0,1-.45,5.32A19.34,19.34,0,0,1-2.56,1,13.19,13.19,0,0,1-3.69,3.32,10.54,10.54,0,0,1-7.29,7,12.35,12.35,0,0,1-9.72,8.08a10.2,10.2,0,0,1-2.64.44,9,9,0,0,1-5.11-1.37A7.3,7.3,0,0,1-20.56,3a20.65,20.65,0,0,1-.7-5.3,46.85,46.85,0,0,1,.2-5.42c.16-1.81.41-3.63.66-5.46.13-.91.22-1.86.33-2.75a10.52,10.52,0,0,1,.59-2.43,7.93,7.93,0,0,1,2.92-3.84,9,9,0,0,1,4.72-1.54,5.54,5.54,0,0,1,2.48.43,6.68,6.68,0,0,1,2.12,1.56,18.32,18.32,0,0,1,1.81,2c.55.75,1,1.56,1.59,2.29C-2.72-15.93-2.41-14-2-12.25Z"/></pattern><pattern id="New_Pattern_Swatch_8" data-name="New Pattern Swatch 8" width="144" height="153" patternTransform="translate(378.75 242.64) scale(1.55)" patternUnits="userSpaceOnUse" viewBox="0 0 144 153"><rect class="cls-1" width="144" height="153"/><rect class="cls-4" x="125.97" y="152.5" width="36" height="153"/><path class="cls-5" d="M141.72,150.12c.26,26.4-.12,52.09-.21,78.5s.6,51.14.21,77.5"/><path class="cls-5" d="M143.1,152.12c.61,22.93-.31,73.57.24,110.46.21,14.63-.24,36.54-.24,43.54"/><path class="cls-5" d="M135.83,149.87l-.1,82.42,0,13.47,0,17.8c0,14.28.31,28.29.15,42.56"/><path class="cls-5" d="M131.55,152.12c-.25,26.4-.35,52.56-.26,79s-.13,50.67.26,77"/><path class="cls-5" d="M128.94,152.12c0,8-.63,21.23-.82,32-.29,16.43.35,32.58.69,49s-.06,32.68,0,49.09c0,9.77.15,18.91.15,24.91"/><path class="cls-5" d="M132.59,152.87l.1,82.42,0,13.47,0,17.8c0,14.28-.31,28.29-.15,42.56"/><rect class="cls-4" x="89.97" y="152.5" width="36" height="153"/><path class="cls-5" d="M105.72,150.12c.26,26.4-.12,52.09-.21,78.5s.6,51.14.21,77.5"/><path class="cls-5" d="M107.1,152.12c.61,22.93-.31,73.57.24,110.46.21,14.63-.24,36.54-.24,43.54"/><path class="cls-5" d="M108.82,151.12c0,8-.35,21.23-.16,32,.29,16.43.83,32.58.49,49S109,264.8,109,281.21c0,9.77-.15,18.91-.15,24.91"/><path class="cls-5" d="M99.83,149.87l-.1,82.42,0,13.47,0,17.8c0,14.28.31,28.29.15,42.56"/><path class="cls-5" d="M113.55,150.12c-.25,26.4-.35,52.56-.26,79s-.13,50.67.26,77"/><path class="cls-5" d="M112.18,152.12c-.62,23,.31,73.66-.24,110.46-.22,14.63.24,36.54.24,43.54"/><path class="cls-5" d="M110.94,151.12c0,8-.63,21.23-.82,32-.29,16.43.35,32.58.69,49s-.06,32.68,0,49.09c0,9.77.15,18.91.15,24.91"/><path class="cls-5" d="M114.59,150.87l.1,82.42,0,13.47,0,17.8c0,14.28-.31,28.29-.15,42.56"/><path class="cls-5" d="M117.83,152.87l-.1,82.42,0,13.47,0,17.8c0,14.28.31,28.29.15,42.56"/><path class="cls-5" d="M95.55,152.12c-.25,26.4-.35,52.56-.26,79s-.13,50.67.26,77"/><path class="cls-5" d="M92.94,152.12c0,8-.63,21.23-.82,32-.29,16.43.35,32.58.69,49s-.06,32.68,0,49.09c0,9.77.15,18.91.15,24.91"/><path class="cls-5" d="M96.59,152.87l.1,82.42,0,13.47,0,17.8c0,14.28-.31,28.29-.15,42.56"/><rect class="cls-4" x="53.97" y="152.5" width="36" height="153"/><path class="cls-5" d="M69.72,150.12c.26,26.4-.12,52.09-.21,78.5s.6,51.14.21,77.5"/><path class="cls-5" d="M71.1,152.12c.61,22.93-.31,73.57.24,110.46.21,14.63-.24,36.54-.24,43.54"/><path class="cls-5" d="M72.82,151.12c0,8-.35,21.23-.16,32,.29,16.43.83,32.58.49,49S73,264.8,73,281.21c0,9.77-.15,18.91-.15,24.91"/><path class="cls-5" d="M63.83,149.87l-.1,82.42,0,13.47,0,17.8c0,14.28.31,28.29.15,42.56"/><path class="cls-5" d="M77.55,150.12c-.25,26.4-.35,52.56-.26,79s-.13,50.67.26,77"/><path class="cls-5" d="M76.18,152.12c-.62,23,.31,73.66-.24,110.46-.22,14.63.24,36.54.24,43.54"/><path class="cls-5" d="M74.94,151.12c0,8-.63,21.23-.82,32-.29,16.43.35,32.58.69,49s-.06,32.68,0,49.09c0,9.77.15,18.91.15,24.91"/><path class="cls-5" d="M78.59,150.87l.1,82.42,0,13.47,0,17.8c0,14.28-.31,28.29-.15,42.56"/><path class="cls-5" d="M81.83,152.87l-.1,82.42,0,13.47,0,17.8c0,14.28.31,28.29.15,42.56"/><path class="cls-5" d="M59.55,152.12c-.25,26.4-.35,52.56-.26,79s-.13,50.67.26,77"/><path class="cls-5" d="M56.94,152.12c0,8-.63,21.23-.82,32-.29,16.43.35,32.58.69,49s-.06,32.68,0,49.09c0,9.77.15,18.91.15,24.91"/><path class="cls-5" d="M60.59,152.87l.1,82.42,0,13.47,0,17.8c0,14.28-.31,28.29-.15,42.56"/><rect class="cls-4" x="17.97" y="152.5" width="36" height="153"/><path class="cls-5" d="M33.72,150.12c.26,26.4-.12,52.09-.21,78.5s.6,51.14.21,77.5"/><path class="cls-5" d="M35.1,152.12c.61,22.93-.31,73.57.24,110.46.21,14.63-.24,36.54-.24,43.54"/><path class="cls-5" d="M36.82,151.12c0,8-.35,21.23-.16,32,.29,16.43.83,32.58.49,49S37,264.8,37,281.21c0,9.77-.15,18.91-.15,24.91"/><path class="cls-5" d="M27.83,149.87l-.1,82.42,0,13.47,0,17.8c0,14.28.31,28.29.15,42.56"/><path class="cls-5" d="M41.55,150.12c-.25,26.4-.35,52.56-.26,79s-.13,50.67.26,77"/><path class="cls-5" d="M40.18,152.12c-.62,23,.31,73.66-.24,110.46-.22,14.63.24,36.54.24,43.54"/><path class="cls-5" d="M38.94,151.12c0,8-.63,21.23-.82,32-.29,16.43.35,32.58.69,49s-.06,32.68,0,49.09c0,9.77.15,18.91.15,24.91"/><path class="cls-5" d="M42.59,150.87l.1,82.42,0,13.47,0,17.8c0,14.28-.31,28.29-.15,42.56"/><path class="cls-5" d="M45.83,152.87l-.1,82.42,0,13.47,0,17.8c0,14.28.31,28.29.15,42.56"/><path class="cls-5" d="M23.55,152.12c-.25,26.4-.35,52.56-.26,79s-.13,50.67.26,77"/><path class="cls-5" d="M20.94,152.12c0,8-.63,21.23-.82,32-.29,16.43.35,32.58.69,49s-.06,32.68,0,49.09c0,9.77.15,18.91.15,24.91"/><path class="cls-5" d="M24.59,152.87l.1,82.42,0,13.47,0,17.8c0,14.28-.31,28.29-.15,42.56"/><rect class="cls-4" x="-18.03" y="152.5" width="36" height="153"/><path class="cls-5" d="M.82,151.12c0,8-.35,21.23-.16,32,.29,16.43.83,32.58.49,49S1,264.8,1,281.21C1,291,.82,300.12.82,306.12"/><path class="cls-5" d="M5.55,150.12c-.25,26.4-.35,52.56-.26,79s-.13,50.67.26,77"/><path class="cls-5" d="M4.18,152.12c-.62,23,.31,73.66-.24,110.46-.22,14.63.24,36.54.24,43.54"/><path class="cls-5" d="M2.94,151.12c0,8-.63,21.23-.82,32-.29,16.43.35,32.58.69,49s-.06,32.68,0,49.09c0,9.77.15,18.91.15,24.91"/><path class="cls-5" d="M6.59,150.87l.1,82.42,0,13.47,0,17.8c0,14.28-.31,28.29-.15,42.56"/><path class="cls-5" d="M9.83,152.87l-.1,82.42,0,13.47,0,17.8c0,14.28.31,28.29.15,42.56"/><rect class="cls-4" x="125.97" y="-0.5" width="36" height="153"/><path class="cls-5" d="M137.08.12c.61,54.1.93,121,0,153"/><path class="cls-5" d="M140.35.12c.59,28.22-.32,52.87-.46,81.16-.13,26.41-.29,45.63.46,71.84"/><path class="cls-5" d="M141.72-2.88c.26,26.4-.12,52.09-.21,78.5s.6,51.14.21,77.5"/><path class="cls-5" d="M143.1-.88c.61,22.93-.31,73.57.24,110.46.21,14.63-.24,36.54-.24,43.54"/><path class="cls-5" d="M135.83-3.13l-.1,82.42,0,13.47,0,17.8c0,14.28.31,28.29.15,42.56"/><path class="cls-5" d="M139.15.12c-.62,54.1-.93,121,0,153"/><path class="cls-5" d="M126.82.12c0,8-.35,21.23-.16,32,.29,16.43.83,32.58.49,49S127,113.8,127,130.21c0,9.77-.15,18.91-.15,24.91"/><path class="cls-5" d="M133.9,1.12c-.59,28.22-.17,52.87,0,81.16.13,26.39.78,45.55,0,71.84"/><path class="cls-5" d="M131.55-.88c-.25,26.4-.35,52.56-.26,79s-.13,50.67.26,77"/><path class="cls-5" d="M130.18.12c-.62,23,.31,73.66-.24,110.46-.22,14.63.24,36.54.24,43.54"/><path class="cls-5" d="M128.94-.88c0,8-.63,21.23-.82,32-.29,16.43.35,32.58.69,49s-.06,32.68,0,49.09c0,9.77.15,18.91.15,24.91"/><path class="cls-5" d="M132.59-.13l.1,82.42,0,13.47,0,17.8c0,14.28-.31,28.29-.15,42.56"/><rect class="cls-4" x="89.97" y="-0.5" width="36" height="153"/><path class="cls-5" d="M101.08.12c.61,54.1.93,121,0,153"/><path class="cls-5" d="M104.35.12c.59,28.22-.32,52.87-.46,81.16-.13,26.41-.29,45.63.46,71.84"/><path class="cls-5" d="M105.72-2.88c.26,26.4-.12,52.09-.21,78.5s.6,51.14.21,77.5"/><path class="cls-5" d="M107.1-.88c.61,22.93-.31,73.57.24,110.46.21,14.63-.24,36.54-.24,43.54"/><path class="cls-5" d="M108.82-1.88c0,8-.35,21.23-.16,32,.29,16.43.83,32.58.49,49S109,111.8,109,128.21c0,9.77-.15,18.91-.15,24.91"/><path class="cls-5" d="M99.83-3.13l-.1,82.42,0,13.47,0,17.8c0,14.28.31,28.29.15,42.56"/><path class="cls-5" d="M103.15.12c-.62,54.1-.93,121,0,153"/><path class="cls-5" d="M115.9.12c-.59,28.22-.17,52.87,0,81.16.13,26.39.78,45.55,0,71.84"/><path class="cls-5" d="M113.55-2.88c-.25,26.4-.35,52.56-.26,79s-.13,50.67.26,77"/><path class="cls-5" d="M112.18-.88c-.62,23,.31,73.66-.24,110.46-.22,14.63.24,36.54.24,43.54"/><path class="cls-5" d="M110.94-1.88c0,8-.63,21.23-.82,32-.29,16.43.35,32.58.69,49s-.06,32.68,0,49.09c0,9.77.15,18.91.15,24.91"/><path class="cls-5" d="M114.59-2.13l.1,82.42,0,13.47,0,17.8c0,14.28-.31,28.29-.15,42.56"/><path class="cls-5" d="M119.08,2.12c.61,54.1.93,121,0,153"/><path class="cls-5" d="M122.35,2.12c.59,28.22-.32,52.87-.46,81.16-.13,26.41-.29,45.63.46,71.84"/><path class="cls-5" d="M123.72.12c.26,26.4-.12,52.09-.21,78.5s.6,51.14.21,77.5"/><path class="cls-5" d="M125.1,1.12c.61,22.93-.31,73.57.24,110.46.21,14.63-.24,36.54-.24,43.54"/><path class="cls-5" d="M90.82.12c0,8-.35,21.23-.16,32,.29,16.43.83,32.58.49,49S91,113.8,91,130.21c0,9.77-.15,18.91-.15,24.91"/><path class="cls-5" d="M117.83-.13l-.1,82.42,0,13.47,0,17.8c0,14.28.31,28.29.15,42.56"/><path class="cls-5" d="M121.15,1.12c-.62,54.1-.93,121,0,153"/><path class="cls-5" d="M97.9,1.12c-.59,28.22-.17,52.87,0,81.16.13,26.39.78,45.55,0,71.84"/><path class="cls-5" d="M95.55-.88c-.25,26.4-.35,52.56-.26,79s-.13,50.67.26,77"/><path class="cls-5" d="M94.18.12c-.62,23,.31,73.66-.24,110.46-.22,14.63.24,36.54.24,43.54"/><path class="cls-5" d="M92.94-.88c0,8-.63,21.23-.82,32-.29,16.43.35,32.58.69,49s-.06,32.68,0,49.09c0,9.77.15,18.91.15,24.91"/><path class="cls-5" d="M96.59-.13l.1,82.42,0,13.47,0,17.8c0,14.28-.31,28.29-.15,42.56"/><rect class="cls-4" x="53.97" y="-0.5" width="36" height="153"/><path class="cls-5" d="M65.08.12c.61,54.1.93,121,0,153"/><path class="cls-5" d="M68.35.12C68.94,28.34,68,53,67.89,81.28c-.13,26.41-.29,45.63.46,71.84"/><path class="cls-5" d="M69.72-2.88c.26,26.4-.12,52.09-.21,78.5s.6,51.14.21,77.5"/><path class="cls-5" d="M71.1-.88c.61,22.93-.31,73.57.24,110.46.21,14.63-.24,36.54-.24,43.54"/><path class="cls-5" d="M72.82-1.88c0,8-.35,21.23-.16,32,.29,16.43.83,32.58.49,49S73,111.8,73,128.21c0,9.77-.15,18.91-.15,24.91"/><path class="cls-5" d="M63.83-3.13l-.1,82.42,0,13.47,0,17.8c0,14.28.31,28.29.15,42.56"/><path class="cls-5" d="M67.15.12c-.62,54.1-.93,121,0,153"/><path class="cls-5" d="M79.9.12c-.59,28.22-.17,52.87,0,81.16.13,26.39.78,45.55,0,71.84"/><path class="cls-5" d="M77.55-2.88c-.25,26.4-.35,52.56-.26,79s-.13,50.67.26,77"/><path class="cls-5" d="M76.18-.88c-.62,23,.31,73.66-.24,110.46-.22,14.63.24,36.54.24,43.54"/><path class="cls-5" d="M74.94-1.88c0,8-.63,21.23-.82,32-.29,16.43.35,32.58.69,49s-.06,32.68,0,49.09c0,9.77.15,18.91.15,24.91"/><path class="cls-5" d="M78.59-2.13l.1,82.42,0,13.47,0,17.8c0,14.28-.31,28.29-.15,42.56"/><path class="cls-5" d="M83.08,2.12c.61,54.1.93,121,0,153"/><path class="cls-5" d="M86.35,2.12C86.94,30.34,86,55,85.89,83.28c-.13,26.41-.29,45.63.46,71.84"/><path class="cls-5" d="M87.72.12c.26,26.4-.12,52.09-.21,78.5s.6,51.14.21,77.5"/><path class="cls-5" d="M89.1,1.12c.61,22.93-.31,73.57.24,110.46.21,14.63-.24,36.54-.24,43.54"/><path class="cls-5" d="M54.82.12c0,8-.35,21.23-.16,32,.29,16.43.83,32.58.49,49S55,113.8,55,130.21c0,9.77-.15,18.91-.15,24.91"/><path class="cls-5" d="M81.83-.13l-.1,82.42,0,13.47,0,17.8c0,14.28.31,28.29.15,42.56"/><path class="cls-5" d="M85.15,1.12c-.62,54.1-.93,121,0,153"/><path class="cls-5" d="M61.9,1.12c-.59,28.22-.17,52.87,0,81.16.13,26.39.78,45.55,0,71.84"/><path class="cls-5" d="M59.55-.88c-.25,26.4-.35,52.56-.26,79s-.13,50.67.26,77"/><path class="cls-5" d="M58.18.12c-.62,23,.31,73.66-.24,110.46-.22,14.63.24,36.54.24,43.54"/><path class="cls-5" d="M56.94-.88c0,8-.63,21.23-.82,32-.29,16.43.35,32.58.69,49s-.06,32.68,0,49.09c0,9.77.15,18.91.15,24.91"/><path class="cls-5" d="M60.59-.13l.1,82.42,0,13.47,0,17.8c0,14.28-.31,28.29-.15,42.56"/><rect class="cls-4" x="17.97" y="-0.5" width="36" height="153"/><path class="cls-5" d="M29.08.12c.61,54.1.93,121,0,153"/><path class="cls-5" d="M32.35.12C32.94,28.34,32,53,31.89,81.28c-.13,26.41-.29,45.63.46,71.84"/><path class="cls-5" d="M33.72-2.88c.26,26.4-.12,52.09-.21,78.5s.6,51.14.21,77.5"/><path class="cls-5" d="M35.1-.88c.61,22.93-.31,73.57.24,110.46.21,14.63-.24,36.54-.24,43.54"/><path class="cls-5" d="M36.82-1.88c0,8-.35,21.23-.16,32,.29,16.43.83,32.58.49,49S37,111.8,37,128.21c0,9.77-.15,18.91-.15,24.91"/><path class="cls-5" d="M27.83-3.13l-.1,82.42,0,13.47,0,17.8c0,14.28.31,28.29.15,42.56"/><path class="cls-5" d="M31.15.12c-.62,54.1-.93,121,0,153"/><path class="cls-5" d="M43.9.12c-.59,28.22-.17,52.87,0,81.16.13,26.39.78,45.55,0,71.84"/><path class="cls-5" d="M41.55-2.88c-.25,26.4-.35,52.56-.26,79s-.13,50.67.26,77"/><path class="cls-5" d="M40.18-.88c-.62,23,.31,73.66-.24,110.46-.22,14.63.24,36.54.24,43.54"/><path class="cls-5" d="M38.94-1.88c0,8-.63,21.23-.82,32-.29,16.43.35,32.58.69,49s-.06,32.68,0,49.09c0,9.77.15,18.91.15,24.91"/><path class="cls-5" d="M42.59-2.13l.1,82.42,0,13.47,0,17.8c0,14.28-.31,28.29-.15,42.56"/><path class="cls-5" d="M47.08,2.12c.61,54.1.93,121,0,153"/><path class="cls-5" d="M50.35,2.12C50.94,30.34,50,55,49.89,83.28c-.13,26.41-.29,45.63.46,71.84"/><path class="cls-5" d="M51.72.12c.26,26.4-.12,52.09-.21,78.5s.6,51.14.21,77.5"/><path class="cls-5" d="M53.1,1.12c.61,22.93-.31,73.57.24,110.46.21,14.63-.24,36.54-.24,43.54"/><path class="cls-5" d="M18.82.12c0,8-.35,21.23-.16,32,.29,16.43.83,32.58.49,49S19,113.8,19,130.21c0,9.77-.15,18.91-.15,24.91"/><path class="cls-5" d="M45.83-.13l-.1,82.42,0,13.47,0,17.8c0,14.28.31,28.29.15,42.56"/><path class="cls-5" d="M49.15,1.12c-.62,54.1-.93,121,0,153"/><path class="cls-5" d="M25.9,1.12c-.59,28.22-.17,52.87,0,81.16.13,26.39.78,45.55,0,71.84"/><path class="cls-5" d="M23.55-.88c-.25,26.4-.35,52.56-.26,79s-.13,50.67.26,77"/><path class="cls-5" d="M22.18.12c-.62,23,.31,73.66-.24,110.46-.22,14.63.24,36.54.24,43.54"/><path class="cls-5" d="M20.94-.88c0,8-.63,21.23-.82,32-.29,16.43.35,32.58.69,49s-.06,32.68,0,49.09c0,9.77.15,18.91.15,24.91"/><path class="cls-5" d="M24.59-.13l.1,82.42,0,13.47,0,17.8c0,14.28-.31,28.29-.15,42.56"/><rect class="cls-4" x="-18.03" y="-0.5" width="36" height="153"/><path class="cls-5" d="M.82-1.88c0,8-.35,21.23-.16,32,.29,16.43.83,32.58.49,49S1,111.8,1,128.21C1,138,.82,147.12.82,153.12"/><path class="cls-5" d="M7.9.12c-.59,28.22-.17,52.87,0,81.16.13,26.39.78,45.55,0,71.84"/><path class="cls-5" d="M5.55-2.88c-.25,26.4-.35,52.56-.26,79s-.13,50.67.26,77"/><path class="cls-5" d="M4.18-.88c-.62,23,.31,73.66-.24,110.46-.22,14.63.24,36.54.24,43.54"/><path class="cls-5" d="M2.94-1.88c0,8-.63,21.23-.82,32-.29,16.43.35,32.58.69,49s-.06,32.68,0,49.09c0,9.77.15,18.91.15,24.91"/><path class="cls-5" d="M6.59-2.13l.1,82.42,0,13.47,0,17.8c0,14.28-.31,28.29-.15,42.56"/><path class="cls-5" d="M11.08,2.12c.61,54.1.93,121,0,153"/><path class="cls-5" d="M14.35,2.12C14.94,30.34,14,55,13.89,83.28c-.13,26.41-.29,45.63.46,71.84"/><path class="cls-5" d="M15.72.12c.26,26.4-.12,52.09-.21,78.5s.6,51.14.21,77.5"/><path class="cls-5" d="M17.1,1.12c.61,22.93-.31,73.57.24,110.46.21,14.63-.24,36.54-.24,43.54"/><path class="cls-5" d="M9.83-.13l-.1,82.42,0,13.47,0,17.8c0,14.28.31,28.29.15,42.56"/><path class="cls-5" d="M13.15,1.12c-.62,54.1-.93,121,0,153"/><path class="cls-5" d="M137.08-152.88c.61,54.1.93,121,0,153"/><path class="cls-5" d="M140.35-152.88c.59,28.22-.32,52.87-.46,81.16-.13,26.41-.29,45.63.46,71.84"/><path class="cls-5" d="M141.72-155.88c.26,26.4-.12,52.09-.21,78.5s.6,51.14.21,77.5"/><path class="cls-5" d="M143.1-153.88c.61,22.93-.31,73.57.24,110.46.21,14.63-.24,36.54-.24,43.54"/><path class="cls-5" d="M135.83-156.13l-.1,82.42,0,13.47,0,17.8c0,14.28.31,28.29.15,42.56"/><path class="cls-5" d="M139.15-152.88c-.62,54.1-.93,121,0,153"/><path class="cls-5" d="M126.82-152.88c0,8-.35,21.23-.16,32,.29,16.43.83,32.58.49,49S127-39.2,127-22.79c0,9.77-.15,18.91-.15,24.91"/><path class="cls-5" d="M133.9-151.88c-.59,28.22-.17,52.87,0,81.16.13,26.39.78,45.55,0,71.84"/><path class="cls-5" d="M131.55-153.88c-.25,26.4-.35,52.56-.26,79s-.13,50.67.26,77"/><path class="cls-5" d="M130.18-152.88c-.62,23,.31,73.66-.24,110.46-.22,14.63.24,36.54.24,43.54"/><path class="cls-5" d="M128.94-153.88c0,8-.63,21.23-.82,32-.29,16.43.35,32.58.69,49s-.06,32.68,0,49.09c0,9.77.15,18.91.15,24.91"/><path class="cls-5" d="M132.59-153.13l.1,82.42,0,13.47,0,17.8c0,14.28-.31,28.29-.15,42.56"/><path class="cls-5" d="M101.08-152.88c.61,54.1.93,121,0,153"/><path class="cls-5" d="M104.35-152.88c.59,28.22-.32,52.87-.46,81.16-.13,26.41-.29,45.63.46,71.84"/><path class="cls-5" d="M105.72-155.88c.26,26.4-.12,52.09-.21,78.5s.6,51.14.21,77.5"/><path class="cls-5" d="M107.1-153.88c.61,22.93-.31,73.57.24,110.46.21,14.63-.24,36.54-.24,43.54"/><path class="cls-5" d="M108.82-154.88c0,8-.35,21.23-.16,32,.29,16.43.83,32.58.49,49S109-41.2,109-24.79c0,9.77-.15,18.91-.15,24.91"/><path class="cls-5" d="M99.83-156.13l-.1,82.42,0,13.47,0,17.8c0,14.28.31,28.29.15,42.56"/><path class="cls-5" d="M103.15-152.88c-.62,54.1-.93,121,0,153"/><path class="cls-5" d="M115.9-152.88c-.59,28.22-.17,52.87,0,81.16.13,26.39.78,45.55,0,71.84"/><path class="cls-5" d="M113.55-155.88c-.25,26.4-.35,52.56-.26,79s-.13,50.67.26,77"/><path class="cls-5" d="M112.18-153.88c-.62,23,.31,73.66-.24,110.46-.22,14.63.24,36.54.24,43.54"/><path class="cls-5" d="M110.94-154.88c0,8-.63,21.23-.82,32-.29,16.43.35,32.58.69,49s-.06,32.68,0,49.09c0,9.77.15,18.91.15,24.91"/><path class="cls-5" d="M114.59-155.13l.1,82.42,0,13.47,0,17.8c0,14.28-.31,28.29-.15,42.56"/><path class="cls-5" d="M119.08-150.88c.61,54.1.93,121,0,153"/><path class="cls-5" d="M122.35-150.88c.59,28.22-.32,52.87-.46,81.16-.13,26.41-.29,45.63.46,71.84"/><path class="cls-5" d="M123.72-152.88c.26,26.4-.12,52.09-.21,78.5s.6,51.14.21,77.5"/><path class="cls-5" d="M125.1-151.88c.61,22.93-.31,73.57.24,110.46.21,14.63-.24,36.54-.24,43.54"/><path class="cls-5" d="M90.82-152.88c0,8-.35,21.23-.16,32,.29,16.43.83,32.58.49,49S91-39.2,91-22.79c0,9.77-.15,18.91-.15,24.91"/><path class="cls-5" d="M117.83-153.13l-.1,82.42,0,13.47,0,17.8c0,14.28.31,28.29.15,42.56"/><path class="cls-5" d="M121.15-151.88c-.62,54.1-.93,121,0,153"/><path class="cls-5" d="M97.9-151.88c-.59,28.22-.17,52.87,0,81.16.13,26.39.78,45.55,0,71.84"/><path class="cls-5" d="M95.55-153.88c-.25,26.4-.35,52.56-.26,79s-.13,50.67.26,77"/><path class="cls-5" d="M94.18-152.88c-.62,23,.31,73.66-.24,110.46-.22,14.63.24,36.54.24,43.54"/><path class="cls-5" d="M92.94-153.88c0,8-.63,21.23-.82,32-.29,16.43.35,32.58.69,49s-.06,32.68,0,49.09c0,9.77.15,18.91.15,24.91"/><path class="cls-5" d="M96.59-153.13l.1,82.42,0,13.47,0,17.8c0,14.28-.31,28.29-.15,42.56"/><path class="cls-5" d="M65.08-152.88c.61,54.1.93,121,0,153"/><path class="cls-5" d="M68.35-152.88c.59,28.22-.32,52.87-.46,81.16-.13,26.41-.29,45.63.46,71.84"/><path class="cls-5" d="M69.72-155.88c.26,26.4-.12,52.09-.21,78.5s.6,51.14.21,77.5"/><path class="cls-5" d="M71.1-153.88c.61,22.93-.31,73.57.24,110.46C71.55-28.79,71.1-6.88,71.1.12"/><path class="cls-5" d="M72.82-154.88c0,8-.35,21.23-.16,32,.29,16.43.83,32.58.49,49S73-41.2,73-24.79C73-15,72.82-5.88,72.82.12"/><path class="cls-5" d="M63.83-156.13l-.1,82.42,0,13.47,0,17.8c0,14.28.31,28.29.15,42.56"/><path class="cls-5" d="M67.15-152.88c-.62,54.1-.93,121,0,153"/><path class="cls-5" d="M79.9-152.88c-.59,28.22-.17,52.87,0,81.16.13,26.39.78,45.55,0,71.84"/><path class="cls-5" d="M77.55-155.88c-.25,26.4-.35,52.56-.26,79s-.13,50.67.26,77"/><path class="cls-5" d="M76.18-153.88c-.62,23,.31,73.66-.24,110.46-.22,14.63.24,36.54.24,43.54"/><path class="cls-5" d="M74.94-154.88c0,8-.63,21.23-.82,32-.29,16.43.35,32.58.69,49s-.06,32.68,0,49.09c0,9.77.15,18.91.15,24.91"/><path class="cls-5" d="M78.59-155.13l.1,82.42,0,13.47,0,17.8c0,14.28-.31,28.29-.15,42.56"/><path class="cls-5" d="M83.08-150.88c.61,54.1.93,121,0,153"/><path class="cls-5" d="M86.35-150.88c.59,28.22-.32,52.87-.46,81.16-.13,26.41-.29,45.63.46,71.84"/><path class="cls-5" d="M87.72-152.88c.26,26.4-.12,52.09-.21,78.5s.6,51.14.21,77.5"/><path class="cls-5" d="M89.1-151.88c.61,22.93-.31,73.57.24,110.46.21,14.63-.24,36.54-.24,43.54"/><path class="cls-5" d="M54.82-152.88c0,8-.35,21.23-.16,32,.29,16.43.83,32.58.49,49S55-39.2,55-22.79c0,9.77-.15,18.91-.15,24.91"/><path class="cls-5" d="M81.83-153.13l-.1,82.42,0,13.47,0,17.8c0,14.28.31,28.29.15,42.56"/><path class="cls-5" d="M85.15-151.88c-.62,54.1-.93,121,0,153"/><path class="cls-5" d="M61.9-151.88c-.59,28.22-.17,52.87,0,81.16.13,26.39.78,45.55,0,71.84"/><path class="cls-5" d="M59.55-153.88c-.25,26.4-.35,52.56-.26,79s-.13,50.67.26,77"/><path class="cls-5" d="M58.18-152.88c-.62,23,.31,73.66-.24,110.46-.22,14.63.24,36.54.24,43.54"/><path class="cls-5" d="M56.94-153.88c0,8-.63,21.23-.82,32-.29,16.43.35,32.58.69,49s-.06,32.68,0,49.09c0,9.77.15,18.91.15,24.91"/><path class="cls-5" d="M60.59-153.13l.1,82.42,0,13.47,0,17.8c0,14.28-.31,28.29-.15,42.56"/><path class="cls-5" d="M29.08-152.88c.61,54.1.93,121,0,153"/><path class="cls-5" d="M32.35-152.88c.59,28.22-.32,52.87-.46,81.16-.13,26.41-.29,45.63.46,71.84"/><path class="cls-5" d="M33.72-155.88c.26,26.4-.12,52.09-.21,78.5s.6,51.14.21,77.5"/><path class="cls-5" d="M35.1-153.88c.61,22.93-.31,73.57.24,110.46C35.55-28.79,35.1-6.88,35.1.12"/><path class="cls-5" d="M36.82-154.88c0,8-.35,21.23-.16,32,.29,16.43.83,32.58.49,49S37-41.2,37-24.79C37-15,36.82-5.88,36.82.12"/><path class="cls-5" d="M27.83-156.13l-.1,82.42,0,13.47,0,17.8c0,14.28.31,28.29.15,42.56"/><path class="cls-5" d="M31.15-152.88c-.62,54.1-.93,121,0,153"/><path class="cls-5" d="M43.9-152.88c-.59,28.22-.17,52.87,0,81.16.13,26.39.78,45.55,0,71.84"/><path class="cls-5" d="M41.55-155.88c-.25,26.4-.35,52.56-.26,79s-.13,50.67.26,77"/><path class="cls-5" d="M40.18-153.88c-.62,23,.31,73.66-.24,110.46-.22,14.63.24,36.54.24,43.54"/><path class="cls-5" d="M38.94-154.88c0,8-.63,21.23-.82,32-.29,16.43.35,32.58.69,49s-.06,32.68,0,49.09c0,9.77.15,18.91.15,24.91"/><path class="cls-5" d="M42.59-155.13l.1,82.42,0,13.47,0,17.8c0,14.28-.31,28.29-.15,42.56"/><path class="cls-5" d="M47.08-150.88c.61,54.1.93,121,0,153"/><path class="cls-5" d="M50.35-150.88c.59,28.22-.32,52.87-.46,81.16-.13,26.41-.29,45.63.46,71.84"/><path class="cls-5" d="M51.72-152.88c.26,26.4-.12,52.09-.21,78.5s.6,51.14.21,77.5"/><path class="cls-5" d="M53.1-151.88c.61,22.93-.31,73.57.24,110.46.21,14.63-.24,36.54-.24,43.54"/><path class="cls-5" d="M18.82-152.88c0,8-.35,21.23-.16,32,.29,16.43.83,32.58.49,49S19-39.2,19-22.79c0,9.77-.15,18.91-.15,24.91"/><path class="cls-5" d="M45.83-153.13l-.1,82.42,0,13.47,0,17.8c0,14.28.31,28.29.15,42.56"/><path class="cls-5" d="M49.15-151.88c-.62,54.1-.93,121,0,153"/><path class="cls-5" d="M25.9-151.88c-.59,28.22-.17,52.87,0,81.16.13,26.39.78,45.55,0,71.84"/><path class="cls-5" d="M23.55-153.88c-.25,26.4-.35,52.56-.26,79s-.13,50.67.26,77"/><path class="cls-5" d="M22.18-152.88c-.62,23,.31,73.66-.24,110.46-.22,14.63.24,36.54.24,43.54"/><path class="cls-5" d="M20.94-153.88c0,8-.63,21.23-.82,32-.29,16.43.35,32.58.69,49s-.06,32.68,0,49.09c0,9.77.15,18.91.15,24.91"/><path class="cls-5" d="M24.59-153.13l.1,82.42,0,13.47,0,17.8c0,14.28-.31,28.29-.15,42.56"/><path class="cls-5" d="M.82-154.88c0,8-.35,21.23-.16,32,.29,16.43.83,32.58.49,49S1-41.2,1-24.79C1-15,.82-5.88.82.12"/><path class="cls-5" d="M7.9-152.88c-.59,28.22-.17,52.87,0,81.16C8-45.33,8.65-26.17,7.9.12"/><path class="cls-5" d="M5.55-155.88c-.25,26.4-.35,52.56-.26,79s-.13,50.67.26,77"/><path class="cls-5" d="M4.18-153.88c-.62,23,.31,73.66-.24,110.46C3.72-28.79,4.18-6.88,4.18.12"/><path class="cls-5" d="M2.94-154.88c0,8-.63,21.23-.82,32-.29,16.43.35,32.58.69,49s-.06,32.68,0,49.09c0,9.77.15,18.91.15,24.91"/><path class="cls-5" d="M6.59-155.13l.1,82.42,0,13.47,0,17.8c0,14.28-.31,28.29-.15,42.56"/><path class="cls-5" d="M11.08-150.88c.61,54.1.93,121,0,153"/><path class="cls-5" d="M14.35-150.88c.59,28.22-.32,52.87-.46,81.16-.13,26.41-.29,45.63.46,71.84"/><path class="cls-5" d="M15.72-152.88c.26,26.4-.12,52.09-.21,78.5s.6,51.14.21,77.5"/><path class="cls-5" d="M17.1-151.88c.61,22.93-.31,73.57.24,110.46.21,14.63-.24,36.54-.24,43.54"/><path class="cls-5" d="M9.83-153.13l-.1,82.42,0,13.47,0,17.8c0,14.28.31,28.29.15,42.56"/><path class="cls-5" d="M13.15-151.88c-.62,54.1-.93,121,0,153"/></pattern><pattern id="New_Pattern_Swatch_8-3" data-name="New Pattern Swatch 8" width="144" height="153" patternTransform="matrix(0, 1.55, 1.55, 0, 74.32, 602.94)" patternUnits="userSpaceOnUse" viewBox="0 0 144 153"><rect class="cls-1" width="144" height="153"/><rect class="cls-4" x="125.97" y="152.5" width="36" height="153"/><path class="cls-5" d="M141.72,150.12c.26,26.4-.12,52.09-.21,78.5s.6,51.14.21,77.5"/><path class="cls-5" d="M143.1,152.12c.61,22.93-.31,73.57.24,110.46.21,14.63-.24,36.54-.24,43.54"/><path class="cls-5" d="M135.83,149.87l-.1,82.42,0,13.47,0,17.8c0,14.28.31,28.29.15,42.56"/><path class="cls-5" d="M131.55,152.12c-.25,26.4-.35,52.56-.26,79s-.13,50.67.26,77"/><path class="cls-5" d="M128.94,152.12c0,8-.63,21.23-.82,32-.29,16.43.35,32.58.69,49s-.06,32.68,0,49.09c0,9.77.15,18.91.15,24.91"/><path class="cls-5" d="M132.59,152.87l.1,82.42,0,13.47,0,17.8c0,14.28-.31,28.29-.15,42.56"/><rect class="cls-4" x="89.97" y="152.5" width="36" height="153"/><path class="cls-5" d="M105.72,150.12c.26,26.4-.12,52.09-.21,78.5s.6,51.14.21,77.5"/><path class="cls-5" d="M107.1,152.12c.61,22.93-.31,73.57.24,110.46.21,14.63-.24,36.54-.24,43.54"/><path class="cls-5" d="M108.82,151.12c0,8-.35,21.23-.16,32,.29,16.43.83,32.58.49,49S109,264.8,109,281.21c0,9.77-.15,18.91-.15,24.91"/><path class="cls-5" d="M99.83,149.87l-.1,82.42,0,13.47,0,17.8c0,14.28.31,28.29.15,42.56"/><path class="cls-5" d="M113.55,150.12c-.25,26.4-.35,52.56-.26,79s-.13,50.67.26,77"/><path class="cls-5" d="M112.18,152.12c-.62,23,.31,73.66-.24,110.46-.22,14.63.24,36.54.24,43.54"/><path class="cls-5" d="M110.94,151.12c0,8-.63,21.23-.82,32-.29,16.43.35,32.58.69,49s-.06,32.68,0,49.09c0,9.77.15,18.91.15,24.91"/><path class="cls-5" d="M114.59,150.87l.1,82.42,0,13.47,0,17.8c0,14.28-.31,28.29-.15,42.56"/><path class="cls-5" d="M117.83,152.87l-.1,82.42,0,13.47,0,17.8c0,14.28.31,28.29.15,42.56"/><path class="cls-5" d="M95.55,152.12c-.25,26.4-.35,52.56-.26,79s-.13,50.67.26,77"/><path class="cls-5" d="M92.94,152.12c0,8-.63,21.23-.82,32-.29,16.43.35,32.58.69,49s-.06,32.68,0,49.09c0,9.77.15,18.91.15,24.91"/><path class="cls-5" d="M96.59,152.87l.1,82.42,0,13.47,0,17.8c0,14.28-.31,28.29-.15,42.56"/><rect class="cls-4" x="53.97" y="152.5" width="36" height="153"/><path class="cls-5" d="M69.72,150.12c.26,26.4-.12,52.09-.21,78.5s.6,51.14.21,77.5"/><path class="cls-5" d="M71.1,152.12c.61,22.93-.31,73.57.24,110.46.21,14.63-.24,36.54-.24,43.54"/><path class="cls-5" d="M72.82,151.12c0,8-.35,21.23-.16,32,.29,16.43.83,32.58.49,49S73,264.8,73,281.21c0,9.77-.15,18.91-.15,24.91"/><path class="cls-5" d="M63.83,149.87l-.1,82.42,0,13.47,0,17.8c0,14.28.31,28.29.15,42.56"/><path class="cls-5" d="M77.55,150.12c-.25,26.4-.35,52.56-.26,79s-.13,50.67.26,77"/><path class="cls-5" d="M76.18,152.12c-.62,23,.31,73.66-.24,110.46-.22,14.63.24,36.54.24,43.54"/><path class="cls-5" d="M74.94,151.12c0,8-.63,21.23-.82,32-.29,16.43.35,32.58.69,49s-.06,32.68,0,49.09c0,9.77.15,18.91.15,24.91"/><path class="cls-5" d="M78.59,150.87l.1,82.42,0,13.47,0,17.8c0,14.28-.31,28.29-.15,42.56"/><path class="cls-5" d="M81.83,152.87l-.1,82.42,0,13.47,0,17.8c0,14.28.31,28.29.15,42.56"/><path class="cls-5" d="M59.55,152.12c-.25,26.4-.35,52.56-.26,79s-.13,50.67.26,77"/><path class="cls-5" d="M56.94,152.12c0,8-.63,21.23-.82,32-.29,16.43.35,32.58.69,49s-.06,32.68,0,49.09c0,9.77.15,18.91.15,24.91"/><path class="cls-5" d="M60.59,152.87l.1,82.42,0,13.47,0,17.8c0,14.28-.31,28.29-.15,42.56"/><rect class="cls-4" x="17.97" y="152.5" width="36" height="153"/><path class="cls-5" d="M33.72,150.12c.26,26.4-.12,52.09-.21,78.5s.6,51.14.21,77.5"/><path class="cls-5" d="M35.1,152.12c.61,22.93-.31,73.57.24,110.46.21,14.63-.24,36.54-.24,43.54"/><path class="cls-5" d="M36.82,151.12c0,8-.35,21.23-.16,32,.29,16.43.83,32.58.49,49S37,264.8,37,281.21c0,9.77-.15,18.91-.15,24.91"/><path class="cls-5" d="M27.83,149.87l-.1,82.42,0,13.47,0,17.8c0,14.28.31,28.29.15,42.56"/><path class="cls-5" d="M41.55,150.12c-.25,26.4-.35,52.56-.26,79s-.13,50.67.26,77"/><path class="cls-5" d="M40.18,152.12c-.62,23,.31,73.66-.24,110.46-.22,14.63.24,36.54.24,43.54"/><path class="cls-5" d="M38.94,151.12c0,8-.63,21.23-.82,32-.29,16.43.35,32.58.69,49s-.06,32.68,0,49.09c0,9.77.15,18.91.15,24.91"/><path class="cls-5" d="M42.59,150.87l.1,82.42,0,13.47,0,17.8c0,14.28-.31,28.29-.15,42.56"/><path class="cls-5" d="M45.83,152.87l-.1,82.42,0,13.47,0,17.8c0,14.28.31,28.29.15,42.56"/><path class="cls-5" d="M23.55,152.12c-.25,26.4-.35,52.56-.26,79s-.13,50.67.26,77"/><path class="cls-5" d="M20.94,152.12c0,8-.63,21.23-.82,32-.29,16.43.35,32.58.69,49s-.06,32.68,0,49.09c0,9.77.15,18.91.15,24.91"/><path class="cls-5" d="M24.59,152.87l.1,82.42,0,13.47,0,17.8c0,14.28-.31,28.29-.15,42.56"/><rect class="cls-4" x="-18.03" y="152.5" width="36" height="153"/><path class="cls-5" d="M.82,151.12c0,8-.35,21.23-.16,32,.29,16.43.83,32.58.49,49S1,264.8,1,281.21C1,291,.82,300.12.82,306.12"/><path class="cls-5" d="M5.55,150.12c-.25,26.4-.35,52.56-.26,79s-.13,50.67.26,77"/><path class="cls-5" d="M4.18,152.12c-.62,23,.31,73.66-.24,110.46-.22,14.63.24,36.54.24,43.54"/><path class="cls-5" d="M2.94,151.12c0,8-.63,21.23-.82,32-.29,16.43.35,32.58.69,49s-.06,32.68,0,49.09c0,9.77.15,18.91.15,24.91"/><path class="cls-5" d="M6.59,150.87l.1,82.42,0,13.47,0,17.8c0,14.28-.31,28.29-.15,42.56"/><path class="cls-5" d="M9.83,152.87l-.1,82.42,0,13.47,0,17.8c0,14.28.31,28.29.15,42.56"/><rect class="cls-4" x="125.97" y="-0.5" width="36" height="153"/><path class="cls-5" d="M137.08.12c.61,54.1.93,121,0,153"/><path class="cls-5" d="M140.35.12c.59,28.22-.32,52.87-.46,81.16-.13,26.41-.29,45.63.46,71.84"/><path class="cls-5" d="M141.72-2.88c.26,26.4-.12,52.09-.21,78.5s.6,51.14.21,77.5"/><path class="cls-5" d="M143.1-.88c.61,22.93-.31,73.57.24,110.46.21,14.63-.24,36.54-.24,43.54"/><path class="cls-5" d="M135.83-3.13l-.1,82.42,0,13.47,0,17.8c0,14.28.31,28.29.15,42.56"/><path class="cls-5" d="M139.15.12c-.62,54.1-.93,121,0,153"/><path class="cls-5" d="M126.82.12c0,8-.35,21.23-.16,32,.29,16.43.83,32.58.49,49S127,113.8,127,130.21c0,9.77-.15,18.91-.15,24.91"/><path class="cls-5" d="M133.9,1.12c-.59,28.22-.17,52.87,0,81.16.13,26.39.78,45.55,0,71.84"/><path class="cls-5" d="M131.55-.88c-.25,26.4-.35,52.56-.26,79s-.13,50.67.26,77"/><path class="cls-5" d="M130.18.12c-.62,23,.31,73.66-.24,110.46-.22,14.63.24,36.54.24,43.54"/><path class="cls-5" d="M128.94-.88c0,8-.63,21.23-.82,32-.29,16.43.35,32.58.69,49s-.06,32.68,0,49.09c0,9.77.15,18.91.15,24.91"/><path class="cls-5" d="M132.59-.13l.1,82.42,0,13.47,0,17.8c0,14.28-.31,28.29-.15,42.56"/><rect class="cls-4" x="89.97" y="-0.5" width="36" height="153"/><path class="cls-5" d="M101.08.12c.61,54.1.93,121,0,153"/><path class="cls-5" d="M104.35.12c.59,28.22-.32,52.87-.46,81.16-.13,26.41-.29,45.63.46,71.84"/><path class="cls-5" d="M105.72-2.88c.26,26.4-.12,52.09-.21,78.5s.6,51.14.21,77.5"/><path class="cls-5" d="M107.1-.88c.61,22.93-.31,73.57.24,110.46.21,14.63-.24,36.54-.24,43.54"/><path class="cls-5" d="M108.82-1.88c0,8-.35,21.23-.16,32,.29,16.43.83,32.58.49,49S109,111.8,109,128.21c0,9.77-.15,18.91-.15,24.91"/><path class="cls-5" d="M99.83-3.13l-.1,82.42,0,13.47,0,17.8c0,14.28.31,28.29.15,42.56"/><path class="cls-5" d="M103.15.12c-.62,54.1-.93,121,0,153"/><path class="cls-5" d="M115.9.12c-.59,28.22-.17,52.87,0,81.16.13,26.39.78,45.55,0,71.84"/><path class="cls-5" d="M113.55-2.88c-.25,26.4-.35,52.56-.26,79s-.13,50.67.26,77"/><path class="cls-5" d="M112.18-.88c-.62,23,.31,73.66-.24,110.46-.22,14.63.24,36.54.24,43.54"/><path class="cls-5" d="M110.94-1.88c0,8-.63,21.23-.82,32-.29,16.43.35,32.58.69,49s-.06,32.68,0,49.09c0,9.77.15,18.91.15,24.91"/><path class="cls-5" d="M114.59-2.13l.1,82.42,0,13.47,0,17.8c0,14.28-.31,28.29-.15,42.56"/><path class="cls-5" d="M119.08,2.12c.61,54.1.93,121,0,153"/><path class="cls-5" d="M122.35,2.12c.59,28.22-.32,52.87-.46,81.16-.13,26.41-.29,45.63.46,71.84"/><path class="cls-5" d="M123.72.12c.26,26.4-.12,52.09-.21,78.5s.6,51.14.21,77.5"/><path class="cls-5" d="M125.1,1.12c.61,22.93-.31,73.57.24,110.46.21,14.63-.24,36.54-.24,43.54"/><path class="cls-5" d="M90.82.12c0,8-.35,21.23-.16,32,.29,16.43.83,32.58.49,49S91,113.8,91,130.21c0,9.77-.15,18.91-.15,24.91"/><path class="cls-5" d="M117.83-.13l-.1,82.42,0,13.47,0,17.8c0,14.28.31,28.29.15,42.56"/><path class="cls-5" d="M121.15,1.12c-.62,54.1-.93,121,0,153"/><path class="cls-5" d="M97.9,1.12c-.59,28.22-.17,52.87,0,81.16.13,26.39.78,45.55,0,71.84"/><path class="cls-5" d="M95.55-.88c-.25,26.4-.35,52.56-.26,79s-.13,50.67.26,77"/><path class="cls-5" d="M94.18.12c-.62,23,.31,73.66-.24,110.46-.22,14.63.24,36.54.24,43.54"/><path class="cls-5" d="M92.94-.88c0,8-.63,21.23-.82,32-.29,16.43.35,32.58.69,49s-.06,32.68,0,49.09c0,9.77.15,18.91.15,24.91"/><path class="cls-5" d="M96.59-.13l.1,82.42,0,13.47,0,17.8c0,14.28-.31,28.29-.15,42.56"/><rect class="cls-4" x="53.97" y="-0.5" width="36" height="153"/><path class="cls-5" d="M65.08.12c.61,54.1.93,121,0,153"/><path class="cls-5" d="M68.35.12C68.94,28.34,68,53,67.89,81.28c-.13,26.41-.29,45.63.46,71.84"/><path class="cls-5" d="M69.72-2.88c.26,26.4-.12,52.09-.21,78.5s.6,51.14.21,77.5"/><path class="cls-5" d="M71.1-.88c.61,22.93-.31,73.57.24,110.46.21,14.63-.24,36.54-.24,43.54"/><path class="cls-5" d="M72.82-1.88c0,8-.35,21.23-.16,32,.29,16.43.83,32.58.49,49S73,111.8,73,128.21c0,9.77-.15,18.91-.15,24.91"/><path class="cls-5" d="M63.83-3.13l-.1,82.42,0,13.47,0,17.8c0,14.28.31,28.29.15,42.56"/><path class="cls-5" d="M67.15.12c-.62,54.1-.93,121,0,153"/><path class="cls-5" d="M79.9.12c-.59,28.22-.17,52.87,0,81.16.13,26.39.78,45.55,0,71.84"/><path class="cls-5" d="M77.55-2.88c-.25,26.4-.35,52.56-.26,79s-.13,50.67.26,77"/><path class="cls-5" d="M76.18-.88c-.62,23,.31,73.66-.24,110.46-.22,14.63.24,36.54.24,43.54"/><path class="cls-5" d="M74.94-1.88c0,8-.63,21.23-.82,32-.29,16.43.35,32.58.69,49s-.06,32.68,0,49.09c0,9.77.15,18.91.15,24.91"/><path class="cls-5" d="M78.59-2.13l.1,82.42,0,13.47,0,17.8c0,14.28-.31,28.29-.15,42.56"/><path class="cls-5" d="M83.08,2.12c.61,54.1.93,121,0,153"/><path class="cls-5" d="M86.35,2.12C86.94,30.34,86,55,85.89,83.28c-.13,26.41-.29,45.63.46,71.84"/><path class="cls-5" d="M87.72.12c.26,26.4-.12,52.09-.21,78.5s.6,51.14.21,77.5"/><path class="cls-5" d="M89.1,1.12c.61,22.93-.31,73.57.24,110.46.21,14.63-.24,36.54-.24,43.54"/><path class="cls-5" d="M54.82.12c0,8-.35,21.23-.16,32,.29,16.43.83,32.58.49,49S55,113.8,55,130.21c0,9.77-.15,18.91-.15,24.91"/><path class="cls-5" d="M81.83-.13l-.1,82.42,0,13.47,0,17.8c0,14.28.31,28.29.15,42.56"/><path class="cls-5" d="M85.15,1.12c-.62,54.1-.93,121,0,153"/><path class="cls-5" d="M61.9,1.12c-.59,28.22-.17,52.87,0,81.16.13,26.39.78,45.55,0,71.84"/><path class="cls-5" d="M59.55-.88c-.25,26.4-.35,52.56-.26,79s-.13,50.67.26,77"/><path class="cls-5" d="M58.18.12c-.62,23,.31,73.66-.24,110.46-.22,14.63.24,36.54.24,43.54"/><path class="cls-5" d="M56.94-.88c0,8-.63,21.23-.82,32-.29,16.43.35,32.58.69,49s-.06,32.68,0,49.09c0,9.77.15,18.91.15,24.91"/><path class="cls-5" d="M60.59-.13l.1,82.42,0,13.47,0,17.8c0,14.28-.31,28.29-.15,42.56"/><rect class="cls-4" x="17.97" y="-0.5" width="36" height="153"/><path class="cls-5" d="M29.08.12c.61,54.1.93,121,0,153"/><path class="cls-5" d="M32.35.12C32.94,28.34,32,53,31.89,81.28c-.13,26.41-.29,45.63.46,71.84"/><path class="cls-5" d="M33.72-2.88c.26,26.4-.12,52.09-.21,78.5s.6,51.14.21,77.5"/><path class="cls-5" d="M35.1-.88c.61,22.93-.31,73.57.24,110.46.21,14.63-.24,36.54-.24,43.54"/><path class="cls-5" d="M36.82-1.88c0,8-.35,21.23-.16,32,.29,16.43.83,32.58.49,49S37,111.8,37,128.21c0,9.77-.15,18.91-.15,24.91"/><path class="cls-5" d="M27.83-3.13l-.1,82.42,0,13.47,0,17.8c0,14.28.31,28.29.15,42.56"/><path class="cls-5" d="M31.15.12c-.62,54.1-.93,121,0,153"/><path class="cls-5" d="M43.9.12c-.59,28.22-.17,52.87,0,81.16.13,26.39.78,45.55,0,71.84"/><path class="cls-5" d="M41.55-2.88c-.25,26.4-.35,52.56-.26,79s-.13,50.67.26,77"/><path class="cls-5" d="M40.18-.88c-.62,23,.31,73.66-.24,110.46-.22,14.63.24,36.54.24,43.54"/><path class="cls-5" d="M38.94-1.88c0,8-.63,21.23-.82,32-.29,16.43.35,32.58.69,49s-.06,32.68,0,49.09c0,9.77.15,18.91.15,24.91"/><path class="cls-5" d="M42.59-2.13l.1,82.42,0,13.47,0,17.8c0,14.28-.31,28.29-.15,42.56"/><path class="cls-5" d="M47.08,2.12c.61,54.1.93,121,0,153"/><path class="cls-5" d="M50.35,2.12C50.94,30.34,50,55,49.89,83.28c-.13,26.41-.29,45.63.46,71.84"/><path class="cls-5" d="M51.72.12c.26,26.4-.12,52.09-.21,78.5s.6,51.14.21,77.5"/><path class="cls-5" d="M53.1,1.12c.61,22.93-.31,73.57.24,110.46.21,14.63-.24,36.54-.24,43.54"/><path class="cls-5" d="M18.82.12c0,8-.35,21.23-.16,32,.29,16.43.83,32.58.49,49S19,113.8,19,130.21c0,9.77-.15,18.91-.15,24.91"/><path class="cls-5" d="M45.83-.13l-.1,82.42,0,13.47,0,17.8c0,14.28.31,28.29.15,42.56"/><path class="cls-5" d="M49.15,1.12c-.62,54.1-.93,121,0,153"/><path class="cls-5" d="M25.9,1.12c-.59,28.22-.17,52.87,0,81.16.13,26.39.78,45.55,0,71.84"/><path class="cls-5" d="M23.55-.88c-.25,26.4-.35,52.56-.26,79s-.13,50.67.26,77"/><path class="cls-5" d="M22.18.12c-.62,23,.31,73.66-.24,110.46-.22,14.63.24,36.54.24,43.54"/><path class="cls-5" d="M20.94-.88c0,8-.63,21.23-.82,32-.29,16.43.35,32.58.69,49s-.06,32.68,0,49.09c0,9.77.15,18.91.15,24.91"/><path class="cls-5" d="M24.59-.13l.1,82.42,0,13.47,0,17.8c0,14.28-.31,28.29-.15,42.56"/><rect class="cls-4" x="-18.03" y="-0.5" width="36" height="153"/><path class="cls-5" d="M.82-1.88c0,8-.35,21.23-.16,32,.29,16.43.83,32.58.49,49S1,111.8,1,128.21C1,138,.82,147.12.82,153.12"/><path class="cls-5" d="M7.9.12c-.59,28.22-.17,52.87,0,81.16.13,26.39.78,45.55,0,71.84"/><path class="cls-5" d="M5.55-2.88c-.25,26.4-.35,52.56-.26,79s-.13,50.67.26,77"/><path class="cls-5" d="M4.18-.88c-.62,23,.31,73.66-.24,110.46-.22,14.63.24,36.54.24,43.54"/><path class="cls-5" d="M2.94-1.88c0,8-.63,21.23-.82,32-.29,16.43.35,32.58.69,49s-.06,32.68,0,49.09c0,9.77.15,18.91.15,24.91"/><path class="cls-5" d="M6.59-2.13l.1,82.42,0,13.47,0,17.8c0,14.28-.31,28.29-.15,42.56"/><path class="cls-5" d="M11.08,2.12c.61,54.1.93,121,0,153"/><path class="cls-5" d="M14.35,2.12C14.94,30.34,14,55,13.89,83.28c-.13,26.41-.29,45.63.46,71.84"/><path class="cls-5" d="M15.72.12c.26,26.4-.12,52.09-.21,78.5s.6,51.14.21,77.5"/><path class="cls-5" d="M17.1,1.12c.61,22.93-.31,73.57.24,110.46.21,14.63-.24,36.54-.24,43.54"/><path class="cls-5" d="M9.83-.13l-.1,82.42,0,13.47,0,17.8c0,14.28.31,28.29.15,42.56"/><path class="cls-5" d="M13.15,1.12c-.62,54.1-.93,121,0,153"/><path class="cls-5" d="M137.08-152.88c.61,54.1.93,121,0,153"/><path class="cls-5" d="M140.35-152.88c.59,28.22-.32,52.87-.46,81.16-.13,26.41-.29,45.63.46,71.84"/><path class="cls-5" d="M141.72-155.88c.26,26.4-.12,52.09-.21,78.5s.6,51.14.21,77.5"/><path class="cls-5" d="M143.1-153.88c.61,22.93-.31,73.57.24,110.46.21,14.63-.24,36.54-.24,43.54"/><path class="cls-5" d="M135.83-156.13l-.1,82.42,0,13.47,0,17.8c0,14.28.31,28.29.15,42.56"/><path class="cls-5" d="M139.15-152.88c-.62,54.1-.93,121,0,153"/><path class="cls-5" d="M126.82-152.88c0,8-.35,21.23-.16,32,.29,16.43.83,32.58.49,49S127-39.2,127-22.79c0,9.77-.15,18.91-.15,24.91"/><path class="cls-5" d="M133.9-151.88c-.59,28.22-.17,52.87,0,81.16.13,26.39.78,45.55,0,71.84"/><path class="cls-5" d="M131.55-153.88c-.25,26.4-.35,52.56-.26,79s-.13,50.67.26,77"/><path class="cls-5" d="M130.18-152.88c-.62,23,.31,73.66-.24,110.46-.22,14.63.24,36.54.24,43.54"/><path class="cls-5" d="M128.94-153.88c0,8-.63,21.23-.82,32-.29,16.43.35,32.58.69,49s-.06,32.68,0,49.09c0,9.77.15,18.91.15,24.91"/><path class="cls-5" d="M132.59-153.13l.1,82.42,0,13.47,0,17.8c0,14.28-.31,28.29-.15,42.56"/><path class="cls-5" d="M101.08-152.88c.61,54.1.93,121,0,153"/><path class="cls-5" d="M104.35-152.88c.59,28.22-.32,52.87-.46,81.16-.13,26.41-.29,45.63.46,71.84"/><path class="cls-5" d="M105.72-155.88c.26,26.4-.12,52.09-.21,78.5s.6,51.14.21,77.5"/><path class="cls-5" d="M107.1-153.88c.61,22.93-.31,73.57.24,110.46.21,14.63-.24,36.54-.24,43.54"/><path class="cls-5" d="M108.82-154.88c0,8-.35,21.23-.16,32,.29,16.43.83,32.58.49,49S109-41.2,109-24.79c0,9.77-.15,18.91-.15,24.91"/><path class="cls-5" d="M99.83-156.13l-.1,82.42,0,13.47,0,17.8c0,14.28.31,28.29.15,42.56"/><path class="cls-5" d="M103.15-152.88c-.62,54.1-.93,121,0,153"/><path class="cls-5" d="M115.9-152.88c-.59,28.22-.17,52.87,0,81.16.13,26.39.78,45.55,0,71.84"/><path class="cls-5" d="M113.55-155.88c-.25,26.4-.35,52.56-.26,79s-.13,50.67.26,77"/><path class="cls-5" d="M112.18-153.88c-.62,23,.31,73.66-.24,110.46-.22,14.63.24,36.54.24,43.54"/><path class="cls-5" d="M110.94-154.88c0,8-.63,21.23-.82,32-.29,16.43.35,32.58.69,49s-.06,32.68,0,49.09c0,9.77.15,18.91.15,24.91"/><path class="cls-5" d="M114.59-155.13l.1,82.42,0,13.47,0,17.8c0,14.28-.31,28.29-.15,42.56"/><path class="cls-5" d="M119.08-150.88c.61,54.1.93,121,0,153"/><path class="cls-5" d="M122.35-150.88c.59,28.22-.32,52.87-.46,81.16-.13,26.41-.29,45.63.46,71.84"/><path class="cls-5" d="M123.72-152.88c.26,26.4-.12,52.09-.21,78.5s.6,51.14.21,77.5"/><path class="cls-5" d="M125.1-151.88c.61,22.93-.31,73.57.24,110.46.21,14.63-.24,36.54-.24,43.54"/><path class="cls-5" d="M90.82-152.88c0,8-.35,21.23-.16,32,.29,16.43.83,32.58.49,49S91-39.2,91-22.79c0,9.77-.15,18.91-.15,24.91"/><path class="cls-5" d="M117.83-153.13l-.1,82.42,0,13.47,0,17.8c0,14.28.31,28.29.15,42.56"/><path class="cls-5" d="M121.15-151.88c-.62,54.1-.93,121,0,153"/><path class="cls-5" d="M97.9-151.88c-.59,28.22-.17,52.87,0,81.16.13,26.39.78,45.55,0,71.84"/><path class="cls-5" d="M95.55-153.88c-.25,26.4-.35,52.56-.26,79s-.13,50.67.26,77"/><path class="cls-5" d="M94.18-152.88c-.62,23,.31,73.66-.24,110.46-.22,14.63.24,36.54.24,43.54"/><path class="cls-5" d="M92.94-153.88c0,8-.63,21.23-.82,32-.29,16.43.35,32.58.69,49s-.06,32.68,0,49.09c0,9.77.15,18.91.15,24.91"/><path class="cls-5" d="M96.59-153.13l.1,82.42,0,13.47,0,17.8c0,14.28-.31,28.29-.15,42.56"/><path class="cls-5" d="M65.08-152.88c.61,54.1.93,121,0,153"/><path class="cls-5" d="M68.35-152.88c.59,28.22-.32,52.87-.46,81.16-.13,26.41-.29,45.63.46,71.84"/><path class="cls-5" d="M69.72-155.88c.26,26.4-.12,52.09-.21,78.5s.6,51.14.21,77.5"/><path class="cls-5" d="M71.1-153.88c.61,22.93-.31,73.57.24,110.46C71.55-28.79,71.1-6.88,71.1.12"/><path class="cls-5" d="M72.82-154.88c0,8-.35,21.23-.16,32,.29,16.43.83,32.58.49,49S73-41.2,73-24.79C73-15,72.82-5.88,72.82.12"/><path class="cls-5" d="M63.83-156.13l-.1,82.42,0,13.47,0,17.8c0,14.28.31,28.29.15,42.56"/><path class="cls-5" d="M67.15-152.88c-.62,54.1-.93,121,0,153"/><path class="cls-5" d="M79.9-152.88c-.59,28.22-.17,52.87,0,81.16.13,26.39.78,45.55,0,71.84"/><path class="cls-5" d="M77.55-155.88c-.25,26.4-.35,52.56-.26,79s-.13,50.67.26,77"/><path class="cls-5" d="M76.18-153.88c-.62,23,.31,73.66-.24,110.46-.22,14.63.24,36.54.24,43.54"/><path class="cls-5" d="M74.94-154.88c0,8-.63,21.23-.82,32-.29,16.43.35,32.58.69,49s-.06,32.68,0,49.09c0,9.77.15,18.91.15,24.91"/><path class="cls-5" d="M78.59-155.13l.1,82.42,0,13.47,0,17.8c0,14.28-.31,28.29-.15,42.56"/><path class="cls-5" d="M83.08-150.88c.61,54.1.93,121,0,153"/><path class="cls-5" d="M86.35-150.88c.59,28.22-.32,52.87-.46,81.16-.13,26.41-.29,45.63.46,71.84"/><path class="cls-5" d="M87.72-152.88c.26,26.4-.12,52.09-.21,78.5s.6,51.14.21,77.5"/><path class="cls-5" d="M89.1-151.88c.61,22.93-.31,73.57.24,110.46.21,14.63-.24,36.54-.24,43.54"/><path class="cls-5" d="M54.82-152.88c0,8-.35,21.23-.16,32,.29,16.43.83,32.58.49,49S55-39.2,55-22.79c0,9.77-.15,18.91-.15,24.91"/><path class="cls-5" d="M81.83-153.13l-.1,82.42,0,13.47,0,17.8c0,14.28.31,28.29.15,42.56"/><path class="cls-5" d="M85.15-151.88c-.62,54.1-.93,121,0,153"/><path class="cls-5" d="M61.9-151.88c-.59,28.22-.17,52.87,0,81.16.13,26.39.78,45.55,0,71.84"/><path class="cls-5" d="M59.55-153.88c-.25,26.4-.35,52.56-.26,79s-.13,50.67.26,77"/><path class="cls-5" d="M58.18-152.88c-.62,23,.31,73.66-.24,110.46-.22,14.63.24,36.54.24,43.54"/><path class="cls-5" d="M56.94-153.88c0,8-.63,21.23-.82,32-.29,16.43.35,32.58.69,49s-.06,32.68,0,49.09c0,9.77.15,18.91.15,24.91"/><path class="cls-5" d="M60.59-153.13l.1,82.42,0,13.47,0,17.8c0,14.28-.31,28.29-.15,42.56"/><path class="cls-5" d="M29.08-152.88c.61,54.1.93,121,0,153"/><path class="cls-5" d="M32.35-152.88c.59,28.22-.32,52.87-.46,81.16-.13,26.41-.29,45.63.46,71.84"/><path class="cls-5" d="M33.72-155.88c.26,26.4-.12,52.09-.21,78.5s.6,51.14.21,77.5"/><path class="cls-5" d="M35.1-153.88c.61,22.93-.31,73.57.24,110.46C35.55-28.79,35.1-6.88,35.1.12"/><path class="cls-5" d="M36.82-154.88c0,8-.35,21.23-.16,32,.29,16.43.83,32.58.49,49S37-41.2,37-24.79C37-15,36.82-5.88,36.82.12"/><path class="cls-5" d="M27.83-156.13l-.1,82.42,0,13.47,0,17.8c0,14.28.31,28.29.15,42.56"/><path class="cls-5" d="M31.15-152.88c-.62,54.1-.93,121,0,153"/><path class="cls-5" d="M43.9-152.88c-.59,28.22-.17,52.87,0,81.16.13,26.39.78,45.55,0,71.84"/><path class="cls-5" d="M41.55-155.88c-.25,26.4-.35,52.56-.26,79s-.13,50.67.26,77"/><path class="cls-5" d="M40.18-153.88c-.62,23,.31,73.66-.24,110.46-.22,14.63.24,36.54.24,43.54"/><path class="cls-5" d="M38.94-154.88c0,8-.63,21.23-.82,32-.29,16.43.35,32.58.69,49s-.06,32.68,0,49.09c0,9.77.15,18.91.15,24.91"/><path class="cls-5" d="M42.59-155.13l.1,82.42,0,13.47,0,17.8c0,14.28-.31,28.29-.15,42.56"/><path class="cls-5" d="M47.08-150.88c.61,54.1.93,121,0,153"/><path class="cls-5" d="M50.35-150.88c.59,28.22-.32,52.87-.46,81.16-.13,26.41-.29,45.63.46,71.84"/><path class="cls-5" d="M51.72-152.88c.26,26.4-.12,52.09-.21,78.5s.6,51.14.21,77.5"/><path class="cls-5" d="M53.1-151.88c.61,22.93-.31,73.57.24,110.46.21,14.63-.24,36.54-.24,43.54"/><path class="cls-5" d="M18.82-152.88c0,8-.35,21.23-.16,32,.29,16.43.83,32.58.49,49S19-39.2,19-22.79c0,9.77-.15,18.91-.15,24.91"/><path class="cls-5" d="M45.83-153.13l-.1,82.42,0,13.47,0,17.8c0,14.28.31,28.29.15,42.56"/><path class="cls-5" d="M49.15-151.88c-.62,54.1-.93,121,0,153"/><path class="cls-5" d="M25.9-151.88c-.59,28.22-.17,52.87,0,81.16.13,26.39.78,45.55,0,71.84"/><path class="cls-5" d="M23.55-153.88c-.25,26.4-.35,52.56-.26,79s-.13,50.67.26,77"/><path class="cls-5" d="M22.18-152.88c-.62,23,.31,73.66-.24,110.46-.22,14.63.24,36.54.24,43.54"/><path class="cls-5" d="M20.94-153.88c0,8-.63,21.23-.82,32-.29,16.43.35,32.58.69,49s-.06,32.68,0,49.09c0,9.77.15,18.91.15,24.91"/><path class="cls-5" d="M24.59-153.13l.1,82.42,0,13.47,0,17.8c0,14.28-.31,28.29-.15,42.56"/><path class="cls-5" d="M.82-154.88c0,8-.35,21.23-.16,32,.29,16.43.83,32.58.49,49S1-41.2,1-24.79C1-15,.82-5.88.82.12"/><path class="cls-5" d="M7.9-152.88c-.59,28.22-.17,52.87,0,81.16C8-45.33,8.65-26.17,7.9.12"/><path class="cls-5" d="M5.55-155.88c-.25,26.4-.35,52.56-.26,79s-.13,50.67.26,77"/><path class="cls-5" d="M4.18-153.88c-.62,23,.31,73.66-.24,110.46C3.72-28.79,4.18-6.88,4.18.12"/><path class="cls-5" d="M2.94-154.88c0,8-.63,21.23-.82,32-.29,16.43.35,32.58.69,49s-.06,32.68,0,49.09c0,9.77.15,18.91.15,24.91"/><path class="cls-5" d="M6.59-155.13l.1,82.42,0,13.47,0,17.8c0,14.28-.31,28.29-.15,42.56"/><path class="cls-5" d="M11.08-150.88c.61,54.1.93,121,0,153"/><path class="cls-5" d="M14.35-150.88c.59,28.22-.32,52.87-.46,81.16-.13,26.41-.29,45.63.46,71.84"/><path class="cls-5" d="M15.72-152.88c.26,26.4-.12,52.09-.21,78.5s.6,51.14.21,77.5"/><path class="cls-5" d="M17.1-151.88c.61,22.93-.31,73.57.24,110.46.21,14.63-.24,36.54-.24,43.54"/><path class="cls-5" d="M9.83-153.13l-.1,82.42,0,13.47,0,17.8c0,14.28.31,28.29.15,42.56"/><path class="cls-5" d="M13.15-151.88c-.62,54.1-.93,121,0,153"/></pattern></defs><title>tilestone</title><g id="Layer_2" data-name="Layer 2"><g id="Layer_1-2" data-name="Layer 1"><rect class="cls-6" y="0.15" width="112.09" height="112.09"/><polygon class="cls-7" points="0.5 0.14 0.5 112.23 9.81 112.23 9.81 9.45 0.5 0.14"/><polygon class="cls-8" points="0.64 0 112.73 0 112.73 9.31 9.95 9.31 0.64 0"/></g></g></svg>