<svg xmlns="http://www.w3.org/2000/svg" xmlns:xlink="http://www.w3.org/1999/xlink" viewBox="0 0 113.09 113.25"><defs><style>.cls-1,.cls-5{fill:none;}.cls-2{fill:#c4c4c6;}.cls-3{fill:#7b7b7c;}.cls-4{fill:#fff;}.cls-5{stroke:#414042;}.cls-5,.cls-6{stroke-miterlimit:10;}.cls-6{fill:url(#New_Pattern_Swatch_14);stroke:url(#New_Pattern_Swatch_14);}.cls-7{fill:url(#New_Pattern_Swatch_8);}.cls-8{fill:url(#New_Pattern_Swatch_8-3);}</style><pattern id="New_Pattern_Swatch_14" data-name="New Pattern Swatch 14" width="144" height="144" patternTransform="translate(-35.86 -23.81)" patternUnits="userSpaceOnUse" viewBox="0 0 144 144"><rect class="cls-1" width="144" height="144"/><rect class="cls-2" x="142.38" y="143.81" width="145.43" height="144.57"/><rect class="cls-2" x="-1.62" y="143.81" width="145.43" height="144.57"/><path class="cls-3" d="M22.36,117.26a204.94,204.94,0,0,0,.6,22.85c.27,3.8.55,7.61.77,11.43s.41,7.66.31,11.52-.45,7.67-.87,11.48c-.22,1.91-.45,3.81-.71,5.71l-.75,5.68c-1,7.58-1.84,15.18-2.59,22.78A83.71,83.71,0,0,0,18.4,220a20.7,20.7,0,0,0,1,5.4c.55,1.77,1.24,3.52,1.92,5.33a50.42,50.42,0,0,1,2.79,11.34,97.62,97.62,0,0,1,.74,11.55c0,3.84,0,7.68-.16,11.51s-.36,7.65-.6,11.47q-.78,11.44-1.95,22.86h-.22c.08-15.3.94-30.58.58-45.79-.15-7.58-.56-15.17-3.13-22.23-.62-1.78-1.32-3.59-1.84-5.49a22.58,22.58,0,0,1-.83-5.89,36.38,36.38,0,0,1,.42-5.83c.26-1.91.56-3.79.84-5.68,1.14-7.56,2.23-15.12,3.08-22.71q.64-5.7.95-11.41c.22-3.8.31-7.61.26-11.4-.11-7.57-.69-15.2-.95-22.85a125.77,125.77,0,0,1,.88-23Z"/><path class="cls-3" d="M71,121.09c.56,7.43,1.12,14.84,1.56,22.26.23,3.72.43,7.43.6,11.15s.27,7.44.29,11.17l-.08,11.16,0,5.58,0,5.58c.11,7.43.48,14.86,1,22.28s1.12,14.83,1.72,22.23c.15,1.85.31,3.73.34,5.64,0,1,0,1.91-.06,2.87s-.19,2-.32,2.86c-.25,1.8-.43,3.64-.67,5.51A38.44,38.44,0,0,1,74.27,255a65.32,65.32,0,0,0-1.73,10.81c-.34,3.68-.63,7.38-.87,11.08-.49,7.41,1.27,14.83,1.13,22.27h-.22c-.59-7.43-2.76-14.89-2.64-22.35.07-3.73.23-7.45.47-11.18A62.64,62.64,0,0,1,72,254.41a39.81,39.81,0,0,0,1-5.33c.24-1.82.42-3.68.72-5.55A42.92,42.92,0,0,0,74,232.65c-.48-7.43-.75-14.88-.86-22.33s-.24-14.88-.51-22.31c-.14-3.72-.33-7.44-.52-11.15l-.53-11.15c-.29-7.42-.56-14.84-.76-22.28s-.31-14.89-.08-22.33Z"/><path class="cls-3" d="M116.13,121.09c.83,7.55,1.48,15.13,1.69,22.75s1,15.24.51,22.82c-.21,3.8-.78,7.58-.29,11.22a15.22,15.22,0,0,0,.62,2.67c.29.88.65,1.74,1,2.62a27.33,27.33,0,0,1,1,2.7,11.44,11.44,0,0,1,.49,2.9,26,26,0,0,1-.64,5.73c-.32,1.86-.65,3.73-.86,5.61-.48,3.75-.68,7.54-.79,11.31a208.82,208.82,0,0,0,1,22.65c.34,3.77.77,7.52,1.25,11.28a39.69,39.69,0,0,1,.43,5.83,31.2,31.2,0,0,1-.72,5.85,137.25,137.25,0,0,0-3.39,22.33c-.13,3.74-.21,7.58-.28,11.36s-.14,7.58,0,11.37l-.22,0c-.25-1.88-.42-3.78-.55-5.68s-.26-3.8-.33-5.7l-.2-5.7c0-1.89-.15-3.79-.13-5.72a116.9,116.9,0,0,1,2.82-22.74,30,30,0,0,0,.68-5.43,49.79,49.79,0,0,0-.36-5.52c-.41-3.78-.78-7.58-1-11.38a154.5,154.5,0,0,1-.09-22.87c.25-3.81.71-7.59,1.25-11.36.28-1.89.6-3.76.94-5.64a23,23,0,0,0,.59-5.57c-.14-3.72-3-6.73-3.65-10.71a28.51,28.51,0,0,1-.45-5.81c0-1.92.06-3.81.11-5.7l.39-11.37c.13-3.78-.79-7.57-.77-11.35,0-7.57.83-15.16.79-22.76Z"/><rect class="cls-2" x="142.38" y="-0.19" width="145.43" height="144.57"/><path class="cls-3" d="M305.36,26.46c-7.53-.33-15-1.68-22.45-.89s-15,1.6-22.62,1.29c-3.78-.17-7.55-.52-11.3-1s-7.47-1-11.21-1.48c-7.45-1-14.93-1.82-22.42-2.56a71,71,0,0,0-11.12-.6c-3.63.19-7,1.67-10.56,3a50.09,50.09,0,0,1-11.18,2.69,96.71,96.71,0,0,1-11.38.71c-7.56.07-15.1-1.22-22.62-1.74-3.76-.24-7.51-.57-11.26-.88-.94-.08-1.88-.13-2.84-.27s-1.88-.33-2.8-.53a49.77,49.77,0,0,0-5.53-1V23a40.65,40.65,0,0,1,5.64.55c.93.12,1.86.23,2.78.29s1.85.07,2.8.09l11.28.26c7.51.16,15,1.3,22.5,1.12,3.75-.06,7.47-.22,11.14-.63A48.76,48.76,0,0,0,193,22.3c1.76-.59,3.52-1.29,5.39-1.82a22.91,22.91,0,0,1,5.77-1c3.91-.15,7.65.62,11.35,1.15,7.45,1.12,14.9,2.19,22.37,3q5.61.63,11.23,1c3.75.24,7.49.35,11.23.35s7.45-.13,11.19-.35,7.48-.55,11.24-.81,7.54,1.53,11.32,1.55c1.89,0,3.78.09,5.67.22.94.05,1.88.16,2.82.24s1.88.24,2.81.36Z"/><path class="cls-3" d="M282.6,72.91c-3.72.38-7.45.73-11.19,1s-7.49,1.51-11.26,1.55-7.49,0-11.24-.06-7.49-.06-11.23,0c-7.49.11-15,.48-22.43,1s-14.93,1.11-22.38,1.71a48.74,48.74,0,0,1-11.46.07c-3.9-.61-7.41-2.14-10.91-3.11a60.75,60.75,0,0,0-10.85-1.86c-3.7-.35-7.43-.64-11.15-.89-7.46-.51-14.93-.77-22.42-.92V71.2c7.47-.58,15-.73,22.49-.59,3.76.08,7.5.24,11.26.5a59.3,59.3,0,0,1,11.3,1.72c3.7,1,7.14,2.49,10.65,3.1a45.89,45.89,0,0,0,10.94.13q11.24-.7,22.48-.84c7.49-.14,15-.23,22.46-.51,3.74-.13,7.48-.32,11.23-.51l11.21-.55c7.44-.35,14.89-2,22.36-2.44s15.41,1.38,22.92,1.6C305.38,72.81,290.06,72.17,282.6,72.91Z"/><path class="cls-3" d="M304.45,118.46q-11.2,1-22.44,1.3c-7.5.17-15,1.14-22.49.72-1.87-.1-3.75-.26-5.61-.39a39.11,39.11,0,0,0-5.51-.13,16.44,16.44,0,0,0-5.3,1.18,31.54,31.54,0,0,1-5.33,2,15.81,15.81,0,0,1-5.7-.11c-1.86-.32-3.69-.66-5.54-.92a106.34,106.34,0,0,0-11.14-.93,200.34,200.34,0,0,0-22.32.65q-5.56.47-11.12,1.15c-1.84.23-3.7.49-5.62.63a26,26,0,0,1-5.84-.16c-1.92-.29-3.77-.73-5.58-1.11s-3.65-.74-5.47-1.08c-3.66-.67-7.33-1.21-11-1.54s-7.4-.36-11.14-.35-7.47.08-11.22.22v-.22q5.56-.75,11.19-1.11a106.07,106.07,0,0,1,11.29-.27,100.84,100.84,0,0,1,11.26,1.17c1.87.28,3.71.61,5.57,1s3.66.76,5.45,1a24.5,24.5,0,0,0,5.35.15c1.81-.13,3.66-.39,5.54-.56q5.6-.59,11.23-.94a148.77,148.77,0,0,1,22.54.21c3.74.3,7.47.79,11.18,1.4l5.53,1a14.24,14.24,0,0,0,5.44.07,27.6,27.6,0,0,0,5.13-2.08,17.37,17.37,0,0,1,5.53-1.57,42,42,0,0,1,5.7-.19l5.61.1,11.2.24c3.73.08,7.47-.88,11.2-.83l22.45.18Z"/><rect class="cls-2" x="-1.62" y="-0.19" width="145.43" height="144.57"/><path class="cls-3" d="M22.36-26.74A204.94,204.94,0,0,0,23-3.89c.27,3.8.55,7.61.77,11.43s.41,7.66.31,11.52-.45,7.67-.87,11.48c-.22,1.91-.45,3.81-.71,5.71l-.75,5.68c-1,7.58-1.84,15.18-2.59,22.78A83.71,83.71,0,0,0,18.4,76a20.7,20.7,0,0,0,1,5.4c.55,1.77,1.24,3.52,1.92,5.33a50.42,50.42,0,0,1,2.79,11.34,97.62,97.62,0,0,1,.74,11.55c0,3.84,0,7.68-.16,11.51s-.36,7.65-.6,11.47q-.78,11.44-1.95,22.86h-.22c.08-15.3.94-30.58.58-45.79-.15-7.58-.56-15.17-3.13-22.23C18.71,85.67,18,83.86,17.49,82a22.58,22.58,0,0,1-.83-5.89,36.38,36.38,0,0,1,.42-5.83c.26-1.91.56-3.79.84-5.68C19.06,57,20.15,49.44,21,41.85q.64-5.7.95-11.41c.22-3.8.31-7.61.26-11.4-.11-7.57-.69-15.2-.95-22.85a125.77,125.77,0,0,1,.88-23Z"/><path class="cls-3" d="M71-22.91c.56,7.43,1.12,14.84,1.56,22.26.23,3.72.43,7.43.6,11.15s.27,7.44.29,11.17l-.08,11.16,0,5.58,0,5.58c.11,7.43.48,14.86,1,22.28S75.46,81.1,76.06,88.5c.15,1.85.31,3.73.34,5.64,0,1,0,1.91-.06,2.87s-.19,2-.32,2.86c-.25,1.8-.43,3.64-.67,5.51A38.44,38.44,0,0,1,74.27,111a65.32,65.32,0,0,0-1.73,10.81c-.34,3.68-.63,7.38-.87,11.08-.49,7.41,1.27,14.83,1.13,22.27h-.22c-.59-7.43-2.76-14.89-2.64-22.35.07-3.73.23-7.45.47-11.18A62.64,62.64,0,0,1,72,110.41a39.81,39.81,0,0,0,1-5.33c.24-1.82.42-3.68.72-5.55A42.92,42.92,0,0,0,74,88.65c-.48-7.43-.75-14.88-.86-22.33S72.9,51.44,72.63,44c-.14-3.72-.33-7.44-.52-11.15l-.53-11.15C71.29,14.29,71,6.87,70.82-.57s-.31-14.89-.08-22.33Z"/><path class="cls-3" d="M116.13-22.91c.83,7.55,1.48,15.13,1.69,22.75s1,15.24.51,22.82c-.21,3.8-.78,7.58-.29,11.22a15.22,15.22,0,0,0,.62,2.67c.29.88.65,1.74,1,2.62a27.33,27.33,0,0,1,1,2.7,11.44,11.44,0,0,1,.49,2.9,26,26,0,0,1-.64,5.73c-.32,1.86-.65,3.73-.86,5.61-.48,3.75-.68,7.54-.79,11.31a208.82,208.82,0,0,0,1,22.65c.34,3.77.77,7.52,1.25,11.28a39.69,39.69,0,0,1,.43,5.83,31.2,31.2,0,0,1-.72,5.85,137.25,137.25,0,0,0-3.39,22.33c-.13,3.74-.21,7.58-.28,11.36s-.14,7.58,0,11.37l-.22,0c-.25-1.88-.42-3.78-.55-5.68s-.26-3.8-.33-5.7l-.2-5.7c0-1.89-.15-3.79-.13-5.72a116.9,116.9,0,0,1,2.82-22.74,30,30,0,0,0,.68-5.43,49.79,49.79,0,0,0-.36-5.52c-.41-3.78-.78-7.58-1-11.38a154.5,154.5,0,0,1-.09-22.87c.25-3.81.71-7.59,1.25-11.36.28-1.89.6-3.76.94-5.64a23,23,0,0,0,.59-5.57c-.14-3.72-3-6.73-3.65-10.71a28.51,28.51,0,0,1-.45-5.81c0-1.92.06-3.81.11-5.7l.39-11.37c.13-3.78-.79-7.57-.77-11.35,0-7.57.83-15.16.79-22.76Z"/><path class="cls-3" d="M161.36,26.46c-7.53-.33-15-1.68-22.45-.89s-15,1.6-22.62,1.29c-3.78-.17-7.55-.52-11.3-1s-7.47-1-11.21-1.48c-7.45-1-14.93-1.82-22.42-2.56a71,71,0,0,0-11.12-.6c-3.63.19-7,1.67-10.56,3A50.09,50.09,0,0,1,38.5,26.94a96.71,96.71,0,0,1-11.38.71c-7.56.07-15.1-1.22-22.62-1.74C.74,25.67-3,25.34-6.76,25c-.94-.08-1.88-.13-2.84-.27s-1.88-.33-2.8-.53a49.77,49.77,0,0,0-5.53-1V23a40.65,40.65,0,0,1,5.64.55c.93.12,1.86.23,2.78.29s1.85.07,2.8.09l11.28.26c7.51.16,15,1.3,22.5,1.12,3.75-.06,7.47-.22,11.14-.63A48.76,48.76,0,0,0,49,22.3c1.76-.59,3.52-1.29,5.39-1.82a22.91,22.91,0,0,1,5.77-1c3.91-.15,7.65.62,11.35,1.15,7.45,1.12,14.9,2.19,22.37,3q5.61.63,11.23,1c3.75.24,7.49.35,11.23.35s7.45-.13,11.19-.35,7.48-.55,11.24-.81,7.54,1.53,11.32,1.55c1.89,0,3.78.09,5.67.22.94.05,1.88.16,2.82.24s1.88.24,2.81.36Z"/><path class="cls-3" d="M138.6,72.91c-3.72.38-7.45.73-11.19,1s-7.49,1.51-11.26,1.55-7.49,0-11.24-.06-7.49-.06-11.23,0c-7.49.11-15,.48-22.43,1s-14.93,1.11-22.38,1.71a48.74,48.74,0,0,1-11.46.07c-3.9-.61-7.41-2.14-10.91-3.11a60.75,60.75,0,0,0-10.85-1.86c-3.7-.35-7.43-.64-11.15-.89-7.46-.51-14.93-.77-22.42-.92V71.2c7.47-.58,15-.73,22.49-.59,3.76.08,7.5.24,11.26.5a59.3,59.3,0,0,1,11.3,1.72c3.7,1,7.14,2.49,10.65,3.1a45.89,45.89,0,0,0,10.94.13q11.24-.7,22.48-.84c7.49-.14,15-.23,22.46-.51,3.74-.13,7.48-.32,11.23-.51l11.21-.55c7.44-.35,14.89-2,22.36-2.44s15.41,1.38,22.92,1.6C161.38,72.81,146.06,72.17,138.6,72.91Z"/><path class="cls-3" d="M160.45,118.46q-11.2,1-22.44,1.3c-7.5.17-15,1.14-22.49.72-1.87-.1-3.75-.26-5.61-.39a39.11,39.11,0,0,0-5.51-.13,16.44,16.44,0,0,0-5.3,1.18,31.54,31.54,0,0,1-5.33,2,15.81,15.81,0,0,1-5.7-.11c-1.86-.32-3.69-.66-5.54-.92a106.34,106.34,0,0,0-11.14-.93,200.34,200.34,0,0,0-22.32.65q-5.57.47-11.12,1.15c-1.84.23-3.7.49-5.62.63a26,26,0,0,1-5.84-.16c-1.92-.29-3.77-.73-5.58-1.11s-3.65-.74-5.47-1.08c-3.66-.67-7.33-1.21-11-1.54s-7.4-.36-11.14-.35-7.47.08-11.22.22v-.22q5.56-.75,11.19-1.11a106.07,106.07,0,0,1,11.29-.27,100.84,100.84,0,0,1,11.26,1.17c1.87.28,3.71.61,5.57,1s3.66.76,5.45,1a24.5,24.5,0,0,0,5.35.15c1.81-.13,3.66-.39,5.54-.56q5.59-.59,11.23-.94a148.77,148.77,0,0,1,22.54.21c3.74.3,7.47.79,11.18,1.4l5.53,1a14.24,14.24,0,0,0,5.44.07,27.6,27.6,0,0,0,5.13-2.08,17.37,17.37,0,0,1,5.53-1.57,42,42,0,0,1,5.7-.19l5.61.1,11.2.24c3.73.08,7.47-.88,11.2-.83l22.45.18Z"/><path class="cls-3" d="M17.36,26.46c-7.53-.33-15-1.68-22.45-.89s-15,1.6-22.62,1.29c-3.78-.17-7.55-.52-11.3-1s-7.47-1-11.21-1.48c-7.45-1-14.93-1.82-22.42-2.56a71,71,0,0,0-11.12-.6c-3.63.19-7,1.67-10.56,3a50.09,50.09,0,0,1-11.18,2.69,96.71,96.71,0,0,1-11.38.71c-7.56.07-15.1-1.22-22.62-1.74-3.76-.24-7.51-.57-11.26-.88-.94-.08-1.88-.13-2.84-.27s-1.88-.33-2.8-.53a49.77,49.77,0,0,0-5.53-1V23a40.65,40.65,0,0,1,5.64.55c.93.12,1.86.23,2.78.29s1.85.07,2.8.09l11.28.26c7.51.16,15,1.3,22.5,1.12,3.75-.06,7.47-.22,11.14-.63A48.76,48.76,0,0,0-95,22.3c1.76-.59,3.52-1.29,5.39-1.82a22.91,22.91,0,0,1,5.77-1c3.91-.15,7.65.62,11.35,1.15,7.45,1.12,14.9,2.19,22.37,3q5.61.63,11.23,1c3.75.24,7.49.35,11.23.35s7.45-.13,11.19-.35,7.48-.55,11.24-.81S2.3,25.4,6.08,25.42c1.89,0,3.78.09,5.67.22.94.05,1.88.16,2.82.24s1.88.24,2.81.36Z"/><path class="cls-3" d="M-5.4,72.91c-3.72.38-7.45.73-11.19,1s-7.49,1.51-11.26,1.55-7.49,0-11.24-.06-7.49-.06-11.23,0c-7.49.11-15,.48-22.43,1s-14.93,1.11-22.38,1.71a48.74,48.74,0,0,1-11.46.07c-3.9-.61-7.41-2.14-10.91-3.11a60.75,60.75,0,0,0-10.85-1.86c-3.7-.35-7.43-.64-11.15-.89-7.46-.51-14.93-.77-22.42-.92V71.2c7.47-.58,15-.73,22.49-.59,3.76.08,7.5.24,11.26.5a59.3,59.3,0,0,1,11.3,1.72c3.7,1,7.14,2.49,10.65,3.1a45.89,45.89,0,0,0,10.94.13q11.23-.7,22.48-.84c7.49-.14,15-.23,22.46-.51,3.74-.13,7.48-.32,11.23-.51l11.21-.55c7.44-.35,14.89-2,22.36-2.44s15.41,1.38,22.92,1.6C17.38,72.81,2.06,72.17-5.4,72.91Z"/><path class="cls-3" d="M16.45,118.46q-11.2,1-22.44,1.3c-7.5.17-15,1.14-22.49.72-1.87-.1-3.75-.26-5.61-.39A39.11,39.11,0,0,0-39.6,120a16.44,16.44,0,0,0-5.3,1.18,31.54,31.54,0,0,1-5.33,2,15.81,15.81,0,0,1-5.7-.11c-1.86-.32-3.69-.66-5.54-.92a106.34,106.34,0,0,0-11.14-.93,200.34,200.34,0,0,0-22.32.65q-5.56.47-11.12,1.15c-1.84.23-3.7.49-5.62.63a26,26,0,0,1-5.84-.16c-1.92-.29-3.77-.73-5.58-1.11s-3.65-.74-5.47-1.08c-3.66-.67-7.33-1.21-11-1.54s-7.4-.36-11.14-.35-7.47.08-11.22.22v-.22q5.56-.75,11.19-1.11a106.07,106.07,0,0,1,11.29-.27,100.84,100.84,0,0,1,11.26,1.17c1.87.28,3.71.61,5.57,1s3.66.76,5.45,1a24.5,24.5,0,0,0,5.35.15c1.81-.13,3.66-.39,5.54-.56q5.6-.59,11.23-.94a148.77,148.77,0,0,1,22.54.21c3.74.3,7.47.79,11.18,1.4l5.53,1a14.24,14.24,0,0,0,5.44.07,27.6,27.6,0,0,0,5.13-2.08,17.37,17.37,0,0,1,5.53-1.57,42,42,0,0,1,5.7-.19l5.61.1,11.2.24c3.73.08,7.47-.88,11.2-.83l22.45.18Z"/><rect class="cls-2" x="142.38" y="-144.19" width="145.43" height="144.57"/><rect class="cls-2" x="-1.62" y="-144.19" width="145.43" height="144.57"/><path class="cls-3" d="M22.36-170.74a204.94,204.94,0,0,0,.6,22.85c.27,3.8.55,7.61.77,11.43s.41,7.66.31,11.52-.45,7.67-.87,11.48c-.22,1.91-.45,3.81-.71,5.71l-.75,5.68c-1,7.58-1.84,15.18-2.59,22.78A83.71,83.71,0,0,0,18.4-68a20.7,20.7,0,0,0,1,5.4c.55,1.77,1.24,3.52,1.92,5.33a50.42,50.42,0,0,1,2.79,11.34,97.62,97.62,0,0,1,.74,11.55c0,3.84,0,7.68-.16,11.51s-.36,7.65-.6,11.47Q23.27.06,22.1,11.48h-.22c.08-15.3.94-30.58.58-45.79-.15-7.58-.56-15.17-3.13-22.23C18.71-58.33,18-60.14,17.49-62a22.58,22.58,0,0,1-.83-5.89,36.38,36.38,0,0,1,.42-5.83c.26-1.91.56-3.79.84-5.68C19.06-87,20.15-94.56,21-102.15q.64-5.7.95-11.41c.22-3.8.31-7.61.26-11.4-.11-7.57-.69-15.2-.95-22.85a125.77,125.77,0,0,1,.88-22.95Z"/><path class="cls-3" d="M71-166.91c.56,7.43,1.12,14.84,1.56,22.26.23,3.72.43,7.43.6,11.15s.27,7.44.29,11.17l-.08,11.16,0,5.58,0,5.58c.11,7.43.48,14.86,1,22.28S75.46-62.9,76.06-55.5c.15,1.85.31,3.73.34,5.64,0,1,0,1.91-.06,2.87s-.19,2-.32,2.86c-.25,1.8-.43,3.64-.67,5.51A38.44,38.44,0,0,1,74.27-33a65.32,65.32,0,0,0-1.73,10.81c-.34,3.68-.63,7.38-.87,11.08C71.18-3.7,72.94,3.72,72.8,11.16h-.22C72,3.74,69.82-3.72,69.94-11.18c.07-3.73.23-7.45.47-11.18A62.64,62.64,0,0,1,72-33.59a39.81,39.81,0,0,0,1-5.33c.24-1.82.42-3.68.72-5.55A42.92,42.92,0,0,0,74-55.35c-.48-7.43-.75-14.88-.86-22.33S72.9-92.56,72.63-100c-.14-3.72-.33-7.44-.52-11.15l-.53-11.15c-.29-7.42-.56-14.84-.76-22.28s-.31-14.89-.08-22.33Z"/><path class="cls-3" d="M116.13-166.91c.83,7.55,1.48,15.13,1.69,22.75s1,15.24.51,22.82c-.21,3.8-.78,7.58-.29,11.22a15.22,15.22,0,0,0,.62,2.67c.29.88.65,1.74,1,2.62a27.33,27.33,0,0,1,1,2.7,11.44,11.44,0,0,1,.49,2.9,26,26,0,0,1-.64,5.73c-.32,1.86-.65,3.73-.86,5.61-.48,3.75-.68,7.54-.79,11.31a208.82,208.82,0,0,0,1,22.65c.34,3.77.77,7.52,1.25,11.28a39.69,39.69,0,0,1,.43,5.83,31.2,31.2,0,0,1-.72,5.85,137.25,137.25,0,0,0-3.39,22.33c-.13,3.74-.21,7.58-.28,11.36s-.14,7.58,0,11.37l-.22,0c-.25-1.88-.42-3.78-.55-5.68s-.26-3.8-.33-5.7l-.2-5.7c0-1.89-.15-3.79-.13-5.72a116.9,116.9,0,0,1,2.82-22.74,30,30,0,0,0,.68-5.43,49.79,49.79,0,0,0-.36-5.52c-.41-3.78-.78-7.58-1-11.38a154.5,154.5,0,0,1-.09-22.87c.25-3.81.71-7.59,1.25-11.36.28-1.89.6-3.76.94-5.64a23,23,0,0,0,.59-5.57c-.14-3.72-3-6.73-3.65-10.71a28.51,28.51,0,0,1-.45-5.81c0-1.92.06-3.81.11-5.7l.39-11.37c.13-3.78-.79-7.57-.77-11.35,0-7.57.83-15.16.79-22.76Z"/></pattern><pattern id="New_Pattern_Swatch_8" data-name="New Pattern Swatch 8" width="144" height="153" patternTransform="translate(509.75 243.64) scale(1.55)" patternUnits="userSpaceOnUse" viewBox="0 0 144 153"><rect class="cls-1" width="144" height="153"/><rect class="cls-4" x="125.97" y="152.5" width="36" height="153"/><path class="cls-5" d="M141.72,150.12c.26,26.4-.12,52.09-.21,78.5s.6,51.14.21,77.5"/><path class="cls-5" d="M143.1,152.12c.61,22.93-.31,73.57.24,110.46.21,14.63-.24,36.54-.24,43.54"/><path class="cls-5" d="M135.83,149.87l-.1,82.42,0,13.47,0,17.8c0,14.28.31,28.29.15,42.56"/><path class="cls-5" d="M131.55,152.12c-.25,26.4-.35,52.56-.26,79s-.13,50.67.26,77"/><path class="cls-5" d="M128.94,152.12c0,8-.63,21.23-.82,32-.29,16.43.35,32.58.69,49s-.06,32.68,0,49.09c0,9.77.15,18.91.15,24.91"/><path class="cls-5" d="M132.59,152.87l.1,82.42,0,13.47,0,17.8c0,14.28-.31,28.29-.15,42.56"/><rect class="cls-4" x="89.97" y="152.5" width="36" height="153"/><path class="cls-5" d="M105.72,150.12c.26,26.4-.12,52.09-.21,78.5s.6,51.14.21,77.5"/><path class="cls-5" d="M107.1,152.12c.61,22.93-.31,73.57.24,110.46.21,14.63-.24,36.54-.24,43.54"/><path class="cls-5" d="M108.82,151.12c0,8-.35,21.23-.16,32,.29,16.43.83,32.58.49,49S109,264.8,109,281.21c0,9.77-.15,18.91-.15,24.91"/><path class="cls-5" d="M99.83,149.87l-.1,82.42,0,13.47,0,17.8c0,14.28.31,28.29.15,42.56"/><path class="cls-5" d="M113.55,150.12c-.25,26.4-.35,52.56-.26,79s-.13,50.67.26,77"/><path class="cls-5" d="M112.18,152.12c-.62,23,.31,73.66-.24,110.46-.22,14.63.24,36.54.24,43.54"/><path class="cls-5" d="M110.94,151.12c0,8-.63,21.23-.82,32-.29,16.43.35,32.58.69,49s-.06,32.68,0,49.09c0,9.77.15,18.91.15,24.91"/><path class="cls-5" d="M114.59,150.87l.1,82.42,0,13.47,0,17.8c0,14.28-.31,28.29-.15,42.56"/><path class="cls-5" d="M117.83,152.87l-.1,82.42,0,13.47,0,17.8c0,14.28.31,28.29.15,42.56"/><path class="cls-5" d="M95.55,152.12c-.25,26.4-.35,52.56-.26,79s-.13,50.67.26,77"/><path class="cls-5" d="M92.94,152.12c0,8-.63,21.23-.82,32-.29,16.43.35,32.58.69,49s-.06,32.68,0,49.09c0,9.77.15,18.91.15,24.91"/><path class="cls-5" d="M96.59,152.87l.1,82.42,0,13.47,0,17.8c0,14.28-.31,28.29-.15,42.56"/><rect class="cls-4" x="53.97" y="152.5" width="36" height="153"/><path class="cls-5" d="M69.72,150.12c.26,26.4-.12,52.09-.21,78.5s.6,51.14.21,77.5"/><path class="cls-5" d="M71.1,152.12c.61,22.93-.31,73.57.24,110.46.21,14.63-.24,36.54-.24,43.54"/><path class="cls-5" d="M72.82,151.12c0,8-.35,21.23-.16,32,.29,16.43.83,32.58.49,49S73,264.8,73,281.21c0,9.77-.15,18.91-.15,24.91"/><path class="cls-5" d="M63.83,149.87l-.1,82.42,0,13.47,0,17.8c0,14.28.31,28.29.15,42.56"/><path class="cls-5" d="M77.55,150.12c-.25,26.4-.35,52.56-.26,79s-.13,50.67.26,77"/><path class="cls-5" d="M76.18,152.12c-.62,23,.31,73.66-.24,110.46-.22,14.63.24,36.54.24,43.54"/><path class="cls-5" d="M74.94,151.12c0,8-.63,21.23-.82,32-.29,16.43.35,32.58.69,49s-.06,32.68,0,49.09c0,9.77.15,18.91.15,24.91"/><path class="cls-5" d="M78.59,150.87l.1,82.42,0,13.47,0,17.8c0,14.28-.31,28.29-.15,42.56"/><path class="cls-5" d="M81.83,152.87l-.1,82.42,0,13.47,0,17.8c0,14.28.31,28.29.15,42.56"/><path class="cls-5" d="M59.55,152.12c-.25,26.4-.35,52.56-.26,79s-.13,50.67.26,77"/><path class="cls-5" d="M56.94,152.12c0,8-.63,21.23-.82,32-.29,16.43.35,32.58.69,49s-.06,32.68,0,49.09c0,9.77.15,18.91.15,24.91"/><path class="cls-5" d="M60.59,152.87l.1,82.42,0,13.47,0,17.8c0,14.28-.31,28.29-.15,42.56"/><rect class="cls-4" x="17.97" y="152.5" width="36" height="153"/><path class="cls-5" d="M33.72,150.12c.26,26.4-.12,52.09-.21,78.5s.6,51.14.21,77.5"/><path class="cls-5" d="M35.1,152.12c.61,22.93-.31,73.57.24,110.46.21,14.63-.24,36.54-.24,43.54"/><path class="cls-5" d="M36.82,151.12c0,8-.35,21.23-.16,32,.29,16.43.83,32.58.49,49S37,264.8,37,281.21c0,9.77-.15,18.91-.15,24.91"/><path class="cls-5" d="M27.83,149.87l-.1,82.42,0,13.47,0,17.8c0,14.28.31,28.29.15,42.56"/><path class="cls-5" d="M41.55,150.12c-.25,26.4-.35,52.56-.26,79s-.13,50.67.26,77"/><path class="cls-5" d="M40.18,152.12c-.62,23,.31,73.66-.24,110.46-.22,14.63.24,36.54.24,43.54"/><path class="cls-5" d="M38.94,151.12c0,8-.63,21.23-.82,32-.29,16.43.35,32.58.69,49s-.06,32.68,0,49.09c0,9.77.15,18.91.15,24.91"/><path class="cls-5" d="M42.59,150.87l.1,82.42,0,13.47,0,17.8c0,14.28-.31,28.29-.15,42.56"/><path class="cls-5" d="M45.83,152.87l-.1,82.42,0,13.47,0,17.8c0,14.28.31,28.29.15,42.56"/><path class="cls-5" d="M23.55,152.12c-.25,26.4-.35,52.56-.26,79s-.13,50.67.26,77"/><path class="cls-5" d="M20.94,152.12c0,8-.63,21.23-.82,32-.29,16.43.35,32.58.69,49s-.06,32.68,0,49.09c0,9.77.15,18.91.15,24.91"/><path class="cls-5" d="M24.59,152.87l.1,82.42,0,13.47,0,17.8c0,14.28-.31,28.29-.15,42.56"/><rect class="cls-4" x="-18.03" y="152.5" width="36" height="153"/><path class="cls-5" d="M.82,151.12c0,8-.35,21.23-.16,32,.29,16.43.83,32.58.49,49S1,264.8,1,281.21C1,291,.82,300.12.82,306.12"/><path class="cls-5" d="M5.55,150.12c-.25,26.4-.35,52.56-.26,79s-.13,50.67.26,77"/><path class="cls-5" d="M4.18,152.12c-.62,23,.31,73.66-.24,110.46-.22,14.63.24,36.54.24,43.54"/><path class="cls-5" d="M2.94,151.12c0,8-.63,21.23-.82,32-.29,16.43.35,32.58.69,49s-.06,32.68,0,49.09c0,9.77.15,18.91.15,24.91"/><path class="cls-5" d="M6.59,150.87l.1,82.42,0,13.47,0,17.8c0,14.28-.31,28.29-.15,42.56"/><path class="cls-5" d="M9.83,152.87l-.1,82.42,0,13.47,0,17.8c0,14.28.31,28.29.15,42.56"/><rect class="cls-4" x="125.97" y="-0.5" width="36" height="153"/><path class="cls-5" d="M137.08.12c.61,54.1.93,121,0,153"/><path class="cls-5" d="M140.35.12c.59,28.22-.32,52.87-.46,81.16-.13,26.41-.29,45.63.46,71.84"/><path class="cls-5" d="M141.72-2.88c.26,26.4-.12,52.09-.21,78.5s.6,51.14.21,77.5"/><path class="cls-5" d="M143.1-.88c.61,22.93-.31,73.57.24,110.46.21,14.63-.24,36.54-.24,43.54"/><path class="cls-5" d="M135.83-3.13l-.1,82.42,0,13.47,0,17.8c0,14.28.31,28.29.15,42.56"/><path class="cls-5" d="M139.15.12c-.62,54.1-.93,121,0,153"/><path class="cls-5" d="M126.82.12c0,8-.35,21.23-.16,32,.29,16.43.83,32.58.49,49S127,113.8,127,130.21c0,9.77-.15,18.91-.15,24.91"/><path class="cls-5" d="M133.9,1.12c-.59,28.22-.17,52.87,0,81.16.13,26.39.78,45.55,0,71.84"/><path class="cls-5" d="M131.55-.88c-.25,26.4-.35,52.56-.26,79s-.13,50.67.26,77"/><path class="cls-5" d="M130.18.12c-.62,23,.31,73.66-.24,110.46-.22,14.63.24,36.54.24,43.54"/><path class="cls-5" d="M128.94-.88c0,8-.63,21.23-.82,32-.29,16.43.35,32.58.69,49s-.06,32.68,0,49.09c0,9.77.15,18.91.15,24.91"/><path class="cls-5" d="M132.59-.13l.1,82.42,0,13.47,0,17.8c0,14.28-.31,28.29-.15,42.56"/><rect class="cls-4" x="89.97" y="-0.5" width="36" height="153"/><path class="cls-5" d="M101.08.12c.61,54.1.93,121,0,153"/><path class="cls-5" d="M104.35.12c.59,28.22-.32,52.87-.46,81.16-.13,26.41-.29,45.63.46,71.84"/><path class="cls-5" d="M105.72-2.88c.26,26.4-.12,52.09-.21,78.5s.6,51.14.21,77.5"/><path class="cls-5" d="M107.1-.88c.61,22.93-.31,73.57.24,110.46.21,14.63-.24,36.54-.24,43.54"/><path class="cls-5" d="M108.82-1.88c0,8-.35,21.23-.16,32,.29,16.43.83,32.58.49,49S109,111.8,109,128.21c0,9.77-.15,18.91-.15,24.91"/><path class="cls-5" d="M99.83-3.13l-.1,82.42,0,13.47,0,17.8c0,14.28.31,28.29.15,42.56"/><path class="cls-5" d="M103.15.12c-.62,54.1-.93,121,0,153"/><path class="cls-5" d="M115.9.12c-.59,28.22-.17,52.87,0,81.16.13,26.39.78,45.55,0,71.84"/><path class="cls-5" d="M113.55-2.88c-.25,26.4-.35,52.56-.26,79s-.13,50.67.26,77"/><path class="cls-5" d="M112.18-.88c-.62,23,.31,73.66-.24,110.46-.22,14.63.24,36.54.24,43.54"/><path class="cls-5" d="M110.94-1.88c0,8-.63,21.23-.82,32-.29,16.43.35,32.58.69,49s-.06,32.68,0,49.09c0,9.77.15,18.91.15,24.91"/><path class="cls-5" d="M114.59-2.13l.1,82.42,0,13.47,0,17.8c0,14.28-.31,28.29-.15,42.56"/><path class="cls-5" d="M119.08,2.12c.61,54.1.93,121,0,153"/><path class="cls-5" d="M122.35,2.12c.59,28.22-.32,52.87-.46,81.16-.13,26.41-.29,45.63.46,71.84"/><path class="cls-5" d="M123.72.12c.26,26.4-.12,52.09-.21,78.5s.6,51.14.21,77.5"/><path class="cls-5" d="M125.1,1.12c.61,22.93-.31,73.57.24,110.46.21,14.63-.24,36.54-.24,43.54"/><path class="cls-5" d="M90.82.12c0,8-.35,21.23-.16,32,.29,16.43.83,32.58.49,49S91,113.8,91,130.21c0,9.77-.15,18.91-.15,24.91"/><path class="cls-5" d="M117.83-.13l-.1,82.42,0,13.47,0,17.8c0,14.28.31,28.29.15,42.56"/><path class="cls-5" d="M121.15,1.12c-.62,54.1-.93,121,0,153"/><path class="cls-5" d="M97.9,1.12c-.59,28.22-.17,52.87,0,81.16.13,26.39.78,45.55,0,71.84"/><path class="cls-5" d="M95.55-.88c-.25,26.4-.35,52.56-.26,79s-.13,50.67.26,77"/><path class="cls-5" d="M94.18.12c-.62,23,.31,73.66-.24,110.46-.22,14.63.24,36.54.24,43.54"/><path class="cls-5" d="M92.94-.88c0,8-.63,21.23-.82,32-.29,16.43.35,32.58.69,49s-.06,32.68,0,49.09c0,9.77.15,18.91.15,24.91"/><path class="cls-5" d="M96.59-.13l.1,82.42,0,13.47,0,17.8c0,14.28-.31,28.29-.15,42.56"/><rect class="cls-4" x="53.97" y="-0.5" width="36" height="153"/><path class="cls-5" d="M65.08.12c.61,54.1.93,121,0,153"/><path class="cls-5" d="M68.35.12C68.94,28.34,68,53,67.89,81.28c-.13,26.41-.29,45.63.46,71.84"/><path class="cls-5" d="M69.72-2.88c.26,26.4-.12,52.09-.21,78.5s.6,51.14.21,77.5"/><path class="cls-5" d="M71.1-.88c.61,22.93-.31,73.57.24,110.46.21,14.63-.24,36.54-.24,43.54"/><path class="cls-5" d="M72.82-1.88c0,8-.35,21.23-.16,32,.29,16.43.83,32.58.49,49S73,111.8,73,128.21c0,9.77-.15,18.91-.15,24.91"/><path class="cls-5" d="M63.83-3.13l-.1,82.42,0,13.47,0,17.8c0,14.28.31,28.29.15,42.56"/><path class="cls-5" d="M67.15.12c-.62,54.1-.93,121,0,153"/><path class="cls-5" d="M79.9.12c-.59,28.22-.17,52.87,0,81.16.13,26.39.78,45.55,0,71.84"/><path class="cls-5" d="M77.55-2.88c-.25,26.4-.35,52.56-.26,79s-.13,50.67.26,77"/><path class="cls-5" d="M76.18-.88c-.62,23,.31,73.66-.24,110.46-.22,14.63.24,36.54.24,43.54"/><path class="cls-5" d="M74.94-1.88c0,8-.63,21.23-.82,32-.29,16.43.35,32.58.69,49s-.06,32.68,0,49.09c0,9.77.15,18.91.15,24.91"/><path class="cls-5" d="M78.59-2.13l.1,82.42,0,13.47,0,17.8c0,14.28-.31,28.29-.15,42.56"/><path class="cls-5" d="M83.08,2.12c.61,54.1.93,121,0,153"/><path class="cls-5" d="M86.35,2.12C86.94,30.34,86,55,85.89,83.28c-.13,26.41-.29,45.63.46,71.84"/><path class="cls-5" d="M87.72.12c.26,26.4-.12,52.09-.21,78.5s.6,51.14.21,77.5"/><path class="cls-5" d="M89.1,1.12c.61,22.93-.31,73.57.24,110.46.21,14.63-.24,36.54-.24,43.54"/><path class="cls-5" d="M54.82.12c0,8-.35,21.23-.16,32,.29,16.43.83,32.58.49,49S55,113.8,55,130.21c0,9.77-.15,18.91-.15,24.91"/><path class="cls-5" d="M81.83-.13l-.1,82.42,0,13.47,0,17.8c0,14.28.31,28.29.15,42.56"/><path class="cls-5" d="M85.15,1.12c-.62,54.1-.93,121,0,153"/><path class="cls-5" d="M61.9,1.12c-.59,28.22-.17,52.87,0,81.16.13,26.39.78,45.55,0,71.84"/><path class="cls-5" d="M59.55-.88c-.25,26.4-.35,52.56-.26,79s-.13,50.67.26,77"/><path class="cls-5" d="M58.18.12c-.62,23,.31,73.66-.24,110.46-.22,14.63.24,36.54.24,43.54"/><path class="cls-5" d="M56.94-.88c0,8-.63,21.23-.82,32-.29,16.43.35,32.58.69,49s-.06,32.68,0,49.09c0,9.77.15,18.91.15,24.91"/><path class="cls-5" d="M60.59-.13l.1,82.42,0,13.47,0,17.8c0,14.28-.31,28.29-.15,42.56"/><rect class="cls-4" x="17.97" y="-0.5" width="36" height="153"/><path class="cls-5" d="M29.08.12c.61,54.1.93,121,0,153"/><path class="cls-5" d="M32.35.12C32.94,28.34,32,53,31.89,81.28c-.13,26.41-.29,45.63.46,71.84"/><path class="cls-5" d="M33.72-2.88c.26,26.4-.12,52.09-.21,78.5s.6,51.14.21,77.5"/><path class="cls-5" d="M35.1-.88c.61,22.93-.31,73.57.24,110.46.21,14.63-.24,36.54-.24,43.54"/><path class="cls-5" d="M36.82-1.88c0,8-.35,21.23-.16,32,.29,16.43.83,32.58.49,49S37,111.8,37,128.21c0,9.77-.15,18.91-.15,24.91"/><path class="cls-5" d="M27.83-3.13l-.1,82.42,0,13.47,0,17.8c0,14.28.31,28.29.15,42.56"/><path class="cls-5" d="M31.15.12c-.62,54.1-.93,121,0,153"/><path class="cls-5" d="M43.9.12c-.59,28.22-.17,52.87,0,81.16.13,26.39.78,45.55,0,71.84"/><path class="cls-5" d="M41.55-2.88c-.25,26.4-.35,52.56-.26,79s-.13,50.67.26,77"/><path class="cls-5" d="M40.18-.88c-.62,23,.31,73.66-.24,110.46-.22,14.63.24,36.54.24,43.54"/><path class="cls-5" d="M38.94-1.88c0,8-.63,21.23-.82,32-.29,16.43.35,32.58.69,49s-.06,32.68,0,49.09c0,9.77.15,18.91.15,24.91"/><path class="cls-5" d="M42.59-2.13l.1,82.42,0,13.47,0,17.8c0,14.28-.31,28.29-.15,42.56"/><path class="cls-5" d="M47.08,2.12c.61,54.1.93,121,0,153"/><path class="cls-5" d="M50.35,2.12C50.94,30.34,50,55,49.89,83.28c-.13,26.41-.29,45.63.46,71.84"/><path class="cls-5" d="M51.72.12c.26,26.4-.12,52.09-.21,78.5s.6,51.14.21,77.5"/><path class="cls-5" d="M53.1,1.12c.61,22.93-.31,73.57.24,110.46.21,14.63-.24,36.54-.24,43.54"/><path class="cls-5" d="M18.82.12c0,8-.35,21.23-.16,32,.29,16.43.83,32.58.49,49S19,113.8,19,130.21c0,9.77-.15,18.91-.15,24.91"/><path class="cls-5" d="M45.83-.13l-.1,82.42,0,13.47,0,17.8c0,14.28.31,28.29.15,42.56"/><path class="cls-5" d="M49.15,1.12c-.62,54.1-.93,121,0,153"/><path class="cls-5" d="M25.9,1.12c-.59,28.22-.17,52.87,0,81.16.13,26.39.78,45.55,0,71.84"/><path class="cls-5" d="M23.55-.88c-.25,26.4-.35,52.56-.26,79s-.13,50.67.26,77"/><path class="cls-5" d="M22.18.12c-.62,23,.31,73.66-.24,110.46-.22,14.63.24,36.54.24,43.54"/><path class="cls-5" d="M20.94-.88c0,8-.63,21.23-.82,32-.29,16.43.35,32.58.69,49s-.06,32.68,0,49.09c0,9.77.15,18.91.15,24.91"/><path class="cls-5" d="M24.59-.13l.1,82.42,0,13.47,0,17.8c0,14.28-.31,28.29-.15,42.56"/><rect class="cls-4" x="-18.03" y="-0.5" width="36" height="153"/><path class="cls-5" d="M.82-1.88c0,8-.35,21.23-.16,32,.29,16.43.83,32.58.49,49S1,111.8,1,128.21C1,138,.82,147.12.82,153.12"/><path class="cls-5" d="M7.9.12c-.59,28.22-.17,52.87,0,81.16.13,26.39.78,45.55,0,71.84"/><path class="cls-5" d="M5.55-2.88c-.25,26.4-.35,52.56-.26,79s-.13,50.67.26,77"/><path class="cls-5" d="M4.18-.88c-.62,23,.31,73.66-.24,110.46-.22,14.63.24,36.54.24,43.54"/><path class="cls-5" d="M2.94-1.88c0,8-.63,21.23-.82,32-.29,16.43.35,32.58.69,49s-.06,32.68,0,49.09c0,9.77.15,18.91.15,24.91"/><path class="cls-5" d="M6.59-2.13l.1,82.42,0,13.47,0,17.8c0,14.28-.31,28.29-.15,42.56"/><path class="cls-5" d="M11.08,2.12c.61,54.1.93,121,0,153"/><path class="cls-5" d="M14.35,2.12C14.94,30.34,14,55,13.89,83.28c-.13,26.41-.29,45.63.46,71.84"/><path class="cls-5" d="M15.72.12c.26,26.4-.12,52.09-.21,78.5s.6,51.14.21,77.5"/><path class="cls-5" d="M17.1,1.12c.61,22.93-.31,73.57.24,110.46.21,14.63-.24,36.54-.24,43.54"/><path class="cls-5" d="M9.83-.13l-.1,82.42,0,13.47,0,17.8c0,14.28.31,28.29.15,42.56"/><path class="cls-5" d="M13.15,1.12c-.62,54.1-.93,121,0,153"/><path class="cls-5" d="M137.08-152.88c.61,54.1.93,121,0,153"/><path class="cls-5" d="M140.35-152.88c.59,28.22-.32,52.87-.46,81.16-.13,26.41-.29,45.63.46,71.84"/><path class="cls-5" d="M141.72-155.88c.26,26.4-.12,52.09-.21,78.5s.6,51.14.21,77.5"/><path class="cls-5" d="M143.1-153.88c.61,22.93-.31,73.57.24,110.46.21,14.63-.24,36.54-.24,43.54"/><path class="cls-5" d="M135.83-156.13l-.1,82.42,0,13.47,0,17.8c0,14.28.31,28.29.15,42.56"/><path class="cls-5" d="M139.15-152.88c-.62,54.1-.93,121,0,153"/><path class="cls-5" d="M126.82-152.88c0,8-.35,21.23-.16,32,.29,16.43.83,32.58.49,49S127-39.2,127-22.79c0,9.77-.15,18.91-.15,24.91"/><path class="cls-5" d="M133.9-151.88c-.59,28.22-.17,52.87,0,81.16.13,26.39.78,45.55,0,71.84"/><path class="cls-5" d="M131.55-153.88c-.25,26.4-.35,52.56-.26,79s-.13,50.67.26,77"/><path class="cls-5" d="M130.18-152.88c-.62,23,.31,73.66-.24,110.46-.22,14.63.24,36.54.24,43.54"/><path class="cls-5" d="M128.94-153.88c0,8-.63,21.23-.82,32-.29,16.43.35,32.58.69,49s-.06,32.68,0,49.09c0,9.77.15,18.91.15,24.91"/><path class="cls-5" d="M132.59-153.13l.1,82.42,0,13.47,0,17.8c0,14.28-.31,28.29-.15,42.56"/><path class="cls-5" d="M101.08-152.88c.61,54.1.93,121,0,153"/><path class="cls-5" d="M104.35-152.88c.59,28.22-.32,52.87-.46,81.16-.13,26.41-.29,45.63.46,71.84"/><path class="cls-5" d="M105.72-155.88c.26,26.4-.12,52.09-.21,78.5s.6,51.14.21,77.5"/><path class="cls-5" d="M107.1-153.88c.61,22.93-.31,73.57.24,110.46.21,14.63-.24,36.54-.24,43.54"/><path class="cls-5" d="M108.82-154.88c0,8-.35,21.23-.16,32,.29,16.43.83,32.58.49,49S109-41.2,109-24.79c0,9.77-.15,18.91-.15,24.91"/><path class="cls-5" d="M99.83-156.13l-.1,82.42,0,13.47,0,17.8c0,14.28.31,28.29.15,42.56"/><path class="cls-5" d="M103.15-152.88c-.62,54.1-.93,121,0,153"/><path class="cls-5" d="M115.9-152.88c-.59,28.22-.17,52.87,0,81.16.13,26.39.78,45.55,0,71.84"/><path class="cls-5" d="M113.55-155.88c-.25,26.4-.35,52.56-.26,79s-.13,50.67.26,77"/><path class="cls-5" d="M112.18-153.88c-.62,23,.31,73.66-.24,110.46-.22,14.63.24,36.54.24,43.54"/><path class="cls-5" d="M110.94-154.88c0,8-.63,21.23-.82,32-.29,16.43.35,32.58.69,49s-.06,32.68,0,49.09c0,9.77.15,18.91.15,24.91"/><path class="cls-5" d="M114.59-155.13l.1,82.42,0,13.47,0,17.8c0,14.28-.31,28.29-.15,42.56"/><path class="cls-5" d="M119.08-150.88c.61,54.1.93,121,0,153"/><path class="cls-5" d="M122.35-150.88c.59,28.22-.32,52.87-.46,81.16-.13,26.41-.29,45.63.46,71.84"/><path class="cls-5" d="M123.72-152.88c.26,26.4-.12,52.09-.21,78.5s.6,51.14.21,77.5"/><path class="cls-5" d="M125.1-151.88c.61,22.93-.31,73.57.24,110.46.21,14.63-.24,36.54-.24,43.54"/><path class="cls-5" d="M90.82-152.88c0,8-.35,21.23-.16,32,.29,16.43.83,32.58.49,49S91-39.2,91-22.79c0,9.77-.15,18.91-.15,24.91"/><path class="cls-5" d="M117.83-153.13l-.1,82.42,0,13.47,0,17.8c0,14.28.31,28.29.15,42.56"/><path class="cls-5" d="M121.15-151.88c-.62,54.1-.93,121,0,153"/><path class="cls-5" d="M97.9-151.88c-.59,28.22-.17,52.87,0,81.16.13,26.39.78,45.55,0,71.84"/><path class="cls-5" d="M95.55-153.88c-.25,26.4-.35,52.56-.26,79s-.13,50.67.26,77"/><path class="cls-5" d="M94.18-152.88c-.62,23,.31,73.66-.24,110.46-.22,14.63.24,36.54.24,43.54"/><path class="cls-5" d="M92.94-153.88c0,8-.63,21.23-.82,32-.29,16.43.35,32.58.69,49s-.06,32.68,0,49.09c0,9.77.15,18.91.15,24.91"/><path class="cls-5" d="M96.59-153.13l.1,82.42,0,13.47,0,17.8c0,14.28-.31,28.29-.15,42.56"/><path class="cls-5" d="M65.08-152.88c.61,54.1.93,121,0,153"/><path class="cls-5" d="M68.35-152.88c.59,28.22-.32,52.87-.46,81.16-.13,26.41-.29,45.63.46,71.84"/><path class="cls-5" d="M69.72-155.88c.26,26.4-.12,52.09-.21,78.5s.6,51.14.21,77.5"/><path class="cls-5" d="M71.1-153.88c.61,22.93-.31,73.57.24,110.46C71.55-28.79,71.1-6.88,71.1.12"/><path class="cls-5" d="M72.82-154.88c0,8-.35,21.23-.16,32,.29,16.43.83,32.58.49,49S73-41.2,73-24.79C73-15,72.82-5.88,72.82.12"/><path class="cls-5" d="M63.83-156.13l-.1,82.42,0,13.47,0,17.8c0,14.28.31,28.29.15,42.56"/><path class="cls-5" d="M67.15-152.88c-.62,54.1-.93,121,0,153"/><path class="cls-5" d="M79.9-152.88c-.59,28.22-.17,52.87,0,81.16.13,26.39.78,45.55,0,71.84"/><path class="cls-5" d="M77.55-155.88c-.25,26.4-.35,52.56-.26,79s-.13,50.67.26,77"/><path class="cls-5" d="M76.18-153.88c-.62,23,.31,73.66-.24,110.46-.22,14.63.24,36.54.24,43.54"/><path class="cls-5" d="M74.94-154.88c0,8-.63,21.23-.82,32-.29,16.43.35,32.58.69,49s-.06,32.68,0,49.09c0,9.77.15,18.91.15,24.91"/><path class="cls-5" d="M78.59-155.13l.1,82.42,0,13.47,0,17.8c0,14.28-.31,28.29-.15,42.56"/><path class="cls-5" d="M83.08-150.88c.61,54.1.93,121,0,153"/><path class="cls-5" d="M86.35-150.88c.59,28.22-.32,52.87-.46,81.16-.13,26.41-.29,45.63.46,71.84"/><path class="cls-5" d="M87.72-152.88c.26,26.4-.12,52.09-.21,78.5s.6,51.14.21,77.5"/><path class="cls-5" d="M89.1-151.88c.61,22.93-.31,73.57.24,110.46.21,14.63-.24,36.54-.24,43.54"/><path class="cls-5" d="M54.82-152.88c0,8-.35,21.23-.16,32,.29,16.43.83,32.58.49,49S55-39.2,55-22.79c0,9.77-.15,18.91-.15,24.91"/><path class="cls-5" d="M81.83-153.13l-.1,82.42,0,13.47,0,17.8c0,14.28.31,28.29.15,42.56"/><path class="cls-5" d="M85.15-151.88c-.62,54.1-.93,121,0,153"/><path class="cls-5" d="M61.9-151.88c-.59,28.22-.17,52.87,0,81.16.13,26.39.78,45.55,0,71.84"/><path class="cls-5" d="M59.55-153.88c-.25,26.4-.35,52.56-.26,79s-.13,50.67.26,77"/><path class="cls-5" d="M58.18-152.88c-.62,23,.31,73.66-.24,110.46-.22,14.63.24,36.54.24,43.54"/><path class="cls-5" d="M56.94-153.88c0,8-.63,21.23-.82,32-.29,16.43.35,32.58.69,49s-.06,32.68,0,49.09c0,9.77.15,18.91.15,24.91"/><path class="cls-5" d="M60.59-153.13l.1,82.42,0,13.47,0,17.8c0,14.28-.31,28.29-.15,42.56"/><path class="cls-5" d="M29.08-152.88c.61,54.1.93,121,0,153"/><path class="cls-5" d="M32.35-152.88c.59,28.22-.32,52.87-.46,81.16-.13,26.41-.29,45.63.46,71.84"/><path class="cls-5" d="M33.72-155.88c.26,26.4-.12,52.09-.21,78.5s.6,51.14.21,77.5"/><path class="cls-5" d="M35.1-153.88c.61,22.93-.31,73.57.24,110.46C35.55-28.79,35.1-6.88,35.1.12"/><path class="cls-5" d="M36.82-154.88c0,8-.35,21.23-.16,32,.29,16.43.83,32.58.49,49S37-41.2,37-24.79C37-15,36.82-5.88,36.82.12"/><path class="cls-5" d="M27.83-156.13l-.1,82.42,0,13.47,0,17.8c0,14.28.31,28.29.15,42.56"/><path class="cls-5" d="M31.15-152.88c-.62,54.1-.93,121,0,153"/><path class="cls-5" d="M43.9-152.88c-.59,28.22-.17,52.87,0,81.16.13,26.39.78,45.55,0,71.84"/><path class="cls-5" d="M41.55-155.88c-.25,26.4-.35,52.56-.26,79s-.13,50.67.26,77"/><path class="cls-5" d="M40.18-153.88c-.62,23,.31,73.66-.24,110.46-.22,14.63.24,36.54.24,43.54"/><path class="cls-5" d="M38.94-154.88c0,8-.63,21.23-.82,32-.29,16.43.35,32.58.69,49s-.06,32.68,0,49.09c0,9.77.15,18.91.15,24.91"/><path class="cls-5" d="M42.59-155.13l.1,82.42,0,13.47,0,17.8c0,14.28-.31,28.29-.15,42.56"/><path class="cls-5" d="M47.08-150.88c.61,54.1.93,121,0,153"/><path class="cls-5" d="M50.35-150.88c.59,28.22-.32,52.87-.46,81.16-.13,26.41-.29,45.63.46,71.84"/><path class="cls-5" d="M51.72-152.88c.26,26.4-.12,52.09-.21,78.5s.6,51.14.21,77.5"/><path class="cls-5" d="M53.1-151.88c.61,22.93-.31,73.57.24,110.46.21,14.63-.24,36.54-.24,43.54"/><path class="cls-5" d="M18.82-152.88c0,8-.35,21.23-.16,32,.29,16.43.83,32.58.49,49S19-39.2,19-22.79c0,9.77-.15,18.91-.15,24.91"/><path class="cls-5" d="M45.83-153.13l-.1,82.42,0,13.47,0,17.8c0,14.28.31,28.29.15,42.56"/><path class="cls-5" d="M49.15-151.88c-.62,54.1-.93,121,0,153"/><path class="cls-5" d="M25.9-151.88c-.59,28.22-.17,52.87,0,81.16.13,26.39.78,45.55,0,71.84"/><path class="cls-5" d="M23.55-153.88c-.25,26.4-.35,52.56-.26,79s-.13,50.67.26,77"/><path class="cls-5" d="M22.18-152.88c-.62,23,.31,73.66-.24,110.46-.22,14.63.24,36.54.24,43.54"/><path class="cls-5" d="M20.94-153.88c0,8-.63,21.23-.82,32-.29,16.43.35,32.58.69,49s-.06,32.68,0,49.09c0,9.77.15,18.91.15,24.91"/><path class="cls-5" d="M24.59-153.13l.1,82.42,0,13.47,0,17.8c0,14.28-.31,28.29-.15,42.56"/><path class="cls-5" d="M.82-154.88c0,8-.35,21.23-.16,32,.29,16.43.83,32.58.49,49S1-41.2,1-24.79C1-15,.82-5.88.82.12"/><path class="cls-5" d="M7.9-152.88c-.59,28.22-.17,52.87,0,81.16C8-45.33,8.65-26.17,7.9.12"/><path class="cls-5" d="M5.55-155.88c-.25,26.4-.35,52.56-.26,79s-.13,50.67.26,77"/><path class="cls-5" d="M4.18-153.88c-.62,23,.31,73.66-.24,110.46C3.72-28.79,4.18-6.88,4.18.12"/><path class="cls-5" d="M2.94-154.88c0,8-.63,21.23-.82,32-.29,16.43.35,32.58.69,49s-.06,32.68,0,49.09c0,9.77.15,18.91.15,24.91"/><path class="cls-5" d="M6.59-155.13l.1,82.42,0,13.47,0,17.8c0,14.28-.31,28.29-.15,42.56"/><path class="cls-5" d="M11.08-150.88c.61,54.1.93,121,0,153"/><path class="cls-5" d="M14.35-150.88c.59,28.22-.32,52.87-.46,81.16-.13,26.41-.29,45.63.46,71.84"/><path class="cls-5" d="M15.72-152.88c.26,26.4-.12,52.09-.21,78.5s.6,51.14.21,77.5"/><path class="cls-5" d="M17.1-151.88c.61,22.93-.31,73.57.24,110.46.21,14.63-.24,36.54-.24,43.54"/><path class="cls-5" d="M9.83-153.13l-.1,82.42,0,13.47,0,17.8c0,14.28.31,28.29.15,42.56"/><path class="cls-5" d="M13.15-151.88c-.62,54.1-.93,121,0,153"/></pattern><pattern id="New_Pattern_Swatch_8-3" data-name="New Pattern Swatch 8" width="144" height="153" patternTransform="matrix(0, 1.55, 1.55, 0, 205.32, 603.94)" patternUnits="userSpaceOnUse" viewBox="0 0 144 153"><rect class="cls-1" width="144" height="153"/><rect class="cls-4" x="125.97" y="152.5" width="36" height="153"/><path class="cls-5" d="M141.72,150.12c.26,26.4-.12,52.09-.21,78.5s.6,51.14.21,77.5"/><path class="cls-5" d="M143.1,152.12c.61,22.93-.31,73.57.24,110.46.21,14.63-.24,36.54-.24,43.54"/><path class="cls-5" d="M135.83,149.87l-.1,82.42,0,13.47,0,17.8c0,14.28.31,28.29.15,42.56"/><path class="cls-5" d="M131.55,152.12c-.25,26.4-.35,52.56-.26,79s-.13,50.67.26,77"/><path class="cls-5" d="M128.94,152.12c0,8-.63,21.23-.82,32-.29,16.43.35,32.58.69,49s-.06,32.68,0,49.09c0,9.77.15,18.91.15,24.91"/><path class="cls-5" d="M132.59,152.87l.1,82.42,0,13.47,0,17.8c0,14.28-.31,28.29-.15,42.56"/><rect class="cls-4" x="89.97" y="152.5" width="36" height="153"/><path class="cls-5" d="M105.72,150.12c.26,26.4-.12,52.09-.21,78.5s.6,51.14.21,77.5"/><path class="cls-5" d="M107.1,152.12c.61,22.93-.31,73.57.24,110.46.21,14.63-.24,36.54-.24,43.54"/><path class="cls-5" d="M108.82,151.12c0,8-.35,21.23-.16,32,.29,16.43.83,32.58.49,49S109,264.8,109,281.21c0,9.77-.15,18.91-.15,24.91"/><path class="cls-5" d="M99.83,149.87l-.1,82.42,0,13.47,0,17.8c0,14.28.31,28.29.15,42.56"/><path class="cls-5" d="M113.55,150.12c-.25,26.4-.35,52.56-.26,79s-.13,50.67.26,77"/><path class="cls-5" d="M112.18,152.12c-.62,23,.31,73.66-.24,110.46-.22,14.63.24,36.54.24,43.54"/><path class="cls-5" d="M110.94,151.12c0,8-.63,21.23-.82,32-.29,16.43.35,32.58.69,49s-.06,32.68,0,49.09c0,9.77.15,18.91.15,24.91"/><path class="cls-5" d="M114.59,150.87l.1,82.42,0,13.47,0,17.8c0,14.28-.31,28.29-.15,42.56"/><path class="cls-5" d="M117.83,152.87l-.1,82.42,0,13.47,0,17.8c0,14.28.31,28.29.15,42.56"/><path class="cls-5" d="M95.55,152.12c-.25,26.4-.35,52.56-.26,79s-.13,50.67.26,77"/><path class="cls-5" d="M92.94,152.12c0,8-.63,21.23-.82,32-.29,16.43.35,32.58.69,49s-.06,32.68,0,49.09c0,9.77.15,18.91.15,24.91"/><path class="cls-5" d="M96.59,152.87l.1,82.42,0,13.47,0,17.8c0,14.28-.31,28.29-.15,42.56"/><rect class="cls-4" x="53.97" y="152.5" width="36" height="153"/><path class="cls-5" d="M69.72,150.12c.26,26.4-.12,52.09-.21,78.5s.6,51.14.21,77.5"/><path class="cls-5" d="M71.1,152.12c.61,22.93-.31,73.57.24,110.46.21,14.63-.24,36.54-.24,43.54"/><path class="cls-5" d="M72.82,151.12c0,8-.35,21.23-.16,32,.29,16.43.83,32.58.49,49S73,264.8,73,281.21c0,9.77-.15,18.91-.15,24.91"/><path class="cls-5" d="M63.83,149.87l-.1,82.42,0,13.47,0,17.8c0,14.28.31,28.29.15,42.56"/><path class="cls-5" d="M77.55,150.12c-.25,26.4-.35,52.56-.26,79s-.13,50.67.26,77"/><path class="cls-5" d="M76.18,152.12c-.62,23,.31,73.66-.24,110.46-.22,14.63.24,36.54.24,43.54"/><path class="cls-5" d="M74.94,151.12c0,8-.63,21.23-.82,32-.29,16.43.35,32.58.69,49s-.06,32.68,0,49.09c0,9.77.15,18.91.15,24.91"/><path class="cls-5" d="M78.59,150.87l.1,82.42,0,13.47,0,17.8c0,14.28-.31,28.29-.15,42.56"/><path class="cls-5" d="M81.83,152.87l-.1,82.42,0,13.47,0,17.8c0,14.28.31,28.29.15,42.56"/><path class="cls-5" d="M59.55,152.12c-.25,26.4-.35,52.56-.26,79s-.13,50.67.26,77"/><path class="cls-5" d="M56.94,152.12c0,8-.63,21.23-.82,32-.29,16.43.35,32.58.69,49s-.06,32.68,0,49.09c0,9.77.15,18.91.15,24.91"/><path class="cls-5" d="M60.59,152.87l.1,82.42,0,13.47,0,17.8c0,14.28-.31,28.29-.15,42.56"/><rect class="cls-4" x="17.97" y="152.5" width="36" height="153"/><path class="cls-5" d="M33.72,150.12c.26,26.4-.12,52.09-.21,78.5s.6,51.14.21,77.5"/><path class="cls-5" d="M35.1,152.12c.61,22.93-.31,73.57.24,110.46.21,14.63-.24,36.54-.24,43.54"/><path class="cls-5" d="M36.82,151.12c0,8-.35,21.23-.16,32,.29,16.43.83,32.58.49,49S37,264.8,37,281.21c0,9.77-.15,18.91-.15,24.91"/><path class="cls-5" d="M27.83,149.87l-.1,82.42,0,13.47,0,17.8c0,14.28.31,28.29.15,42.56"/><path class="cls-5" d="M41.55,150.12c-.25,26.4-.35,52.56-.26,79s-.13,50.67.26,77"/><path class="cls-5" d="M40.18,152.12c-.62,23,.31,73.66-.24,110.46-.22,14.63.24,36.54.24,43.54"/><path class="cls-5" d="M38.94,151.12c0,8-.63,21.23-.82,32-.29,16.43.35,32.58.69,49s-.06,32.68,0,49.09c0,9.77.15,18.91.15,24.91"/><path class="cls-5" d="M42.59,150.87l.1,82.42,0,13.47,0,17.8c0,14.28-.31,28.29-.15,42.56"/><path class="cls-5" d="M45.83,152.87l-.1,82.42,0,13.47,0,17.8c0,14.28.31,28.29.15,42.56"/><path class="cls-5" d="M23.55,152.12c-.25,26.4-.35,52.56-.26,79s-.13,50.67.26,77"/><path class="cls-5" d="M20.94,152.12c0,8-.63,21.23-.82,32-.29,16.43.35,32.58.69,49s-.06,32.68,0,49.09c0,9.77.15,18.91.15,24.91"/><path class="cls-5" d="M24.59,152.87l.1,82.42,0,13.47,0,17.8c0,14.28-.31,28.29-.15,42.56"/><rect class="cls-4" x="-18.03" y="152.5" width="36" height="153"/><path class="cls-5" d="M.82,151.12c0,8-.35,21.23-.16,32,.29,16.43.83,32.58.49,49S1,264.8,1,281.21C1,291,.82,300.12.82,306.12"/><path class="cls-5" d="M5.55,150.12c-.25,26.4-.35,52.56-.26,79s-.13,50.67.26,77"/><path class="cls-5" d="M4.18,152.12c-.62,23,.31,73.66-.24,110.46-.22,14.63.24,36.54.24,43.54"/><path class="cls-5" d="M2.94,151.12c0,8-.63,21.23-.82,32-.29,16.43.35,32.58.69,49s-.06,32.68,0,49.09c0,9.77.15,18.91.15,24.91"/><path class="cls-5" d="M6.59,150.87l.1,82.42,0,13.47,0,17.8c0,14.28-.31,28.29-.15,42.56"/><path class="cls-5" d="M9.83,152.87l-.1,82.42,0,13.47,0,17.8c0,14.28.31,28.29.15,42.56"/><rect class="cls-4" x="125.97" y="-0.5" width="36" height="153"/><path class="cls-5" d="M137.08.12c.61,54.1.93,121,0,153"/><path class="cls-5" d="M140.35.12c.59,28.22-.32,52.87-.46,81.16-.13,26.41-.29,45.63.46,71.84"/><path class="cls-5" d="M141.72-2.88c.26,26.4-.12,52.09-.21,78.5s.6,51.14.21,77.5"/><path class="cls-5" d="M143.1-.88c.61,22.93-.31,73.57.24,110.46.21,14.63-.24,36.54-.24,43.54"/><path class="cls-5" d="M135.83-3.13l-.1,82.42,0,13.47,0,17.8c0,14.28.31,28.29.15,42.56"/><path class="cls-5" d="M139.15.12c-.62,54.1-.93,121,0,153"/><path class="cls-5" d="M126.82.12c0,8-.35,21.23-.16,32,.29,16.43.83,32.58.49,49S127,113.8,127,130.21c0,9.77-.15,18.91-.15,24.91"/><path class="cls-5" d="M133.9,1.12c-.59,28.22-.17,52.87,0,81.16.13,26.39.78,45.55,0,71.84"/><path class="cls-5" d="M131.55-.88c-.25,26.4-.35,52.56-.26,79s-.13,50.67.26,77"/><path class="cls-5" d="M130.18.12c-.62,23,.31,73.66-.24,110.46-.22,14.63.24,36.54.24,43.54"/><path class="cls-5" d="M128.94-.88c0,8-.63,21.23-.82,32-.29,16.43.35,32.58.69,49s-.06,32.68,0,49.09c0,9.77.15,18.91.15,24.91"/><path class="cls-5" d="M132.59-.13l.1,82.42,0,13.47,0,17.8c0,14.28-.31,28.29-.15,42.56"/><rect class="cls-4" x="89.97" y="-0.5" width="36" height="153"/><path class="cls-5" d="M101.08.12c.61,54.1.93,121,0,153"/><path class="cls-5" d="M104.35.12c.59,28.22-.32,52.87-.46,81.16-.13,26.41-.29,45.63.46,71.84"/><path class="cls-5" d="M105.72-2.88c.26,26.4-.12,52.09-.21,78.5s.6,51.14.21,77.5"/><path class="cls-5" d="M107.1-.88c.61,22.93-.31,73.57.24,110.46.21,14.63-.24,36.54-.24,43.54"/><path class="cls-5" d="M108.82-1.88c0,8-.35,21.23-.16,32,.29,16.43.83,32.58.49,49S109,111.8,109,128.21c0,9.77-.15,18.91-.15,24.91"/><path class="cls-5" d="M99.83-3.13l-.1,82.42,0,13.47,0,17.8c0,14.28.31,28.29.15,42.56"/><path class="cls-5" d="M103.15.12c-.62,54.1-.93,121,0,153"/><path class="cls-5" d="M115.9.12c-.59,28.22-.17,52.87,0,81.16.13,26.39.78,45.55,0,71.84"/><path class="cls-5" d="M113.55-2.88c-.25,26.4-.35,52.56-.26,79s-.13,50.67.26,77"/><path class="cls-5" d="M112.18-.88c-.62,23,.31,73.66-.24,110.46-.22,14.63.24,36.54.24,43.54"/><path class="cls-5" d="M110.94-1.88c0,8-.63,21.23-.82,32-.29,16.43.35,32.58.69,49s-.06,32.68,0,49.09c0,9.77.15,18.91.15,24.91"/><path class="cls-5" d="M114.59-2.13l.1,82.42,0,13.47,0,17.8c0,14.28-.31,28.29-.15,42.56"/><path class="cls-5" d="M119.08,2.12c.61,54.1.93,121,0,153"/><path class="cls-5" d="M122.35,2.12c.59,28.22-.32,52.87-.46,81.16-.13,26.41-.29,45.63.46,71.84"/><path class="cls-5" d="M123.72.12c.26,26.4-.12,52.09-.21,78.5s.6,51.14.21,77.5"/><path class="cls-5" d="M125.1,1.12c.61,22.93-.31,73.57.24,110.46.21,14.63-.24,36.54-.24,43.54"/><path class="cls-5" d="M90.82.12c0,8-.35,21.23-.16,32,.29,16.43.83,32.58.49,49S91,113.8,91,130.21c0,9.77-.15,18.91-.15,24.91"/><path class="cls-5" d="M117.83-.13l-.1,82.42,0,13.47,0,17.8c0,14.28.31,28.29.15,42.56"/><path class="cls-5" d="M121.15,1.12c-.62,54.1-.93,121,0,153"/><path class="cls-5" d="M97.9,1.12c-.59,28.22-.17,52.87,0,81.16.13,26.39.78,45.55,0,71.84"/><path class="cls-5" d="M95.55-.88c-.25,26.4-.35,52.56-.26,79s-.13,50.67.26,77"/><path class="cls-5" d="M94.18.12c-.62,23,.31,73.66-.24,110.46-.22,14.63.24,36.54.24,43.54"/><path class="cls-5" d="M92.94-.88c0,8-.63,21.23-.82,32-.29,16.43.35,32.58.69,49s-.06,32.68,0,49.09c0,9.77.15,18.91.15,24.91"/><path class="cls-5" d="M96.59-.13l.1,82.42,0,13.47,0,17.8c0,14.28-.31,28.29-.15,42.56"/><rect class="cls-4" x="53.97" y="-0.5" width="36" height="153"/><path class="cls-5" d="M65.08.12c.61,54.1.93,121,0,153"/><path class="cls-5" d="M68.35.12C68.94,28.34,68,53,67.89,81.28c-.13,26.41-.29,45.63.46,71.84"/><path class="cls-5" d="M69.72-2.88c.26,26.4-.12,52.09-.21,78.5s.6,51.14.21,77.5"/><path class="cls-5" d="M71.1-.88c.61,22.93-.31,73.57.24,110.46.21,14.63-.24,36.54-.24,43.54"/><path class="cls-5" d="M72.82-1.88c0,8-.35,21.23-.16,32,.29,16.43.83,32.58.49,49S73,111.8,73,128.21c0,9.77-.15,18.91-.15,24.91"/><path class="cls-5" d="M63.83-3.13l-.1,82.42,0,13.47,0,17.8c0,14.28.31,28.29.15,42.56"/><path class="cls-5" d="M67.15.12c-.62,54.1-.93,121,0,153"/><path class="cls-5" d="M79.9.12c-.59,28.22-.17,52.87,0,81.16.13,26.39.78,45.55,0,71.84"/><path class="cls-5" d="M77.55-2.88c-.25,26.4-.35,52.56-.26,79s-.13,50.67.26,77"/><path class="cls-5" d="M76.18-.88c-.62,23,.31,73.66-.24,110.46-.22,14.63.24,36.54.24,43.54"/><path class="cls-5" d="M74.94-1.88c0,8-.63,21.23-.82,32-.29,16.43.35,32.58.69,49s-.06,32.68,0,49.09c0,9.77.15,18.91.15,24.91"/><path class="cls-5" d="M78.59-2.13l.1,82.42,0,13.47,0,17.8c0,14.28-.31,28.29-.15,42.56"/><path class="cls-5" d="M83.08,2.12c.61,54.1.93,121,0,153"/><path class="cls-5" d="M86.35,2.12C86.94,30.34,86,55,85.89,83.28c-.13,26.41-.29,45.63.46,71.84"/><path class="cls-5" d="M87.72.12c.26,26.4-.12,52.09-.21,78.5s.6,51.14.21,77.5"/><path class="cls-5" d="M89.1,1.12c.61,22.93-.31,73.57.24,110.46.21,14.63-.24,36.54-.24,43.54"/><path class="cls-5" d="M54.82.12c0,8-.35,21.23-.16,32,.29,16.43.83,32.58.49,49S55,113.8,55,130.21c0,9.77-.15,18.91-.15,24.91"/><path class="cls-5" d="M81.83-.13l-.1,82.42,0,13.47,0,17.8c0,14.28.31,28.29.15,42.56"/><path class="cls-5" d="M85.15,1.12c-.62,54.1-.93,121,0,153"/><path class="cls-5" d="M61.9,1.12c-.59,28.22-.17,52.87,0,81.16.13,26.39.78,45.55,0,71.84"/><path class="cls-5" d="M59.55-.88c-.25,26.4-.35,52.56-.26,79s-.13,50.67.26,77"/><path class="cls-5" d="M58.18.12c-.62,23,.31,73.66-.24,110.46-.22,14.63.24,36.54.24,43.54"/><path class="cls-5" d="M56.94-.88c0,8-.63,21.23-.82,32-.29,16.43.35,32.58.69,49s-.06,32.68,0,49.09c0,9.77.15,18.91.15,24.91"/><path class="cls-5" d="M60.59-.13l.1,82.42,0,13.47,0,17.8c0,14.28-.31,28.29-.15,42.56"/><rect class="cls-4" x="17.97" y="-0.5" width="36" height="153"/><path class="cls-5" d="M29.08.12c.61,54.1.93,121,0,153"/><path class="cls-5" d="M32.35.12C32.94,28.34,32,53,31.89,81.28c-.13,26.41-.29,45.63.46,71.84"/><path class="cls-5" d="M33.72-2.88c.26,26.4-.12,52.09-.21,78.5s.6,51.14.21,77.5"/><path class="cls-5" d="M35.1-.88c.61,22.93-.31,73.57.24,110.46.21,14.63-.24,36.54-.24,43.54"/><path class="cls-5" d="M36.82-1.88c0,8-.35,21.23-.16,32,.29,16.43.83,32.58.49,49S37,111.8,37,128.21c0,9.77-.15,18.91-.15,24.91"/><path class="cls-5" d="M27.83-3.13l-.1,82.42,0,13.47,0,17.8c0,14.28.31,28.29.15,42.56"/><path class="cls-5" d="M31.15.12c-.62,54.1-.93,121,0,153"/><path class="cls-5" d="M43.9.12c-.59,28.22-.17,52.87,0,81.16.13,26.39.78,45.55,0,71.84"/><path class="cls-5" d="M41.55-2.88c-.25,26.4-.35,52.56-.26,79s-.13,50.67.26,77"/><path class="cls-5" d="M40.18-.88c-.62,23,.31,73.66-.24,110.46-.22,14.63.24,36.54.24,43.54"/><path class="cls-5" d="M38.94-1.88c0,8-.63,21.23-.82,32-.29,16.43.35,32.58.69,49s-.06,32.68,0,49.09c0,9.77.15,18.91.15,24.91"/><path class="cls-5" d="M42.59-2.13l.1,82.42,0,13.47,0,17.8c0,14.28-.31,28.29-.15,42.56"/><path class="cls-5" d="M47.08,2.12c.61,54.1.93,121,0,153"/><path class="cls-5" d="M50.35,2.12C50.94,30.34,50,55,49.89,83.28c-.13,26.41-.29,45.63.46,71.84"/><path class="cls-5" d="M51.72.12c.26,26.4-.12,52.09-.21,78.5s.6,51.14.21,77.5"/><path class="cls-5" d="M53.1,1.12c.61,22.93-.31,73.57.24,110.46.21,14.63-.24,36.54-.24,43.54"/><path class="cls-5" d="M18.82.12c0,8-.35,21.23-.16,32,.29,16.43.83,32.58.49,49S19,113.8,19,130.21c0,9.77-.15,18.91-.15,24.91"/><path class="cls-5" d="M45.83-.13l-.1,82.42,0,13.47,0,17.8c0,14.28.31,28.29.15,42.56"/><path class="cls-5" d="M49.15,1.12c-.62,54.1-.93,121,0,153"/><path class="cls-5" d="M25.9,1.12c-.59,28.22-.17,52.87,0,81.16.13,26.39.78,45.55,0,71.84"/><path class="cls-5" d="M23.55-.88c-.25,26.4-.35,52.56-.26,79s-.13,50.67.26,77"/><path class="cls-5" d="M22.18.12c-.62,23,.31,73.66-.24,110.46-.22,14.63.24,36.54.24,43.54"/><path class="cls-5" d="M20.94-.88c0,8-.63,21.23-.82,32-.29,16.43.35,32.58.69,49s-.06,32.68,0,49.09c0,9.77.15,18.91.15,24.91"/><path class="cls-5" d="M24.59-.13l.1,82.42,0,13.47,0,17.8c0,14.28-.31,28.29-.15,42.56"/><rect class="cls-4" x="-18.03" y="-0.5" width="36" height="153"/><path class="cls-5" d="M.82-1.88c0,8-.35,21.23-.16,32,.29,16.43.83,32.58.49,49S1,111.8,1,128.21C1,138,.82,147.12.82,153.12"/><path class="cls-5" d="M7.9.12c-.59,28.22-.17,52.87,0,81.16.13,26.39.78,45.55,0,71.84"/><path class="cls-5" d="M5.55-2.88c-.25,26.4-.35,52.56-.26,79s-.13,50.67.26,77"/><path class="cls-5" d="M4.18-.88c-.62,23,.31,73.66-.24,110.46-.22,14.63.24,36.54.24,43.54"/><path class="cls-5" d="M2.94-1.88c0,8-.63,21.23-.82,32-.29,16.43.35,32.58.69,49s-.06,32.68,0,49.09c0,9.77.15,18.91.15,24.91"/><path class="cls-5" d="M6.59-2.13l.1,82.42,0,13.47,0,17.8c0,14.28-.31,28.29-.15,42.56"/><path class="cls-5" d="M11.08,2.12c.61,54.1.93,121,0,153"/><path class="cls-5" d="M14.35,2.12C14.94,30.34,14,55,13.89,83.28c-.13,26.41-.29,45.63.46,71.84"/><path class="cls-5" d="M15.72.12c.26,26.4-.12,52.09-.21,78.5s.6,51.14.21,77.5"/><path class="cls-5" d="M17.1,1.12c.61,22.93-.31,73.57.24,110.46.21,14.63-.24,36.54-.24,43.54"/><path class="cls-5" d="M9.83-.13l-.1,82.42,0,13.47,0,17.8c0,14.28.31,28.29.15,42.56"/><path class="cls-5" d="M13.15,1.12c-.62,54.1-.93,121,0,153"/><path class="cls-5" d="M137.08-152.88c.61,54.1.93,121,0,153"/><path class="cls-5" d="M140.35-152.88c.59,28.22-.32,52.87-.46,81.16-.13,26.41-.29,45.63.46,71.84"/><path class="cls-5" d="M141.72-155.88c.26,26.4-.12,52.09-.21,78.5s.6,51.14.21,77.5"/><path class="cls-5" d="M143.1-153.88c.61,22.93-.31,73.57.24,110.46.21,14.63-.24,36.54-.24,43.54"/><path class="cls-5" d="M135.83-156.13l-.1,82.42,0,13.47,0,17.8c0,14.28.31,28.29.15,42.56"/><path class="cls-5" d="M139.15-152.88c-.62,54.1-.93,121,0,153"/><path class="cls-5" d="M126.82-152.88c0,8-.35,21.23-.16,32,.29,16.43.83,32.58.49,49S127-39.2,127-22.79c0,9.77-.15,18.91-.15,24.91"/><path class="cls-5" d="M133.9-151.88c-.59,28.22-.17,52.87,0,81.16.13,26.39.78,45.55,0,71.84"/><path class="cls-5" d="M131.55-153.88c-.25,26.4-.35,52.56-.26,79s-.13,50.67.26,77"/><path class="cls-5" d="M130.18-152.88c-.62,23,.31,73.66-.24,110.46-.22,14.63.24,36.54.24,43.54"/><path class="cls-5" d="M128.94-153.88c0,8-.63,21.23-.82,32-.29,16.43.35,32.58.69,49s-.06,32.68,0,49.09c0,9.77.15,18.91.15,24.91"/><path class="cls-5" d="M132.59-153.13l.1,82.42,0,13.47,0,17.8c0,14.28-.31,28.29-.15,42.56"/><path class="cls-5" d="M101.08-152.88c.61,54.1.93,121,0,153"/><path class="cls-5" d="M104.35-152.88c.59,28.22-.32,52.87-.46,81.16-.13,26.41-.29,45.63.46,71.84"/><path class="cls-5" d="M105.72-155.88c.26,26.4-.12,52.09-.21,78.5s.6,51.14.21,77.5"/><path class="cls-5" d="M107.1-153.88c.61,22.93-.31,73.57.24,110.46.21,14.63-.24,36.54-.24,43.54"/><path class="cls-5" d="M108.82-154.88c0,8-.35,21.23-.16,32,.29,16.43.83,32.58.49,49S109-41.2,109-24.79c0,9.77-.15,18.91-.15,24.91"/><path class="cls-5" d="M99.83-156.13l-.1,82.42,0,13.47,0,17.8c0,14.28.31,28.29.15,42.56"/><path class="cls-5" d="M103.15-152.88c-.62,54.1-.93,121,0,153"/><path class="cls-5" d="M115.9-152.88c-.59,28.22-.17,52.87,0,81.16.13,26.39.78,45.55,0,71.84"/><path class="cls-5" d="M113.55-155.88c-.25,26.4-.35,52.56-.26,79s-.13,50.67.26,77"/><path class="cls-5" d="M112.18-153.88c-.62,23,.31,73.66-.24,110.46-.22,14.63.24,36.54.24,43.54"/><path class="cls-5" d="M110.94-154.88c0,8-.63,21.23-.82,32-.29,16.43.35,32.58.69,49s-.06,32.68,0,49.09c0,9.77.15,18.91.15,24.91"/><path class="cls-5" d="M114.59-155.13l.1,82.42,0,13.47,0,17.8c0,14.28-.31,28.29-.15,42.56"/><path class="cls-5" d="M119.08-150.88c.61,54.1.93,121,0,153"/><path class="cls-5" d="M122.35-150.88c.59,28.22-.32,52.87-.46,81.16-.13,26.41-.29,45.63.46,71.84"/><path class="cls-5" d="M123.72-152.88c.26,26.4-.12,52.09-.21,78.5s.6,51.14.21,77.5"/><path class="cls-5" d="M125.1-151.88c.61,22.93-.31,73.57.24,110.46.21,14.63-.24,36.54-.24,43.54"/><path class="cls-5" d="M90.82-152.88c0,8-.35,21.23-.16,32,.29,16.43.83,32.58.49,49S91-39.2,91-22.79c0,9.77-.15,18.91-.15,24.91"/><path class="cls-5" d="M117.83-153.13l-.1,82.42,0,13.47,0,17.8c0,14.28.31,28.29.15,42.56"/><path class="cls-5" d="M121.15-151.88c-.62,54.1-.93,121,0,153"/><path class="cls-5" d="M97.9-151.88c-.59,28.22-.17,52.87,0,81.16.13,26.39.78,45.55,0,71.84"/><path class="cls-5" d="M95.55-153.88c-.25,26.4-.35,52.56-.26,79s-.13,50.67.26,77"/><path class="cls-5" d="M94.18-152.88c-.62,23,.31,73.66-.24,110.46-.22,14.63.24,36.54.24,43.54"/><path class="cls-5" d="M92.94-153.88c0,8-.63,21.23-.82,32-.29,16.43.35,32.58.69,49s-.06,32.68,0,49.09c0,9.77.15,18.91.15,24.91"/><path class="cls-5" d="M96.59-153.13l.1,82.42,0,13.47,0,17.8c0,14.28-.31,28.29-.15,42.56"/><path class="cls-5" d="M65.08-152.88c.61,54.1.93,121,0,153"/><path class="cls-5" d="M68.35-152.88c.59,28.22-.32,52.87-.46,81.16-.13,26.41-.29,45.63.46,71.84"/><path class="cls-5" d="M69.72-155.88c.26,26.4-.12,52.09-.21,78.5s.6,51.14.21,77.5"/><path class="cls-5" d="M71.1-153.88c.61,22.93-.31,73.57.24,110.46C71.55-28.79,71.1-6.88,71.1.12"/><path class="cls-5" d="M72.82-154.88c0,8-.35,21.23-.16,32,.29,16.43.83,32.58.49,49S73-41.2,73-24.79C73-15,72.82-5.88,72.82.12"/><path class="cls-5" d="M63.83-156.13l-.1,82.42,0,13.47,0,17.8c0,14.28.31,28.29.15,42.56"/><path class="cls-5" d="M67.15-152.88c-.62,54.1-.93,121,0,153"/><path class="cls-5" d="M79.9-152.88c-.59,28.22-.17,52.87,0,81.16.13,26.39.78,45.55,0,71.84"/><path class="cls-5" d="M77.55-155.88c-.25,26.4-.35,52.56-.26,79s-.13,50.67.26,77"/><path class="cls-5" d="M76.18-153.88c-.62,23,.31,73.66-.24,110.46-.22,14.63.24,36.54.24,43.54"/><path class="cls-5" d="M74.94-154.88c0,8-.63,21.23-.82,32-.29,16.43.35,32.58.69,49s-.06,32.68,0,49.09c0,9.77.15,18.91.15,24.91"/><path class="cls-5" d="M78.59-155.13l.1,82.42,0,13.47,0,17.8c0,14.28-.31,28.29-.15,42.56"/><path class="cls-5" d="M83.08-150.88c.61,54.1.93,121,0,153"/><path class="cls-5" d="M86.35-150.88c.59,28.22-.32,52.87-.46,81.16-.13,26.41-.29,45.63.46,71.84"/><path class="cls-5" d="M87.72-152.88c.26,26.4-.12,52.09-.21,78.5s.6,51.14.21,77.5"/><path class="cls-5" d="M89.1-151.88c.61,22.93-.31,73.57.24,110.46.21,14.63-.24,36.54-.24,43.54"/><path class="cls-5" d="M54.82-152.88c0,8-.35,21.23-.16,32,.29,16.43.83,32.58.49,49S55-39.2,55-22.79c0,9.77-.15,18.91-.15,24.91"/><path class="cls-5" d="M81.83-153.13l-.1,82.42,0,13.47,0,17.8c0,14.28.31,28.29.15,42.56"/><path class="cls-5" d="M85.15-151.88c-.62,54.1-.93,121,0,153"/><path class="cls-5" d="M61.9-151.88c-.59,28.22-.17,52.87,0,81.16.13,26.39.78,45.55,0,71.84"/><path class="cls-5" d="M59.55-153.88c-.25,26.4-.35,52.56-.26,79s-.13,50.67.26,77"/><path class="cls-5" d="M58.18-152.88c-.62,23,.31,73.66-.24,110.46-.22,14.63.24,36.54.24,43.54"/><path class="cls-5" d="M56.94-153.88c0,8-.63,21.23-.82,32-.29,16.43.35,32.58.69,49s-.06,32.68,0,49.09c0,9.77.15,18.91.15,24.91"/><path class="cls-5" d="M60.59-153.13l.1,82.42,0,13.47,0,17.8c0,14.28-.31,28.29-.15,42.56"/><path class="cls-5" d="M29.08-152.88c.61,54.1.93,121,0,153"/><path class="cls-5" d="M32.35-152.88c.59,28.22-.32,52.87-.46,81.16-.13,26.41-.29,45.63.46,71.84"/><path class="cls-5" d="M33.72-155.88c.26,26.4-.12,52.09-.21,78.5s.6,51.14.21,77.5"/><path class="cls-5" d="M35.1-153.88c.61,22.93-.31,73.57.24,110.46C35.55-28.79,35.1-6.88,35.1.12"/><path class="cls-5" d="M36.82-154.88c0,8-.35,21.23-.16,32,.29,16.43.83,32.58.49,49S37-41.2,37-24.79C37-15,36.82-5.88,36.82.12"/><path class="cls-5" d="M27.83-156.13l-.1,82.42,0,13.47,0,17.8c0,14.28.31,28.29.15,42.56"/><path class="cls-5" d="M31.15-152.88c-.62,54.1-.93,121,0,153"/><path class="cls-5" d="M43.9-152.88c-.59,28.22-.17,52.87,0,81.16.13,26.39.78,45.55,0,71.84"/><path class="cls-5" d="M41.55-155.88c-.25,26.4-.35,52.56-.26,79s-.13,50.67.26,77"/><path class="cls-5" d="M40.18-153.88c-.62,23,.31,73.66-.24,110.46-.22,14.63.24,36.54.24,43.54"/><path class="cls-5" d="M38.94-154.88c0,8-.63,21.23-.82,32-.29,16.43.35,32.58.69,49s-.06,32.68,0,49.09c0,9.77.15,18.91.15,24.91"/><path class="cls-5" d="M42.59-155.13l.1,82.42,0,13.47,0,17.8c0,14.28-.31,28.29-.15,42.56"/><path class="cls-5" d="M47.08-150.88c.61,54.1.93,121,0,153"/><path class="cls-5" d="M50.35-150.88c.59,28.22-.32,52.87-.46,81.16-.13,26.41-.29,45.63.46,71.84"/><path class="cls-5" d="M51.72-152.88c.26,26.4-.12,52.09-.21,78.5s.6,51.14.21,77.5"/><path class="cls-5" d="M53.1-151.88c.61,22.93-.31,73.57.24,110.46.21,14.63-.24,36.54-.24,43.54"/><path class="cls-5" d="M18.82-152.88c0,8-.35,21.23-.16,32,.29,16.43.83,32.58.49,49S19-39.2,19-22.79c0,9.77-.15,18.91-.15,24.91"/><path class="cls-5" d="M45.83-153.13l-.1,82.42,0,13.47,0,17.8c0,14.28.31,28.29.15,42.56"/><path class="cls-5" d="M49.15-151.88c-.62,54.1-.93,121,0,153"/><path class="cls-5" d="M25.9-151.88c-.59,28.22-.17,52.87,0,81.16.13,26.39.78,45.55,0,71.84"/><path class="cls-5" d="M23.55-153.88c-.25,26.4-.35,52.56-.26,79s-.13,50.67.26,77"/><path class="cls-5" d="M22.18-152.88c-.62,23,.31,73.66-.24,110.46-.22,14.63.24,36.54.24,43.54"/><path class="cls-5" d="M20.94-153.88c0,8-.63,21.23-.82,32-.29,16.43.35,32.58.69,49s-.06,32.68,0,49.09c0,9.77.15,18.91.15,24.91"/><path class="cls-5" d="M24.59-153.13l.1,82.42,0,13.47,0,17.8c0,14.28-.31,28.29-.15,42.56"/><path class="cls-5" d="M.82-154.88c0,8-.35,21.23-.16,32,.29,16.43.83,32.58.49,49S1-41.2,1-24.79C1-15,.82-5.88.82.12"/><path class="cls-5" d="M7.9-152.88c-.59,28.22-.17,52.87,0,81.16C8-45.33,8.65-26.17,7.9.12"/><path class="cls-5" d="M5.55-155.88c-.25,26.4-.35,52.56-.26,79s-.13,50.67.26,77"/><path class="cls-5" d="M4.18-153.88c-.62,23,.31,73.66-.24,110.46C3.72-28.79,4.18-6.88,4.18.12"/><path class="cls-5" d="M2.94-154.88c0,8-.63,21.23-.82,32-.29,16.43.35,32.58.69,49s-.06,32.68,0,49.09c0,9.77.15,18.91.15,24.91"/><path class="cls-5" d="M6.59-155.13l.1,82.42,0,13.47,0,17.8c0,14.28-.31,28.29-.15,42.56"/><path class="cls-5" d="M11.08-150.88c.61,54.1.93,121,0,153"/><path class="cls-5" d="M14.35-150.88c.59,28.22-.32,52.87-.46,81.16-.13,26.41-.29,45.63.46,71.84"/><path class="cls-5" d="M15.72-152.88c.26,26.4-.12,52.09-.21,78.5s.6,51.14.21,77.5"/><path class="cls-5" d="M17.1-151.88c.61,22.93-.31,73.57.24,110.46.21,14.63-.24,36.54-.24,43.54"/><path class="cls-5" d="M9.83-153.13l-.1,82.42,0,13.47,0,17.8c0,14.28.31,28.29.15,42.56"/><path class="cls-5" d="M13.15-151.88c-.62,54.1-.93,121,0,153"/></pattern></defs><title>tiletile</title><g id="Layer_2" data-name="Layer 2"><g id="Layer_1-2" data-name="Layer 1"><rect class="cls-6" x="0.5" y="0.66" width="112.09" height="112.09"/><polygon class="cls-7" points="0.36 0.14 0.36 112.23 9.68 112.23 9.68 9.45 0.36 0.14"/><polygon class="cls-8" points="0.51 0 112.6 0 112.6 9.31 9.82 9.31 0.51 0"/></g></g></svg>