<svg xmlns="http://www.w3.org/2000/svg" xmlns:xlink="http://www.w3.org/1999/xlink" viewBox="0 0 112.26 112.23"><defs><style>.cls-1{fill:none;}.cls-2{fill:#414042;}.cls-3{fill:#494849;}.cls-4{fill:#535254;}.cls-5{fill:#909091;}.cls-6{fill:#7b7b7c;}.cls-7{fill:url(#New_Pattern_Swatch_18);}.cls-8{fill:#c4c4c6;}.cls-9{fill:#dbdbdb;opacity:0.65;}.cls-10{fill:url(#New_Pattern_Swatch_16);}.cls-11{fill:url(#New_Pattern_Swatch_16-3);}</style><pattern id="New_Pattern_Swatch_18" data-name="New Pattern Swatch 18" width="34.49" height="31.78" patternTransform="translate(-8.03 15.9) scale(0.5)" patternUnits="userSpaceOnUse" viewBox="0 0 34.49 31.78"><rect class="cls-1" width="34.49" height="31.78"/><rect class="cls-5" x="0.25" y="31.67" width="34.5" height="31.78"/><path class="cls-6" d="M16.27,33.79c0-.22,0-.43-.05-.65s0-.23,0-.34c0-.3,0,.16-.1.27l-2.46.32c.33.31-.09-.18.16.18a3.37,3.37,0,0,0,.42.5,3.76,3.76,0,0,0,1,.62,1.59,1.59,0,0,0,2.14-.58,1.64,1.64,0,0,0-.56-2.19c-.1-.05-.2-.11-.3-.15s-.22-.1-.07,0-.19-.25-.19-.26a3.26,3.26,0,0,0-.34-.4,1.57,1.57,0,0,0-2.46.33,4.06,4.06,0,0,0-.27,2.34,1.57,1.57,0,1,0,3.13,0Z"/><rect class="cls-5" x="-34.25" y="31.67" width="34.5" height="31.78"/><path class="cls-6" d="M36.88,12.48a1.5,1.5,0,0,0,0-.22c0-.39-.11-.19-.32.59l-2.62-.71,0,.11a1.57,1.57,0,1,0,3-.85l0-.11a1.56,1.56,0,0,0-2.61-.71,2.33,2.33,0,0,0-.58,1.9,1.57,1.57,0,1,0,3.13,0Z"/><path class="cls-6" d="M37.06,27.45l.37.4,0-.09c.12.09.08.24,0,0s-.07-.32-.1-.48a1.58,1.58,0,0,0-1.92-1.12,1.65,1.65,0,0,0-1.1,2,2.77,2.77,0,0,0,1.2,2.11,1.59,1.59,0,0,0,2.14-.58,1.63,1.63,0,0,0-.56-2.19Z"/><rect class="cls-5" x="0.25" y="-0.11" width="34.5" height="31.78"/><path class="cls-6" d="M14.55,16.9a15,15,0,0,0-2.31,2.89,3.05,3.05,0,0,0-.44,2.33,2.18,2.18,0,0,0,2.42,1.45A1.63,1.63,0,0,0,15.79,22a1.6,1.6,0,0,0-1.57-1.6,1.71,1.71,0,0,1-.39,0,.62.62,0,0,1,.33.08,1,1,0,0,1,.53.49,2.4,2.4,0,0,1,.13.68c0,.2,0,.09,0,0-.07.38-.07.12,0,0l.18-.32.18-.27s.27-.37.16-.23.1-.13.13-.16l.25-.31.45-.51.55-.6c1.44-1.46-.78-3.73-2.21-2.27Z"/><path class="cls-6" d="M20.57,23.93V20a1.57,1.57,0,0,0-3.13,0v3.93a1.57,1.57,0,0,0,3.13,0Z"/><path class="cls-6" d="M35.57,21.24V18.12c0-1.64-3.13-1.64-3.13,0v3.12c0,1.65,3.13,1.65,3.13,0Z"/><path class="cls-6" d="M17.5,13.2a3.67,3.67,0,0,0,.88,3.52,1.57,1.57,0,0,0,2.21,0,1.65,1.65,0,0,0,0-2.27c-.11-.12-.13-.13-.07,0s.05.07,0-.07l.05.13c0-.16,0-.18,0-.07s0-.22,0-.21c0-.34-.06.21,0-.14a1.65,1.65,0,0,0-1.1-2A1.56,1.56,0,0,0,17.5,13.2Z"/><path class="cls-6" d="M23.73,18l-.31-.08.93,2.36.09-.15c-.06.06-.06.06,0,0s.26-.25.13-.16a1.67,1.67,0,0,0,.57-2.19A1.56,1.56,0,0,0,23,17.14a4.9,4.9,0,0,0-1.35,1.48A1.63,1.63,0,0,0,22.58,21l.32.09a1.59,1.59,0,0,0,1.93-1.12,1.65,1.65,0,0,0-1.1-2Z"/><path class="cls-6" d="M26.67,10.06h-.48a1.6,1.6,0,0,0-1.57,1.6,1.62,1.62,0,0,0,1.57,1.61h.48a1.61,1.61,0,0,0,0-3.21Z"/><path class="cls-6" d="M33.67,23.06h-.48a1.6,1.6,0,0,0-1.57,1.6,1.62,1.62,0,0,0,1.57,1.61h.48a1.61,1.61,0,0,0,0-3.21Z"/><path class="cls-6" d="M22.84,6.62a4.92,4.92,0,0,0-2.23.71,1.67,1.67,0,0,0-.56,2.2,1.56,1.56,0,0,0,2.14.57l.3-.17c-.09,0-.08,0,0,0s.53-.11.33-.09a1.61,1.61,0,0,0,0-3.21Z"/><path class="cls-6" d="M13,11.3c-.16,0-.33-.23-.44-.24s.05.1.05.08.14.53.19.74.07.46.13.69.07.23.11.35c.22.76-.17-.15.3-.53L14,12a5,5,0,0,1-1,.22,4.85,4.85,0,0,0-.55.09c-.25.06-.25.06,0,0l.79.22c.45.3.14.42.2,0a4.21,4.21,0,0,0,0-.71,1.57,1.57,0,0,0-3.13,0c0,1.43.31,3.64,2.14,3.69a8.7,8.7,0,0,0,2-.31,2.18,2.18,0,0,0,1.75-1.54,3.58,3.58,0,0,0-.18-1.86c-.12-.42-.16-.86-.29-1.28A2.91,2.91,0,0,0,13,8.09a1.61,1.61,0,0,0,0,3.21Z"/><path class="cls-6" d="M8.48,16.86h.25A1,1,0,0,1,8,16.51c-.1-.1-.24-.55-.22-.27a2.87,2.87,0,0,0,.08.38c0,.18,0,.18,0,0,0,.37.09.2.28-.52a1.68,1.68,0,0,0,0,2.27,1.55,1.55,0,0,0,2.21,0,3.14,3.14,0,0,0,.4-3.09,2.15,2.15,0,0,0-2.3-1.62,1.61,1.61,0,0,0,0,3.21Z"/><path class="cls-6" d="M4.87,10.28A2.9,2.9,0,0,0,3,11.83,1.66,1.66,0,0,0,3.54,14a1.56,1.56,0,0,0,2.14-.58,2,2,0,0,1,.11-.2c.06-.09,0-.08,0,0s-.39.16-.06.08a1.63,1.63,0,0,0,1.1-2,1.6,1.6,0,0,0-1.93-1.12Z"/><path class="cls-6" d="M9.28,7.28H7.84a1.6,1.6,0,0,0,0,3.2H9.28a1.6,1.6,0,0,0,0-3.2Z"/><path class="cls-6" d="M14.71,4.15c-1.39,1.19-.53,3.25.48,4.39a1.55,1.55,0,0,0,2.21,0,1.66,1.66,0,0,0,0-2.27c.18.21-.07-.12-.1-.17s-.21-.46-.09-.18c0,0-.15-.4-.15-.4l0,.55c-.3.44-.34.56-.12.35a1.65,1.65,0,0,0,0-2.27,1.56,1.56,0,0,0-2.21,0Z"/><path class="cls-6" d="M20.12,5.52a3.34,3.34,0,0,0,.4-.25c.07,0,.46-.28.38-.24s-.09,0,.09,0l.57,0a1.61,1.61,0,0,0,0-3.21A4.6,4.6,0,0,0,20,2a7.36,7.36,0,0,0-1.41.76A1.64,1.64,0,0,0,18,5a1.57,1.57,0,0,0,2.14.57Z"/><path class="cls-6" d="M24.62,5.61V6.75a1.57,1.57,0,1,0,3.13,0V5.61a1.57,1.57,0,1,0-3.13,0Z"/><path class="cls-6" d="M25.33,3.4l.47-.1c.33-.07-.15,0,.23,0A1.61,1.61,0,0,0,26,.08,7.84,7.84,0,0,0,24.5.3a1.62,1.62,0,0,0-1.1,2A1.6,1.6,0,0,0,25.33,3.4Z"/><path class="cls-6" d="M26.84,14.29A2.26,2.26,0,0,0,26,16.07a3.37,3.37,0,0,0,.58,1.63,1.57,1.57,0,0,0,2.14.58,1.65,1.65,0,0,0,.56-2.2,2.91,2.91,0,0,0-.27-.49.9.9,0,0,1,0,1q-.16.23.06,0a1.65,1.65,0,0,0,0-2.27,1.56,1.56,0,0,0-2.21,0Z"/><path class="cls-6" d="M23.72,22.72c.47,1.39,1.14,3.31,3,3.14a1.63,1.63,0,0,0,1.56-1.61,1.6,1.6,0,0,0-1.56-1.6c-.25,0,.14.05.21.08s.39.27.19.11c.13.1.13.22,0,0L27,22.58c.17.32,0-.07-.07-.21s-.1-.34-.16-.51a1.6,1.6,0,0,0-1.93-1.12,1.64,1.64,0,0,0-1.09,2Z"/><path class="cls-6" d="M21.72,27H22c.06,0,.39.07.17,0s.06,0,.08,0c.21.12-.36-.2.09.06a1.57,1.57,0,0,0,2.14-.58A1.64,1.64,0,0,0,24,24.34a4.37,4.37,0,0,0-2.23-.55,1.61,1.61,0,0,0,0,3.21Z"/><path class="cls-6" d="M21.88,14.57h.48a1.61,1.61,0,0,0,0-3.21h-.48a1.61,1.61,0,0,0,0,3.21Z"/><path class="cls-6" d="M28.77,8.06a1.82,1.82,0,0,1-.07.67c0,.15-.08.3-.13.45s-.12.38,0,.08a2.65,2.65,0,0,0,0,2.39,1.56,1.56,0,0,0,2.14.58,1.65,1.65,0,0,0,.56-2.2c0,.78.06,1,.16.6-.11.24-.07.15.11-.27a6,6,0,0,0,.19-.6,6.51,6.51,0,0,0,.23-1.7,1.57,1.57,0,1,0-3.13,0Z"/><path class="cls-6" d="M27.87,3.48A2.75,2.75,0,0,0,29.14,5,1.62,1.62,0,0,0,31,4.73a1.66,1.66,0,0,0,.24-1.94l-.14-.25a1.82,1.82,0,0,1,.13.51c0,.12,0,.09.08-.09l.18-.3A1.67,1.67,0,0,0,31,.46,1.58,1.58,0,0,0,28.82,1a4.07,4.07,0,0,0-.67,1.75,2.73,2.73,0,0,0,.43,1.62l2.14-2.2c-.16-.08-.17-.07,0,0s.12.15.06,0-.16-.34-.2-.43a1.55,1.55,0,0,0-2.14-.58,1.67,1.67,0,0,0-.56,2.2Z"/><path class="cls-6" d="M32.25,16.19a1.61,1.61,0,0,0,0-3.21c-2,0-2,3.21,0,3.21Z"/><path class="cls-6" d="M28.86,21.44a1.33,1.33,0,0,0,.4,0c-.76-.66-1-.8-.8-.41.06.14.07.16,0,0s.05.19.06.23c.13.46-.14.14.05-.39l.4-.71a.91.91,0,0,1,.93-.21l.69.41c.18.15.5.84.06,0a3.54,3.54,0,0,0-.39-.54,1.55,1.55,0,0,0-2.21,0,1.67,1.67,0,0,0,0,2.27.67.67,0,0,1-.21-.36l.15.38a2,2,0,0,0,.33.47,1.83,1.83,0,0,0,1.34.54,2,2,0,0,0,2-2,4.49,4.49,0,0,0-.58-1.89,2.23,2.23,0,0,0-2.25-1.06,1.61,1.61,0,0,0,0,3.21Z"/><path class="cls-6" d="M14.39,25.32a2.53,2.53,0,0,0-1.23,2,2.31,2.31,0,0,0,1.38,2A1.88,1.88,0,0,0,16.7,29,3.2,3.2,0,0,0,17.38,27a1.58,1.58,0,0,0-1.56-1.6A1.63,1.63,0,0,0,14.25,27c0-.21,0-.23,0,0s0,.16,0,0c.23-.59.8-.74,1.73-.45.44.74.43,1.24,0,1.52a1.67,1.67,0,0,0,.56-2.19,1.56,1.56,0,0,0-2.14-.58Z"/><path class="cls-6" d="M11,23c-.19.21-.37.43-.56.63a2.68,2.68,0,0,1-.3.28c.14-.11.14-.12,0,0a.81.81,0,0,1,.37-.12l1.35.79c-.21-.29-.08,0-.06.2s0,.12,0-.05a2.87,2.87,0,0,0,.05-.31,1.65,1.65,0,0,0-1.09-2A1.59,1.59,0,0,0,8.88,23.5a4.65,4.65,0,0,0-.07,1.82,1.92,1.92,0,0,0,2,1.58,4.22,4.22,0,0,0,2.39-1.68,1.66,1.66,0,0,0,0-2.27A1.56,1.56,0,0,0,11,23Z"/><path class="cls-6" d="M6.73,18.7s-.4.32-.15.15c0,0-.34.18-.2.12s-.19,0-.19,0l1.37.57a1.27,1.27,0,0,1-.12-.23,1.58,1.58,0,0,0-2.15-.57A1.65,1.65,0,0,0,4.73,21,2,2,0,0,0,7,22.11,4.23,4.23,0,0,0,9,21,1.66,1.66,0,0,0,9,18.7a1.58,1.58,0,0,0-2.22,0Z"/><path class="cls-6" d="M3.05,15.29a2.1,2.1,0,0,0-1.27,4,1.57,1.57,0,0,0,2.15-.58,1.67,1.67,0,0,0-.56-2.19l-.17-.12c-.19-.13-.09,0,.29.29l.21.81c-1.2.71-1.51,1.05-.91,1l.26,0a1.59,1.59,0,0,0,1.57-1.61,1.62,1.62,0,0,0-1.57-1.6Z"/><path class="cls-6" d="M12.06,3.31c-.15-.29,0,.3,0,0,.09.61-.4,1.43-1,1.44a1.61,1.61,0,0,0,0-3.21A2,2,0,0,0,9,2.94a2.67,2.67,0,0,0,.34,2,1.56,1.56,0,0,0,2.14.57,1.64,1.64,0,0,0,.56-2.19Z"/><path class="cls-6" d="M20.35,27.61a6.94,6.94,0,0,0-1.82.65,2,2,0,0,0-.3,3.38,4.41,4.41,0,0,0,2.48.47,2,2,0,0,0,1.75-.72,2.22,2.22,0,0,0,0-2.39,1.56,1.56,0,0,0-2.14-.57,1.64,1.64,0,0,0-.56,2.19,1.59,1.59,0,0,0-.07-.2L20.44,29a1.17,1.17,0,0,1,.4-.13h-.25c-.13,0-.26,0-.39,0h-.44c-.31,0,.17,0,.27.14l.4,1.56c.06-.36-.45.61-.24.39l-.08.08c.12-.13.16-.09,0,0l.27-.1c.27-.09.55-.15.83-.22a1.64,1.64,0,0,0,1.09-2,1.59,1.59,0,0,0-1.92-1.12Z"/><path class="cls-6" d="M24.36,28l-.16.33a1.66,1.66,0,0,0,.56,2.19A1.55,1.55,0,0,0,26.9,30l.16-.33a1.66,1.66,0,0,0-.56-2.19,1.55,1.55,0,0,0-2.14.57Z"/><path class="cls-6" d="M28.13,25.72a2.55,2.55,0,0,0,1.06,2.6,2.13,2.13,0,0,0,2.94-.62,1.62,1.62,0,0,0,0-1.62c-.31-.42-.69-.76-1-1.16a1.54,1.54,0,0,0-2.21,0,1.67,1.67,0,0,0,0,2.27c.1.13.21.24.32.36s.35.35.19.15V26.08l-.05.08.56-.58.53-.12c.21,0,.26.05.14,0s-.08,0,0,0a.9.9,0,0,1,.58.65c.08.09,0,.21,0,0a3,3,0,0,0,0-.42,1.6,1.6,0,0,0-1.56-1.6,1.63,1.63,0,0,0-1.57,1.6Z"/><path class="cls-6" d="M16.27,2c0-.22,0-.43-.05-.65s0-.23,0-.34c0-.3,0,.16-.1.27l-2.46.32c.33.31-.09-.18.16.18a3.37,3.37,0,0,0,.42.5,3.76,3.76,0,0,0,1,.62,1.59,1.59,0,0,0,2.14-.58,1.65,1.65,0,0,0-.56-2.2L16.47,0c-.1,0-.22-.1-.07,0s-.19-.25-.19-.26a3.26,3.26,0,0,0-.34-.4,1.57,1.57,0,0,0-2.46.33A4.06,4.06,0,0,0,13.14,2a1.57,1.57,0,1,0,3.13,0Z"/><path class="cls-6" d="M5.32,2.67c0-.2,0,0,0,0,.1-.11,0-.08,0,0l-.32.52A3,3,0,0,0,4.43,5.1a1.81,1.81,0,0,0,3.24.83,1.68,1.68,0,0,0,0-2.27,1.55,1.55,0,0,0-2.21,0c-.29.3-.08.24.63-.19l.79.22-.06,0,.56.58a.92.92,0,0,1,.11.91l.15-.27c.1-.17.22-.34.32-.52a4,4,0,0,0,.49-1.68A1.6,1.6,0,0,0,6.88,1.06,1.63,1.63,0,0,0,5.32,2.67Z"/><path class="cls-6" d="M3.21,6.78l1.22,1c0,.3,0,.38,0,.25a.76.76,0,0,1,0-.15,2.33,2.33,0,0,0-.27-1A1.82,1.82,0,0,0,2.42,6,1.63,1.63,0,0,0,.85,7.57c0,.78.7,1.72,1.57,1.61.7-.1-1-.56-1.08-1.13-.06-.27,0-.11,0,0a3,3,0,0,0,.17.85A1.78,1.78,0,0,0,3.21,10a1.61,1.61,0,0,0,0-3.21Z"/><path class="cls-6" d="M2.89,2.26,2.57,2.1a1.58,1.58,0,0,0-2.14.57A1.64,1.64,0,0,0,1,4.87L1.31,5a1.58,1.58,0,0,0,2.14-.57,1.65,1.65,0,0,0-.56-2.2Z"/><path class="cls-6" d="M2.39,12.48c0-.08,0-.15,0-.22,0-.39-.11-.19-.32.59l-2.62-.71,0,.11A1.61,1.61,0,0,0,1.4,13.37a1.62,1.62,0,0,0,1.09-2l0-.11a1.57,1.57,0,0,0-2.62-.71,2.33,2.33,0,0,0-.58,1.9,1.62,1.62,0,0,0,1.57,1.6,1.6,1.6,0,0,0,1.57-1.6Z"/><path class="cls-6" d="M2.64,21.23a2.72,2.72,0,0,0-1.92,2.9A2,2,0,0,0,2,25.76a3.94,3.94,0,0,0,1,.22c.06,0,.16,0,.22,0-.2.05-.47-.17-.58-.31A1.58,1.58,0,0,0,5,26a2.47,2.47,0,0,0,.51-2.59,7.49,7.49,0,0,0-.8-1.94,1.59,1.59,0,0,0-2.14-.58A1.65,1.65,0,0,0,2,23.1l.14.22c-.08-.13,0-.11,0,0s.14.41.21.62a3.52,3.52,0,0,1,.15.42c0,.09,0,.27,0,.09s-.08-.46.24-.74l2.46.33a2.75,2.75,0,0,0-1.47-1.18A6.63,6.63,0,0,0,3,22.78c.21,0,.23,0,.05,0a1.74,1.74,0,0,1,.33.18l.4.71c-.11-.29,0,.44,0,.45,0-.27-.08.13,0,0s-.17.16,0,0-.62.25-.29.2a1.62,1.62,0,0,0,1.09-2,1.6,1.6,0,0,0-1.92-1.12Z"/><path class="cls-6" d="M5.8,27.52c1.22-.7,1.53-1.07.92-1.11A1.58,1.58,0,0,0,5.16,28a1.63,1.63,0,0,0,1.56,1.61,2.06,2.06,0,0,0,2.21-2.1,1.59,1.59,0,0,0-1.57-1.6,1.61,1.61,0,0,0-1.56,1.6Z"/><path class="cls-6" d="M10.3,28.1a1.86,1.86,0,0,0-.77,3.14c.74.7,1.85.51,2.78.51a1.61,1.61,0,0,0,0-3.21H11.06l.69.41.1.15.22.81,0,.24-.4.71.07-.06-.69.41.12,0a1.64,1.64,0,0,0,1.09-2A1.59,1.59,0,0,0,10.3,28.1Z"/><path class="cls-6" d="M5,29.35A2.29,2.29,0,0,0,3.22,30a1.65,1.65,0,0,0,0,2.27,1.59,1.59,0,0,0,2.22,0c-.66.18-.82.29-.47.3A1.58,1.58,0,0,0,6.53,31,1.64,1.64,0,0,0,5,29.35Z"/><path class="cls-6" d="M2.57,27.45l.37.4,0-.09c.12.09.08.24,0,0s-.07-.32-.1-.48A1.58,1.58,0,0,0,.88,26.14a1.65,1.65,0,0,0-1.09,2A2.77,2.77,0,0,0,1,30.22a1.59,1.59,0,0,0,2.14-.58,1.64,1.64,0,0,0-.56-2.19Z"/><path class="cls-6" d="M31.5,32.56h1.11A1.6,1.6,0,0,0,34.18,31a1.62,1.62,0,0,0-1.57-1.61H31.5a1.61,1.61,0,0,0,0,3.21Z"/><path class="cls-6" d="M32,5.45A12.58,12.58,0,0,0,32,8.39a1.58,1.58,0,0,0,2.87.38L35,8.55a1.66,1.66,0,0,0-.56-2.2,1.58,1.58,0,0,0-2.15.58l-.13.22,2.86.39c0-.19,0-.21,0,0,0-.11,0-.23,0-.34a4.51,4.51,0,0,1,0-.52c0-.4.05-.79.05-1.18a1.57,1.57,0,1,0-3.13,0Z"/><rect class="cls-5" x="-34.25" y="-0.11" width="34.5" height="31.78"/><path class="cls-6" d="M1.08,21.24V18.12c0-1.64-3.13-1.64-3.13,0v3.12c0,1.65,3.13,1.65,3.13,0Z"/><path class="cls-6" d="M-.83,23.06h-.48a1.6,1.6,0,0,0-1.56,1.6,1.62,1.62,0,0,0,1.56,1.61h.48A1.61,1.61,0,0,0,.74,24.66a1.61,1.61,0,0,0-1.57-1.6Z"/><path class="cls-6" d="M-2.53,5.45a12.58,12.58,0,0,0,.08,2.94,1.57,1.57,0,0,0,2.86.38l.14-.22A1.66,1.66,0,0,0,0,6.35a1.57,1.57,0,0,0-2.14.58l-.13.22,2.86.39c0-.19,0-.21,0,0,0-.11,0-.23,0-.34s0-.35,0-.52c0-.4,0-.79.06-1.18A1.61,1.61,0,0,0-1,3.84,1.62,1.62,0,0,0-2.53,5.45Z"/><path class="cls-6" d="M20.35-4.17a6.94,6.94,0,0,0-1.82.65,2,2,0,0,0-.3,3.38,4.41,4.41,0,0,0,2.48.47,2,2,0,0,0,1.75-.72,2.22,2.22,0,0,0,0-2.39,1.56,1.56,0,0,0-2.14-.57,1.64,1.64,0,0,0-.56,2.19,1.18,1.18,0,0,0-.07-.2l.78-1.39a1.17,1.17,0,0,1,.4-.13h-.25l-.39,0h-.44c-.31,0,.17,0,.27.14l.4,1.56c.06-.36-.45.61-.24.39l-.08.08c.12-.13.16-.09,0,0l.27-.1c.27-.09.55-.15.83-.22a1.64,1.64,0,0,0,1.09-2,1.59,1.59,0,0,0-1.92-1.12Z"/><path class="cls-6" d="M5-2.43a2.29,2.29,0,0,0-1.75.64,1.65,1.65,0,0,0,0,2.27,1.59,1.59,0,0,0,2.22,0c-.66.18-.82.29-.47.3A1.58,1.58,0,0,0,6.53-.82,1.64,1.64,0,0,0,5-2.43Z"/><path class="cls-6" d="M31.5.78h1.11a1.61,1.61,0,0,0,1.57-1.6,1.62,1.62,0,0,0-1.57-1.61H31.5A1.61,1.61,0,0,0,29.93-.82,1.61,1.61,0,0,0,31.5.78Z"/></pattern><pattern id="New_Pattern_Swatch_16" data-name="New Pattern Swatch 16" width="34.49" height="31.78" patternTransform="translate(-10.2 13.91) scale(0.5)" patternUnits="userSpaceOnUse" viewBox="0 0 34.49 31.78"><rect class="cls-1" width="34.49" height="31.78"/><rect class="cls-2" x="0.25" y="31.67" width="34.5" height="31.78"/><path class="cls-3" d="M16.27,33.79c0-.22,0-.43-.05-.65s0-.23,0-.34c0-.3,0,.16-.1.27l-2.46.32c.33.31-.09-.18.16.18a3.37,3.37,0,0,0,.42.5,3.76,3.76,0,0,0,1,.62,1.59,1.59,0,0,0,2.14-.58,1.64,1.64,0,0,0-.56-2.19c-.1-.05-.2-.11-.3-.15s-.22-.1-.07,0-.19-.25-.19-.26a3.26,3.26,0,0,0-.34-.4,1.57,1.57,0,0,0-2.46.33,4.06,4.06,0,0,0-.27,2.34,1.57,1.57,0,1,0,3.13,0Z"/><rect class="cls-2" x="-34.25" y="31.67" width="34.5" height="31.78"/><path class="cls-3" d="M36.88,12.48a1.5,1.5,0,0,0,0-.22c0-.39-.11-.19-.32.59l-2.62-.71,0,.11a1.57,1.57,0,1,0,3-.85l0-.11a1.56,1.56,0,0,0-2.61-.71,2.33,2.33,0,0,0-.58,1.9,1.57,1.57,0,1,0,3.13,0Z"/><path class="cls-3" d="M37.06,27.45l.37.4,0-.09c.12.09.08.24,0,0s-.07-.32-.1-.48a1.58,1.58,0,0,0-1.92-1.12,1.65,1.65,0,0,0-1.1,2,2.77,2.77,0,0,0,1.2,2.11,1.59,1.59,0,0,0,2.14-.58,1.63,1.63,0,0,0-.56-2.19Z"/><rect class="cls-2" x="0.25" y="-0.11" width="34.5" height="31.78"/><path class="cls-3" d="M14.55,16.9a15,15,0,0,0-2.31,2.89,3.05,3.05,0,0,0-.44,2.33,2.18,2.18,0,0,0,2.42,1.45A1.63,1.63,0,0,0,15.79,22a1.6,1.6,0,0,0-1.57-1.6,1.71,1.71,0,0,1-.39,0,.62.62,0,0,1,.33.08,1,1,0,0,1,.53.49,2.4,2.4,0,0,1,.13.68c0,.2,0,.09,0,0-.07.38-.07.12,0,0l.18-.32.18-.27s.27-.37.16-.23.1-.13.13-.16l.25-.31.45-.51.55-.6c1.44-1.46-.78-3.73-2.21-2.27Z"/><path class="cls-3" d="M20.57,23.93V20a1.57,1.57,0,0,0-3.13,0v3.93a1.57,1.57,0,0,0,3.13,0Z"/><path class="cls-3" d="M35.57,21.24V18.12c0-1.64-3.13-1.64-3.13,0v3.12c0,1.65,3.13,1.65,3.13,0Z"/><path class="cls-4" d="M17.5,13.2a3.67,3.67,0,0,0,.88,3.52,1.57,1.57,0,0,0,2.21,0,1.65,1.65,0,0,0,0-2.27c-.11-.12-.13-.13-.07,0s.05.07,0-.07l.05.13c0-.16,0-.18,0-.07s0-.22,0-.21c0-.34-.06.21,0-.14a1.65,1.65,0,0,0-1.1-2A1.56,1.56,0,0,0,17.5,13.2Z"/><path class="cls-4" d="M23.73,18l-.31-.08.93,2.36.09-.15c-.06.06-.06.06,0,0s.26-.25.13-.16a1.67,1.67,0,0,0,.57-2.19A1.56,1.56,0,0,0,23,17.14a4.9,4.9,0,0,0-1.35,1.48A1.63,1.63,0,0,0,22.58,21l.32.09a1.59,1.59,0,0,0,1.93-1.12,1.65,1.65,0,0,0-1.1-2Z"/><path class="cls-4" d="M26.67,10.06h-.48a1.6,1.6,0,0,0-1.57,1.6,1.62,1.62,0,0,0,1.57,1.61h.48a1.61,1.61,0,0,0,0-3.21Z"/><path class="cls-4" d="M33.67,23.06h-.48a1.6,1.6,0,0,0-1.57,1.6,1.62,1.62,0,0,0,1.57,1.61h.48a1.61,1.61,0,0,0,0-3.21Z"/><path class="cls-3" d="M22.84,6.62a4.92,4.92,0,0,0-2.23.71,1.67,1.67,0,0,0-.56,2.2,1.56,1.56,0,0,0,2.14.57l.3-.17c-.09,0-.08,0,0,0s.53-.11.33-.09a1.61,1.61,0,0,0,0-3.21Z"/><path class="cls-3" d="M13,11.3c-.16,0-.33-.23-.44-.24s.05.1.05.08.14.53.19.74.07.46.13.69.07.23.11.35c.22.76-.17-.15.3-.53L14,12a5,5,0,0,1-1,.22,4.85,4.85,0,0,0-.55.09c-.25.06-.25.06,0,0l.79.22c.45.3.14.42.2,0a4.21,4.21,0,0,0,0-.71,1.57,1.57,0,0,0-3.13,0c0,1.43.31,3.64,2.14,3.69a8.7,8.7,0,0,0,2-.31,2.18,2.18,0,0,0,1.75-1.54,3.58,3.58,0,0,0-.18-1.86c-.12-.42-.16-.86-.29-1.28A2.91,2.91,0,0,0,13,8.09a1.61,1.61,0,0,0,0,3.21Z"/><path class="cls-3" d="M8.48,16.86h.25A1,1,0,0,1,8,16.51c-.1-.1-.24-.55-.22-.27a2.87,2.87,0,0,0,.08.38c0,.18,0,.18,0,0,0,.37.09.2.28-.52a1.68,1.68,0,0,0,0,2.27,1.55,1.55,0,0,0,2.21,0,3.14,3.14,0,0,0,.4-3.09,2.15,2.15,0,0,0-2.3-1.62,1.61,1.61,0,0,0,0,3.21Z"/><path class="cls-3" d="M4.87,10.28A2.9,2.9,0,0,0,3,11.83,1.66,1.66,0,0,0,3.54,14a1.56,1.56,0,0,0,2.14-.58,2,2,0,0,1,.11-.2c.06-.09,0-.08,0,0s-.39.16-.06.08a1.63,1.63,0,0,0,1.1-2,1.6,1.6,0,0,0-1.93-1.12Z"/><path class="cls-4" d="M9.28,7.28H7.84a1.6,1.6,0,0,0,0,3.2H9.28a1.6,1.6,0,0,0,0-3.2Z"/><path class="cls-3" d="M14.71,4.15c-1.39,1.19-.53,3.25.48,4.39a1.55,1.55,0,0,0,2.21,0,1.66,1.66,0,0,0,0-2.27c.18.21-.07-.12-.1-.17s-.21-.46-.09-.18c0,0-.15-.4-.15-.4l0,.55c-.3.44-.34.56-.12.35a1.65,1.65,0,0,0,0-2.27,1.56,1.56,0,0,0-2.21,0Z"/><path class="cls-4" d="M20.12,5.52a3.34,3.34,0,0,0,.4-.25c.07,0,.46-.28.38-.24s-.09,0,.09,0l.57,0a1.61,1.61,0,0,0,0-3.21A4.6,4.6,0,0,0,20,2a7.36,7.36,0,0,0-1.41.76A1.64,1.64,0,0,0,18,5a1.57,1.57,0,0,0,2.14.57Z"/><path class="cls-3" d="M24.62,5.61V6.75a1.57,1.57,0,1,0,3.13,0V5.61a1.57,1.57,0,1,0-3.13,0Z"/><path class="cls-3" d="M25.33,3.4l.47-.1c.33-.07-.15,0,.23,0A1.61,1.61,0,0,0,26,.08,7.84,7.84,0,0,0,24.5.3a1.62,1.62,0,0,0-1.1,2A1.6,1.6,0,0,0,25.33,3.4Z"/><path class="cls-3" d="M26.84,14.29A2.26,2.26,0,0,0,26,16.07a3.37,3.37,0,0,0,.58,1.63,1.57,1.57,0,0,0,2.14.58,1.65,1.65,0,0,0,.56-2.2,2.91,2.91,0,0,0-.27-.49.9.9,0,0,1,0,1q-.16.23.06,0a1.65,1.65,0,0,0,0-2.27,1.56,1.56,0,0,0-2.21,0Z"/><path class="cls-3" d="M23.72,22.72c.47,1.39,1.14,3.31,3,3.14a1.63,1.63,0,0,0,1.56-1.61,1.6,1.6,0,0,0-1.56-1.6c-.25,0,.14.05.21.08s.39.27.19.11c.13.1.13.22,0,0L27,22.58c.17.32,0-.07-.07-.21s-.1-.34-.16-.51a1.6,1.6,0,0,0-1.93-1.12,1.64,1.64,0,0,0-1.09,2Z"/><path class="cls-4" d="M21.72,27H22c.06,0,.39.07.17,0s.06,0,.08,0c.21.12-.36-.2.09.06a1.57,1.57,0,0,0,2.14-.58A1.64,1.64,0,0,0,24,24.34a4.37,4.37,0,0,0-2.23-.55,1.61,1.61,0,0,0,0,3.21Z"/><path class="cls-3" d="M21.88,14.57h.48a1.61,1.61,0,0,0,0-3.21h-.48a1.61,1.61,0,0,0,0,3.21Z"/><path class="cls-3" d="M28.77,8.06a1.82,1.82,0,0,1-.07.67c0,.15-.08.3-.13.45s-.12.38,0,.08a2.65,2.65,0,0,0,0,2.39,1.56,1.56,0,0,0,2.14.58,1.65,1.65,0,0,0,.56-2.2c0,.78.06,1,.16.6-.11.24-.07.15.11-.27a6,6,0,0,0,.19-.6,6.51,6.51,0,0,0,.23-1.7,1.57,1.57,0,1,0-3.13,0Z"/><path class="cls-4" d="M27.87,3.48A2.75,2.75,0,0,0,29.14,5,1.62,1.62,0,0,0,31,4.73a1.66,1.66,0,0,0,.24-1.94l-.14-.25a1.82,1.82,0,0,1,.13.51c0,.12,0,.09.08-.09l.18-.3A1.67,1.67,0,0,0,31,.46,1.58,1.58,0,0,0,28.82,1a4.07,4.07,0,0,0-.67,1.75,2.73,2.73,0,0,0,.43,1.62l2.14-2.2c-.16-.08-.17-.07,0,0s.12.15.06,0-.16-.34-.2-.43a1.55,1.55,0,0,0-2.14-.58,1.67,1.67,0,0,0-.56,2.2Z"/><path class="cls-4" d="M32.25,16.19a1.61,1.61,0,0,0,0-3.21c-2,0-2,3.21,0,3.21Z"/><path class="cls-3" d="M28.86,21.44a1.33,1.33,0,0,0,.4,0c-.76-.66-1-.8-.8-.41.06.14.07.16,0,0s.05.19.06.23c.13.46-.14.14.05-.39l.4-.71a.91.91,0,0,1,.93-.21l.69.41c.18.15.5.84.06,0a3.54,3.54,0,0,0-.39-.54,1.55,1.55,0,0,0-2.21,0,1.67,1.67,0,0,0,0,2.27.67.67,0,0,1-.21-.36l.15.38a2,2,0,0,0,.33.47,1.83,1.83,0,0,0,1.34.54,2,2,0,0,0,2-2,4.49,4.49,0,0,0-.58-1.89,2.23,2.23,0,0,0-2.25-1.06,1.61,1.61,0,0,0,0,3.21Z"/><path class="cls-3" d="M14.39,25.32a2.53,2.53,0,0,0-1.23,2,2.31,2.31,0,0,0,1.38,2A1.88,1.88,0,0,0,16.7,29,3.2,3.2,0,0,0,17.38,27a1.58,1.58,0,0,0-1.56-1.6A1.63,1.63,0,0,0,14.25,27c0-.21,0-.23,0,0s0,.16,0,0c.23-.59.8-.74,1.73-.45.44.74.43,1.24,0,1.52a1.67,1.67,0,0,0,.56-2.19,1.56,1.56,0,0,0-2.14-.58Z"/><path class="cls-4" d="M11,23c-.19.21-.37.43-.56.63a2.68,2.68,0,0,1-.3.28c.14-.11.14-.12,0,0a.81.81,0,0,1,.37-.12l1.35.79c-.21-.29-.08,0-.06.2s0,.12,0-.05a2.87,2.87,0,0,0,.05-.31,1.65,1.65,0,0,0-1.09-2A1.59,1.59,0,0,0,8.88,23.5a4.65,4.65,0,0,0-.07,1.82,1.92,1.92,0,0,0,2,1.58,4.22,4.22,0,0,0,2.39-1.68,1.66,1.66,0,0,0,0-2.27A1.56,1.56,0,0,0,11,23Z"/><path class="cls-3" d="M6.73,18.7s-.4.32-.15.15c0,0-.34.18-.2.12s-.19,0-.19,0l1.37.57a1.27,1.27,0,0,1-.12-.23,1.58,1.58,0,0,0-2.15-.57A1.65,1.65,0,0,0,4.73,21,2,2,0,0,0,7,22.11,4.23,4.23,0,0,0,9,21,1.66,1.66,0,0,0,9,18.7a1.58,1.58,0,0,0-2.22,0Z"/><path class="cls-4" d="M3.05,15.29a2.1,2.1,0,0,0-1.27,4,1.57,1.57,0,0,0,2.15-.58,1.67,1.67,0,0,0-.56-2.19l-.17-.12c-.19-.13-.09,0,.29.29l.21.81c-1.2.71-1.51,1.05-.91,1l.26,0a1.59,1.59,0,0,0,1.57-1.61,1.62,1.62,0,0,0-1.57-1.6Z"/><path class="cls-3" d="M12.06,3.31c-.15-.29,0,.3,0,0,.09.61-.4,1.43-1,1.44a1.61,1.61,0,0,0,0-3.21A2,2,0,0,0,9,2.94a2.67,2.67,0,0,0,.34,2,1.56,1.56,0,0,0,2.14.57,1.64,1.64,0,0,0,.56-2.19Z"/><path class="cls-3" d="M20.35,27.61a6.94,6.94,0,0,0-1.82.65,2,2,0,0,0-.3,3.38,4.41,4.41,0,0,0,2.48.47,2,2,0,0,0,1.75-.72,2.22,2.22,0,0,0,0-2.39,1.56,1.56,0,0,0-2.14-.57,1.64,1.64,0,0,0-.56,2.19,1.59,1.59,0,0,0-.07-.2L20.44,29a1.17,1.17,0,0,1,.4-.13h-.25c-.13,0-.26,0-.39,0h-.44c-.31,0,.17,0,.27.14l.4,1.56c.06-.36-.45.61-.24.39l-.08.08c.12-.13.16-.09,0,0l.27-.1c.27-.09.55-.15.83-.22a1.64,1.64,0,0,0,1.09-2,1.59,1.59,0,0,0-1.92-1.12Z"/><path class="cls-4" d="M24.36,28l-.16.33a1.66,1.66,0,0,0,.56,2.19A1.55,1.55,0,0,0,26.9,30l.16-.33a1.66,1.66,0,0,0-.56-2.19,1.55,1.55,0,0,0-2.14.57Z"/><path class="cls-3" d="M28.13,25.72a2.55,2.55,0,0,0,1.06,2.6,2.13,2.13,0,0,0,2.94-.62,1.62,1.62,0,0,0,0-1.62c-.31-.42-.69-.76-1-1.16a1.54,1.54,0,0,0-2.21,0,1.67,1.67,0,0,0,0,2.27c.1.13.21.24.32.36s.35.35.19.15V26.08l-.05.08.56-.58.53-.12c.21,0,.26.05.14,0s-.08,0,0,0a.9.9,0,0,1,.58.65c.08.09,0,.21,0,0a3,3,0,0,0,0-.42,1.6,1.6,0,0,0-1.56-1.6,1.63,1.63,0,0,0-1.57,1.6Z"/><path class="cls-3" d="M16.27,2c0-.22,0-.43-.05-.65s0-.23,0-.34c0-.3,0,.16-.1.27l-2.46.32c.33.31-.09-.18.16.18a3.37,3.37,0,0,0,.42.5,3.76,3.76,0,0,0,1,.62,1.59,1.59,0,0,0,2.14-.58,1.65,1.65,0,0,0-.56-2.2L16.47,0c-.1,0-.22-.1-.07,0s-.19-.25-.19-.26a3.26,3.26,0,0,0-.34-.4,1.57,1.57,0,0,0-2.46.33A4.06,4.06,0,0,0,13.14,2a1.57,1.57,0,1,0,3.13,0Z"/><path class="cls-4" d="M5.32,2.67c0-.2,0,0,0,0,.1-.11,0-.08,0,0l-.32.52A3,3,0,0,0,4.43,5.1a1.81,1.81,0,0,0,3.24.83,1.68,1.68,0,0,0,0-2.27,1.55,1.55,0,0,0-2.21,0c-.29.3-.08.24.63-.19l.79.22-.06,0,.56.58a.92.92,0,0,1,.11.91l.15-.27c.1-.17.22-.34.32-.52a4,4,0,0,0,.49-1.68A1.6,1.6,0,0,0,6.88,1.06,1.63,1.63,0,0,0,5.32,2.67Z"/><path class="cls-3" d="M3.21,6.78l1.22,1c0,.3,0,.38,0,.25a.76.76,0,0,1,0-.15,2.33,2.33,0,0,0-.27-1A1.82,1.82,0,0,0,2.42,6,1.63,1.63,0,0,0,.85,7.57c0,.78.7,1.72,1.57,1.61.7-.1-1-.56-1.08-1.13-.06-.27,0-.11,0,0a3,3,0,0,0,.17.85A1.78,1.78,0,0,0,3.21,10a1.61,1.61,0,0,0,0-3.21Z"/><path class="cls-3" d="M2.89,2.26,2.57,2.1a1.58,1.58,0,0,0-2.14.57A1.64,1.64,0,0,0,1,4.87L1.31,5a1.58,1.58,0,0,0,2.14-.57,1.65,1.65,0,0,0-.56-2.2Z"/><path class="cls-3" d="M2.39,12.48c0-.08,0-.15,0-.22,0-.39-.11-.19-.32.59l-2.62-.71,0,.11A1.61,1.61,0,0,0,1.4,13.37a1.62,1.62,0,0,0,1.09-2l0-.11a1.57,1.57,0,0,0-2.62-.71,2.33,2.33,0,0,0-.58,1.9,1.62,1.62,0,0,0,1.57,1.6,1.6,1.6,0,0,0,1.57-1.6Z"/><path class="cls-3" d="M2.64,21.23a2.72,2.72,0,0,0-1.92,2.9A2,2,0,0,0,2,25.76a3.94,3.94,0,0,0,1,.22c.06,0,.16,0,.22,0-.2.05-.47-.17-.58-.31A1.58,1.58,0,0,0,5,26a2.47,2.47,0,0,0,.51-2.59,7.49,7.49,0,0,0-.8-1.94,1.59,1.59,0,0,0-2.14-.58A1.65,1.65,0,0,0,2,23.1l.14.22c-.08-.13,0-.11,0,0s.14.41.21.62a3.52,3.52,0,0,1,.15.42c0,.09,0,.27,0,.09s-.08-.46.24-.74l2.46.33a2.75,2.75,0,0,0-1.47-1.18A6.63,6.63,0,0,0,3,22.78c.21,0,.23,0,.05,0a1.74,1.74,0,0,1,.33.18l.4.71c-.11-.29,0,.44,0,.45,0-.27-.08.13,0,0s-.17.16,0,0-.62.25-.29.2a1.62,1.62,0,0,0,1.09-2,1.6,1.6,0,0,0-1.92-1.12Z"/><path class="cls-3" d="M5.8,27.52c1.22-.7,1.53-1.07.92-1.11A1.58,1.58,0,0,0,5.16,28a1.63,1.63,0,0,0,1.56,1.61,2.06,2.06,0,0,0,2.21-2.1,1.59,1.59,0,0,0-1.57-1.6,1.61,1.61,0,0,0-1.56,1.6Z"/><path class="cls-3" d="M10.3,28.1a1.86,1.86,0,0,0-.77,3.14c.74.7,1.85.51,2.78.51a1.61,1.61,0,0,0,0-3.21H11.06l.69.41.1.15.22.81,0,.24-.4.71.07-.06-.69.41.12,0a1.64,1.64,0,0,0,1.09-2A1.59,1.59,0,0,0,10.3,28.1Z"/><path class="cls-3" d="M5,29.35A2.29,2.29,0,0,0,3.22,30a1.65,1.65,0,0,0,0,2.27,1.59,1.59,0,0,0,2.22,0c-.66.18-.82.29-.47.3A1.58,1.58,0,0,0,6.53,31,1.64,1.64,0,0,0,5,29.35Z"/><path class="cls-3" d="M2.57,27.45l.37.4,0-.09c.12.09.08.24,0,0s-.07-.32-.1-.48A1.58,1.58,0,0,0,.88,26.14a1.65,1.65,0,0,0-1.09,2A2.77,2.77,0,0,0,1,30.22a1.59,1.59,0,0,0,2.14-.58,1.64,1.64,0,0,0-.56-2.19Z"/><path class="cls-3" d="M31.5,32.56h1.11A1.6,1.6,0,0,0,34.18,31a1.62,1.62,0,0,0-1.57-1.61H31.5a1.61,1.61,0,0,0,0,3.21Z"/><path class="cls-3" d="M32,5.45A12.58,12.58,0,0,0,32,8.39a1.58,1.58,0,0,0,2.87.38L35,8.55a1.66,1.66,0,0,0-.56-2.2,1.58,1.58,0,0,0-2.15.58l-.13.22,2.86.39c0-.19,0-.21,0,0,0-.11,0-.23,0-.34a4.51,4.51,0,0,1,0-.52c0-.4.05-.79.05-1.18a1.57,1.57,0,1,0-3.13,0Z"/><rect class="cls-2" x="-34.25" y="-0.11" width="34.5" height="31.78"/><path class="cls-3" d="M1.08,21.24V18.12c0-1.64-3.13-1.64-3.13,0v3.12c0,1.65,3.13,1.65,3.13,0Z"/><path class="cls-4" d="M-.83,23.06h-.48a1.6,1.6,0,0,0-1.56,1.6,1.62,1.62,0,0,0,1.56,1.61h.48A1.61,1.61,0,0,0,.74,24.66a1.61,1.61,0,0,0-1.57-1.6Z"/><path class="cls-3" d="M-2.53,5.45a12.58,12.58,0,0,0,.08,2.94,1.57,1.57,0,0,0,2.86.38l.14-.22A1.66,1.66,0,0,0,0,6.35a1.57,1.57,0,0,0-2.14.58l-.13.22,2.86.39c0-.19,0-.21,0,0,0-.11,0-.23,0-.34s0-.35,0-.52c0-.4,0-.79.06-1.18A1.61,1.61,0,0,0-1,3.84,1.62,1.62,0,0,0-2.53,5.45Z"/><path class="cls-3" d="M20.35-4.17a6.94,6.94,0,0,0-1.82.65,2,2,0,0,0-.3,3.38,4.41,4.41,0,0,0,2.48.47,2,2,0,0,0,1.75-.72,2.22,2.22,0,0,0,0-2.39,1.56,1.56,0,0,0-2.14-.57,1.64,1.64,0,0,0-.56,2.19,1.18,1.18,0,0,0-.07-.2l.78-1.39a1.17,1.17,0,0,1,.4-.13h-.25l-.39,0h-.44c-.31,0,.17,0,.27.14l.4,1.56c.06-.36-.45.61-.24.39l-.08.08c.12-.13.16-.09,0,0l.27-.1c.27-.09.55-.15.83-.22a1.64,1.64,0,0,0,1.09-2,1.59,1.59,0,0,0-1.92-1.12Z"/><path class="cls-3" d="M5-2.43a2.29,2.29,0,0,0-1.75.64,1.65,1.65,0,0,0,0,2.27,1.59,1.59,0,0,0,2.22,0c-.66.18-.82.29-.47.3A1.58,1.58,0,0,0,6.53-.82,1.64,1.64,0,0,0,5-2.43Z"/><path class="cls-3" d="M31.5.78h1.11a1.61,1.61,0,0,0,1.57-1.6,1.62,1.62,0,0,0-1.57-1.61H31.5A1.61,1.61,0,0,0,29.93-.82,1.61,1.61,0,0,0,31.5.78Z"/></pattern><pattern id="New_Pattern_Swatch_16-3" data-name="New Pattern Swatch 16" width="34.49" height="31.78" patternTransform="translate(-6.45 8.91) scale(0.5)" patternUnits="userSpaceOnUse" viewBox="0 0 34.49 31.78"><rect class="cls-1" width="34.49" height="31.78"/><rect class="cls-2" x="0.25" y="31.67" width="34.5" height="31.78"/><path class="cls-3" d="M16.27,33.79c0-.22,0-.43-.05-.65s0-.23,0-.34c0-.3,0,.16-.1.27l-2.46.32c.33.31-.09-.18.16.18a3.37,3.37,0,0,0,.42.5,3.76,3.76,0,0,0,1,.62,1.59,1.59,0,0,0,2.14-.58,1.64,1.64,0,0,0-.56-2.19c-.1-.05-.2-.11-.3-.15s-.22-.1-.07,0-.19-.25-.19-.26a3.26,3.26,0,0,0-.34-.4,1.57,1.57,0,0,0-2.46.33,4.06,4.06,0,0,0-.27,2.34,1.57,1.57,0,1,0,3.13,0Z"/><rect class="cls-2" x="-34.25" y="31.67" width="34.5" height="31.78"/><path class="cls-3" d="M36.88,12.48a1.5,1.5,0,0,0,0-.22c0-.39-.11-.19-.32.59l-2.62-.71,0,.11a1.57,1.57,0,1,0,3-.85l0-.11a1.56,1.56,0,0,0-2.61-.71,2.33,2.33,0,0,0-.58,1.9,1.57,1.57,0,1,0,3.13,0Z"/><path class="cls-3" d="M37.06,27.45l.37.4,0-.09c.12.09.08.24,0,0s-.07-.32-.1-.48a1.58,1.58,0,0,0-1.92-1.12,1.65,1.65,0,0,0-1.1,2,2.77,2.77,0,0,0,1.2,2.11,1.59,1.59,0,0,0,2.14-.58,1.63,1.63,0,0,0-.56-2.19Z"/><rect class="cls-2" x="0.25" y="-0.11" width="34.5" height="31.78"/><path class="cls-3" d="M14.55,16.9a15,15,0,0,0-2.31,2.89,3.05,3.05,0,0,0-.44,2.33,2.18,2.18,0,0,0,2.42,1.45A1.63,1.63,0,0,0,15.79,22a1.6,1.6,0,0,0-1.57-1.6,1.71,1.71,0,0,1-.39,0,.62.62,0,0,1,.33.08,1,1,0,0,1,.53.49,2.4,2.4,0,0,1,.13.68c0,.2,0,.09,0,0-.07.38-.07.12,0,0l.18-.32.18-.27s.27-.37.16-.23.1-.13.13-.16l.25-.31.45-.51.55-.6c1.44-1.46-.78-3.73-2.21-2.27Z"/><path class="cls-3" d="M20.57,23.93V20a1.57,1.57,0,0,0-3.13,0v3.93a1.57,1.57,0,0,0,3.13,0Z"/><path class="cls-3" d="M35.57,21.24V18.12c0-1.64-3.13-1.64-3.13,0v3.12c0,1.65,3.13,1.65,3.13,0Z"/><path class="cls-4" d="M17.5,13.2a3.67,3.67,0,0,0,.88,3.52,1.57,1.57,0,0,0,2.21,0,1.65,1.65,0,0,0,0-2.27c-.11-.12-.13-.13-.07,0s.05.07,0-.07l.05.13c0-.16,0-.18,0-.07s0-.22,0-.21c0-.34-.06.21,0-.14a1.65,1.65,0,0,0-1.1-2A1.56,1.56,0,0,0,17.5,13.2Z"/><path class="cls-4" d="M23.73,18l-.31-.08.93,2.36.09-.15c-.06.06-.06.06,0,0s.26-.25.13-.16a1.67,1.67,0,0,0,.57-2.19A1.56,1.56,0,0,0,23,17.14a4.9,4.9,0,0,0-1.35,1.48A1.63,1.63,0,0,0,22.58,21l.32.09a1.59,1.59,0,0,0,1.93-1.12,1.65,1.65,0,0,0-1.1-2Z"/><path class="cls-4" d="M26.67,10.06h-.48a1.6,1.6,0,0,0-1.57,1.6,1.62,1.62,0,0,0,1.57,1.61h.48a1.61,1.61,0,0,0,0-3.21Z"/><path class="cls-4" d="M33.67,23.06h-.48a1.6,1.6,0,0,0-1.57,1.6,1.62,1.62,0,0,0,1.57,1.61h.48a1.61,1.61,0,0,0,0-3.21Z"/><path class="cls-3" d="M22.84,6.62a4.92,4.92,0,0,0-2.23.71,1.67,1.67,0,0,0-.56,2.2,1.56,1.56,0,0,0,2.14.57l.3-.17c-.09,0-.08,0,0,0s.53-.11.33-.09a1.61,1.61,0,0,0,0-3.21Z"/><path class="cls-3" d="M13,11.3c-.16,0-.33-.23-.44-.24s.05.1.05.08.14.53.19.74.07.46.13.69.07.23.11.35c.22.76-.17-.15.3-.53L14,12a5,5,0,0,1-1,.22,4.85,4.85,0,0,0-.55.09c-.25.06-.25.06,0,0l.79.22c.45.3.14.42.2,0a4.21,4.21,0,0,0,0-.71,1.57,1.57,0,0,0-3.13,0c0,1.43.31,3.64,2.14,3.69a8.7,8.7,0,0,0,2-.31,2.18,2.18,0,0,0,1.75-1.54,3.58,3.58,0,0,0-.18-1.86c-.12-.42-.16-.86-.29-1.28A2.91,2.91,0,0,0,13,8.09a1.61,1.61,0,0,0,0,3.21Z"/><path class="cls-3" d="M8.48,16.86h.25A1,1,0,0,1,8,16.51c-.1-.1-.24-.55-.22-.27a2.87,2.87,0,0,0,.08.38c0,.18,0,.18,0,0,0,.37.09.2.28-.52a1.68,1.68,0,0,0,0,2.27,1.55,1.55,0,0,0,2.21,0,3.14,3.14,0,0,0,.4-3.09,2.15,2.15,0,0,0-2.3-1.62,1.61,1.61,0,0,0,0,3.21Z"/><path class="cls-3" d="M4.87,10.28A2.9,2.9,0,0,0,3,11.83,1.66,1.66,0,0,0,3.54,14a1.56,1.56,0,0,0,2.14-.58,2,2,0,0,1,.11-.2c.06-.09,0-.08,0,0s-.39.16-.06.08a1.63,1.63,0,0,0,1.1-2,1.6,1.6,0,0,0-1.93-1.12Z"/><path class="cls-4" d="M9.28,7.28H7.84a1.6,1.6,0,0,0,0,3.2H9.28a1.6,1.6,0,0,0,0-3.2Z"/><path class="cls-3" d="M14.71,4.15c-1.39,1.19-.53,3.25.48,4.39a1.55,1.55,0,0,0,2.21,0,1.66,1.66,0,0,0,0-2.27c.18.21-.07-.12-.1-.17s-.21-.46-.09-.18c0,0-.15-.4-.15-.4l0,.55c-.3.44-.34.56-.12.35a1.65,1.65,0,0,0,0-2.27,1.56,1.56,0,0,0-2.21,0Z"/><path class="cls-4" d="M20.12,5.52a3.34,3.34,0,0,0,.4-.25c.07,0,.46-.28.38-.24s-.09,0,.09,0l.57,0a1.61,1.61,0,0,0,0-3.21A4.6,4.6,0,0,0,20,2a7.36,7.36,0,0,0-1.41.76A1.64,1.64,0,0,0,18,5a1.57,1.57,0,0,0,2.14.57Z"/><path class="cls-3" d="M24.62,5.61V6.75a1.57,1.57,0,1,0,3.13,0V5.61a1.57,1.57,0,1,0-3.13,0Z"/><path class="cls-3" d="M25.33,3.4l.47-.1c.33-.07-.15,0,.23,0A1.61,1.61,0,0,0,26,.08,7.84,7.84,0,0,0,24.5.3a1.62,1.62,0,0,0-1.1,2A1.6,1.6,0,0,0,25.33,3.4Z"/><path class="cls-3" d="M26.84,14.29A2.26,2.26,0,0,0,26,16.07a3.37,3.37,0,0,0,.58,1.63,1.57,1.57,0,0,0,2.14.58,1.65,1.65,0,0,0,.56-2.2,2.91,2.91,0,0,0-.27-.49.9.9,0,0,1,0,1q-.16.23.06,0a1.65,1.65,0,0,0,0-2.27,1.56,1.56,0,0,0-2.21,0Z"/><path class="cls-3" d="M23.72,22.72c.47,1.39,1.14,3.31,3,3.14a1.63,1.63,0,0,0,1.56-1.61,1.6,1.6,0,0,0-1.56-1.6c-.25,0,.14.05.21.08s.39.27.19.11c.13.1.13.22,0,0L27,22.58c.17.32,0-.07-.07-.21s-.1-.34-.16-.51a1.6,1.6,0,0,0-1.93-1.12,1.64,1.64,0,0,0-1.09,2Z"/><path class="cls-4" d="M21.72,27H22c.06,0,.39.07.17,0s.06,0,.08,0c.21.12-.36-.2.09.06a1.57,1.57,0,0,0,2.14-.58A1.64,1.64,0,0,0,24,24.34a4.37,4.37,0,0,0-2.23-.55,1.61,1.61,0,0,0,0,3.21Z"/><path class="cls-3" d="M21.88,14.57h.48a1.61,1.61,0,0,0,0-3.21h-.48a1.61,1.61,0,0,0,0,3.21Z"/><path class="cls-3" d="M28.77,8.06a1.82,1.82,0,0,1-.07.67c0,.15-.08.3-.13.45s-.12.38,0,.08a2.65,2.65,0,0,0,0,2.39,1.56,1.56,0,0,0,2.14.58,1.65,1.65,0,0,0,.56-2.2c0,.78.06,1,.16.6-.11.24-.07.15.11-.27a6,6,0,0,0,.19-.6,6.51,6.51,0,0,0,.23-1.7,1.57,1.57,0,1,0-3.13,0Z"/><path class="cls-4" d="M27.87,3.48A2.75,2.75,0,0,0,29.14,5,1.62,1.62,0,0,0,31,4.73a1.66,1.66,0,0,0,.24-1.94l-.14-.25a1.82,1.82,0,0,1,.13.51c0,.12,0,.09.08-.09l.18-.3A1.67,1.67,0,0,0,31,.46,1.58,1.58,0,0,0,28.82,1a4.07,4.07,0,0,0-.67,1.75,2.73,2.73,0,0,0,.43,1.62l2.14-2.2c-.16-.08-.17-.07,0,0s.12.15.06,0-.16-.34-.2-.43a1.55,1.55,0,0,0-2.14-.58,1.67,1.67,0,0,0-.56,2.2Z"/><path class="cls-4" d="M32.25,16.19a1.61,1.61,0,0,0,0-3.21c-2,0-2,3.21,0,3.21Z"/><path class="cls-3" d="M28.86,21.44a1.33,1.33,0,0,0,.4,0c-.76-.66-1-.8-.8-.41.06.14.07.16,0,0s.05.19.06.23c.13.46-.14.14.05-.39l.4-.71a.91.91,0,0,1,.93-.21l.69.41c.18.15.5.84.06,0a3.54,3.54,0,0,0-.39-.54,1.55,1.55,0,0,0-2.21,0,1.67,1.67,0,0,0,0,2.27.67.67,0,0,1-.21-.36l.15.38a2,2,0,0,0,.33.47,1.83,1.83,0,0,0,1.34.54,2,2,0,0,0,2-2,4.49,4.49,0,0,0-.58-1.89,2.23,2.23,0,0,0-2.25-1.06,1.61,1.61,0,0,0,0,3.21Z"/><path class="cls-3" d="M14.39,25.32a2.53,2.53,0,0,0-1.23,2,2.31,2.31,0,0,0,1.38,2A1.88,1.88,0,0,0,16.7,29,3.2,3.2,0,0,0,17.38,27a1.58,1.58,0,0,0-1.56-1.6A1.63,1.63,0,0,0,14.25,27c0-.21,0-.23,0,0s0,.16,0,0c.23-.59.8-.74,1.73-.45.44.74.43,1.24,0,1.52a1.67,1.67,0,0,0,.56-2.19,1.56,1.56,0,0,0-2.14-.58Z"/><path class="cls-4" d="M11,23c-.19.21-.37.43-.56.63a2.68,2.68,0,0,1-.3.28c.14-.11.14-.12,0,0a.81.81,0,0,1,.37-.12l1.35.79c-.21-.29-.08,0-.06.2s0,.12,0-.05a2.87,2.87,0,0,0,.05-.31,1.65,1.65,0,0,0-1.09-2A1.59,1.59,0,0,0,8.88,23.5a4.65,4.65,0,0,0-.07,1.82,1.92,1.92,0,0,0,2,1.58,4.22,4.22,0,0,0,2.39-1.68,1.66,1.66,0,0,0,0-2.27A1.56,1.56,0,0,0,11,23Z"/><path class="cls-3" d="M6.73,18.7s-.4.32-.15.15c0,0-.34.18-.2.12s-.19,0-.19,0l1.37.57a1.27,1.27,0,0,1-.12-.23,1.58,1.58,0,0,0-2.15-.57A1.65,1.65,0,0,0,4.73,21,2,2,0,0,0,7,22.11,4.23,4.23,0,0,0,9,21,1.66,1.66,0,0,0,9,18.7a1.58,1.58,0,0,0-2.22,0Z"/><path class="cls-4" d="M3.05,15.29a2.1,2.1,0,0,0-1.27,4,1.57,1.57,0,0,0,2.15-.58,1.67,1.67,0,0,0-.56-2.19l-.17-.12c-.19-.13-.09,0,.29.29l.21.81c-1.2.71-1.51,1.05-.91,1l.26,0a1.59,1.59,0,0,0,1.57-1.61,1.62,1.62,0,0,0-1.57-1.6Z"/><path class="cls-3" d="M12.06,3.31c-.15-.29,0,.3,0,0,.09.61-.4,1.43-1,1.44a1.61,1.61,0,0,0,0-3.21A2,2,0,0,0,9,2.94a2.67,2.67,0,0,0,.34,2,1.56,1.56,0,0,0,2.14.57,1.64,1.64,0,0,0,.56-2.19Z"/><path class="cls-3" d="M20.35,27.61a6.94,6.94,0,0,0-1.82.65,2,2,0,0,0-.3,3.38,4.41,4.41,0,0,0,2.48.47,2,2,0,0,0,1.75-.72,2.22,2.22,0,0,0,0-2.39,1.56,1.56,0,0,0-2.14-.57,1.64,1.64,0,0,0-.56,2.19,1.59,1.59,0,0,0-.07-.2L20.44,29a1.17,1.17,0,0,1,.4-.13h-.25c-.13,0-.26,0-.39,0h-.44c-.31,0,.17,0,.27.14l.4,1.56c.06-.36-.45.61-.24.39l-.08.08c.12-.13.16-.09,0,0l.27-.1c.27-.09.55-.15.83-.22a1.64,1.64,0,0,0,1.09-2,1.59,1.59,0,0,0-1.92-1.12Z"/><path class="cls-4" d="M24.36,28l-.16.33a1.66,1.66,0,0,0,.56,2.19A1.55,1.55,0,0,0,26.9,30l.16-.33a1.66,1.66,0,0,0-.56-2.19,1.55,1.55,0,0,0-2.14.57Z"/><path class="cls-3" d="M28.13,25.72a2.55,2.55,0,0,0,1.06,2.6,2.13,2.13,0,0,0,2.94-.62,1.62,1.62,0,0,0,0-1.62c-.31-.42-.69-.76-1-1.16a1.54,1.54,0,0,0-2.21,0,1.67,1.67,0,0,0,0,2.27c.1.13.21.24.32.36s.35.35.19.15V26.08l-.05.08.56-.58.53-.12c.21,0,.26.05.14,0s-.08,0,0,0a.9.9,0,0,1,.58.65c.08.09,0,.21,0,0a3,3,0,0,0,0-.42,1.6,1.6,0,0,0-1.56-1.6,1.63,1.63,0,0,0-1.57,1.6Z"/><path class="cls-3" d="M16.27,2c0-.22,0-.43-.05-.65s0-.23,0-.34c0-.3,0,.16-.1.27l-2.46.32c.33.31-.09-.18.16.18a3.37,3.37,0,0,0,.42.5,3.76,3.76,0,0,0,1,.62,1.59,1.59,0,0,0,2.14-.58,1.65,1.65,0,0,0-.56-2.2L16.47,0c-.1,0-.22-.1-.07,0s-.19-.25-.19-.26a3.26,3.26,0,0,0-.34-.4,1.57,1.57,0,0,0-2.46.33A4.06,4.06,0,0,0,13.14,2a1.57,1.57,0,1,0,3.13,0Z"/><path class="cls-4" d="M5.32,2.67c0-.2,0,0,0,0,.1-.11,0-.08,0,0l-.32.52A3,3,0,0,0,4.43,5.1a1.81,1.81,0,0,0,3.24.83,1.68,1.68,0,0,0,0-2.27,1.55,1.55,0,0,0-2.21,0c-.29.3-.08.24.63-.19l.79.22-.06,0,.56.58a.92.92,0,0,1,.11.91l.15-.27c.1-.17.22-.34.32-.52a4,4,0,0,0,.49-1.68A1.6,1.6,0,0,0,6.88,1.06,1.63,1.63,0,0,0,5.32,2.67Z"/><path class="cls-3" d="M3.21,6.78l1.22,1c0,.3,0,.38,0,.25a.76.76,0,0,1,0-.15,2.33,2.33,0,0,0-.27-1A1.82,1.82,0,0,0,2.42,6,1.63,1.63,0,0,0,.85,7.57c0,.78.7,1.72,1.57,1.61.7-.1-1-.56-1.08-1.13-.06-.27,0-.11,0,0a3,3,0,0,0,.17.85A1.78,1.78,0,0,0,3.21,10a1.61,1.61,0,0,0,0-3.21Z"/><path class="cls-3" d="M2.89,2.26,2.57,2.1a1.58,1.58,0,0,0-2.14.57A1.64,1.64,0,0,0,1,4.87L1.31,5a1.58,1.58,0,0,0,2.14-.57,1.65,1.65,0,0,0-.56-2.2Z"/><path class="cls-3" d="M2.39,12.48c0-.08,0-.15,0-.22,0-.39-.11-.19-.32.59l-2.62-.71,0,.11A1.61,1.61,0,0,0,1.4,13.37a1.62,1.62,0,0,0,1.09-2l0-.11a1.57,1.57,0,0,0-2.62-.71,2.33,2.33,0,0,0-.58,1.9,1.62,1.62,0,0,0,1.57,1.6,1.6,1.6,0,0,0,1.57-1.6Z"/><path class="cls-3" d="M2.64,21.23a2.72,2.72,0,0,0-1.92,2.9A2,2,0,0,0,2,25.76a3.94,3.94,0,0,0,1,.22c.06,0,.16,0,.22,0-.2.05-.47-.17-.58-.31A1.58,1.58,0,0,0,5,26a2.47,2.47,0,0,0,.51-2.59,7.49,7.49,0,0,0-.8-1.94,1.59,1.59,0,0,0-2.14-.58A1.65,1.65,0,0,0,2,23.1l.14.22c-.08-.13,0-.11,0,0s.14.41.21.62a3.52,3.52,0,0,1,.15.42c0,.09,0,.27,0,.09s-.08-.46.24-.74l2.46.33a2.75,2.75,0,0,0-1.47-1.18A6.63,6.63,0,0,0,3,22.78c.21,0,.23,0,.05,0a1.74,1.74,0,0,1,.33.18l.4.71c-.11-.29,0,.44,0,.45,0-.27-.08.13,0,0s-.17.16,0,0-.62.25-.29.2a1.62,1.62,0,0,0,1.09-2,1.6,1.6,0,0,0-1.92-1.12Z"/><path class="cls-3" d="M5.8,27.52c1.22-.7,1.53-1.07.92-1.11A1.58,1.58,0,0,0,5.16,28a1.63,1.63,0,0,0,1.56,1.61,2.06,2.06,0,0,0,2.21-2.1,1.59,1.59,0,0,0-1.57-1.6,1.61,1.61,0,0,0-1.56,1.6Z"/><path class="cls-3" d="M10.3,28.1a1.86,1.86,0,0,0-.77,3.14c.74.7,1.85.51,2.78.51a1.61,1.61,0,0,0,0-3.21H11.06l.69.41.1.15.22.81,0,.24-.4.71.07-.06-.69.41.12,0a1.64,1.64,0,0,0,1.09-2A1.59,1.59,0,0,0,10.3,28.1Z"/><path class="cls-3" d="M5,29.35A2.29,2.29,0,0,0,3.22,30a1.65,1.65,0,0,0,0,2.27,1.59,1.59,0,0,0,2.22,0c-.66.18-.82.29-.47.3A1.58,1.58,0,0,0,6.53,31,1.64,1.64,0,0,0,5,29.35Z"/><path class="cls-3" d="M2.57,27.45l.37.4,0-.09c.12.09.08.24,0,0s-.07-.32-.1-.48A1.58,1.58,0,0,0,.88,26.14a1.65,1.65,0,0,0-1.09,2A2.77,2.77,0,0,0,1,30.22a1.59,1.59,0,0,0,2.14-.58,1.64,1.64,0,0,0-.56-2.19Z"/><path class="cls-3" d="M31.5,32.56h1.11A1.6,1.6,0,0,0,34.18,31a1.62,1.62,0,0,0-1.57-1.61H31.5a1.61,1.61,0,0,0,0,3.21Z"/><path class="cls-3" d="M32,5.45A12.58,12.58,0,0,0,32,8.39a1.58,1.58,0,0,0,2.87.38L35,8.55a1.66,1.66,0,0,0-.56-2.2,1.58,1.58,0,0,0-2.15.58l-.13.22,2.86.39c0-.19,0-.21,0,0,0-.11,0-.23,0-.34a4.51,4.51,0,0,1,0-.52c0-.4.05-.79.05-1.18a1.57,1.57,0,1,0-3.13,0Z"/><rect class="cls-2" x="-34.25" y="-0.11" width="34.5" height="31.78"/><path class="cls-3" d="M1.08,21.24V18.12c0-1.64-3.13-1.64-3.13,0v3.12c0,1.65,3.13,1.65,3.13,0Z"/><path class="cls-4" d="M-.83,23.06h-.48a1.6,1.6,0,0,0-1.56,1.6,1.62,1.62,0,0,0,1.56,1.61h.48A1.61,1.61,0,0,0,.74,24.66a1.61,1.61,0,0,0-1.57-1.6Z"/><path class="cls-3" d="M-2.53,5.45a12.58,12.58,0,0,0,.08,2.94,1.57,1.57,0,0,0,2.86.38l.14-.22A1.66,1.66,0,0,0,0,6.35a1.57,1.57,0,0,0-2.14.58l-.13.22,2.86.39c0-.19,0-.21,0,0,0-.11,0-.23,0-.34s0-.35,0-.52c0-.4,0-.79.06-1.18A1.61,1.61,0,0,0-1,3.84,1.62,1.62,0,0,0-2.53,5.45Z"/><path class="cls-3" d="M20.35-4.17a6.94,6.94,0,0,0-1.82.65,2,2,0,0,0-.3,3.38,4.41,4.41,0,0,0,2.48.47,2,2,0,0,0,1.75-.72,2.22,2.22,0,0,0,0-2.39,1.56,1.56,0,0,0-2.14-.57,1.64,1.64,0,0,0-.56,2.19,1.18,1.18,0,0,0-.07-.2l.78-1.39a1.17,1.17,0,0,1,.4-.13h-.25l-.39,0h-.44c-.31,0,.17,0,.27.14l.4,1.56c.06-.36-.45.61-.24.39l-.08.08c.12-.13.16-.09,0,0l.27-.1c.27-.09.55-.15.83-.22a1.64,1.64,0,0,0,1.09-2,1.59,1.59,0,0,0-1.92-1.12Z"/><path class="cls-3" d="M5-2.43a2.29,2.29,0,0,0-1.75.64,1.65,1.65,0,0,0,0,2.27,1.59,1.59,0,0,0,2.22,0c-.66.18-.82.29-.47.3A1.58,1.58,0,0,0,6.53-.82,1.64,1.64,0,0,0,5-2.43Z"/><path class="cls-3" d="M31.5.78h1.11a1.61,1.61,0,0,0,1.57-1.6,1.62,1.62,0,0,0-1.57-1.61H31.5A1.61,1.61,0,0,0,29.93-.82,1.61,1.61,0,0,0,31.5.78Z"/></pattern></defs><title>tileslab</title><g id="Layer_2" data-name="Layer 2"><g id="Layer_1-2" data-name="Layer 1"><rect class="cls-7" x="8.69" y="8.33" width="103.54" height="103.54"/><path class="cls-8" d="M70.5,69.35c-1.45,3.07,5.15,20.53,4.92,22.4-.44,3.74-1.66,14,.92,16.24s31.8,3.78,33.9,2.13-.1-15.19.46-19.87c.78-6.55,1.07-17-1.52-19.15s-17-1.07-18.82-1.29S71.77,66.65,70.5,69.35Z"/><path class="cls-4" d="M70.59,69.39a5.26,5.26,0,0,0-.13,2.31,23.34,23.34,0,0,0,.4,2.34c.35,1.55.76,3.09,1.25,4.6,1,3,2,6,3,9.07.25.76.5,1.52.73,2.31a9.62,9.62,0,0,1,.29,1.25,2.5,2.5,0,0,1,0,.77l0,.6c-.14,1.58-.27,3.15-.36,4.72s-.15,3.14-.1,4.69a15.09,15.09,0,0,0,.63,4.4,3.56,3.56,0,0,0,.45.78c.05,0,.08.11.13.16l.12.08a4.34,4.34,0,0,0,.43.21,16.87,16.87,0,0,0,2.18.63c1.52.34,3.09.6,4.65.84q4.71.7,9.48,1c3.17.22,6.35.3,9.53.26a43.82,43.82,0,0,0,4.73-.26c.38,0,.77-.11,1.14-.19a1.91,1.91,0,0,0,.84-.31,4,4,0,0,0,.53-2,73.22,73.22,0,0,0-.42-9.43c-.13-1.59-.26-3.18-.34-4.8,0-.81,0-1.62,0-2.46s.15-1.64.21-2.42a72.22,72.22,0,0,0,.23-9.41,30.73,30.73,0,0,0-.52-4.56,8.78,8.78,0,0,0-.64-2,1.77,1.77,0,0,0-1.14-1.05,17.64,17.64,0,0,0-4.38-.74c-1.55-.12-3.13-.15-4.71-.18L94,70.63c-.79,0-1.59,0-2.4,0-.41,0-.81,0-1.28-.08s-.8-.15-1.2-.22c-3.13-.62-6.25-1.18-9.41-1.58A41.81,41.81,0,0,0,75,68.37a15.62,15.62,0,0,0-2.37.13,6.48,6.48,0,0,0-1.14.26A1.52,1.52,0,0,0,70.59,69.39Zm-.18-.08a1.64,1.64,0,0,1,1-.75,6,6,0,0,1,1.18-.3,19.25,19.25,0,0,1,2.4-.19c1.6,0,3.19,0,4.79.1,3.2.16,6.38.49,9.55.83.4,0,.81.09,1.17.11s.72,0,1.11,0L94,69c1.59-.1,3.19-.17,4.8-.2s3.21,0,4.84.07a19.06,19.06,0,0,1,5,.8,2.73,2.73,0,0,1,.69.31,2.81,2.81,0,0,1,.68.49,6.14,6.14,0,0,1,.54.62l.37.65a10.58,10.58,0,0,1,.82,2.52,28.77,28.77,0,0,1,.52,4.93,75.92,75.92,0,0,1-.45,9.67c-.08.81-.21,1.62-.25,2.34s0,1.53,0,2.31c0,1.57.08,3.16.15,4.75s.13,3.19.14,4.8a34.72,34.72,0,0,1-.22,4.86,4.49,4.49,0,0,1-.93,2.52,2.5,2.5,0,0,1-1.35.51,10.53,10.53,0,0,1-1.23.14c-1.61.1-3.21.11-4.81.11-3.2,0-6.38-.18-9.57-.32s-6.38-.3-9.57-.57c-1.59-.14-3.19-.31-4.79-.58a16.12,16.12,0,0,1-2.44-.56,4.16,4.16,0,0,1-.67-.28l-.38-.23c-.1-.09-.18-.19-.27-.28a4.19,4.19,0,0,1-.81-1.24,14.79,14.79,0,0,1-.88-5A41.52,41.52,0,0,1,74,97.24c.12-1.61.31-3.2.54-4.79l.09-.59a1.5,1.5,0,0,0,0-.41c0-.33-.1-.72-.18-1.09-.16-.76-.34-1.53-.53-2.3-.77-3.09-1.61-6.17-2.34-9.28-.35-1.56-.73-3.11-1-4.68-.13-.79-.28-1.58-.36-2.38A5.35,5.35,0,0,1,70.41,69.31Z"/><path class="cls-9" d="M74.11,71.46c-1.24,2.64,4.43,17.65,4.24,19.25-.39,3.22-1.44,12.06.78,14s27.34,3.25,29.14,1.83-.08-13.06.39-17.07c.67-5.63.92-14.57-1.3-16.47s-14.57-.91-16.17-1.1S75.2,69.14,74.11,71.46Z"/><path class="cls-8" d="M72.38,109.41c-3.2,1.15-12.27-.51-14.26.21s-7.92,2.85-9.46-.18S59.48,82.27,61.3,74.9s0-16.13,3.76-15.68S66.53,70.78,68,74.74s3.83,15.63,4.32,19.49C72.55,96.31,74.36,108.7,72.38,109.41Z"/><path class="cls-4" d="M72.41,109.51a14,14,0,0,1-4.07.45c-1.37,0-2.73,0-4.09,0s-2.73-.07-4.06,0a6.78,6.78,0,0,0-1.85.23c-.62.25-1.27.52-1.93.74a15.23,15.23,0,0,1-4.15,1,6.07,6.07,0,0,1-2.32-.25,3.5,3.5,0,0,1-2-1.65,2.32,2.32,0,0,1-.24-.79,3.72,3.72,0,0,1,0-.66,6.83,6.83,0,0,1,.14-1.14c.14-.71.33-1.39.53-2.06.4-1.33.91-2.62,1.41-3.89,2.09-5.06,4.58-9.91,6.78-14.88,1.09-2.49,2.15-5,3.08-7.54a32.31,32.31,0,0,0,1.21-3.85,27.62,27.62,0,0,0,.6-4c.25-2.68.13-5.38.37-8.16a13,13,0,0,1,.36-2.15,5.28,5.28,0,0,1,.45-1.14,2.71,2.71,0,0,1,1-1.06,2.54,2.54,0,0,1,1.49-.3,2.62,2.62,0,0,1,1.43.56,4.45,4.45,0,0,1,1.3,2.22,19.5,19.5,0,0,1,.54,4.26c.06,1.39.06,2.75.09,4.1a32.32,32.32,0,0,0,.26,3.9,8.21,8.21,0,0,0,.2.85l.32,1c.21.67.41,1.34.58,2a116.55,116.55,0,0,1,3,16.13c.24,2.73.47,5.45.57,8.18,0,1.37.1,2.73,0,4.1a20.4,20.4,0,0,1-.15,2,5.9,5.9,0,0,1-.23,1A1.36,1.36,0,0,1,72.41,109.51Zm-.07-.19a1.24,1.24,0,0,0,.52-.74,6.07,6.07,0,0,0,.19-1,13.54,13.54,0,0,0,.09-2,36.8,36.8,0,0,0-.31-4c-.33-2.68-.8-5.37-1.31-8s-1.2-5.28-1.8-7.92-1.23-5.27-2-7.85c-.18-.65-.36-1.29-.55-1.92l-.33-1a10.13,10.13,0,0,1-.26-1.13,26.81,26.81,0,0,1-.24-4.24c0-1.37,0-2.73,0-4.06A17.93,17.93,0,0,0,66,61.6a2.59,2.59,0,0,0-.64-1.3.93.93,0,0,0-.44-.19.87.87,0,0,0-.48.06,1.84,1.84,0,0,0-.7,1.12,10.55,10.55,0,0,0-.39,1.86c-.32,2.62-.45,5.38-.86,8.1a28.19,28.19,0,0,1-.86,4.06c-.41,1.33-.9,2.6-1.4,3.87-1,2.54-2.08,5-3.13,7.55s-2,5-3,7.59S52.17,99.4,51.29,102c-.46,1.27-.87,2.55-1.26,3.81-.19.64-.36,1.27-.48,1.89,0,.31-.1.61-.12.88a1.44,1.44,0,0,0,0,.36.74.74,0,0,0,0,.18,2.89,2.89,0,0,0,2.75,1.14,16.27,16.27,0,0,0,3.84-.56c.65-.16,1.27-.35,1.94-.55a7.26,7.26,0,0,1,2.2-.1c1.39.08,2.74.24,4.09.38s2.7.26,4.06.31A13,13,0,0,0,72.34,109.32Z"/><path class="cls-9" d="M70.22,105.72c-2.38.86-9.14-.38-10.61.16s-5.91,2.12-7-.14,8.31-23,9.67-28.51,1-11,1.54-11.89C65.23,63,64.87,74,65.93,76.9a163.51,163.51,0,0,1,4.22,17.51C70.35,96,71.7,105.19,70.22,105.72Z"/><path class="cls-8" d="M69.15,40.73s26.42,1.24,32.3,7.63,12.14,17.57,8.29,18.06-18.82-1.28-20.8-.57c-2.51.9-13.72-.37-17.06-.13C67.22,66.05,65.38,44.79,69.15,40.73Z"/><path class="cls-4" d="M69.12,40.64a98.3,98.3,0,0,1,15.07.9,70.49,70.49,0,0,1,7.44,1.38,31,31,0,0,1,7.23,2.6A11,11,0,0,1,102,48c.82,1,1.6,2,2.33,3a70,70,0,0,1,4,6.39c.62,1.1,1.18,2.23,1.7,3.38a13,13,0,0,1,1.14,3.67,3.33,3.33,0,0,1,0,1,1.66,1.66,0,0,1-.57,1,2,2,0,0,1-1.07.39c-.32,0-.65.08-1,.08-1.27.08-2.53.06-3.79,0-2.51,0-5-.09-7.51-.21l-3.73-.12c-1.24,0-2.5-.07-3.64,0-.13,0-.3,0-.4,0a1.26,1.26,0,0,1-.28,0,6.14,6.14,0,0,1-1.1.25,17.27,17.27,0,0,1-2,.17c-1.29,0-2.55,0-3.81,0-2.52-.06-5-.25-7.49-.35-.62,0-1.24-.06-1.84-.06h-1.1l-.39,0a2.07,2.07,0,0,1-.75-.19A4.13,4.13,0,0,1,69,64.88,10.25,10.25,0,0,1,68.11,63a29.18,29.18,0,0,1-1.49-7.58,42.87,42.87,0,0,1,.08-7.6,23.78,23.78,0,0,1,.68-3.75A7.46,7.46,0,0,1,69.12,40.64Zm.07.18A8.4,8.4,0,0,0,68,44.22a29.93,29.93,0,0,0-.3,3.67,46.48,46.48,0,0,0,.48,7.37,30.09,30.09,0,0,0,1.72,7,9.35,9.35,0,0,0,.77,1.48,2.26,2.26,0,0,0,.89.86.32.32,0,0,0,.16,0h.32a8.31,8.31,0,0,1,1,0c.65,0,1.29,0,1.92,0,2.52.1,5,.26,7.49.4,1.24.06,2.47.11,3.68.1a14.09,14.09,0,0,0,1.76-.09,5.71,5.71,0,0,0,.73-.13c.22,0,.43-.1.65-.13a5.11,5.11,0,0,1,.53,0,65.12,65.12,0,0,1,7.61.4l7.46.7c1.24.09,2.49.18,3.71.18.6,0,1.29,0,1.6-.2s.42-.84.38-1.41a11.42,11.42,0,0,0-1-3.48,32.07,32.07,0,0,0-1.71-3.29,45.56,45.56,0,0,0-4.36-6c-.8-.95-1.62-1.87-2.48-2.74A9.88,9.88,0,0,0,98.1,47c-4.37-2-9.3-3-14.16-3.93S74.07,41.48,69.19,40.82Z"/><path class="cls-9" d="M73.71,42.88s20.92,1,25.58,6,9.61,13.91,6.56,14.3-14.9-1-16.47-.45c-2,.71-10.87-.3-13.51-.11C72.18,62.94,70.72,46.1,73.71,42.88Z"/><path class="cls-8" d="M46.82,37.13c-2.1,1.65,3.16,21.24,7.73,22.74s12.71-3.24,10.2-14C56.88,40.22,48.91,35.48,46.82,37.13Z"/><path class="cls-4" d="M46.88,37.21a2,2,0,0,0-.39,1.26,7.43,7.43,0,0,0,.06,1.41,16.55,16.55,0,0,0,.58,2.78c.51,1.83,1.18,3.61,1.8,5.39s1.21,3.56,1.86,5.32a20.05,20.05,0,0,0,2.42,5c1,1.6,3.13,1.67,4.87,1.2a9.92,9.92,0,0,0,1.28-.49,8.06,8.06,0,0,0,1.15-.74l.54-.41c.17-.15.32-.32.48-.48a6.6,6.6,0,0,0,.86-1,10.38,10.38,0,0,0,1.79-4.94,15.75,15.75,0,0,0-.46-5.32l.41.61L55.8,40.94C54.42,40,53,39,51.56,38.16a12.45,12.45,0,0,0-2.31-1A2.87,2.87,0,0,0,46.88,37.21Zm-.13-.16a3.41,3.41,0,0,1,2.58-.24,21.19,21.19,0,0,1,2.51.71,39.58,39.58,0,0,1,4.81,2,42.45,42.45,0,0,1,4.48,2.6C62.58,43,64,44,65.36,45.05l.34.25.07.36A17.86,17.86,0,0,1,66,51.72a10.37,10.37,0,0,1-2.62,5.48,10.09,10.09,0,0,1-5.12,3,8,8,0,0,1-3,.15l-.74-.16a3.17,3.17,0,0,1-.73-.32,5.41,5.41,0,0,1-1.19-1,24.8,24.8,0,0,1-5.32-10.35,36,36,0,0,1-.93-5.74c-.09-1-.14-1.93-.16-2.9a14.05,14.05,0,0,1,0-1.45A2.19,2.19,0,0,1,46.75,37.05Z"/><path class="cls-9" d="M49.65,39.88c-1.51,1.18,2.27,15.26,5.55,16.33s9.14-2.32,7.33-10C56.88,42.1,51.15,38.69,49.65,39.88Z"/><path class="cls-8" d="M59.27,68c1.86,5.16-6.85,25.74-8.72,25.52s-3.79-8-4.5-10-4.88-14.81-4.11-21.36,3.48-5.28,3.48-5.28C48.82,60.13,57.13,62.07,59.27,68Z"/><path class="cls-4" d="M59.37,68a6.71,6.71,0,0,1,.28,2.13,19.06,19.06,0,0,1-.13,2.14c-.14,1.42-.38,2.83-.64,4.23a47,47,0,0,1-2.36,8.24,37.76,37.76,0,0,1-4,7.64,9.3,9.3,0,0,1-.7.88,3.55,3.55,0,0,1-.43.44,1.94,1.94,0,0,1-.3.21,1.14,1.14,0,0,1-.19.1,1.8,1.8,0,0,1-.32.06,1.27,1.27,0,0,1-.78-.3,2.16,2.16,0,0,1-.45-.46,5.61,5.61,0,0,1-.6-1,31.25,31.25,0,0,1-1.55-4c-.45-1.35-.85-2.71-1.31-4s-1-2.65-1.47-4-.92-2.69-1.35-4-.79-2.74-1.11-4.14a39.28,39.28,0,0,1-1.18-8.61,16.47,16.47,0,0,1,.7-4.48,6.16,6.16,0,0,1,1.24-2.23,2.74,2.74,0,0,1,3.1-.79L46,56l.14.13a22.32,22.32,0,0,0,3.46,2.51c1.27.79,2.55,1.62,3.81,2.5a23.82,23.82,0,0,1,3.52,3A10.84,10.84,0,0,1,59.37,68Zm-.19.07a8.8,8.8,0,0,0-2.58-3.59,18.42,18.42,0,0,0-3.76-2.39c-1.33-.68-2.72-1.24-4.09-1.92a17.12,17.12,0,0,1-4-2.53l.26.18c.09,0,0,0-.09,0a.39.39,0,0,0-.18,0,1,1,0,0,0-.42.33,4.55,4.55,0,0,0-.74,1.48,16,16,0,0,0-.65,3.87,40.47,40.47,0,0,0,.8,8.2q.75,4.13,1.75,8.24c.35,1.37.71,2.71,1.14,4.08s.77,2.72,1.22,4a20.45,20.45,0,0,0,1.67,3.82,5.26,5.26,0,0,0,.6.77c.18.21.49.38.51.32s-.05,0-.06,0,0,0,0,0a.57.57,0,0,0,.12-.11,3.89,3.89,0,0,0,.28-.35,8.73,8.73,0,0,0,.52-.85,39,39,0,0,0,1.76-3.75l1.62-3.87c1-2.6,2.18-5.16,3.11-7.81a30.2,30.2,0,0,0,1.17-4A9.05,9.05,0,0,0,59.18,68.05Z"/><path class="cls-9" d="M57.66,68.31c1.41,3.93-5.21,19.57-6.63,19.41s-2.88-6.12-3.42-7.62S43.9,68.84,44.49,63.86s2.64-4,2.64-4C49.72,62.32,56,63.79,57.66,68.31Z"/><path class="cls-8" d="M39.67,73.28c1.92,7.81,12.57,30,7.34,34.07s-20.91.36-23.94,1.9-10.74,2.52-11.34-.4,1.8-31.09.48-36S10.14,58.38,12,58.61s12.16,1.44,15.08.84,9-3.68,11.67-2.41S39.67,73.28,39.67,73.28Z"/><path class="cls-4" d="M39.77,73.27c1.07,3.27,2.5,6.47,3.76,9.71s2.58,6.49,3.65,9.83a37,37,0,0,1,2.14,10.46,8.86,8.86,0,0,1-.43,2.87c-.11.24-.2.48-.33.72a6.32,6.32,0,0,1-.47.68,5.43,5.43,0,0,1-.62.57l-.63.4A13.21,13.21,0,0,1,41.49,110a65,65,0,0,1-10.56-.36c-1.74-.15-3.47-.33-5.18-.37a8.93,8.93,0,0,0-1.27,0l-.61.06-.55.16a15,15,0,0,1-2.52.86,19.85,19.85,0,0,1-5.27.62,7.19,7.19,0,0,1-2.67-.51,2.7,2.7,0,0,1-1.16-.9,3,3,0,0,1-.31-.71l-.07-.7c-.1-3.54,0-7,.09-10.49.11-7,.4-13.95.23-20.83,0-.86-.09-1.7-.17-2.53,0-.42-.13-.76-.19-1.15L11,71.9a47.7,47.7,0,0,1-.88-5.26,32.07,32.07,0,0,1-.22-5.39A12.6,12.6,0,0,1,10,59.82a3.56,3.56,0,0,1,.71-1.72,1.68,1.68,0,0,1,.74-.49,2,2,0,0,1,.77,0l.65.07,1.29.15c3.43.41,6.9.75,10.3.87a14.34,14.34,0,0,0,2.41-.1,21.07,21.07,0,0,0,2.41-.68c1.64-.53,3.31-1.11,5.07-1.52A11.3,11.3,0,0,1,37.15,56a4.4,4.4,0,0,1,1.49.25l.38.14a2.55,2.55,0,0,1,.43.3,2.79,2.79,0,0,1,.53.71,8.44,8.44,0,0,1,.65,2.75c.09.9.11,1.79.11,2.67,0,1.76-.13,3.51-.3,5.25S40.06,71.58,39.77,73.27Zm-.2,0a95.58,95.58,0,0,0,.16-10.42c0-.85-.12-1.71-.25-2.54A7.25,7.25,0,0,0,38.82,58a2,2,0,0,0-.26-.33l-.11-.06-.24-.07a3.32,3.32,0,0,0-1.07-.11,11.37,11.37,0,0,0-2.39.4c-1.62.43-3.23,1.06-4.88,1.66a24.09,24.09,0,0,1-2.6.82,15.23,15.23,0,0,1-2.79.22A101.92,101.92,0,0,1,14,59.9l-1.3-.14L12,59.68c-.21,0,0,0,.12,0a.4.4,0,0,0,.21-.13,2.93,2.93,0,0,0-.21.7c-.06.36-.1.76-.13,1.16a35.68,35.68,0,0,0,.17,5,42.37,42.37,0,0,0,.74,5l.28,1.25c.07.47.18,1,.22,1.43.07.9.12,1.8.12,2.68.06,3.53-.12,7-.31,10.5s-.46,7-.71,10.43L12.16,103c-.1,1.73-.21,3.49-.14,5.18l.05.61a2.46,2.46,0,0,0,.2.47,2,2,0,0,0,.87.68,6.83,6.83,0,0,0,2.42.5,17.76,17.76,0,0,0,5.07-.63,13.45,13.45,0,0,0,2.39-.89l.7-.24.68-.1c.45-.08.89-.06,1.34-.1,1.77-.06,3.51,0,5.26.07a65.52,65.52,0,0,0,10.31-.17,12.54,12.54,0,0,0,4.6-1.37l.48-.29c.15-.1.22-.22.34-.31s.17-.27.27-.39.13-.32.2-.47a7.4,7.4,0,0,0,.35-2.27,24.43,24.43,0,0,0-.59-5c-.35-1.68-.78-3.35-1.26-5-1-3.32-2-6.63-3.15-9.93-.57-1.64-1.1-3.31-1.61-5A47.63,47.63,0,0,1,39.57,73.28Z"/><path class="cls-9" d="M37.84,72.51c1.48,6,9.71,23.15,5.66,26.33s-16.16.28-18.5,1.47-8.29,2-8.76-.31,1.39-24,.38-27.81S15,61,16.46,61.18s9.39,1.11,11.65.65S35,59,37.13,60,37.84,72.51,37.84,72.51Z"/><path class="cls-8" d="M43.88,53.85c-2.67,2.11-16.12,0-21,1.3s-12.61,2.3-12.28-.51,1.74-22.56.42-27.46-.54-11.44,1.22-10.29,6.93,5.57,9.63,6.84,17.21,6.79,20.4,11.91S44.93,53,43.88,53.85Z"/><path class="cls-4" d="M43.94,53.93a8.75,8.75,0,0,1-3.9,1c-1.33.12-2.67.14-4,.19-2.67.09-5.34.09-8,.23a34.67,34.67,0,0,0-3.88.39,17.94,17.94,0,0,0-1.86.46c-.66.17-1.32.33-2,.47a32,32,0,0,1-4,.61,14.19,14.19,0,0,1-4.24-.18,4,4,0,0,1-1.15-.45,2.18,2.18,0,0,1-1-1.16,1.87,1.87,0,0,1-.09-.8c0-.24.05-.34.07-.52l.12-1,.44-4c.28-2.65.51-5.3.64-8s.19-5.31.1-8l-.09-2c-.07-.66-.11-1.32-.21-2l-.14-1-.21-.93c-.17-.64-.35-1.32-.47-2a22.31,22.31,0,0,1-.41-4.08,10.78,10.78,0,0,1,.65-4.25,2.83,2.83,0,0,1,.37-.59,1.52,1.52,0,0,1,.84-.54,1.5,1.5,0,0,1,1.08.18l.47.31c.58.39,1.11.79,1.65,1.18L17.93,20c1.06.77,2.14,1.53,3.23,2.19a13.53,13.53,0,0,0,1.66.83l1.84.76c2.47,1,4.92,2.11,7.34,3.31a50.25,50.25,0,0,1,7,4.14,17.85,17.85,0,0,1,3.11,2.81A10,10,0,0,1,44,37.91,31.67,31.67,0,0,1,44.91,46c0,1.34,0,2.68-.14,4-.05.67-.11,1.34-.21,2-.05.33-.11.66-.19,1A2.12,2.12,0,0,1,43.94,53.93Zm-.12-.15a4.59,4.59,0,0,0,.5-1.83c.08-.66.14-1.32.16-2a32.79,32.79,0,0,0-.12-4,29.27,29.27,0,0,0-1.62-7.67,9.15,9.15,0,0,0-1.89-3.14A14,14,0,0,0,39.44,34a17.57,17.57,0,0,0-1.55-1.13A56.7,56.7,0,0,0,31.05,29c-2.36-1.17-4.78-2.22-7.21-3.3L22,24.91a14.58,14.58,0,0,1-1.87-1c-1.18-.75-2.26-1.56-3.33-2.38s-2.11-1.64-3.14-2.48c-.52-.41-1-.83-1.55-1.22l-.35-.25s0,0,.12,0,0,0-.14.25a6.32,6.32,0,0,0-.49,1.67,17,17,0,0,0-.22,1.9,21,21,0,0,0,.13,3.88c.08.65.2,1.27.34,1.92l.17,1,.09,1c.09,1.35.11,2.69.12,4,0,2.68-.06,5.34-.13,8l-.18,8c0,1.34-.09,2.67-.15,4l-.06,1c0,.15,0,.38,0,.47a.34.34,0,0,0,0,.19c0,.15.49.39,1.05.49a14.42,14.42,0,0,0,3.72,0c1.28-.12,2.57-.33,3.86-.56s2.47-.59,4-.78a28,28,0,0,1,4.09-.07c2.69.12,5.34.36,8,.51,1.33.09,2.66.1,4,.06a15.87,15.87,0,0,0,2-.21A4.93,4.93,0,0,0,43.82,53.78Z"/><path class="cls-9" d="M40.86,51c-2.1,1.66-12.7,0-16.56,1s-9.93,1.81-9.66-.4S16,33.8,15,29.94s-.43-9,1-8.1,5.45,4.38,7.58,5.38,13.56,5.35,16.07,9.38S41.69,50.3,40.86,51Z"/><path class="cls-8" d="M36.92,24.57C31.91,26.37,11.73,13,11.73,13c.34-2.81,15.19-.09,18.11-.69s9.8-2.63,10.51-.65S38.91,23.86,36.92,24.57Z"/><path class="cls-4" d="M37,24.66a7.48,7.48,0,0,1-3.55-.09c-1.16-.24-2.31-.55-3.44-.9A38.1,38.1,0,0,1,23.39,21a52.23,52.23,0,0,1-6-3.7c-1.94-1.33-3.83-2.73-5.81-4l-.16-.11,0-.19a1.61,1.61,0,0,1,1.13-1.13,6.88,6.88,0,0,1,1.38-.32c.92-.14,1.83-.19,2.74-.24,1.83-.07,3.64-.05,5.45,0l5.38.19A8.62,8.62,0,0,0,30,11.3l2.61-.66a24.68,24.68,0,0,1,5.56-.83,5.83,5.83,0,0,1,1.63.22,2.41,2.41,0,0,1,1,.51,1.84,1.84,0,0,1,.43.52,3.09,3.09,0,0,1,.14.32l.07.26a8.89,8.89,0,0,1-.14,3,33.55,33.55,0,0,1-1.55,5.29c-.31.86-.66,1.71-1,2.53-.21.41-.41.82-.65,1.21A2.37,2.37,0,0,1,37,24.66Zm-.07-.18a2.2,2.2,0,0,0,.85-.93,6.6,6.6,0,0,0,.55-1.21,16.39,16.39,0,0,0,.7-2.58,35.51,35.51,0,0,0,.58-5.29c0-.44,0-.87,0-1.29a4.54,4.54,0,0,0-.11-1.08l0-.07h0s0,0,0,0a.83.83,0,0,0-.24-.09,3.73,3.73,0,0,0-1-.08,31.89,31.89,0,0,0-5.1.81l-2.66.55a10.91,10.91,0,0,1-2.94.09c-1.84-.12-3.62-.35-5.41-.57s-3.56-.48-5.34-.59a15.62,15.62,0,0,0-2.65,0,5,5,0,0,0-1.25.25c-.39.13-.72.36-.74.63l-.14-.3A64.27,64.27,0,0,0,18,16.21c2.09,1.06,4.17,2.09,6.21,3.21s4,2.32,6.09,3.38a21,21,0,0,0,3.19,1.39A6,6,0,0,0,36.89,24.48Z"/><path class="cls-9" d="M35.9,22.76c-3.58,1.29-18-8.24-18-8.24.24-2,10.85-.06,12.93-.49s7-1.88,7.51-.47S37.32,22.25,35.9,22.76Z"/><path class="cls-8" d="M62.2,11.45c2.84,1.86,2.17,29.66-1.47,28.28s-9.62-6.83-12.31-8.1-7.79-3-8.8-5.79c-.71-2,4.41-5.17,5.07-10.78S60.44,10.29,62.2,11.45Z"/><path class="cls-4" d="M62.25,11.36A2.49,2.49,0,0,1,63,12.55a12.22,12.22,0,0,1,.38,1.31c.23.89.36,1.79.52,2.68.29,1.8.53,3.61.67,5.43a45.39,45.39,0,0,1-.31,10.92,26,26,0,0,1-1.38,5.39,5.25,5.25,0,0,1-.74,1.31,1.7,1.7,0,0,1-.73.55,1.15,1.15,0,0,1-1-.09A17.69,17.69,0,0,1,58,38.68c-3-2-5.89-4.29-9-6.06-1.48-.8-3.3-1.27-5-2a11.74,11.74,0,0,1-4.78-3.3,3.92,3.92,0,0,1-.43-.72l-.19-.39a4.1,4.1,0,0,1-.11-.61,3.47,3.47,0,0,1,.49-1.8,24.78,24.78,0,0,1,1.57-2.36A18,18,0,0,0,43.15,17a9.86,9.86,0,0,0,.36-1.17l.11-.6.16-.76a4.58,4.58,0,0,1,2-2.66,8.65,8.65,0,0,1,2.76-1.11,15.82,15.82,0,0,1,2.79-.42,36.12,36.12,0,0,1,5.51.1c.9.1,1.81.18,2.71.33A9,9,0,0,1,62.25,11.36Zm-.11.17A8.09,8.09,0,0,0,59.56,11a24.1,24.1,0,0,0-2.69-.07,29.2,29.2,0,0,0-5.3.65,13.56,13.56,0,0,0-4.66,1.83,2.76,2.76,0,0,0-1.14,1.56l0,.22-.06.34-.12.74a11.57,11.57,0,0,1-.38,1.43,18,18,0,0,1-2.83,5,23.63,23.63,0,0,0-1.52,2.09,2.21,2.21,0,0,0-.3.74,0,0,0,0,1,0,.06l.1.23a2.46,2.46,0,0,0,.25.44,11.34,11.34,0,0,0,3.93,3l2.4,1.2a18.41,18.41,0,0,1,2.44,1.35c1.54,1,2.89,2.24,4.33,3.33a44.3,44.3,0,0,0,4.4,3.11,13.41,13.41,0,0,0,2.38,1.16c.46.31.84-.61,1.09-1.39a27.73,27.73,0,0,0,.77-5.21c.3-3.55.48-7.12.71-10.7.08-1.8.16-3.6.07-5.39a20,20,0,0,0-.28-2.68,8.23,8.23,0,0,0-.32-1.3A2.31,2.31,0,0,0,62.14,11.53Z"/><path class="cls-9" d="M60.77,12.74c2,1.43,1.35,23-1.25,21.92s-6.87-5.23-8.8-6.19S45.15,26.21,44.44,24c-.5-1.53,3.2-4,3.72-8.38S59.51,11.86,60.77,12.74Z"/><path class="cls-8" d="M67.93,35.09c3.94,2.5,10.9,4,14.64,4.47s13.61,5.26,15.8,2.79S109.43,29.09,110,24.6s2.43-12.46-2.35-12.12-21.84.14-24.64-.19-11.12-2.23-13.2-.66,1,7.41-.24,10S66.16,34,67.93,35.09Z"/><path class="cls-4" d="M68,35a25.32,25.32,0,0,0,7.49,2.87c1.31.29,2.63.54,4,.74.66.1,1.32.18,2,.25s1.32.09,2,.22a33.87,33.87,0,0,1,4,1l3.86,1.14a29.65,29.65,0,0,0,3.8.87,7.55,7.55,0,0,0,1.76.05,1.72,1.72,0,0,0,.65-.2.75.75,0,0,0,.2-.15l.34-.37c1.8-2,3.55-4,5.23-6.1A55.24,55.24,0,0,0,108,28.75a15.43,15.43,0,0,0,1.58-3.62c.15-.6.19-1.31.3-2l.26-2a28.18,28.18,0,0,0,.25-4,10,10,0,0,0-.21-1.92,3.18,3.18,0,0,0-.72-1.57,1.68,1.68,0,0,0-1.39-.57h-.43l-.51,0-1,.08c-1.36.11-2.71.16-4.07.2-2.7.08-5.4.14-8.11.13s-5.41,0-8.12-.07c-.68,0-1.36,0-2-.08s-1.44-.14-2.11-.25l-4-.64a38,38,0,0,0-3.92-.46,14.78,14.78,0,0,0-1.88,0,3.75,3.75,0,0,0-1.46.33c-.22.1-.39.47-.42,1A9.76,9.76,0,0,0,70,15.28c.15,1.3.41,2.64.44,4.08a5.42,5.42,0,0,1-.34,2.24,4.41,4.41,0,0,1-.23.48l-.2.44c-.13.29-.25.6-.37.91-.45,1.25-.83,2.54-1.16,3.84a29.32,29.32,0,0,0-.71,4,13.33,13.33,0,0,0-.07,2A2.56,2.56,0,0,0,68,35Zm-.11.17a1.53,1.53,0,0,1-.55-.91,5.72,5.72,0,0,1-.17-1,17.36,17.36,0,0,1,0-2c.07-1.35.27-2.7.47-4a37.56,37.56,0,0,1,.83-4c.09-.33.18-.66.29-1l.18-.51a4.27,4.27,0,0,0,.16-.45,4.44,4.44,0,0,0,.07-1.76c-.15-1.25-.55-2.54-.8-3.9a11.56,11.56,0,0,1-.24-2.19c0-.21,0-.41,0-.62s.1-.44.16-.66a6.24,6.24,0,0,1,.35-.68,4.38,4.38,0,0,1,.57-.57,5,5,0,0,1,2.4-.76,15.69,15.69,0,0,1,2.16,0c1.41.06,2.77.21,4.13.4s2.69.43,4,.64a18.46,18.46,0,0,0,1.91.24l2,.12c2.68.13,5.37.21,8.06.27l8.08.16,4,0h1.49l.59,0a3.44,3.44,0,0,1,1.19.28,3,3,0,0,1,1,.79,4.32,4.32,0,0,1,.85,2.1,10.75,10.75,0,0,1,.11,2.11,39,39,0,0,1-.44,4.07l-.31,2c-.11.67-.15,1.31-.33,2a17.19,17.19,0,0,1-1.6,3.79,100.84,100.84,0,0,1-9.2,13.45L99,42.9a2.35,2.35,0,0,1-.57.48,3.12,3.12,0,0,1-1.26.46,7.52,7.52,0,0,1-2.27,0,24.15,24.15,0,0,1-4.07-1c-2.62-.78-5.12-1.88-7.62-2.59-.59-.17-1.28-.25-1.95-.39l-2-.44q-2-.48-3.93-1.11A34.4,34.4,0,0,1,67.87,35.17Z"/><path class="cls-9" d="M72.45,32c3.34,2,9.21,3.2,12.36,3.57s11.5,4.17,13.32,2.28,9.2-10.1,9.61-13.55,1.93-9.57-2.09-9.35-18.38-.08-20.74-.36-9.38-1.82-11.12-.62.92,5.7-.11,7.68S71,31.07,72.45,32Z"/><path class="cls-8" d="M102,43.69c-.35,3,7.91,13.27,8.36,9.53s1.62-21.63-.25-21.85S102.34,40.88,102,43.69Z"/><path class="cls-4" d="M102.1,43.7a5.3,5.3,0,0,0,1.11,2.91,19.89,19.89,0,0,0,2,2.47c.72.78,1.46,1.54,2.19,2.26.36.37.72.73,1.09,1a5.63,5.63,0,0,0,1,.76c.16.07.16,0,0,.14s0,0,.08-.2c.11-.51.21-1,.31-1.57.19-1.06.37-2.13.47-3.2a42.08,42.08,0,0,0,.09-6.45l-.4-6.4a16.09,16.09,0,0,0-.46-3c0-.16-.2-.41-.09-.24a1,1,0,0,0,.28.15c.19,0,.15,0,.22,0s0,0,0,0a5.05,5.05,0,0,0-.94.82,25.82,25.82,0,0,0-2,2.35l-2,2.52a28.26,28.26,0,0,0-1.85,2.63A9,9,0,0,0,102.1,43.7Zm-.2,0a8.63,8.63,0,0,1,.41-1.59c.16-.52.36-1,.54-1.54.38-1,.76-2.06,1.2-3.07a20.69,20.69,0,0,1,3.52-5.67,5.93,5.93,0,0,1,1.53-1.25,2.23,2.23,0,0,1,.74-.23,1.4,1.4,0,0,1,.62.05,1.46,1.46,0,0,1,.38.18.77.77,0,0,1,.23.19,2.57,2.57,0,0,1,.61,1.2,17.5,17.5,0,0,1,.33,3.43,45.71,45.71,0,0,1-.39,6.53c-.24,2.16-.47,4.31-.53,6.47,0,1.08,0,2.16,0,3.25v1.64a1.67,1.67,0,0,1-.54,1.25,1.64,1.64,0,0,1-.43.24,2.17,2.17,0,0,1-.43.08,2.08,2.08,0,0,1-.66-.1,5.28,5.28,0,0,1-1.66-1,9.91,9.91,0,0,1-1.23-1.19,16.06,16.06,0,0,1-1.93-2.73,31.38,31.38,0,0,1-1.44-3c-.2-.51-.42-1-.57-1.54A4.53,4.53,0,0,1,101.9,43.67Z"/><path class="cls-9" d="M103.62,43.89c-.23,1.94,5.19,8.7,5.48,6.25s1.07-14.19-.16-14.33S103.84,42,103.62,43.89Z"/><polygon class="cls-10" points="0.07 0.07 0 112.23 9.31 112.23 9.38 9.38 0.07 0.07"/><polygon class="cls-11" points="0.07 0.07 112.23 0 112.23 9.31 9.38 9.38 0.07 0.07"/></g></g></svg>