<svg xmlns="http://www.w3.org/2000/svg" xmlns:xlink="http://www.w3.org/1999/xlink" viewBox="0 0 72.23 72.23"><defs><style>.cls-1,.cls-2,.cls-3,.cls-5{fill:none;}.cls-2,.cls-3{stroke:#c4c4c6;}.cls-2,.cls-3,.cls-5{stroke-miterlimit:10;}.cls-2{stroke-width:2px;}.cls-4{fill:#fff;}.cls-5{stroke:#414042;}.cls-6{fill:url(#New_Pattern_Swatch_12);}.cls-7{fill:url(#New_Pattern_Swatch_8);}.cls-8{fill:url(#New_Pattern_Swatch_8-3);}</style><pattern id="New_Pattern_Swatch_12" data-name="New Pattern Swatch 12" width="85.74" height="100.31" patternTransform="translate(7 90)" patternUnits="userSpaceOnUse" viewBox="0 0 85.74 100.31"><rect class="cls-1" width="85.74" height="100.31"/><path class="cls-2" d="M38.52,113.93q-10.41-8.62-21.36-16.57"/><path class="cls-2" d="M41.61,109.86a52,52,0,0,0-23-15.37"/><path class="cls-2" d="M70.79,121.5l-5.46-7.26c-1.48-2-.87-4.27-1.8-6.55a19.48,19.48,0,0,0-6.61-8.5"/><path class="cls-2" d="M53.33,97.07c-2.7.68-5.52.79-8.2,1.53-1.75.48-3.42,1.22-5.17,1.7a35.64,35.64,0,0,1-8.81.83"/><path class="cls-3" d="M20.43,96.86a47.27,47.27,0,0,0,8.05,6.7c2,1.21,4.19,2.12,6.28,3.19A13.55,13.55,0,0,1,39,109.86"/><path class="cls-3" d="M15.25,98.66c1.88,2,4.8,2.52,6.91,4.21a20.69,20.69,0,0,1,3.12,3.6,32.24,32.24,0,0,0,10.21,8.58"/><path class="cls-2" d="M121.62,60.25a83.94,83.94,0,0,1-36.81-7.13"/><path class="cls-2" d="M100.29,58.78c-7,8.1-11.19,14.62-15,24.61"/><path class="cls-2" d="M83.29,79.24a99.15,99.15,0,0,1,11,24.86"/><path class="cls-2" d="M101.22,8.9A64.92,64.92,0,0,0,95.06,13c-1.13.9-2.18,1.92-3.3,2.83a49.64,49.64,0,0,1-6.12,4"/><path class="cls-2" d="M95.18,4.06l-15.5,6.27"/><path class="cls-2" d="M96.85,6.32A84.84,84.84,0,0,1,81.4,15.78"/><path class="cls-3" d="M119.3,56.83c-6.83-1-14,.93-20.61-1.09-5.47-1.68-10.07-6-15.75-6.68"/><path class="cls-2" d="M39.92,30.73c6,5.56,13.73,8.75,20.9,12.66A108.82,108.82,0,0,1,76.51,53.83"/><path class="cls-2" d="M47.09,26.31l29.78,17"/><path class="cls-2" d="M41.91,27.75c7.18,4.69,14.4,9.4,22.23,12.92,5.35,2.41,11.25,4.47,14.77,9.17"/><path class="cls-2" d="M49.53,21.39c-5,6.32-6.67,8.63-13,13.58-3.38,2.64-7.12,5.31-8.53,9.36"/><path class="cls-2" d="M45.53,13.39C35.61,25.25,31.14,30.13,22.19,42.88"/><path class="cls-2" d="M41.07,8.25C33.89,17.5,22,31.6,15.53,41.39"/><path class="cls-2" d="M36.59,35.53A96.81,96.81,0,0,0,34.1,66.15"/><path class="cls-2" d="M42.06,33.53C39.18,42,38,55.42,37.53,64.39"/><path class="cls-2" d="M49.64,36.51a63.25,63.25,0,0,0-5,27.53"/><path class="cls-2" d="M33.5,46.34a55.22,55.22,0,0,1-27.25-10"/><path class="cls-2" d="M32.46,51.9l-17.3,0A10.46,10.46,0,0,1,11,51.37a10.37,10.37,0,0,1-3.29-2.69l-5.8-6.24"/><path class="cls-2" d="M35.88,60.25A83.94,83.94,0,0,1-.93,53.12"/><path class="cls-2" d="M48.53,38.39c5.85,11.75,14.29,25.18,20,37"/><path class="cls-2" d="M45.82,47.25a95.83,95.83,0,0,0,14,31.06"/><path class="cls-2" d="M58.88,44A96.54,96.54,0,0,1,76,71"/><path class="cls-2" d="M53.81,30.58a58.92,58.92,0,0,1-10-27.23"/><path class="cls-2" d="M59.42,31.32q-3.14-14-6.86-28"/><path class="cls-2" d="M64.06,35.55A89.86,89.86,0,0,0,63,6.56"/><path class="cls-2" d="M68.33,38.19c7.57-2.42,20.34-2.68,28.2-3.8"/><path class="cls-2" d="M63.06,29.22c9.14.16,22.35-2.27,31.47-2.83"/><path class="cls-2" d="M64.74,24.69c7.18-3.43,20.84-6.4,28.79-6.3"/><path class="cls-2" d="M12.9,39.26C10.23,29.07,9.31,24.89,8.53,14.39"/><path class="cls-2" d="M18.16,37.66a68.63,68.63,0,0,0-4-29.06"/><path class="cls-2" d="M25.79,27.86A37.23,37.23,0,0,1,20.23,9.18"/><path class="cls-2" d="M32.26,17.84C26.29,10.29,13.67,10,8.79,1.71"/><path class="cls-2" d="M38.52,13.62Q28.11,5,17.16-2.94"/><path class="cls-2" d="M41.61,9.55a52.1,52.1,0,0,0-23-15.37"/><path class="cls-2" d="M50.7,64.42l-25.84.68"/><path class="cls-2" d="M52.68,67.89a155.64,155.64,0,0,0-30.15,2.5"/><path class="cls-2" d="M54.09,70.4a77.34,77.34,0,0,0-32.71,6.28"/><path class="cls-2" d="M27.53,60.39c-3.4,6.11-6,17-10.08,24.78"/><path class="cls-2" d="M21.31,59.49c-4.93,11.41-7.74,18-13.78,28.9"/><path class="cls-2" d="M14.55,58.78c-7,8.1-11.19,14.62-15,24.61"/><path class="cls-2" d="M52.91,72.36a118.63,118.63,0,0,0-16.7,20.73"/><path class="cls-2" d="M56.78,75.73A33.71,33.71,0,0,0,42.3,96.17"/><path class="cls-2" d="M58.86,79.35A118.35,118.35,0,0,1,48.32,97.82"/><path class="cls-2" d="M35.38,72.54a27.74,27.74,0,0,0,6.14,12"/><path class="cls-2" d="M28.9,75.22c1.58,7.26,6.22,16.61,8.26,19.26"/><path class="cls-2" d="M23.15,75.65c.21,9.63,3.66,13.08,6,22.29"/><path class="cls-2" d="M82.23,35,76.5,66.63"/><path class="cls-2" d="M88.84,35.53c-4.31,12.24-5.5,13.91-6.31,26.86"/><path class="cls-2" d="M76.53,91.39c-10.56-2.83-9-3.83-19-8.19"/><path class="cls-2" d="M55.24,88.46c4.42,3.27,9.75,5,15,6.73,4.62,1.5,2.7,1.69,7.31,3.2"/><path class="cls-2" d="M51.45,94.84A63.62,63.62,0,0,0,64,100.57l13.08,4.84"/><path class="cls-2" d="M60.08,84.26a45.14,45.14,0,0,0,9-5c6.6-4.68,19.22-11.21,26.41-14.91"/><path class="cls-2" d="M67.38,87.36q7-3.18,13.86-6.6c3.22-1.6,6.53-3.32,8.73-6.17"/><path class="cls-2" d="M24.41,86c-4.08-.12-8.22-.24-12.19.73-2.36.57-5.45,1.69-9.69,1.68"/><path class="cls-2" d="M26.53,89.39c-5.07,1.9-14.92,4.09-20,6"/><path class="cls-2" d="M27,94.33c-4.95.66-14.19,4.48-18.47,7.06"/><path class="cls-2" d="M76.51,82.6c-.39,7.93-.74,16.16,2.27,23.51.62,1.52,1.38,3,2,4.5"/><path class="cls-2" d="M80.61,81.72a56.63,56.63,0,0,1,2.68,11.06c.21,2,.19,4.11.49,6.14.4,2.72,1.35,5.4,1.09,8.13"/><path class="cls-2" d="M-2.45,79.24a98.44,98.44,0,0,1,11,24.86"/><path class="cls-2" d="M59.11,78.93c6.47-2,13.26-4.42,17.61-9.63,1.52-1.81,2.67-3.9,4.12-5.77a22.87,22.87,0,0,1,9.89-7.31"/><path class="cls-2" d="M70.79,21.19l-5.46-7.25c-1.48-2-.87-4.28-1.8-6.55a19.51,19.51,0,0,0-6.61-8.51"/><path class="cls-2" d="M75,19.76c-1.23-4.29-4.56-7.86-5.22-12.27-.31-2,0-4.11-.6-6.07"/><path class="cls-2" d="M82.22,20.07c-.31-2.05-1.6-3.8-2.27-5.76a19.53,19.53,0,0,1-.8-4.43l-.56-5.4"/><path class="cls-2" d="M58,2.75A70,70,0,0,0,37,5.42"/><path class="cls-2" d="M53.33-3.24c-2.7.68-5.52.8-8.2,1.53C43.38-1.22,41.71-.48,40,0a35.17,35.17,0,0,1-8.81.83"/><path class="cls-2" d="M43.67,95.26a24.1,24.1,0,0,0-9,2.15c-1.82.83-3.66,1.91-5.65,1.76"/><path class="cls-2" d="M15.48,8.9A64.78,64.78,0,0,0,9.33,13c-1.14.9-2.18,1.92-3.31,2.83a48.89,48.89,0,0,1-6.12,4"/><path class="cls-2" d="M9.44,4.06-6,10.33"/><path class="cls-2" d="M11.11,6.32A85.1,85.1,0,0,1-4.33,15.78"/><path class="cls-3" d="M41.34,72l-3.4,6.15a3.08,3.08,0,0,1-1.15,1.36"/><path class="cls-3" d="M44.52,71l-3,5.62a8.88,8.88,0,0,0-.9,2.11c-.33,1.35,0,2.92-.9,4"/><path class="cls-3" d="M47,71.62a27.21,27.21,0,0,0-2.5,9.14"/><path class="cls-3" d="M49.24,71.29l-.88,5.64"/><path class="cls-3" d="M65.07,46.67v2.75"/><path class="cls-3" d="M68,47.13a35.75,35.75,0,0,0-.81,5"/><path class="cls-3" d="M71,50c-.35,2-2.18,3.63-2.31,5.69"/><path class="cls-3" d="M73.39,50.65c-.74,3.09-3.15,5.85-2.8,9"/><path class="cls-3" d="M76.49,54.08c-2.87,2.31-3.64,6.3-5.59,9.42"/><path class="cls-3" d="M78.26,57.26a8.41,8.41,0,0,0-3.05,3.66,27.93,27.93,0,0,1-2.29,4.24"/><path class="cls-3" d="M74.24,37.64A19.26,19.26,0,0,0,72,41"/><path class="cls-3" d="M76.43,37.68a47.68,47.68,0,0,0-2.37,4.54"/><path class="cls-3" d="M78.1,37.36a35.25,35.25,0,0,0-2.8,9.15"/><path class="cls-3" d="M79.93,36.9c-1.42,2.56-1.08,5.69-1.64,8.56a2.77,2.77,0,0,1-.82,1.7"/><path class="cls-3" d="M48.86,61A10.17,10.17,0,0,1,44,63.21"/><path class="cls-3" d="M48.42,57.87c-1.36.52-2.7,1.11-4,1.75"/><path class="cls-3" d="M46.87,55,45,55.53"/><path class="cls-3" d="M21.52,14.75a10.93,10.93,0,0,1,4.41-1.15"/><path class="cls-3" d="M20.57,17.44a25.28,25.28,0,0,1,9.34-1.65"/><path class="cls-3" d="M22.27,19.65c.06-.09-.17-.09-.15,0s.15.14.25.15a28,28,0,0,0,4.84.12,9.11,9.11,0,0,0,4.53-1.55"/><path class="cls-3" d="M23.49,23.13h6"/><path class="cls-3" d="M24,25a19.82,19.82,0,0,0,4.13.62"/><path class="cls-3" d="M32.59,38.21a10.74,10.74,0,0,0,2.66,3"/><path class="cls-3" d="M31.29,40.25c.68.41.84,1.36,1.48,1.82a10.24,10.24,0,0,0,1.11.52.89.89,0,0,1,.54,1"/><path class="cls-3" d="M28.69,41.93q2,1.66,3.82,3.52"/><path class="cls-3" d="M40,8.27A11.35,11.35,0,0,0,44,8"/><path class="cls-3" d="M39.39,6.77a18.42,18.42,0,0,0,4.44-.42"/><path class="cls-3" d="M67.83,22.77a12.08,12.08,0,0,0-4.75-.39"/><path class="cls-3" d="M68.41,18.72c-1-.72-3-.36-4.25-.65a4.28,4.28,0,0,0,2.41,2.4,7.73,7.73,0,0,1,2.87,2"/><path class="cls-3" d="M23,80.6h-2.6"/><path class="cls-3" d="M23.18,82H19.36"/><path class="cls-3" d="M24.56,84.73H19.67"/><path class="cls-3" d="M26.83,61.37A8.47,8.47,0,0,1,30,64.67"/><path class="cls-3" d="M29.62,61.49a8.93,8.93,0,0,0,3.19,3.38"/><path class="cls-3" d="M30.84,61a3.36,3.36,0,0,1,2.81,3"/><path class="cls-3" d="M76.3,63.44,74.18,67.2"/><path class="cls-3" d="M76.56,66.09l-.64,3.51"/><path class="cls-3" d="M70.69,86.57a6.16,6.16,0,0,0,1.15,3.33"/><path class="cls-3" d="M72.39,85.35l1.48,4.86"/><path class="cls-3" d="M74.1,84.42a14.1,14.1,0,0,0,1.62,4.93"/><path class="cls-3" d="M54.27,40.13,69.49,66.51l3.84,6.66"/><path class="cls-3" d="M46.5,44.77a46.42,46.42,0,0,1,5,9.18q5.38,11.7,11.88,22.84"/><path class="cls-3" d="M52.33,91.71Q64.42,98,76.74,103.76"/><path class="cls-3" d="M53.57,90.52c5.5,1.65,10.65,4.3,15.85,6.76q4,1.89,8.07,3.65"/><path class="cls-3" d="M57.83,77.6,52,88.72a44.41,44.41,0,0,1-2.6,4.49,22.38,22.38,0,0,1-4,4.39"/><path class="cls-3" d="M55,77.73l-4.2,8.68a57,57,0,0,1-3.08,5.77,42,42,0,0,1-4.45,5.59"/><path class="cls-3" d="M31.39,73.2c1.93,1,2.87,3.22,3.67,5.26l4,10.2"/><path class="cls-3" d="M26.12,75.56c.15,4.69,2.16,9.09,4.13,13.35l4,8.56"/><path class="cls-3" d="M45.25,36.27C45.16,44.2,40.73,51.51,40,59.41a11.81,11.81,0,0,0,.42,5"/><path class="cls-3" d="M56.86,2.65l1.79,30.27"/><path class="cls-3" d="M61.86,4.07c-2.37,4.69-2.71,10.16-2.24,15.39S61.33,29.84,62,35.05"/><path class="cls-3" d="M48.12,4.14l5.53,27.11"/><path class="cls-3" d="M94,19.39c-5.21-1.16-10.26,2.07-15.38,3.6-4.74,1.42-10,1.45-14.23,4,5.21.49,10.28-.56,15.33-1.87a88.17,88.17,0,0,1,15-2.54"/><path class="cls-3" d="M64.89,31.7a153.35,153.35,0,0,1,31.36-2.48"/><path class="cls-3" d="M64.3,34.6l22.83-1.83a28.21,28.21,0,0,0,9-1.72"/><path class="cls-3" d="M78.71,82.78l1.75,6.49a29.51,29.51,0,0,1,1,4.64c.18,1.57.11,3.16.14,4.75A37.83,37.83,0,0,0,83,108.24"/><path class="cls-3" d="M64.19,85.39a98.84,98.84,0,0,1,17.43-11A25.18,25.18,0,0,1,88,72c2.09-.42,4.61-.58,5.69-2.43"/><path class="cls-3" d="M17.17,59.7c-1.71,4.86-4.33,9.35-6.44,14S7,83.57,7.51,88.71"/><path class="cls-3" d="M14.94,59.33c-3.93,3.16-5.89,8.14-7.09,13S6.05,82.33,4.06,87"/><path class="cls-3" d="M22.19,60.44c-.58,3-2.15,5.71-3.34,8.53a36.21,36.21,0,0,0-2.77,16.51"/><path class="cls-3" d="M5,92.36a39,39,0,0,1,11.46-3.59c2.95-.44,6.05-.57,8.68-2"/><path class="cls-3" d="M1.77,40.14C9,42.73,15,48.22,22.34,50.32c1.61.45,3.26.74,4.83,1.3,2.07.74,4,1.94,6.09,2.51"/><path class="cls-3" d="M1.83,38c4.28,1.74,9.07,2.33,12.89,4.93,1.4,1,2.63,2.16,4.09,3a21.6,21.6,0,0,0,6.76,2.18l8.9,1.8"/><path class="cls-3" d="M33.57,56.83c-6.84-1-14,.93-20.61-1.09-5.48-1.68-10.07-6-15.76-6.68"/><path class="cls-3" d="M46.1,18.83c-4.57,5.82-11.32,9.75-15.44,15.9-2.23,3.33-3.7,7.33-6.87,9.79"/><path class="cls-3" d="M43.28,9.47c-3.1,2.43-6.29,5-8.18,8.42-1.05,1.91-1.66,4.05-2.73,5.95-2.12,3.77-5.83,6.31-8.82,9.44A30,30,0,0,0,17.74,42"/><path class="cls-3" d="M20.43-3.45a46.81,46.81,0,0,0,8.05,6.7c2,1.22,4.19,2.13,6.28,3.2A13.36,13.36,0,0,1,39,9.55"/><path class="cls-3" d="M15.25-1.64c1.88,2,4.8,2.51,6.91,4.21a20.63,20.63,0,0,1,3.12,3.59,32.24,32.24,0,0,0,10.21,8.58"/><path class="cls-3" d="M12.44.43a41.57,41.57,0,0,0,4,2.73l8,4.9a23.39,23.39,0,0,1,5.32,4c1,1.08,1.79,2.38,3.09,3"/><path class="cls-3" d="M15.06,39.31c.47-6.46.89-13.22-1.73-19.14C12.2,17.63,10.49,15,11.2,12.29"/><path class="cls-3" d="M78.39,20.05c-1.13-3-3-5.65-4.38-8.51s-2.42-6.1-1.74-9.22"/><path class="cls-3" d="M79.66,19.15C78.72,14.23,75.43,9.9,75,4.91"/><path class="cls-3" d="M72.72,73.42l7-6.08a27.61,27.61,0,0,1,4.9-3.65c3.85-2.08,8.69-2.42,11.82-5.48"/><path class="cls-2" d="M-17.41,38.19c7.57-2.42,20.34-2.68,28.21-3.8"/><path class="cls-2" d="M-22.68,29.22C-13.53,29.38-.33,27,8.8,26.39"/><path class="cls-2" d="M-21,24.69c7.18-3.43,20.83-6.4,28.79-6.3"/><path class="cls-2" d="M3.1,35.53C-1.2,47.77-2.4,49.44-3.2,62.39"/><path class="cls-2" d="M-25.65,84.26a45.34,45.34,0,0,0,9-5C-10,74.62,2.61,68.09,9.8,64.39"/><path class="cls-2" d="M-18.36,87.36q7-3.18,13.86-6.6c3.23-1.6,6.54-3.32,8.74-6.17"/><path class="cls-2" d="M-5.13,81.72A56,56,0,0,1-2.44,92.78c.21,2,.19,4.11.49,6.14.39,2.72,1.34,5.4,1.08,8.13"/><path class="cls-2" d="M-26.63,78.93c6.48-2,13.26-4.42,17.62-9.63,1.51-1.81,2.67-3.9,4.12-5.77A22.78,22.78,0,0,1,5,56.22"/><path class="cls-3" d="M8.22,19.39C3,18.23-2,21.46-7.17,23c-4.74,1.42-10,1.45-14.22,4,5.2.49,10.27-.56,15.33-1.87A88,88,0,0,1,9,22.56"/><path class="cls-3" d="M-20.85,31.7a153.45,153.45,0,0,1,31.37-2.48"/><path class="cls-3" d="M-21.44,34.6,1.39,32.77a28.33,28.33,0,0,0,9-1.72"/><path class="cls-3" d="M-21.54,85.39a98.11,98.11,0,0,1,17.43-11A25.11,25.11,0,0,1,2.22,72c2.1-.42,4.62-.58,5.69-2.43"/><path class="cls-3" d="M-13,73.42-6,67.34a28.36,28.36,0,0,1,4.9-3.65c3.85-2.08,8.69-2.42,11.82-5.48"/><path class="cls-2" d="M83.29-21.07a99.31,99.31,0,0,1,11,24.86"/><path class="cls-2" d="M51.45-5.47A63,63,0,0,0,64,.26L77.12,5.11"/><path class="cls-2" d="M27-6C22.05-5.32,12.81-1.5,8.53,1.08"/><path class="cls-2" d="M76.51-17.7c-.39,7.93-.74,16.16,2.27,23.51.62,1.52,1.38,3,2,4.49"/><path class="cls-2" d="M80.61-18.58a56.36,56.36,0,0,1,2.68,11c.21,2.05.19,4.11.49,6.15.4,2.71,1.35,5.39,1.09,8.12"/><path class="cls-2" d="M-2.45-21.07a98.6,98.6,0,0,1,11,24.86"/><path class="cls-3" d="M52.33-8.6Q64.42-2.34,76.74,3.45"/><path class="cls-3" d="M53.57-9.79C59.07-8.13,64.22-5.49,69.42-3q4,1.89,8.07,3.65"/><path class="cls-3" d="M78.71-17.53,80.46-11a29.75,29.75,0,0,1,1,4.64c.18,1.58.11,3.17.14,4.75A38,38,0,0,0,83,7.94"/><path class="cls-2" d="M-5.13-18.58a55.68,55.68,0,0,1,2.69,11c.21,2.05.19,4.11.49,6.15C-1.56,1.33-.61,4-.87,6.74"/></pattern><pattern id="New_Pattern_Swatch_8" data-name="New Pattern Swatch 8" width="144" height="153" patternTransform="translate(87.46 56.95)" patternUnits="userSpaceOnUse" viewBox="0 0 144 153"><rect class="cls-1" width="144" height="153"/><rect class="cls-4" x="125.97" y="152.5" width="36" height="153"/><path class="cls-5" d="M141.72,150.12c.26,26.4-.12,52.09-.21,78.5s.6,51.14.21,77.5"/><path class="cls-5" d="M143.1,152.12c.61,22.93-.31,73.57.24,110.46.21,14.63-.24,36.54-.24,43.54"/><path class="cls-5" d="M135.83,149.87l-.1,82.42,0,13.47,0,17.8c0,14.28.31,28.29.15,42.56"/><path class="cls-5" d="M131.55,152.12c-.25,26.4-.35,52.56-.26,79s-.13,50.67.26,77"/><path class="cls-5" d="M128.94,152.12c0,8-.63,21.23-.82,32-.29,16.43.35,32.58.69,49s-.06,32.68,0,49.09c0,9.77.15,18.91.15,24.91"/><path class="cls-5" d="M132.59,152.87l.1,82.42,0,13.47,0,17.8c0,14.28-.31,28.29-.15,42.56"/><rect class="cls-4" x="89.97" y="152.5" width="36" height="153"/><path class="cls-5" d="M105.72,150.12c.26,26.4-.12,52.09-.21,78.5s.6,51.14.21,77.5"/><path class="cls-5" d="M107.1,152.12c.61,22.93-.31,73.57.24,110.46.21,14.63-.24,36.54-.24,43.54"/><path class="cls-5" d="M108.82,151.12c0,8-.35,21.23-.16,32,.29,16.43.83,32.58.49,49S109,264.8,109,281.21c0,9.77-.15,18.91-.15,24.91"/><path class="cls-5" d="M99.83,149.87l-.1,82.42,0,13.47,0,17.8c0,14.28.31,28.29.15,42.56"/><path class="cls-5" d="M113.55,150.12c-.25,26.4-.35,52.56-.26,79s-.13,50.67.26,77"/><path class="cls-5" d="M112.18,152.12c-.62,23,.31,73.66-.24,110.46-.22,14.63.24,36.54.24,43.54"/><path class="cls-5" d="M110.94,151.12c0,8-.63,21.23-.82,32-.29,16.43.35,32.58.69,49s-.06,32.68,0,49.09c0,9.77.15,18.91.15,24.91"/><path class="cls-5" d="M114.59,150.87l.1,82.42,0,13.47,0,17.8c0,14.28-.31,28.29-.15,42.56"/><path class="cls-5" d="M117.83,152.87l-.1,82.42,0,13.47,0,17.8c0,14.28.31,28.29.15,42.56"/><path class="cls-5" d="M95.55,152.12c-.25,26.4-.35,52.56-.26,79s-.13,50.67.26,77"/><path class="cls-5" d="M92.94,152.12c0,8-.63,21.23-.82,32-.29,16.43.35,32.58.69,49s-.06,32.68,0,49.09c0,9.77.15,18.91.15,24.91"/><path class="cls-5" d="M96.59,152.87l.1,82.42,0,13.47,0,17.8c0,14.28-.31,28.29-.15,42.56"/><rect class="cls-4" x="53.97" y="152.5" width="36" height="153"/><path class="cls-5" d="M69.72,150.12c.26,26.4-.12,52.09-.21,78.5s.6,51.14.21,77.5"/><path class="cls-5" d="M71.1,152.12c.61,22.93-.31,73.57.24,110.46.21,14.63-.24,36.54-.24,43.54"/><path class="cls-5" d="M72.82,151.12c0,8-.35,21.23-.16,32,.29,16.43.83,32.58.49,49S73,264.8,73,281.21c0,9.77-.15,18.91-.15,24.91"/><path class="cls-5" d="M63.83,149.87l-.1,82.42,0,13.47,0,17.8c0,14.28.31,28.29.15,42.56"/><path class="cls-5" d="M77.55,150.12c-.25,26.4-.35,52.56-.26,79s-.13,50.67.26,77"/><path class="cls-5" d="M76.18,152.12c-.62,23,.31,73.66-.24,110.46-.22,14.63.24,36.54.24,43.54"/><path class="cls-5" d="M74.94,151.12c0,8-.63,21.23-.82,32-.29,16.43.35,32.58.69,49s-.06,32.68,0,49.09c0,9.77.15,18.91.15,24.91"/><path class="cls-5" d="M78.59,150.87l.1,82.42,0,13.47,0,17.8c0,14.28-.31,28.29-.15,42.56"/><path class="cls-5" d="M81.83,152.87l-.1,82.42,0,13.47,0,17.8c0,14.28.31,28.29.15,42.56"/><path class="cls-5" d="M59.55,152.12c-.25,26.4-.35,52.56-.26,79s-.13,50.67.26,77"/><path class="cls-5" d="M56.94,152.12c0,8-.63,21.23-.82,32-.29,16.43.35,32.58.69,49s-.06,32.68,0,49.09c0,9.77.15,18.91.15,24.91"/><path class="cls-5" d="M60.59,152.87l.1,82.42,0,13.47,0,17.8c0,14.28-.31,28.29-.15,42.56"/><rect class="cls-4" x="17.97" y="152.5" width="36" height="153"/><path class="cls-5" d="M33.72,150.12c.26,26.4-.12,52.09-.21,78.5s.6,51.14.21,77.5"/><path class="cls-5" d="M35.1,152.12c.61,22.93-.31,73.57.24,110.46.21,14.63-.24,36.54-.24,43.54"/><path class="cls-5" d="M36.82,151.12c0,8-.35,21.23-.16,32,.29,16.43.83,32.58.49,49S37,264.8,37,281.21c0,9.77-.15,18.91-.15,24.91"/><path class="cls-5" d="M27.83,149.87l-.1,82.42,0,13.47,0,17.8c0,14.28.31,28.29.15,42.56"/><path class="cls-5" d="M41.55,150.12c-.25,26.4-.35,52.56-.26,79s-.13,50.67.26,77"/><path class="cls-5" d="M40.18,152.12c-.62,23,.31,73.66-.24,110.46-.22,14.63.24,36.54.24,43.54"/><path class="cls-5" d="M38.94,151.12c0,8-.63,21.23-.82,32-.29,16.43.35,32.58.69,49s-.06,32.68,0,49.09c0,9.77.15,18.91.15,24.91"/><path class="cls-5" d="M42.59,150.87l.1,82.42,0,13.47,0,17.8c0,14.28-.31,28.29-.15,42.56"/><path class="cls-5" d="M45.83,152.87l-.1,82.42,0,13.47,0,17.8c0,14.28.31,28.29.15,42.56"/><path class="cls-5" d="M23.55,152.12c-.25,26.4-.35,52.56-.26,79s-.13,50.67.26,77"/><path class="cls-5" d="M20.94,152.12c0,8-.63,21.23-.82,32-.29,16.43.35,32.58.69,49s-.06,32.68,0,49.09c0,9.77.15,18.91.15,24.91"/><path class="cls-5" d="M24.59,152.87l.1,82.42,0,13.47,0,17.8c0,14.28-.31,28.29-.15,42.56"/><rect class="cls-4" x="-18.03" y="152.5" width="36" height="153"/><path class="cls-5" d="M.82,151.12c0,8-.35,21.23-.16,32,.29,16.43.83,32.58.49,49S1,264.8,1,281.21C1,291,.82,300.12.82,306.12"/><path class="cls-5" d="M5.55,150.12c-.25,26.4-.35,52.56-.26,79s-.13,50.67.26,77"/><path class="cls-5" d="M4.18,152.12c-.62,23,.31,73.66-.24,110.46-.22,14.63.24,36.54.24,43.54"/><path class="cls-5" d="M2.94,151.12c0,8-.63,21.23-.82,32-.29,16.43.35,32.58.69,49s-.06,32.68,0,49.09c0,9.77.15,18.91.15,24.91"/><path class="cls-5" d="M6.59,150.87l.1,82.42,0,13.47,0,17.8c0,14.28-.31,28.29-.15,42.56"/><path class="cls-5" d="M9.83,152.87l-.1,82.42,0,13.47,0,17.8c0,14.28.31,28.29.15,42.56"/><rect class="cls-4" x="125.97" y="-0.5" width="36" height="153"/><path class="cls-5" d="M137.08.12c.61,54.1.93,121,0,153"/><path class="cls-5" d="M140.35.12c.59,28.22-.32,52.87-.46,81.16-.13,26.41-.29,45.63.46,71.84"/><path class="cls-5" d="M141.72-2.88c.26,26.4-.12,52.09-.21,78.5s.6,51.14.21,77.5"/><path class="cls-5" d="M143.1-.88c.61,22.93-.31,73.57.24,110.46.21,14.63-.24,36.54-.24,43.54"/><path class="cls-5" d="M135.83-3.13l-.1,82.42,0,13.47,0,17.8c0,14.28.31,28.29.15,42.56"/><path class="cls-5" d="M139.15.12c-.62,54.1-.93,121,0,153"/><path class="cls-5" d="M126.82.12c0,8-.35,21.23-.16,32,.29,16.43.83,32.58.49,49S127,113.8,127,130.21c0,9.77-.15,18.91-.15,24.91"/><path class="cls-5" d="M133.9,1.12c-.59,28.22-.17,52.87,0,81.16.13,26.39.78,45.55,0,71.84"/><path class="cls-5" d="M131.55-.88c-.25,26.4-.35,52.56-.26,79s-.13,50.67.26,77"/><path class="cls-5" d="M130.18.12c-.62,23,.31,73.66-.24,110.46-.22,14.63.24,36.54.24,43.54"/><path class="cls-5" d="M128.94-.88c0,8-.63,21.23-.82,32-.29,16.43.35,32.58.69,49s-.06,32.68,0,49.09c0,9.77.15,18.91.15,24.91"/><path class="cls-5" d="M132.59-.13l.1,82.42,0,13.47,0,17.8c0,14.28-.31,28.29-.15,42.56"/><rect class="cls-4" x="89.97" y="-0.5" width="36" height="153"/><path class="cls-5" d="M101.08.12c.61,54.1.93,121,0,153"/><path class="cls-5" d="M104.35.12c.59,28.22-.32,52.87-.46,81.16-.13,26.41-.29,45.63.46,71.84"/><path class="cls-5" d="M105.72-2.88c.26,26.4-.12,52.09-.21,78.5s.6,51.14.21,77.5"/><path class="cls-5" d="M107.1-.88c.61,22.93-.31,73.57.24,110.46.21,14.63-.24,36.54-.24,43.54"/><path class="cls-5" d="M108.82-1.88c0,8-.35,21.23-.16,32,.29,16.43.83,32.58.49,49S109,111.8,109,128.21c0,9.77-.15,18.91-.15,24.91"/><path class="cls-5" d="M99.83-3.13l-.1,82.42,0,13.47,0,17.8c0,14.28.31,28.29.15,42.56"/><path class="cls-5" d="M103.15.12c-.62,54.1-.93,121,0,153"/><path class="cls-5" d="M115.9.12c-.59,28.22-.17,52.87,0,81.16.13,26.39.78,45.55,0,71.84"/><path class="cls-5" d="M113.55-2.88c-.25,26.4-.35,52.56-.26,79s-.13,50.67.26,77"/><path class="cls-5" d="M112.18-.88c-.62,23,.31,73.66-.24,110.46-.22,14.63.24,36.54.24,43.54"/><path class="cls-5" d="M110.94-1.88c0,8-.63,21.23-.82,32-.29,16.43.35,32.58.69,49s-.06,32.68,0,49.09c0,9.77.15,18.91.15,24.91"/><path class="cls-5" d="M114.59-2.13l.1,82.42,0,13.47,0,17.8c0,14.28-.31,28.29-.15,42.56"/><path class="cls-5" d="M119.08,2.12c.61,54.1.93,121,0,153"/><path class="cls-5" d="M122.35,2.12c.59,28.22-.32,52.87-.46,81.16-.13,26.41-.29,45.63.46,71.84"/><path class="cls-5" d="M123.72.12c.26,26.4-.12,52.09-.21,78.5s.6,51.14.21,77.5"/><path class="cls-5" d="M125.1,1.12c.61,22.93-.31,73.57.24,110.46.21,14.63-.24,36.54-.24,43.54"/><path class="cls-5" d="M90.82.12c0,8-.35,21.23-.16,32,.29,16.43.83,32.58.49,49S91,113.8,91,130.21c0,9.77-.15,18.91-.15,24.91"/><path class="cls-5" d="M117.83-.13l-.1,82.42,0,13.47,0,17.8c0,14.28.31,28.29.15,42.56"/><path class="cls-5" d="M121.15,1.12c-.62,54.1-.93,121,0,153"/><path class="cls-5" d="M97.9,1.12c-.59,28.22-.17,52.87,0,81.16.13,26.39.78,45.55,0,71.84"/><path class="cls-5" d="M95.55-.88c-.25,26.4-.35,52.56-.26,79s-.13,50.67.26,77"/><path class="cls-5" d="M94.18.12c-.62,23,.31,73.66-.24,110.46-.22,14.63.24,36.54.24,43.54"/><path class="cls-5" d="M92.94-.88c0,8-.63,21.23-.82,32-.29,16.43.35,32.58.69,49s-.06,32.68,0,49.09c0,9.77.15,18.91.15,24.91"/><path class="cls-5" d="M96.59-.13l.1,82.42,0,13.47,0,17.8c0,14.28-.31,28.29-.15,42.56"/><rect class="cls-4" x="53.97" y="-0.5" width="36" height="153"/><path class="cls-5" d="M65.08.12c.61,54.1.93,121,0,153"/><path class="cls-5" d="M68.35.12C68.94,28.34,68,53,67.89,81.28c-.13,26.41-.29,45.63.46,71.84"/><path class="cls-5" d="M69.72-2.88c.26,26.4-.12,52.09-.21,78.5s.6,51.14.21,77.5"/><path class="cls-5" d="M71.1-.88c.61,22.93-.31,73.57.24,110.46.21,14.63-.24,36.54-.24,43.54"/><path class="cls-5" d="M72.82-1.88c0,8-.35,21.23-.16,32,.29,16.43.83,32.58.49,49S73,111.8,73,128.21c0,9.77-.15,18.91-.15,24.91"/><path class="cls-5" d="M63.83-3.13l-.1,82.42,0,13.47,0,17.8c0,14.28.31,28.29.15,42.56"/><path class="cls-5" d="M67.15.12c-.62,54.1-.93,121,0,153"/><path class="cls-5" d="M79.9.12c-.59,28.22-.17,52.87,0,81.16.13,26.39.78,45.55,0,71.84"/><path class="cls-5" d="M77.55-2.88c-.25,26.4-.35,52.56-.26,79s-.13,50.67.26,77"/><path class="cls-5" d="M76.18-.88c-.62,23,.31,73.66-.24,110.46-.22,14.63.24,36.54.24,43.54"/><path class="cls-5" d="M74.94-1.88c0,8-.63,21.23-.82,32-.29,16.43.35,32.58.69,49s-.06,32.68,0,49.09c0,9.77.15,18.91.15,24.91"/><path class="cls-5" d="M78.59-2.13l.1,82.42,0,13.47,0,17.8c0,14.28-.31,28.29-.15,42.56"/><path class="cls-5" d="M83.08,2.12c.61,54.1.93,121,0,153"/><path class="cls-5" d="M86.35,2.12C86.94,30.34,86,55,85.89,83.28c-.13,26.41-.29,45.63.46,71.84"/><path class="cls-5" d="M87.72.12c.26,26.4-.12,52.09-.21,78.5s.6,51.14.21,77.5"/><path class="cls-5" d="M89.1,1.12c.61,22.93-.31,73.57.24,110.46.21,14.63-.24,36.54-.24,43.54"/><path class="cls-5" d="M54.82.12c0,8-.35,21.23-.16,32,.29,16.43.83,32.58.49,49S55,113.8,55,130.21c0,9.77-.15,18.91-.15,24.91"/><path class="cls-5" d="M81.83-.13l-.1,82.42,0,13.47,0,17.8c0,14.28.31,28.29.15,42.56"/><path class="cls-5" d="M85.15,1.12c-.62,54.1-.93,121,0,153"/><path class="cls-5" d="M61.9,1.12c-.59,28.22-.17,52.87,0,81.16.13,26.39.78,45.55,0,71.84"/><path class="cls-5" d="M59.55-.88c-.25,26.4-.35,52.56-.26,79s-.13,50.67.26,77"/><path class="cls-5" d="M58.18.12c-.62,23,.31,73.66-.24,110.46-.22,14.63.24,36.54.24,43.54"/><path class="cls-5" d="M56.94-.88c0,8-.63,21.23-.82,32-.29,16.43.35,32.58.69,49s-.06,32.68,0,49.09c0,9.77.15,18.91.15,24.91"/><path class="cls-5" d="M60.59-.13l.1,82.42,0,13.47,0,17.8c0,14.28-.31,28.29-.15,42.56"/><rect class="cls-4" x="17.97" y="-0.5" width="36" height="153"/><path class="cls-5" d="M29.08.12c.61,54.1.93,121,0,153"/><path class="cls-5" d="M32.35.12C32.94,28.34,32,53,31.89,81.28c-.13,26.41-.29,45.63.46,71.84"/><path class="cls-5" d="M33.72-2.88c.26,26.4-.12,52.09-.21,78.5s.6,51.14.21,77.5"/><path class="cls-5" d="M35.1-.88c.61,22.93-.31,73.57.24,110.46.21,14.63-.24,36.54-.24,43.54"/><path class="cls-5" d="M36.82-1.88c0,8-.35,21.23-.16,32,.29,16.43.83,32.58.49,49S37,111.8,37,128.21c0,9.77-.15,18.91-.15,24.91"/><path class="cls-5" d="M27.83-3.13l-.1,82.42,0,13.47,0,17.8c0,14.28.31,28.29.15,42.56"/><path class="cls-5" d="M31.15.12c-.62,54.1-.93,121,0,153"/><path class="cls-5" d="M43.9.12c-.59,28.22-.17,52.87,0,81.16.13,26.39.78,45.55,0,71.84"/><path class="cls-5" d="M41.55-2.88c-.25,26.4-.35,52.56-.26,79s-.13,50.67.26,77"/><path class="cls-5" d="M40.18-.88c-.62,23,.31,73.66-.24,110.46-.22,14.63.24,36.54.24,43.54"/><path class="cls-5" d="M38.94-1.88c0,8-.63,21.23-.82,32-.29,16.43.35,32.58.69,49s-.06,32.68,0,49.09c0,9.77.15,18.91.15,24.91"/><path class="cls-5" d="M42.59-2.13l.1,82.42,0,13.47,0,17.8c0,14.28-.31,28.29-.15,42.56"/><path class="cls-5" d="M47.08,2.12c.61,54.1.93,121,0,153"/><path class="cls-5" d="M50.35,2.12C50.94,30.34,50,55,49.89,83.28c-.13,26.41-.29,45.63.46,71.84"/><path class="cls-5" d="M51.72.12c.26,26.4-.12,52.09-.21,78.5s.6,51.14.21,77.5"/><path class="cls-5" d="M53.1,1.12c.61,22.93-.31,73.57.24,110.46.21,14.63-.24,36.54-.24,43.54"/><path class="cls-5" d="M18.82.12c0,8-.35,21.23-.16,32,.29,16.43.83,32.58.49,49S19,113.8,19,130.21c0,9.77-.15,18.91-.15,24.91"/><path class="cls-5" d="M45.83-.13l-.1,82.42,0,13.47,0,17.8c0,14.28.31,28.29.15,42.56"/><path class="cls-5" d="M49.15,1.12c-.62,54.1-.93,121,0,153"/><path class="cls-5" d="M25.9,1.12c-.59,28.22-.17,52.87,0,81.16.13,26.39.78,45.55,0,71.84"/><path class="cls-5" d="M23.55-.88c-.25,26.4-.35,52.56-.26,79s-.13,50.67.26,77"/><path class="cls-5" d="M22.18.12c-.62,23,.31,73.66-.24,110.46-.22,14.63.24,36.54.24,43.54"/><path class="cls-5" d="M20.94-.88c0,8-.63,21.23-.82,32-.29,16.43.35,32.58.69,49s-.06,32.68,0,49.09c0,9.77.15,18.91.15,24.91"/><path class="cls-5" d="M24.59-.13l.1,82.42,0,13.47,0,17.8c0,14.28-.31,28.29-.15,42.56"/><rect class="cls-4" x="-18.03" y="-0.5" width="36" height="153"/><path class="cls-5" d="M.82-1.88c0,8-.35,21.23-.16,32,.29,16.43.83,32.58.49,49S1,111.8,1,128.21C1,138,.82,147.12.82,153.12"/><path class="cls-5" d="M7.9.12c-.59,28.22-.17,52.87,0,81.16.13,26.39.78,45.55,0,71.84"/><path class="cls-5" d="M5.55-2.88c-.25,26.4-.35,52.56-.26,79s-.13,50.67.26,77"/><path class="cls-5" d="M4.18-.88c-.62,23,.31,73.66-.24,110.46-.22,14.63.24,36.54.24,43.54"/><path class="cls-5" d="M2.94-1.88c0,8-.63,21.23-.82,32-.29,16.43.35,32.58.69,49s-.06,32.68,0,49.09c0,9.77.15,18.91.15,24.91"/><path class="cls-5" d="M6.59-2.13l.1,82.42,0,13.47,0,17.8c0,14.28-.31,28.29-.15,42.56"/><path class="cls-5" d="M11.08,2.12c.61,54.1.93,121,0,153"/><path class="cls-5" d="M14.35,2.12C14.94,30.34,14,55,13.89,83.28c-.13,26.41-.29,45.63.46,71.84"/><path class="cls-5" d="M15.72.12c.26,26.4-.12,52.09-.21,78.5s.6,51.14.21,77.5"/><path class="cls-5" d="M17.1,1.12c.61,22.93-.31,73.57.24,110.46.21,14.63-.24,36.54-.24,43.54"/><path class="cls-5" d="M9.83-.13l-.1,82.42,0,13.47,0,17.8c0,14.28.31,28.29.15,42.56"/><path class="cls-5" d="M13.15,1.12c-.62,54.1-.93,121,0,153"/><path class="cls-5" d="M137.08-152.88c.61,54.1.93,121,0,153"/><path class="cls-5" d="M140.35-152.88c.59,28.22-.32,52.87-.46,81.16-.13,26.41-.29,45.63.46,71.84"/><path class="cls-5" d="M141.72-155.88c.26,26.4-.12,52.09-.21,78.5s.6,51.14.21,77.5"/><path class="cls-5" d="M143.1-153.88c.61,22.93-.31,73.57.24,110.46.21,14.63-.24,36.54-.24,43.54"/><path class="cls-5" d="M135.83-156.13l-.1,82.42,0,13.47,0,17.8c0,14.28.31,28.29.15,42.56"/><path class="cls-5" d="M139.15-152.88c-.62,54.1-.93,121,0,153"/><path class="cls-5" d="M126.82-152.88c0,8-.35,21.23-.16,32,.29,16.43.83,32.58.49,49S127-39.2,127-22.79c0,9.77-.15,18.91-.15,24.91"/><path class="cls-5" d="M133.9-151.88c-.59,28.22-.17,52.87,0,81.16.13,26.39.78,45.55,0,71.84"/><path class="cls-5" d="M131.55-153.88c-.25,26.4-.35,52.56-.26,79s-.13,50.67.26,77"/><path class="cls-5" d="M130.18-152.88c-.62,23,.31,73.66-.24,110.46-.22,14.63.24,36.54.24,43.54"/><path class="cls-5" d="M128.94-153.88c0,8-.63,21.23-.82,32-.29,16.43.35,32.58.69,49s-.06,32.68,0,49.09c0,9.77.15,18.91.15,24.91"/><path class="cls-5" d="M132.59-153.13l.1,82.42,0,13.47,0,17.8c0,14.28-.31,28.29-.15,42.56"/><path class="cls-5" d="M101.08-152.88c.61,54.1.93,121,0,153"/><path class="cls-5" d="M104.35-152.88c.59,28.22-.32,52.87-.46,81.16-.13,26.41-.29,45.63.46,71.84"/><path class="cls-5" d="M105.72-155.88c.26,26.4-.12,52.09-.21,78.5s.6,51.14.21,77.5"/><path class="cls-5" d="M107.1-153.88c.61,22.93-.31,73.57.24,110.46.21,14.63-.24,36.54-.24,43.54"/><path class="cls-5" d="M108.82-154.88c0,8-.35,21.23-.16,32,.29,16.43.83,32.58.49,49S109-41.2,109-24.79c0,9.77-.15,18.91-.15,24.91"/><path class="cls-5" d="M99.83-156.13l-.1,82.42,0,13.47,0,17.8c0,14.28.31,28.29.15,42.56"/><path class="cls-5" d="M103.15-152.88c-.62,54.1-.93,121,0,153"/><path class="cls-5" d="M115.9-152.88c-.59,28.22-.17,52.87,0,81.16.13,26.39.78,45.55,0,71.84"/><path class="cls-5" d="M113.55-155.88c-.25,26.4-.35,52.56-.26,79s-.13,50.67.26,77"/><path class="cls-5" d="M112.18-153.88c-.62,23,.31,73.66-.24,110.46-.22,14.63.24,36.54.24,43.54"/><path class="cls-5" d="M110.94-154.88c0,8-.63,21.23-.82,32-.29,16.43.35,32.58.69,49s-.06,32.68,0,49.09c0,9.77.15,18.91.15,24.91"/><path class="cls-5" d="M114.59-155.13l.1,82.42,0,13.47,0,17.8c0,14.28-.31,28.29-.15,42.56"/><path class="cls-5" d="M119.08-150.88c.61,54.1.93,121,0,153"/><path class="cls-5" d="M122.35-150.88c.59,28.22-.32,52.87-.46,81.16-.13,26.41-.29,45.63.46,71.84"/><path class="cls-5" d="M123.72-152.88c.26,26.4-.12,52.09-.21,78.5s.6,51.14.21,77.5"/><path class="cls-5" d="M125.1-151.88c.61,22.93-.31,73.57.24,110.46.21,14.63-.24,36.54-.24,43.54"/><path class="cls-5" d="M90.82-152.88c0,8-.35,21.23-.16,32,.29,16.43.83,32.58.49,49S91-39.2,91-22.79c0,9.77-.15,18.91-.15,24.91"/><path class="cls-5" d="M117.83-153.13l-.1,82.42,0,13.47,0,17.8c0,14.28.31,28.29.15,42.56"/><path class="cls-5" d="M121.15-151.88c-.62,54.1-.93,121,0,153"/><path class="cls-5" d="M97.9-151.88c-.59,28.22-.17,52.87,0,81.16.13,26.39.78,45.55,0,71.84"/><path class="cls-5" d="M95.55-153.88c-.25,26.4-.35,52.56-.26,79s-.13,50.67.26,77"/><path class="cls-5" d="M94.18-152.88c-.62,23,.31,73.66-.24,110.46-.22,14.63.24,36.54.24,43.54"/><path class="cls-5" d="M92.94-153.88c0,8-.63,21.23-.82,32-.29,16.43.35,32.58.69,49s-.06,32.68,0,49.09c0,9.77.15,18.91.15,24.91"/><path class="cls-5" d="M96.59-153.13l.1,82.42,0,13.47,0,17.8c0,14.28-.31,28.29-.15,42.56"/><path class="cls-5" d="M65.08-152.88c.61,54.1.93,121,0,153"/><path class="cls-5" d="M68.35-152.88c.59,28.22-.32,52.87-.46,81.16-.13,26.41-.29,45.63.46,71.84"/><path class="cls-5" d="M69.72-155.88c.26,26.4-.12,52.09-.21,78.5s.6,51.14.21,77.5"/><path class="cls-5" d="M71.1-153.88c.61,22.93-.31,73.57.24,110.46C71.55-28.79,71.1-6.88,71.1.12"/><path class="cls-5" d="M72.82-154.88c0,8-.35,21.23-.16,32,.29,16.43.83,32.58.49,49S73-41.2,73-24.79C73-15,72.82-5.88,72.82.12"/><path class="cls-5" d="M63.83-156.13l-.1,82.42,0,13.47,0,17.8c0,14.28.31,28.29.15,42.56"/><path class="cls-5" d="M67.15-152.88c-.62,54.1-.93,121,0,153"/><path class="cls-5" d="M79.9-152.88c-.59,28.22-.17,52.87,0,81.16.13,26.39.78,45.55,0,71.84"/><path class="cls-5" d="M77.55-155.88c-.25,26.4-.35,52.56-.26,79s-.13,50.67.26,77"/><path class="cls-5" d="M76.18-153.88c-.62,23,.31,73.66-.24,110.46-.22,14.63.24,36.54.24,43.54"/><path class="cls-5" d="M74.94-154.88c0,8-.63,21.23-.82,32-.29,16.43.35,32.58.69,49s-.06,32.68,0,49.09c0,9.77.15,18.91.15,24.91"/><path class="cls-5" d="M78.59-155.13l.1,82.42,0,13.47,0,17.8c0,14.28-.31,28.29-.15,42.56"/><path class="cls-5" d="M83.08-150.88c.61,54.1.93,121,0,153"/><path class="cls-5" d="M86.35-150.88c.59,28.22-.32,52.87-.46,81.16-.13,26.41-.29,45.63.46,71.84"/><path class="cls-5" d="M87.72-152.88c.26,26.4-.12,52.09-.21,78.5s.6,51.14.21,77.5"/><path class="cls-5" d="M89.1-151.88c.61,22.93-.31,73.57.24,110.46.21,14.63-.24,36.54-.24,43.54"/><path class="cls-5" d="M54.82-152.88c0,8-.35,21.23-.16,32,.29,16.43.83,32.58.49,49S55-39.2,55-22.79c0,9.77-.15,18.91-.15,24.91"/><path class="cls-5" d="M81.83-153.13l-.1,82.42,0,13.47,0,17.8c0,14.28.31,28.29.15,42.56"/><path class="cls-5" d="M85.15-151.88c-.62,54.1-.93,121,0,153"/><path class="cls-5" d="M61.9-151.88c-.59,28.22-.17,52.87,0,81.16.13,26.39.78,45.55,0,71.84"/><path class="cls-5" d="M59.55-153.88c-.25,26.4-.35,52.56-.26,79s-.13,50.67.26,77"/><path class="cls-5" d="M58.18-152.88c-.62,23,.31,73.66-.24,110.46-.22,14.63.24,36.54.24,43.54"/><path class="cls-5" d="M56.94-153.88c0,8-.63,21.23-.82,32-.29,16.43.35,32.58.69,49s-.06,32.68,0,49.09c0,9.77.15,18.91.15,24.91"/><path class="cls-5" d="M60.59-153.13l.1,82.42,0,13.47,0,17.8c0,14.28-.31,28.29-.15,42.56"/><path class="cls-5" d="M29.08-152.88c.61,54.1.93,121,0,153"/><path class="cls-5" d="M32.35-152.88c.59,28.22-.32,52.87-.46,81.16-.13,26.41-.29,45.63.46,71.84"/><path class="cls-5" d="M33.72-155.88c.26,26.4-.12,52.09-.21,78.5s.6,51.14.21,77.5"/><path class="cls-5" d="M35.1-153.88c.61,22.93-.31,73.57.24,110.46C35.55-28.79,35.1-6.88,35.1.12"/><path class="cls-5" d="M36.82-154.88c0,8-.35,21.23-.16,32,.29,16.43.83,32.58.49,49S37-41.2,37-24.79C37-15,36.82-5.88,36.82.12"/><path class="cls-5" d="M27.83-156.13l-.1,82.42,0,13.47,0,17.8c0,14.28.31,28.29.15,42.56"/><path class="cls-5" d="M31.15-152.88c-.62,54.1-.93,121,0,153"/><path class="cls-5" d="M43.9-152.88c-.59,28.22-.17,52.87,0,81.16.13,26.39.78,45.55,0,71.84"/><path class="cls-5" d="M41.55-155.88c-.25,26.4-.35,52.56-.26,79s-.13,50.67.26,77"/><path class="cls-5" d="M40.18-153.88c-.62,23,.31,73.66-.24,110.46-.22,14.63.24,36.54.24,43.54"/><path class="cls-5" d="M38.94-154.88c0,8-.63,21.23-.82,32-.29,16.43.35,32.58.69,49s-.06,32.68,0,49.09c0,9.77.15,18.91.15,24.91"/><path class="cls-5" d="M42.59-155.13l.1,82.42,0,13.47,0,17.8c0,14.28-.31,28.29-.15,42.56"/><path class="cls-5" d="M47.08-150.88c.61,54.1.93,121,0,153"/><path class="cls-5" d="M50.35-150.88c.59,28.22-.32,52.87-.46,81.16-.13,26.41-.29,45.63.46,71.84"/><path class="cls-5" d="M51.72-152.88c.26,26.4-.12,52.09-.21,78.5s.6,51.14.21,77.5"/><path class="cls-5" d="M53.1-151.88c.61,22.93-.31,73.57.24,110.46.21,14.63-.24,36.54-.24,43.54"/><path class="cls-5" d="M18.82-152.88c0,8-.35,21.23-.16,32,.29,16.43.83,32.58.49,49S19-39.2,19-22.79c0,9.77-.15,18.91-.15,24.91"/><path class="cls-5" d="M45.83-153.13l-.1,82.42,0,13.47,0,17.8c0,14.28.31,28.29.15,42.56"/><path class="cls-5" d="M49.15-151.88c-.62,54.1-.93,121,0,153"/><path class="cls-5" d="M25.9-151.88c-.59,28.22-.17,52.87,0,81.16.13,26.39.78,45.55,0,71.84"/><path class="cls-5" d="M23.55-153.88c-.25,26.4-.35,52.56-.26,79s-.13,50.67.26,77"/><path class="cls-5" d="M22.18-152.88c-.62,23,.31,73.66-.24,110.46-.22,14.63.24,36.54.24,43.54"/><path class="cls-5" d="M20.94-153.88c0,8-.63,21.23-.82,32-.29,16.43.35,32.58.69,49s-.06,32.68,0,49.09c0,9.77.15,18.91.15,24.91"/><path class="cls-5" d="M24.59-153.13l.1,82.42,0,13.47,0,17.8c0,14.28-.31,28.29-.15,42.56"/><path class="cls-5" d="M.82-154.88c0,8-.35,21.23-.16,32,.29,16.43.83,32.58.49,49S1-41.2,1-24.79C1-15,.82-5.88.82.12"/><path class="cls-5" d="M7.9-152.88c-.59,28.22-.17,52.87,0,81.16C8-45.33,8.65-26.17,7.9.12"/><path class="cls-5" d="M5.55-155.88c-.25,26.4-.35,52.56-.26,79s-.13,50.67.26,77"/><path class="cls-5" d="M4.18-153.88c-.62,23,.31,73.66-.24,110.46C3.72-28.79,4.18-6.88,4.18.12"/><path class="cls-5" d="M2.94-154.88c0,8-.63,21.23-.82,32-.29,16.43.35,32.58.69,49s-.06,32.68,0,49.09c0,9.77.15,18.91.15,24.91"/><path class="cls-5" d="M6.59-155.13l.1,82.42,0,13.47,0,17.8c0,14.28-.31,28.29-.15,42.56"/><path class="cls-5" d="M11.08-150.88c.61,54.1.93,121,0,153"/><path class="cls-5" d="M14.35-150.88c.59,28.22-.32,52.87-.46,81.16-.13,26.41-.29,45.63.46,71.84"/><path class="cls-5" d="M15.72-152.88c.26,26.4-.12,52.09-.21,78.5s.6,51.14.21,77.5"/><path class="cls-5" d="M17.1-151.88c.61,22.93-.31,73.57.24,110.46.21,14.63-.24,36.54-.24,43.54"/><path class="cls-5" d="M9.83-153.13l-.1,82.42,0,13.47,0,17.8c0,14.28.31,28.29.15,42.56"/><path class="cls-5" d="M13.15-151.88c-.62,54.1-.93,121,0,153"/></pattern><pattern id="New_Pattern_Swatch_8-3" data-name="New Pattern Swatch 8" width="144" height="153" patternTransform="matrix(0, 1, 1, 0, -145.05, 190.46)" patternUnits="userSpaceOnUse" viewBox="0 0 144 153"><rect class="cls-1" width="144" height="153"/><rect class="cls-4" x="125.97" y="152.5" width="36" height="153"/><path class="cls-5" d="M141.72,150.12c.26,26.4-.12,52.09-.21,78.5s.6,51.14.21,77.5"/><path class="cls-5" d="M143.1,152.12c.61,22.93-.31,73.57.24,110.46.21,14.63-.24,36.54-.24,43.54"/><path class="cls-5" d="M135.83,149.87l-.1,82.42,0,13.47,0,17.8c0,14.28.31,28.29.15,42.56"/><path class="cls-5" d="M131.55,152.12c-.25,26.4-.35,52.56-.26,79s-.13,50.67.26,77"/><path class="cls-5" d="M128.94,152.12c0,8-.63,21.23-.82,32-.29,16.43.35,32.58.69,49s-.06,32.68,0,49.09c0,9.77.15,18.91.15,24.91"/><path class="cls-5" d="M132.59,152.87l.1,82.42,0,13.47,0,17.8c0,14.28-.31,28.29-.15,42.56"/><rect class="cls-4" x="89.97" y="152.5" width="36" height="153"/><path class="cls-5" d="M105.72,150.12c.26,26.4-.12,52.09-.21,78.5s.6,51.14.21,77.5"/><path class="cls-5" d="M107.1,152.12c.61,22.93-.31,73.57.24,110.46.21,14.63-.24,36.54-.24,43.54"/><path class="cls-5" d="M108.82,151.12c0,8-.35,21.23-.16,32,.29,16.43.83,32.58.49,49S109,264.8,109,281.21c0,9.77-.15,18.91-.15,24.91"/><path class="cls-5" d="M99.83,149.87l-.1,82.42,0,13.47,0,17.8c0,14.28.31,28.29.15,42.56"/><path class="cls-5" d="M113.55,150.12c-.25,26.4-.35,52.56-.26,79s-.13,50.67.26,77"/><path class="cls-5" d="M112.18,152.12c-.62,23,.31,73.66-.24,110.46-.22,14.63.24,36.54.24,43.54"/><path class="cls-5" d="M110.94,151.12c0,8-.63,21.23-.82,32-.29,16.43.35,32.58.69,49s-.06,32.68,0,49.09c0,9.77.15,18.91.15,24.91"/><path class="cls-5" d="M114.59,150.87l.1,82.42,0,13.47,0,17.8c0,14.28-.31,28.29-.15,42.56"/><path class="cls-5" d="M117.83,152.87l-.1,82.42,0,13.47,0,17.8c0,14.28.31,28.29.15,42.56"/><path class="cls-5" d="M95.55,152.12c-.25,26.4-.35,52.56-.26,79s-.13,50.67.26,77"/><path class="cls-5" d="M92.94,152.12c0,8-.63,21.23-.82,32-.29,16.43.35,32.58.69,49s-.06,32.68,0,49.09c0,9.77.15,18.91.15,24.91"/><path class="cls-5" d="M96.59,152.87l.1,82.42,0,13.47,0,17.8c0,14.28-.31,28.29-.15,42.56"/><rect class="cls-4" x="53.97" y="152.5" width="36" height="153"/><path class="cls-5" d="M69.72,150.12c.26,26.4-.12,52.09-.21,78.5s.6,51.14.21,77.5"/><path class="cls-5" d="M71.1,152.12c.61,22.93-.31,73.57.24,110.46.21,14.63-.24,36.54-.24,43.54"/><path class="cls-5" d="M72.82,151.12c0,8-.35,21.23-.16,32,.29,16.43.83,32.58.49,49S73,264.8,73,281.21c0,9.77-.15,18.91-.15,24.91"/><path class="cls-5" d="M63.83,149.87l-.1,82.42,0,13.47,0,17.8c0,14.28.31,28.29.15,42.56"/><path class="cls-5" d="M77.55,150.12c-.25,26.4-.35,52.56-.26,79s-.13,50.67.26,77"/><path class="cls-5" d="M76.18,152.12c-.62,23,.31,73.66-.24,110.46-.22,14.63.24,36.54.24,43.54"/><path class="cls-5" d="M74.94,151.12c0,8-.63,21.23-.82,32-.29,16.43.35,32.58.69,49s-.06,32.68,0,49.09c0,9.77.15,18.91.15,24.91"/><path class="cls-5" d="M78.59,150.87l.1,82.42,0,13.47,0,17.8c0,14.28-.31,28.29-.15,42.56"/><path class="cls-5" d="M81.83,152.87l-.1,82.42,0,13.47,0,17.8c0,14.28.31,28.29.15,42.56"/><path class="cls-5" d="M59.55,152.12c-.25,26.4-.35,52.56-.26,79s-.13,50.67.26,77"/><path class="cls-5" d="M56.94,152.12c0,8-.63,21.23-.82,32-.29,16.43.35,32.58.69,49s-.06,32.68,0,49.09c0,9.77.15,18.91.15,24.91"/><path class="cls-5" d="M60.59,152.87l.1,82.42,0,13.47,0,17.8c0,14.28-.31,28.29-.15,42.56"/><rect class="cls-4" x="17.97" y="152.5" width="36" height="153"/><path class="cls-5" d="M33.72,150.12c.26,26.4-.12,52.09-.21,78.5s.6,51.14.21,77.5"/><path class="cls-5" d="M35.1,152.12c.61,22.93-.31,73.57.24,110.46.21,14.63-.24,36.54-.24,43.54"/><path class="cls-5" d="M36.82,151.12c0,8-.35,21.23-.16,32,.29,16.43.83,32.58.49,49S37,264.8,37,281.21c0,9.77-.15,18.91-.15,24.91"/><path class="cls-5" d="M27.83,149.87l-.1,82.42,0,13.47,0,17.8c0,14.28.31,28.29.15,42.56"/><path class="cls-5" d="M41.55,150.12c-.25,26.4-.35,52.56-.26,79s-.13,50.67.26,77"/><path class="cls-5" d="M40.18,152.12c-.62,23,.31,73.66-.24,110.46-.22,14.63.24,36.54.24,43.54"/><path class="cls-5" d="M38.94,151.12c0,8-.63,21.23-.82,32-.29,16.43.35,32.58.69,49s-.06,32.68,0,49.09c0,9.77.15,18.91.15,24.91"/><path class="cls-5" d="M42.59,150.87l.1,82.42,0,13.47,0,17.8c0,14.28-.31,28.29-.15,42.56"/><path class="cls-5" d="M45.83,152.87l-.1,82.42,0,13.47,0,17.8c0,14.28.31,28.29.15,42.56"/><path class="cls-5" d="M23.55,152.12c-.25,26.4-.35,52.56-.26,79s-.13,50.67.26,77"/><path class="cls-5" d="M20.94,152.12c0,8-.63,21.23-.82,32-.29,16.43.35,32.58.69,49s-.06,32.68,0,49.09c0,9.77.15,18.91.15,24.91"/><path class="cls-5" d="M24.59,152.87l.1,82.42,0,13.47,0,17.8c0,14.28-.31,28.29-.15,42.56"/><rect class="cls-4" x="-18.03" y="152.5" width="36" height="153"/><path class="cls-5" d="M.82,151.12c0,8-.35,21.23-.16,32,.29,16.43.83,32.58.49,49S1,264.8,1,281.21C1,291,.82,300.12.82,306.12"/><path class="cls-5" d="M5.55,150.12c-.25,26.4-.35,52.56-.26,79s-.13,50.67.26,77"/><path class="cls-5" d="M4.18,152.12c-.62,23,.31,73.66-.24,110.46-.22,14.63.24,36.54.24,43.54"/><path class="cls-5" d="M2.94,151.12c0,8-.63,21.23-.82,32-.29,16.43.35,32.58.69,49s-.06,32.68,0,49.09c0,9.77.15,18.91.15,24.91"/><path class="cls-5" d="M6.59,150.87l.1,82.42,0,13.47,0,17.8c0,14.28-.31,28.29-.15,42.56"/><path class="cls-5" d="M9.83,152.87l-.1,82.42,0,13.47,0,17.8c0,14.28.31,28.29.15,42.56"/><rect class="cls-4" x="125.97" y="-0.5" width="36" height="153"/><path class="cls-5" d="M137.08.12c.61,54.1.93,121,0,153"/><path class="cls-5" d="M140.35.12c.59,28.22-.32,52.87-.46,81.16-.13,26.41-.29,45.63.46,71.84"/><path class="cls-5" d="M141.72-2.88c.26,26.4-.12,52.09-.21,78.5s.6,51.14.21,77.5"/><path class="cls-5" d="M143.1-.88c.61,22.93-.31,73.57.24,110.46.21,14.63-.24,36.54-.24,43.54"/><path class="cls-5" d="M135.83-3.13l-.1,82.42,0,13.47,0,17.8c0,14.28.31,28.29.15,42.56"/><path class="cls-5" d="M139.15.12c-.62,54.1-.93,121,0,153"/><path class="cls-5" d="M126.82.12c0,8-.35,21.23-.16,32,.29,16.43.83,32.58.49,49S127,113.8,127,130.21c0,9.77-.15,18.91-.15,24.91"/><path class="cls-5" d="M133.9,1.12c-.59,28.22-.17,52.87,0,81.16.13,26.39.78,45.55,0,71.84"/><path class="cls-5" d="M131.55-.88c-.25,26.4-.35,52.56-.26,79s-.13,50.67.26,77"/><path class="cls-5" d="M130.18.12c-.62,23,.31,73.66-.24,110.46-.22,14.63.24,36.54.24,43.54"/><path class="cls-5" d="M128.94-.88c0,8-.63,21.23-.82,32-.29,16.43.35,32.58.69,49s-.06,32.68,0,49.09c0,9.77.15,18.91.15,24.91"/><path class="cls-5" d="M132.59-.13l.1,82.42,0,13.47,0,17.8c0,14.28-.31,28.29-.15,42.56"/><rect class="cls-4" x="89.97" y="-0.5" width="36" height="153"/><path class="cls-5" d="M101.08.12c.61,54.1.93,121,0,153"/><path class="cls-5" d="M104.35.12c.59,28.22-.32,52.87-.46,81.16-.13,26.41-.29,45.63.46,71.84"/><path class="cls-5" d="M105.72-2.88c.26,26.4-.12,52.09-.21,78.5s.6,51.14.21,77.5"/><path class="cls-5" d="M107.1-.88c.61,22.93-.31,73.57.24,110.46.21,14.63-.24,36.54-.24,43.54"/><path class="cls-5" d="M108.82-1.88c0,8-.35,21.23-.16,32,.29,16.43.83,32.58.49,49S109,111.8,109,128.21c0,9.77-.15,18.91-.15,24.91"/><path class="cls-5" d="M99.83-3.13l-.1,82.42,0,13.47,0,17.8c0,14.28.31,28.29.15,42.56"/><path class="cls-5" d="M103.15.12c-.62,54.1-.93,121,0,153"/><path class="cls-5" d="M115.9.12c-.59,28.22-.17,52.87,0,81.16.13,26.39.78,45.55,0,71.84"/><path class="cls-5" d="M113.55-2.88c-.25,26.4-.35,52.56-.26,79s-.13,50.67.26,77"/><path class="cls-5" d="M112.18-.88c-.62,23,.31,73.66-.24,110.46-.22,14.63.24,36.54.24,43.54"/><path class="cls-5" d="M110.94-1.88c0,8-.63,21.23-.82,32-.29,16.43.35,32.58.69,49s-.06,32.68,0,49.09c0,9.77.15,18.91.15,24.91"/><path class="cls-5" d="M114.59-2.13l.1,82.42,0,13.47,0,17.8c0,14.28-.31,28.29-.15,42.56"/><path class="cls-5" d="M119.08,2.12c.61,54.1.93,121,0,153"/><path class="cls-5" d="M122.35,2.12c.59,28.22-.32,52.87-.46,81.16-.13,26.41-.29,45.63.46,71.84"/><path class="cls-5" d="M123.72.12c.26,26.4-.12,52.09-.21,78.5s.6,51.14.21,77.5"/><path class="cls-5" d="M125.1,1.12c.61,22.93-.31,73.57.24,110.46.21,14.63-.24,36.54-.24,43.54"/><path class="cls-5" d="M90.82.12c0,8-.35,21.23-.16,32,.29,16.43.83,32.58.49,49S91,113.8,91,130.21c0,9.77-.15,18.91-.15,24.91"/><path class="cls-5" d="M117.83-.13l-.1,82.42,0,13.47,0,17.8c0,14.28.31,28.29.15,42.56"/><path class="cls-5" d="M121.15,1.12c-.62,54.1-.93,121,0,153"/><path class="cls-5" d="M97.9,1.12c-.59,28.22-.17,52.87,0,81.16.13,26.39.78,45.55,0,71.84"/><path class="cls-5" d="M95.55-.88c-.25,26.4-.35,52.56-.26,79s-.13,50.67.26,77"/><path class="cls-5" d="M94.18.12c-.62,23,.31,73.66-.24,110.46-.22,14.63.24,36.54.24,43.54"/><path class="cls-5" d="M92.94-.88c0,8-.63,21.23-.82,32-.29,16.43.35,32.58.69,49s-.06,32.68,0,49.09c0,9.77.15,18.91.15,24.91"/><path class="cls-5" d="M96.59-.13l.1,82.42,0,13.47,0,17.8c0,14.28-.31,28.29-.15,42.56"/><rect class="cls-4" x="53.97" y="-0.5" width="36" height="153"/><path class="cls-5" d="M65.08.12c.61,54.1.93,121,0,153"/><path class="cls-5" d="M68.35.12C68.94,28.34,68,53,67.89,81.28c-.13,26.41-.29,45.63.46,71.84"/><path class="cls-5" d="M69.72-2.88c.26,26.4-.12,52.09-.21,78.5s.6,51.14.21,77.5"/><path class="cls-5" d="M71.1-.88c.61,22.93-.31,73.57.24,110.46.21,14.63-.24,36.54-.24,43.54"/><path class="cls-5" d="M72.82-1.88c0,8-.35,21.23-.16,32,.29,16.43.83,32.58.49,49S73,111.8,73,128.21c0,9.77-.15,18.91-.15,24.91"/><path class="cls-5" d="M63.83-3.13l-.1,82.42,0,13.47,0,17.8c0,14.28.31,28.29.15,42.56"/><path class="cls-5" d="M67.15.12c-.62,54.1-.93,121,0,153"/><path class="cls-5" d="M79.9.12c-.59,28.22-.17,52.87,0,81.16.13,26.39.78,45.55,0,71.84"/><path class="cls-5" d="M77.55-2.88c-.25,26.4-.35,52.56-.26,79s-.13,50.67.26,77"/><path class="cls-5" d="M76.18-.88c-.62,23,.31,73.66-.24,110.46-.22,14.63.24,36.54.24,43.54"/><path class="cls-5" d="M74.94-1.88c0,8-.63,21.23-.82,32-.29,16.43.35,32.58.69,49s-.06,32.68,0,49.09c0,9.77.15,18.91.15,24.91"/><path class="cls-5" d="M78.59-2.13l.1,82.42,0,13.47,0,17.8c0,14.28-.31,28.29-.15,42.56"/><path class="cls-5" d="M83.08,2.12c.61,54.1.93,121,0,153"/><path class="cls-5" d="M86.35,2.12C86.94,30.34,86,55,85.89,83.28c-.13,26.41-.29,45.63.46,71.84"/><path class="cls-5" d="M87.72.12c.26,26.4-.12,52.09-.21,78.5s.6,51.14.21,77.5"/><path class="cls-5" d="M89.1,1.12c.61,22.93-.31,73.57.24,110.46.21,14.63-.24,36.54-.24,43.54"/><path class="cls-5" d="M54.82.12c0,8-.35,21.23-.16,32,.29,16.43.83,32.58.49,49S55,113.8,55,130.21c0,9.77-.15,18.91-.15,24.91"/><path class="cls-5" d="M81.83-.13l-.1,82.42,0,13.47,0,17.8c0,14.28.31,28.29.15,42.56"/><path class="cls-5" d="M85.15,1.12c-.62,54.1-.93,121,0,153"/><path class="cls-5" d="M61.9,1.12c-.59,28.22-.17,52.87,0,81.16.13,26.39.78,45.55,0,71.84"/><path class="cls-5" d="M59.55-.88c-.25,26.4-.35,52.56-.26,79s-.13,50.67.26,77"/><path class="cls-5" d="M58.18.12c-.62,23,.31,73.66-.24,110.46-.22,14.63.24,36.54.24,43.54"/><path class="cls-5" d="M56.94-.88c0,8-.63,21.23-.82,32-.29,16.43.35,32.58.69,49s-.06,32.68,0,49.09c0,9.77.15,18.91.15,24.91"/><path class="cls-5" d="M60.59-.13l.1,82.42,0,13.47,0,17.8c0,14.28-.31,28.29-.15,42.56"/><rect class="cls-4" x="17.97" y="-0.5" width="36" height="153"/><path class="cls-5" d="M29.08.12c.61,54.1.93,121,0,153"/><path class="cls-5" d="M32.35.12C32.94,28.34,32,53,31.89,81.28c-.13,26.41-.29,45.63.46,71.84"/><path class="cls-5" d="M33.72-2.88c.26,26.4-.12,52.09-.21,78.5s.6,51.14.21,77.5"/><path class="cls-5" d="M35.1-.88c.61,22.93-.31,73.57.24,110.46.21,14.63-.24,36.54-.24,43.54"/><path class="cls-5" d="M36.82-1.88c0,8-.35,21.23-.16,32,.29,16.43.83,32.58.49,49S37,111.8,37,128.21c0,9.77-.15,18.91-.15,24.91"/><path class="cls-5" d="M27.83-3.13l-.1,82.42,0,13.47,0,17.8c0,14.28.31,28.29.15,42.56"/><path class="cls-5" d="M31.15.12c-.62,54.1-.93,121,0,153"/><path class="cls-5" d="M43.9.12c-.59,28.22-.17,52.87,0,81.16.13,26.39.78,45.55,0,71.84"/><path class="cls-5" d="M41.55-2.88c-.25,26.4-.35,52.56-.26,79s-.13,50.67.26,77"/><path class="cls-5" d="M40.18-.88c-.62,23,.31,73.66-.24,110.46-.22,14.63.24,36.54.24,43.54"/><path class="cls-5" d="M38.94-1.88c0,8-.63,21.23-.82,32-.29,16.43.35,32.58.69,49s-.06,32.68,0,49.09c0,9.77.15,18.91.15,24.91"/><path class="cls-5" d="M42.59-2.13l.1,82.42,0,13.47,0,17.8c0,14.28-.31,28.29-.15,42.56"/><path class="cls-5" d="M47.08,2.12c.61,54.1.93,121,0,153"/><path class="cls-5" d="M50.35,2.12C50.94,30.34,50,55,49.89,83.28c-.13,26.41-.29,45.63.46,71.84"/><path class="cls-5" d="M51.72.12c.26,26.4-.12,52.09-.21,78.5s.6,51.14.21,77.5"/><path class="cls-5" d="M53.1,1.12c.61,22.93-.31,73.57.24,110.46.21,14.63-.24,36.54-.24,43.54"/><path class="cls-5" d="M18.82.12c0,8-.35,21.23-.16,32,.29,16.43.83,32.58.49,49S19,113.8,19,130.21c0,9.77-.15,18.91-.15,24.91"/><path class="cls-5" d="M45.83-.13l-.1,82.42,0,13.47,0,17.8c0,14.28.31,28.29.15,42.56"/><path class="cls-5" d="M49.15,1.12c-.62,54.1-.93,121,0,153"/><path class="cls-5" d="M25.9,1.12c-.59,28.22-.17,52.87,0,81.16.13,26.39.78,45.55,0,71.84"/><path class="cls-5" d="M23.55-.88c-.25,26.4-.35,52.56-.26,79s-.13,50.67.26,77"/><path class="cls-5" d="M22.18.12c-.62,23,.31,73.66-.24,110.46-.22,14.63.24,36.54.24,43.54"/><path class="cls-5" d="M20.94-.88c0,8-.63,21.23-.82,32-.29,16.43.35,32.58.69,49s-.06,32.68,0,49.09c0,9.77.15,18.91.15,24.91"/><path class="cls-5" d="M24.59-.13l.1,82.42,0,13.47,0,17.8c0,14.28-.31,28.29-.15,42.56"/><rect class="cls-4" x="-18.03" y="-0.5" width="36" height="153"/><path class="cls-5" d="M.82-1.88c0,8-.35,21.23-.16,32,.29,16.43.83,32.58.49,49S1,111.8,1,128.21C1,138,.82,147.12.82,153.12"/><path class="cls-5" d="M7.9.12c-.59,28.22-.17,52.87,0,81.16.13,26.39.78,45.55,0,71.84"/><path class="cls-5" d="M5.55-2.88c-.25,26.4-.35,52.56-.26,79s-.13,50.67.26,77"/><path class="cls-5" d="M4.18-.88c-.62,23,.31,73.66-.24,110.46-.22,14.63.24,36.54.24,43.54"/><path class="cls-5" d="M2.94-1.88c0,8-.63,21.23-.82,32-.29,16.43.35,32.58.69,49s-.06,32.68,0,49.09c0,9.77.15,18.91.15,24.91"/><path class="cls-5" d="M6.59-2.13l.1,82.42,0,13.47,0,17.8c0,14.28-.31,28.29-.15,42.56"/><path class="cls-5" d="M11.08,2.12c.61,54.1.93,121,0,153"/><path class="cls-5" d="M14.35,2.12C14.94,30.34,14,55,13.89,83.28c-.13,26.41-.29,45.63.46,71.84"/><path class="cls-5" d="M15.72.12c.26,26.4-.12,52.09-.21,78.5s.6,51.14.21,77.5"/><path class="cls-5" d="M17.1,1.12c.61,22.93-.31,73.57.24,110.46.21,14.63-.24,36.54-.24,43.54"/><path class="cls-5" d="M9.83-.13l-.1,82.42,0,13.47,0,17.8c0,14.28.31,28.29.15,42.56"/><path class="cls-5" d="M13.15,1.12c-.62,54.1-.93,121,0,153"/><path class="cls-5" d="M137.08-152.88c.61,54.1.93,121,0,153"/><path class="cls-5" d="M140.35-152.88c.59,28.22-.32,52.87-.46,81.16-.13,26.41-.29,45.63.46,71.84"/><path class="cls-5" d="M141.72-155.88c.26,26.4-.12,52.09-.21,78.5s.6,51.14.21,77.5"/><path class="cls-5" d="M143.1-153.88c.61,22.93-.31,73.57.24,110.46.21,14.63-.24,36.54-.24,43.54"/><path class="cls-5" d="M135.83-156.13l-.1,82.42,0,13.47,0,17.8c0,14.28.31,28.29.15,42.56"/><path class="cls-5" d="M139.15-152.88c-.62,54.1-.93,121,0,153"/><path class="cls-5" d="M126.82-152.88c0,8-.35,21.23-.16,32,.29,16.43.83,32.58.49,49S127-39.2,127-22.79c0,9.77-.15,18.91-.15,24.91"/><path class="cls-5" d="M133.9-151.88c-.59,28.22-.17,52.87,0,81.16.13,26.39.78,45.55,0,71.84"/><path class="cls-5" d="M131.55-153.88c-.25,26.4-.35,52.56-.26,79s-.13,50.67.26,77"/><path class="cls-5" d="M130.18-152.88c-.62,23,.31,73.66-.24,110.46-.22,14.63.24,36.54.24,43.54"/><path class="cls-5" d="M128.94-153.88c0,8-.63,21.23-.82,32-.29,16.43.35,32.58.69,49s-.06,32.68,0,49.09c0,9.77.15,18.91.15,24.91"/><path class="cls-5" d="M132.59-153.13l.1,82.42,0,13.47,0,17.8c0,14.28-.31,28.29-.15,42.56"/><path class="cls-5" d="M101.08-152.88c.61,54.1.93,121,0,153"/><path class="cls-5" d="M104.35-152.88c.59,28.22-.32,52.87-.46,81.16-.13,26.41-.29,45.63.46,71.84"/><path class="cls-5" d="M105.72-155.88c.26,26.4-.12,52.09-.21,78.5s.6,51.14.21,77.5"/><path class="cls-5" d="M107.1-153.88c.61,22.93-.31,73.57.24,110.46.21,14.63-.24,36.54-.24,43.54"/><path class="cls-5" d="M108.82-154.88c0,8-.35,21.23-.16,32,.29,16.43.83,32.58.49,49S109-41.2,109-24.79c0,9.77-.15,18.91-.15,24.91"/><path class="cls-5" d="M99.83-156.13l-.1,82.42,0,13.47,0,17.8c0,14.28.31,28.29.15,42.56"/><path class="cls-5" d="M103.15-152.88c-.62,54.1-.93,121,0,153"/><path class="cls-5" d="M115.9-152.88c-.59,28.22-.17,52.87,0,81.16.13,26.39.78,45.55,0,71.84"/><path class="cls-5" d="M113.55-155.88c-.25,26.4-.35,52.56-.26,79s-.13,50.67.26,77"/><path class="cls-5" d="M112.18-153.88c-.62,23,.31,73.66-.24,110.46-.22,14.63.24,36.54.24,43.54"/><path class="cls-5" d="M110.94-154.88c0,8-.63,21.23-.82,32-.29,16.43.35,32.58.69,49s-.06,32.68,0,49.09c0,9.77.15,18.91.15,24.91"/><path class="cls-5" d="M114.59-155.13l.1,82.42,0,13.47,0,17.8c0,14.28-.31,28.29-.15,42.56"/><path class="cls-5" d="M119.08-150.88c.61,54.1.93,121,0,153"/><path class="cls-5" d="M122.35-150.88c.59,28.22-.32,52.87-.46,81.16-.13,26.41-.29,45.63.46,71.84"/><path class="cls-5" d="M123.72-152.88c.26,26.4-.12,52.09-.21,78.5s.6,51.14.21,77.5"/><path class="cls-5" d="M125.1-151.88c.61,22.93-.31,73.57.24,110.46.21,14.63-.24,36.54-.24,43.54"/><path class="cls-5" d="M90.82-152.88c0,8-.35,21.23-.16,32,.29,16.43.83,32.58.49,49S91-39.2,91-22.79c0,9.77-.15,18.91-.15,24.91"/><path class="cls-5" d="M117.83-153.13l-.1,82.42,0,13.47,0,17.8c0,14.28.31,28.29.15,42.56"/><path class="cls-5" d="M121.15-151.88c-.62,54.1-.93,121,0,153"/><path class="cls-5" d="M97.9-151.88c-.59,28.22-.17,52.87,0,81.16.13,26.39.78,45.55,0,71.84"/><path class="cls-5" d="M95.55-153.88c-.25,26.4-.35,52.56-.26,79s-.13,50.67.26,77"/><path class="cls-5" d="M94.18-152.88c-.62,23,.31,73.66-.24,110.46-.22,14.63.24,36.54.24,43.54"/><path class="cls-5" d="M92.94-153.88c0,8-.63,21.23-.82,32-.29,16.43.35,32.58.69,49s-.06,32.68,0,49.09c0,9.77.15,18.91.15,24.91"/><path class="cls-5" d="M96.59-153.13l.1,82.42,0,13.47,0,17.8c0,14.28-.31,28.29-.15,42.56"/><path class="cls-5" d="M65.08-152.88c.61,54.1.93,121,0,153"/><path class="cls-5" d="M68.35-152.88c.59,28.22-.32,52.87-.46,81.16-.13,26.41-.29,45.63.46,71.84"/><path class="cls-5" d="M69.72-155.88c.26,26.4-.12,52.09-.21,78.5s.6,51.14.21,77.5"/><path class="cls-5" d="M71.1-153.88c.61,22.93-.31,73.57.24,110.46C71.55-28.79,71.1-6.88,71.1.12"/><path class="cls-5" d="M72.82-154.88c0,8-.35,21.23-.16,32,.29,16.43.83,32.58.49,49S73-41.2,73-24.79C73-15,72.82-5.88,72.82.12"/><path class="cls-5" d="M63.83-156.13l-.1,82.42,0,13.47,0,17.8c0,14.28.31,28.29.15,42.56"/><path class="cls-5" d="M67.15-152.88c-.62,54.1-.93,121,0,153"/><path class="cls-5" d="M79.9-152.88c-.59,28.22-.17,52.87,0,81.16.13,26.39.78,45.55,0,71.84"/><path class="cls-5" d="M77.55-155.88c-.25,26.4-.35,52.56-.26,79s-.13,50.67.26,77"/><path class="cls-5" d="M76.18-153.88c-.62,23,.31,73.66-.24,110.46-.22,14.63.24,36.54.24,43.54"/><path class="cls-5" d="M74.94-154.88c0,8-.63,21.23-.82,32-.29,16.43.35,32.58.69,49s-.06,32.68,0,49.09c0,9.77.15,18.91.15,24.91"/><path class="cls-5" d="M78.59-155.13l.1,82.42,0,13.47,0,17.8c0,14.28-.31,28.29-.15,42.56"/><path class="cls-5" d="M83.08-150.88c.61,54.1.93,121,0,153"/><path class="cls-5" d="M86.35-150.88c.59,28.22-.32,52.87-.46,81.16-.13,26.41-.29,45.63.46,71.84"/><path class="cls-5" d="M87.72-152.88c.26,26.4-.12,52.09-.21,78.5s.6,51.14.21,77.5"/><path class="cls-5" d="M89.1-151.88c.61,22.93-.31,73.57.24,110.46.21,14.63-.24,36.54-.24,43.54"/><path class="cls-5" d="M54.82-152.88c0,8-.35,21.23-.16,32,.29,16.43.83,32.58.49,49S55-39.2,55-22.79c0,9.77-.15,18.91-.15,24.91"/><path class="cls-5" d="M81.83-153.13l-.1,82.42,0,13.47,0,17.8c0,14.28.31,28.29.15,42.56"/><path class="cls-5" d="M85.15-151.88c-.62,54.1-.93,121,0,153"/><path class="cls-5" d="M61.9-151.88c-.59,28.22-.17,52.87,0,81.16.13,26.39.78,45.55,0,71.84"/><path class="cls-5" d="M59.55-153.88c-.25,26.4-.35,52.56-.26,79s-.13,50.67.26,77"/><path class="cls-5" d="M58.18-152.88c-.62,23,.31,73.66-.24,110.46-.22,14.63.24,36.54.24,43.54"/><path class="cls-5" d="M56.94-153.88c0,8-.63,21.23-.82,32-.29,16.43.35,32.58.69,49s-.06,32.68,0,49.09c0,9.77.15,18.91.15,24.91"/><path class="cls-5" d="M60.59-153.13l.1,82.42,0,13.47,0,17.8c0,14.28-.31,28.29-.15,42.56"/><path class="cls-5" d="M29.08-152.88c.61,54.1.93,121,0,153"/><path class="cls-5" d="M32.35-152.88c.59,28.22-.32,52.87-.46,81.16-.13,26.41-.29,45.63.46,71.84"/><path class="cls-5" d="M33.72-155.88c.26,26.4-.12,52.09-.21,78.5s.6,51.14.21,77.5"/><path class="cls-5" d="M35.1-153.88c.61,22.93-.31,73.57.24,110.46C35.55-28.79,35.1-6.88,35.1.12"/><path class="cls-5" d="M36.82-154.88c0,8-.35,21.23-.16,32,.29,16.43.83,32.58.49,49S37-41.2,37-24.79C37-15,36.82-5.88,36.82.12"/><path class="cls-5" d="M27.83-156.13l-.1,82.42,0,13.47,0,17.8c0,14.28.31,28.29.15,42.56"/><path class="cls-5" d="M31.15-152.88c-.62,54.1-.93,121,0,153"/><path class="cls-5" d="M43.9-152.88c-.59,28.22-.17,52.87,0,81.16.13,26.39.78,45.55,0,71.84"/><path class="cls-5" d="M41.55-155.88c-.25,26.4-.35,52.56-.26,79s-.13,50.67.26,77"/><path class="cls-5" d="M40.18-153.88c-.62,23,.31,73.66-.24,110.46-.22,14.63.24,36.54.24,43.54"/><path class="cls-5" d="M38.94-154.88c0,8-.63,21.23-.82,32-.29,16.43.35,32.58.69,49s-.06,32.68,0,49.09c0,9.77.15,18.91.15,24.91"/><path class="cls-5" d="M42.59-155.13l.1,82.42,0,13.47,0,17.8c0,14.28-.31,28.29-.15,42.56"/><path class="cls-5" d="M47.08-150.88c.61,54.1.93,121,0,153"/><path class="cls-5" d="M50.35-150.88c.59,28.22-.32,52.87-.46,81.16-.13,26.41-.29,45.63.46,71.84"/><path class="cls-5" d="M51.72-152.88c.26,26.4-.12,52.09-.21,78.5s.6,51.14.21,77.5"/><path class="cls-5" d="M53.1-151.88c.61,22.93-.31,73.57.24,110.46.21,14.63-.24,36.54-.24,43.54"/><path class="cls-5" d="M18.82-152.88c0,8-.35,21.23-.16,32,.29,16.43.83,32.58.49,49S19-39.2,19-22.79c0,9.77-.15,18.91-.15,24.91"/><path class="cls-5" d="M45.83-153.13l-.1,82.42,0,13.47,0,17.8c0,14.28.31,28.29.15,42.56"/><path class="cls-5" d="M49.15-151.88c-.62,54.1-.93,121,0,153"/><path class="cls-5" d="M25.9-151.88c-.59,28.22-.17,52.87,0,81.16.13,26.39.78,45.55,0,71.84"/><path class="cls-5" d="M23.55-153.88c-.25,26.4-.35,52.56-.26,79s-.13,50.67.26,77"/><path class="cls-5" d="M22.18-152.88c-.62,23,.31,73.66-.24,110.46-.22,14.63.24,36.54.24,43.54"/><path class="cls-5" d="M20.94-153.88c0,8-.63,21.23-.82,32-.29,16.43.35,32.58.69,49s-.06,32.68,0,49.09c0,9.77.15,18.91.15,24.91"/><path class="cls-5" d="M24.59-153.13l.1,82.42,0,13.47,0,17.8c0,14.28-.31,28.29-.15,42.56"/><path class="cls-5" d="M.82-154.88c0,8-.35,21.23-.16,32,.29,16.43.83,32.58.49,49S1-41.2,1-24.79C1-15,.82-5.88.82.12"/><path class="cls-5" d="M7.9-152.88c-.59,28.22-.17,52.87,0,81.16C8-45.33,8.65-26.17,7.9.12"/><path class="cls-5" d="M5.55-155.88c-.25,26.4-.35,52.56-.26,79s-.13,50.67.26,77"/><path class="cls-5" d="M4.18-153.88c-.62,23,.31,73.66-.24,110.46C3.72-28.79,4.18-6.88,4.18.12"/><path class="cls-5" d="M2.94-154.88c0,8-.63,21.23-.82,32-.29,16.43.35,32.58.69,49s-.06,32.68,0,49.09c0,9.77.15,18.91.15,24.91"/><path class="cls-5" d="M6.59-155.13l.1,82.42,0,13.47,0,17.8c0,14.28-.31,28.29-.15,42.56"/><path class="cls-5" d="M11.08-150.88c.61,54.1.93,121,0,153"/><path class="cls-5" d="M14.35-150.88c.59,28.22-.32,52.87-.46,81.16-.13,26.41-.29,45.63.46,71.84"/><path class="cls-5" d="M15.72-152.88c.26,26.4-.12,52.09-.21,78.5s.6,51.14.21,77.5"/><path class="cls-5" d="M17.1-151.88c.61,22.93-.31,73.57.24,110.46.21,14.63-.24,36.54-.24,43.54"/><path class="cls-5" d="M9.83-153.13l-.1,82.42,0,13.47,0,17.8c0,14.28.31,28.29.15,42.56"/><path class="cls-5" d="M13.15-151.88c-.62,54.1-.93,121,0,153"/></pattern></defs><title>tile2</title><g id="Layer_2" data-name="Layer 2"><g id="Layer_1-2" data-name="Layer 1"><rect class="cls-6" x="0.23" y="0.23" width="72" height="72"/><polygon class="cls-7" points="0.23 0 0.23 72.23 6.23 72.23 6.23 6 0.23 0"/><polygon class="cls-8" points="0 0.23 72.23 0.23 72.23 6.23 6 6.23 0 0.23"/></g></g></svg>